<svg xmlns="http://www.w3.org/2000/svg" xmlns:xlink="http://www.w3.org/1999/xlink" viewBox="0 0 75.84 15.22"><defs><style>.cls-1{fill:none;}.cls-2{fill:#fff;}.cls-3{clip-path:url(#clip-path);}.cls-4{clip-path:url(#clip-path-3);}.cls-5{clip-path:url(#clip-path-4);}.cls-6{fill:#adafb1;}.cls-7{fill:#acaeb0;}.cls-8{fill:#abadaf;}.cls-9{fill:#aaacae;}.cls-10{fill:#a9abad;}.cls-11{fill:#a8aaac;}.cls-12{fill:#a7a9ab;}.cls-13{fill:#a6a8aa;}.cls-14{fill:#a5a7a9;}.cls-15{fill:#a4a6a8;}.cls-16{fill:#a3a5a7;}.cls-17{fill:#a2a4a6;}.cls-18{fill:#a1a3a5;}.cls-19{fill:#a0a2a4;}.cls-20{fill:#9fa1a3;}.cls-21{fill:#9ea0a2;}.cls-22{fill:#9d9fa1;}.cls-23{fill:#9c9ea0;}.cls-24{fill:#9b9d9f;}.cls-25{fill:#999b9e;}.cls-26{fill:#989a9d;}.cls-27{fill:#97999c;}.cls-28{fill:#96989b;}.cls-29{fill:#95979a;}.cls-30{fill:#949699;}.cls-31{fill:#939598;}.cls-32{fill:#929497;}.cls-33{fill:#919396;}.cls-34{fill:#909295;}.cls-35{fill:#8f9194;}.cls-36{fill:#8e9093;}.cls-37{fill:#8d8f92;}.cls-38{fill:#8c8e91;}.cls-39{fill:#8b8d90;}.cls-40{fill:#8a8c8f;}.cls-41{fill:#898b8e;}.cls-42{fill:#888a8d;}.cls-43{fill:#87898c;}.cls-44{clip-path:url(#clip-path-6);}.cls-45{clip-path:url(#clip-path-7);}.cls-46{fill:#babcbe;}.cls-47{fill:#b9bbbd;}.cls-48{fill:#b8babc;}.cls-49{fill:#b7b9bb;}.cls-50{fill:#b5b7b9;}.cls-51{fill:#b4b6b8;}.cls-52{fill:#b3b5b7;}.cls-53{fill:#b2b4b6;}.cls-54{clip-path:url(#clip-path-9);}.cls-55{clip-path:url(#clip-path-10);}.cls-56{fill:#6e6f72;}.cls-57{fill:#6d6e71;}.cls-58{fill:#6c6d70;}.cls-59{fill:#6b6c6f;}.cls-60{fill:#6a6b6e;}.cls-61{fill:#696a6c;}.cls-62{fill:#68696b;}.cls-63{fill:#67686a;}.cls-64{fill:#666769;}.cls-65{fill:#656668;}.cls-66{clip-path:url(#clip-path-12);}.cls-67{clip-path:url(#clip-path-13);}.cls-68{fill:#9fa1a4;}.cls-69{fill:#9ea0a3;}.cls-70{fill:#9d9fa2;}.cls-71{fill:#9c9ea1;}.cls-72{fill:#9b9da0;}.cls-73{fill:#9a9c9f;}.cls-74{fill:#8c8d90;}.cls-75{fill:#8b8c8f;}.cls-76{fill:#8a8b8e;}.cls-77{fill:#898a8d;}.cls-78{fill:#88898c;}.cls-79{fill:#87888b;}.cls-80{fill:#86878a;}.cls-81{fill:#858689;}.cls-82{fill:#848588;}.cls-83{fill:#838487;}.cls-84{fill:#828386;}.cls-85{fill:#818285;}.cls-86{fill:#808184;}.cls-87{fill:#7f8083;}.cls-88{fill:#7e7f82;}.cls-89{fill:#7d7e81;}.cls-90{fill:#7c7d80;}.cls-91{fill:#7b7c7f;}.cls-92{fill:#7a7b7e;}.cls-93{fill:#8f9193;}.cls-94{clip-path:url(#clip-path-15);}.cls-95{clip-path:url(#clip-path-16);}.cls-96{fill:#959699;}.cls-97{fill:#929396;}.cls-98{fill:#8f9093;}.cls-99{fill:#7f8184;}</style><clipPath id="clip-path" transform="translate(-1.44 -0.67)"><rect class="cls-1" width="16.55" height="16.55"/></clipPath><clipPath id="clip-path-3" transform="translate(-1.44 -0.67)"><path class="cls-1" d="M8.35,9.73s-.09,1.73,2.36,1.73A3.53,3.53,0,0,0,12.56,11,3.4,3.4,0,0,0,9.88,8.61Z"/></clipPath><clipPath id="clip-path-4" transform="translate(-1.44 -0.67)"><rect class="cls-1" x="8.3" y="7.52" width="4.22" height="5.05" transform="translate(-2.72 16.1) rotate(-68.74)"/></clipPath><clipPath id="clip-path-6" transform="translate(-1.44 -0.67)"><polygon class="cls-1" points="5.14 6.58 4.82 6.94 4.89 10.46 5.26 10.84 7.27 10.77 7.64 10.42 7.64 9.72 6.52 6.54 5.14 6.58"/></clipPath><clipPath id="clip-path-7" transform="translate(-1.44 -0.67)"><rect class="cls-1" x="3.7" y="6.55" width="5.07" height="4.28" transform="translate(-4.2 11.03) rotate(-67.04)"/></clipPath><clipPath id="clip-path-9" transform="translate(-1.44 -0.67)"><path class="cls-1" d="M6.56,6.8,10,7.86l.41-.06a2.22,2.22,0,0,0,.45-1.29A2.17,2.17,0,0,0,8.7,4.32,2.24,2.24,0,0,0,6.56,6.8"/></clipPath><clipPath id="clip-path-10" transform="translate(-1.44 -0.67)"><rect class="cls-1" x="6.37" y="4.32" width="4.48" height="3.53"/></clipPath><clipPath id="clip-path-12" transform="translate(-1.44 -0.67)"><path class="cls-1" d="M8.49,7,7.55,9.7s0,0,.76,0A2.06,2.06,0,0,0,10,8.21c0-.5,0-.6-.19-.84a2.17,2.17,0,0,0-.54-.45Z"/></clipPath><clipPath id="clip-path-13" transform="translate(-1.44 -0.67)"><rect class="cls-1" x="6.99" y="6.65" width="3.53" height="3.35" transform="translate(-2.23 13.37) rotate(-68.2)"/></clipPath><clipPath id="clip-path-15" transform="translate(-1.44 -0.67)"><path class="cls-1" d="M5.94,8.06c0,1.27,1.54,1.31,1.54,2,0-.67,1.42-1.08,1.42-2a1.56,1.56,0,0,0-.55-1.17l-1-.51S5.94,6.8,5.94,8.06"/></clipPath><clipPath id="clip-path-16" transform="translate(-1.44 -0.67)"><rect class="cls-1" x="5.07" y="5.93" width="4.7" height="4.55" transform="translate(-3.58 9.38) rotate(-53.95)"/></clipPath></defs><title>company-gja</title><g id="Layer_2" data-name="Layer 2"><g id="Layer_1-2" data-name="Layer 1"><path class="cls-2" d="M23,.81V2.72h-.15A2.49,2.49,0,0,0,22,1.53a1.86,1.86,0,0,0-1.18-.41,1.51,1.51,0,0,0-1,.34,1.86,1.86,0,0,0-.57,1,4.85,4.85,0,0,0-.17,1.26A4.4,4.4,0,0,0,19.3,5a1.53,1.53,0,0,0,.59.86,1.72,1.72,0,0,0,1,.27,2,2,0,0,0,.41,0A2.72,2.72,0,0,0,21.69,6V4.88a1.11,1.11,0,0,0-.05-.41.43.43,0,0,0-.18-.17.67.67,0,0,0-.33-.08H21V4.08h2.63v.14a1.1,1.1,0,0,0-.42.09.44.44,0,0,0-.18.2,1.36,1.36,0,0,0,0,.37V6a5.14,5.14,0,0,1-1.09.35,5.5,5.5,0,0,1-1.16.12,3.39,3.39,0,0,1-1.28-.21,3.15,3.15,0,0,1-.9-.55A2.76,2.76,0,0,1,18,5a2.66,2.66,0,0,1-.28-1.24,2.79,2.79,0,0,1,.86-2.06A2.92,2.92,0,0,1,20.69.8a3.29,3.29,0,0,1,.73.07,3.36,3.36,0,0,1,.57.18,2.51,2.51,0,0,0,.46.15.32.32,0,0,0,.21-.08.68.68,0,0,0,.18-.31Z" transform="translate(-1.44 -0.67)"/><path class="cls-2" d="M27.15,4.35h-2a1.88,1.88,0,0,0,.39,1.17.87.87,0,0,0,.67.34.74.74,0,0,0,.43-.14A1.74,1.74,0,0,0,27,5.24l.14.09a2.36,2.36,0,0,1-.67.87,1.41,1.41,0,0,1-.86.26,1.39,1.39,0,0,1-1.25-.64A2.24,2.24,0,0,1,24,4.54a2.08,2.08,0,0,1,.51-1.48,1.55,1.55,0,0,1,1.18-.56,1.3,1.3,0,0,1,1,.47A2.11,2.11,0,0,1,27.15,4.35Zm-1-.27a3.48,3.48,0,0,0-.07-.88.78.78,0,0,0-.21-.37.39.39,0,0,0-.57.14,1.78,1.78,0,0,0-.23,1v.14Z" transform="translate(-1.44 -0.67)"/><path class="cls-2" d="M29.38,2.5a1.83,1.83,0,0,1,.91.25,1.64,1.64,0,0,1,.63.72,2.29,2.29,0,0,1,.22,1,2.17,2.17,0,0,1-.4,1.34,1.61,1.61,0,0,1-1.35.64,1.53,1.53,0,0,1-1.3-.59,2.19,2.19,0,0,1-.45-1.37,2.2,2.2,0,0,1,.46-1.4A1.53,1.53,0,0,1,29.38,2.5Zm0,.29a.49.49,0,0,0-.35.15,1.11,1.11,0,0,0-.19.61c0,.3,0,.72,0,1.26a6.73,6.73,0,0,0,.05.8.75.75,0,0,0,.19.43.46.46,0,0,0,.33.15.49.49,0,0,0,.3-.1.74.74,0,0,0,.21-.38A9.76,9.76,0,0,0,30,4.17a3.76,3.76,0,0,0-.08-.93.78.78,0,0,0-.22-.37A.41.41,0,0,0,29.39,2.79Z" transform="translate(-1.44 -0.67)"/><path class="cls-2" d="M33.26,2.61v.85a2.71,2.71,0,0,1,.65-.77,1,1,0,0,1,.54-.19.49.49,0,0,1,.36.14.53.53,0,0,1,.13.39.56.56,0,0,1-.13.41.39.39,0,0,1-.31.15.54.54,0,0,1-.37-.13A2.26,2.26,0,0,1,34,3.3l-.1,0a.3.3,0,0,0-.21.09.78.78,0,0,0-.25.39,2.53,2.53,0,0,0-.13.85V5.7a.89.89,0,0,0,0,.29.36.36,0,0,0,.14.16,1,1,0,0,0,.32.06v.14h-2V6.21a.46.46,0,0,0,.33-.14,1.16,1.16,0,0,0,.09-.6V3.4a1.6,1.6,0,0,0,0-.4A.37.37,0,0,0,32,2.83a.64.64,0,0,0-.27-.07V2.61Z" transform="translate(-1.44 -0.67)"/><path class="cls-2" d="M37.74,2.66H39V3.1h-.72a1.85,1.85,0,0,1,.28.35,1.2,1.2,0,0,1,.09.45,1.12,1.12,0,0,1-.22.7,1.55,1.55,0,0,1-.6.46,1.75,1.75,0,0,1-.68.16l-.48,0a.41.41,0,0,0-.3.12.38.38,0,0,0-.12.28.28.28,0,0,0,.11.24.54.54,0,0,0,.35.09h.69a2.55,2.55,0,0,1,1.16.19.84.84,0,0,1,.45.78,1,1,0,0,1-.21.62,1.22,1.22,0,0,1-.54.41,3.37,3.37,0,0,1-1.19.2,3.76,3.76,0,0,1-.92-.1,1.4,1.4,0,0,1-.6-.27.52.52,0,0,1-.18-.37.49.49,0,0,1,.14-.33A1,1,0,0,1,36,6.81a.78.78,0,0,1-.52-.72.83.83,0,0,1,.21-.53,1.7,1.7,0,0,1,.67-.45,1.6,1.6,0,0,1-.78-.52,1.19,1.19,0,0,1-.24-.74,1.25,1.25,0,0,1,.45-1A1.69,1.69,0,0,1,37,2.5,2,2,0,0,1,37.74,2.66ZM36.81,6.9a1.5,1.5,0,0,0-.54.07.38.38,0,0,0-.23.34.47.47,0,0,0,.24.37,1.68,1.68,0,0,0,.89.16A2.06,2.06,0,0,0,38,7.69a.45.45,0,0,0,.32-.41.25.25,0,0,0-.06-.17A.57.57,0,0,0,38,7,7.93,7.93,0,0,0,36.81,6.9Zm.24-4.15a.46.46,0,0,0-.39.23,1.91,1.91,0,0,0-.16,1,1.58,1.58,0,0,0,.15.82A.46.46,0,0,0,37,5a.47.47,0,0,0,.4-.22,1.61,1.61,0,0,0,.16-.85,1.85,1.85,0,0,0-.18-1A.41.41,0,0,0,37.05,2.75Z" transform="translate(-1.44 -0.67)"/><path class="cls-2" d="M40.89,2.61v3a.79.79,0,0,0,.1.5.51.51,0,0,0,.36.13v.14h-2V6.21a.5.5,0,0,0,.36-.15c.06-.06.08-.22.08-.48V3.39a.88.88,0,0,0-.09-.5.46.46,0,0,0-.35-.13V2.61ZM40.33.8a.59.59,0,0,1,.44.18.62.62,0,0,1,.18.44.61.61,0,0,1-.62.62.58.58,0,0,1-.43-.18.6.6,0,0,1-.18-.44A.62.62,0,0,1,39.9,1,.58.58,0,0,1,40.33.8Z" transform="translate(-1.44 -0.67)"/><path class="cls-2" d="M43.77,5.8a2,2,0,0,1-1.22.6A.73.73,0,0,1,42,6.19a.7.7,0,0,1-.21-.52,1,1,0,0,1,.37-.77A6.85,6.85,0,0,1,43.77,4V3.61a1.89,1.89,0,0,0,0-.53.41.41,0,0,0-.18-.19.47.47,0,0,0-.29-.08.69.69,0,0,0-.42.11.22.22,0,0,0-.11.17c0,.06,0,.12.12.21a.49.49,0,0,1,.15.33.43.43,0,0,1-.15.33.54.54,0,0,1-.38.14A.6.6,0,0,1,42.05,4a.44.44,0,0,1-.17-.36A.81.81,0,0,1,42.11,3a1.43,1.43,0,0,1,.63-.4,2.7,2.7,0,0,1,.85-.14,1.42,1.42,0,0,1,.84.23,1,1,0,0,1,.4.49,3,3,0,0,1,.06.77V5.44a1.12,1.12,0,0,0,0,.32.14.14,0,0,0,.06.1.12.12,0,0,0,.09,0q.11,0,.21-.15l.12.1a1.42,1.42,0,0,1-.41.43.92.92,0,0,1-.49.13.76.76,0,0,1-.5-.15A.69.69,0,0,1,43.77,5.8Zm0-.29V4.26a2.49,2.49,0,0,0-.72.6.78.78,0,0,0-.15.44.44.44,0,0,0,.13.32.34.34,0,0,0,.28.11A.74.74,0,0,0,43.77,5.51Z" transform="translate(-1.44 -0.67)"/><path class="cls-2" d="M48.74,1.08V.93h2.88v.15h-.18a.8.8,0,0,0-.38.08.38.38,0,0,0-.16.19,1.77,1.77,0,0,0,0,.51V4.51a3.14,3.14,0,0,1-.16,1.14,1.34,1.34,0,0,1-.55.59,1.85,1.85,0,0,1-1,.24,1.7,1.7,0,0,1-1.11-.36,1,1,0,0,1-.42-.8.61.61,0,0,1,.17-.45.58.58,0,0,1,.42-.18.54.54,0,0,1,.41.16.5.5,0,0,1,.17.38.6.6,0,0,1,0,.2,1.72,1.72,0,0,1-.13.2.55.55,0,0,0-.11.23.22.22,0,0,0,.11.18.67.67,0,0,0,.39.11.46.46,0,0,0,.29-.09.51.51,0,0,0,.16-.27,6.77,6.77,0,0,0,0-1V1.86a1.81,1.81,0,0,0,0-.52.39.39,0,0,0-.18-.18A.66.66,0,0,0,49,1.08Z" transform="translate(-1.44 -0.67)"/><path class="cls-2" d="M55.11,4.35h-2a1.88,1.88,0,0,0,.39,1.17.87.87,0,0,0,.67.34.74.74,0,0,0,.43-.14A1.74,1.74,0,0,0,55,5.24l.14.09a2.26,2.26,0,0,1-.67.87,1.54,1.54,0,0,1-2.11-.38A2.24,2.24,0,0,1,52,4.54a2.08,2.08,0,0,1,.51-1.48,1.56,1.56,0,0,1,1.18-.56,1.3,1.3,0,0,1,1,.47A2.11,2.11,0,0,1,55.11,4.35Zm-1-.27a4,4,0,0,0-.07-.88.8.8,0,0,0-.22-.37.39.39,0,0,0-.23-.07.4.4,0,0,0-.34.21,1.78,1.78,0,0,0-.23,1v.14Z" transform="translate(-1.44 -0.67)"/><path class="cls-2" d="M59.28,6.46l-1-2.74-1,2.74h-.2l-1-2.71a2.81,2.81,0,0,0-.38-.8.58.58,0,0,0-.3-.19V2.61h1.88v.15a.43.43,0,0,0-.26.06.15.15,0,0,0-.07.13,1.73,1.73,0,0,0,.13.4l.54,1.46.53-1.46,0-.09a1.09,1.09,0,0,0-.21-.38.49.49,0,0,0-.28-.12V2.61h1.92v.15a.66.66,0,0,0-.29.06.23.23,0,0,0,0,.15,1.35,1.35,0,0,0,.11.38l.53,1.46.48-1.34a1.34,1.34,0,0,0,.1-.39.3.3,0,0,0-.07-.23.48.48,0,0,0-.3-.09V2.61h1.11v.15a.52.52,0,0,0-.29.13,1.64,1.64,0,0,0-.28.6l-1.05,3Z" transform="translate(-1.44 -0.67)"/><path class="cls-2" d="M64.65,4.35H62.6A2,2,0,0,0,63,5.52a.83.83,0,0,0,.66.34.77.77,0,0,0,.44-.14,1.74,1.74,0,0,0,.42-.48l.13.09A2.17,2.17,0,0,1,64,6.2a1.38,1.38,0,0,1-.85.26,1.42,1.42,0,0,1-1.26-.64,2.24,2.24,0,0,1-.34-1.28A2.12,2.12,0,0,1,62,3.06a1.58,1.58,0,0,1,1.19-.56,1.26,1.26,0,0,1,1,.47A2.11,2.11,0,0,1,64.65,4.35Zm-1-.27a3.48,3.48,0,0,0-.07-.88.8.8,0,0,0-.22-.37.36.36,0,0,0-.22-.07.39.39,0,0,0-.34.21,1.7,1.7,0,0,0-.24,1v.14Z" transform="translate(-1.44 -0.67)"/><path class="cls-2" d="M66.58.93V5.58a.86.86,0,0,0,.1.5.51.51,0,0,0,.36.13v.14H65V6.21a.55.55,0,0,0,.37-.15.9.9,0,0,0,.08-.48V1.71a.93.93,0,0,0-.1-.51A.5.5,0,0,0,65,1.08V.93Z" transform="translate(-1.44 -0.67)"/><path class="cls-2" d="M70.56,4.35h-2a2,2,0,0,0,.4,1.17.83.83,0,0,0,.66.34A.77.77,0,0,0,70,5.72a1.74,1.74,0,0,0,.42-.48l.13.09a2.17,2.17,0,0,1-.67.87,1.38,1.38,0,0,1-.85.26,1.4,1.4,0,0,1-1.26-.64,2.24,2.24,0,0,1-.34-1.28,2.07,2.07,0,0,1,.5-1.48,1.57,1.57,0,0,1,1.19-.56,1.28,1.28,0,0,1,1,.47A2.11,2.11,0,0,1,70.56,4.35Zm-1-.27a3.48,3.48,0,0,0-.07-.88.8.8,0,0,0-.22-.37.36.36,0,0,0-.22-.07.39.39,0,0,0-.34.21,1.7,1.7,0,0,0-.24,1v.14Z" transform="translate(-1.44 -0.67)"/><path class="cls-2" d="M72.58,2.61v.85a2.71,2.71,0,0,1,.65-.77,1,1,0,0,1,.54-.19.49.49,0,0,1,.36.14.53.53,0,0,1,.13.39.56.56,0,0,1-.13.41.39.39,0,0,1-.31.15.56.56,0,0,1-.37-.13l-.18-.16-.09,0a.33.33,0,0,0-.22.09.78.78,0,0,0-.25.39,2.53,2.53,0,0,0-.13.85V5.7a.89.89,0,0,0,0,.29.36.36,0,0,0,.14.16,1,1,0,0,0,.32.06v.14h-2V6.21c.17,0,.28-.06.33-.14a1.16,1.16,0,0,0,.09-.6V3.4a1.6,1.6,0,0,0,0-.4.37.37,0,0,0-.12-.17.64.64,0,0,0-.27-.07V2.61Z" transform="translate(-1.44 -0.67)"/><path class="cls-2" d="M77,2.51l.07,1.27H77A2,2,0,0,0,76.44,3a.83.83,0,0,0-.52-.21.41.41,0,0,0-.28.11.33.33,0,0,0-.11.26.27.27,0,0,0,.08.2,3.4,3.4,0,0,0,.71.56,3.37,3.37,0,0,1,.78.68,1.12,1.12,0,0,1,.18.62,1.34,1.34,0,0,1-.15.61,1.15,1.15,0,0,1-.44.46,1.23,1.23,0,0,1-.63.16,2.2,2.2,0,0,1-.72-.16l-.16,0c-.09,0-.16.07-.22.2h-.13l-.07-1.34h.14a1.76,1.76,0,0,0,.49.79.93.93,0,0,0,.6.26.47.47,0,0,0,.31-.11.4.4,0,0,0,.12-.29.48.48,0,0,0-.12-.33A3,3,0,0,0,75.77,5a4.19,4.19,0,0,1-.8-.64,1.16,1.16,0,0,1,0-1.51,1.07,1.07,0,0,1,.86-.35,1.26,1.26,0,0,1,.59.15.38.38,0,0,0,.17.06.21.21,0,0,0,.12,0,.72.72,0,0,0,.14-.17Z" transform="translate(-1.44 -0.67)"/><path class="cls-2" d="M21,14.09H19.1l-.23.53a1.08,1.08,0,0,0-.11.44.35.35,0,0,0,.18.33,1.32,1.32,0,0,0,.53.1v.15h-1.8v-.15a.85.85,0,0,0,.48-.24,3,3,0,0,0,.46-.82l1.94-4.32h.08l1.95,4.44a2.86,2.86,0,0,0,.46.8.63.63,0,0,0,.39.14v.15H20.8v-.15h.11a.84.84,0,0,0,.45-.09.22.22,0,0,0,.08-.18.39.39,0,0,0,0-.15l-.12-.3Zm-.13-.29-.81-1.87-.83,1.87Z" transform="translate(-1.44 -0.67)"/><path class="cls-2" d="M26.16,11.8l.06,1.27h-.14a1.92,1.92,0,0,0-.5-.77.85.85,0,0,0-.53-.21.37.37,0,0,0-.28.11.36.36,0,0,0-.11.25.31.31,0,0,0,.08.21,3.4,3.4,0,0,0,.71.56,3,3,0,0,1,.78.68,1.1,1.1,0,0,1,.18.62,1.34,1.34,0,0,1-.15.61,1.15,1.15,0,0,1-.44.46,1.23,1.23,0,0,1-.63.16,2.26,2.26,0,0,1-.72-.17l-.16,0c-.09,0-.16.06-.22.2H24l-.07-1.35H24a1.74,1.74,0,0,0,.49.8,1,1,0,0,0,.6.26.41.41,0,0,0,.31-.12.38.38,0,0,0,.12-.28.52.52,0,0,0-.12-.34,3.64,3.64,0,0,0-.53-.42,4,4,0,0,1-.79-.65,1.11,1.11,0,0,1-.27-.72,1.16,1.16,0,0,1,.3-.78,1.05,1.05,0,0,1,.86-.35,1.26,1.26,0,0,1,.59.15.38.38,0,0,0,.18.06.2.2,0,0,0,.11,0A.72.72,0,0,0,26,11.8Z" transform="translate(-1.44 -0.67)"/><path class="cls-2" d="M29.34,11.8l.06,1.27h-.13a1.92,1.92,0,0,0-.51-.77.83.83,0,0,0-.52-.21.37.37,0,0,0-.28.11.33.33,0,0,0-.12.25.37.37,0,0,0,.08.21,3.92,3.92,0,0,0,.72.56,2.88,2.88,0,0,1,.77.68,1,1,0,0,1,.19.62,1.24,1.24,0,0,1-.16.61,1.09,1.09,0,0,1-.44.46,1.22,1.22,0,0,1-.62.16,2.26,2.26,0,0,1-.72-.17l-.16,0c-.09,0-.17.06-.22.2h-.14l-.06-1.35h.14a1.74,1.74,0,0,0,.49.8,1,1,0,0,0,.59.26.44.44,0,0,0,.32-.12.38.38,0,0,0,.12-.28.52.52,0,0,0-.12-.34,3.36,3.36,0,0,0-.54-.42,4.3,4.3,0,0,1-.79-.65,1.15,1.15,0,0,1,0-1.5,1,1,0,0,1,.86-.35,1.19,1.19,0,0,1,.58.15A.46.46,0,0,0,29,12a.21.21,0,0,0,.12,0,1.1,1.1,0,0,0,.14-.17Z" transform="translate(-1.44 -0.67)"/><path class="cls-2" d="M31.93,11.79a1.73,1.73,0,0,1,.91.25,1.58,1.58,0,0,1,.63.72,2.23,2.23,0,0,1,.22,1,2.14,2.14,0,0,1-.4,1.33,1.61,1.61,0,0,1-1.35.65,1.57,1.57,0,0,1-1.3-.59,2.21,2.21,0,0,1-.45-1.37,2.18,2.18,0,0,1,.46-1.4A1.53,1.53,0,0,1,31.93,11.79Zm0,.28a.46.46,0,0,0-.35.16,1.1,1.1,0,0,0-.19.6c0,.31,0,.73,0,1.26a6.47,6.47,0,0,0,.05.8.78.78,0,0,0,.19.44.49.49,0,0,0,.33.14.44.44,0,0,0,.3-.1.7.7,0,0,0,.21-.38,9.52,9.52,0,0,0,.08-1.53,3.7,3.7,0,0,0-.08-.93.73.73,0,0,0-.22-.37A.41.41,0,0,0,31.94,12.07Z" transform="translate(-1.44 -0.67)"/><path class="cls-2" d="M37.31,14.67l.12.1a1.83,1.83,0,0,1-.65.74,1.63,1.63,0,0,1-.84.24,1.47,1.47,0,0,1-1.2-.56,2.12,2.12,0,0,1-.45-1.36,2.26,2.26,0,0,1,.41-1.34,1.56,1.56,0,0,1,1.36-.7,1.41,1.41,0,0,1,.92.29.83.83,0,0,1,.34.65.49.49,0,0,1-.14.36.45.45,0,0,1-.36.14.53.53,0,0,1-.39-.15,1,1,0,0,1-.19-.56.55.55,0,0,0-.11-.35.3.3,0,0,0-.22-.1.4.4,0,0,0-.33.2,1.7,1.7,0,0,0-.21.94,3.06,3.06,0,0,0,.17,1,1.55,1.55,0,0,0,.46.72.79.79,0,0,0,.52.17.78.78,0,0,0,.37-.09A1.67,1.67,0,0,0,37.31,14.67Z" transform="translate(-1.44 -0.67)"/><path class="cls-2" d="M39.35,11.9v3a.93.93,0,0,0,.09.51.51.51,0,0,0,.36.12v.15h-2v-.15a.47.47,0,0,0,.37-.14c.06-.06.08-.22.08-.49V12.68a1,1,0,0,0-.09-.51.51.51,0,0,0-.36-.12V11.9Zm-.56-1.81a.61.61,0,0,1,.62.62.58.58,0,0,1-.18.43.6.6,0,0,1-.44.18.61.61,0,0,1-.61-.61.6.6,0,0,1,.18-.44A.58.58,0,0,1,38.79,10.09Z" transform="translate(-1.44 -0.67)"/><path class="cls-2" d="M42.23,15.09a2,2,0,0,1-1.23.6.72.72,0,0,1-.74-.74,1,1,0,0,1,.37-.77,7.25,7.25,0,0,1,1.6-.91V12.9a1.76,1.76,0,0,0,0-.53.46.46,0,0,0-.17-.2.57.57,0,0,0-.29-.08.75.75,0,0,0-.43.12.2.2,0,0,0-.1.17.37.37,0,0,0,.11.2.54.54,0,0,1,.15.33.42.42,0,0,1-.14.34.56.56,0,0,1-.38.14.6.6,0,0,1-.43-.16.47.47,0,0,1-.17-.35.84.84,0,0,1,.23-.55,1.38,1.38,0,0,1,.64-.4,2.41,2.41,0,0,1,.85-.14,1.42,1.42,0,0,1,.84.22,1.12,1.12,0,0,1,.4.49,3.18,3.18,0,0,1,.05.77v1.46a1.81,1.81,0,0,0,0,.32l.06.1a.17.17,0,0,0,.1,0q.1,0,.21-.15l.12.1a1.44,1.44,0,0,1-.42.43,1,1,0,0,1-.48.13.76.76,0,0,1-.5-.15A.69.69,0,0,1,42.23,15.09Zm0-.3V13.54a2.36,2.36,0,0,0-.72.61.77.77,0,0,0-.16.44.45.45,0,0,0,.14.32.36.36,0,0,0,.28.11A.79.79,0,0,0,42.23,14.79Z" transform="translate(-1.44 -0.67)"/><path class="cls-2" d="M45.74,10.53V11.9h.89v.4h-.89v2.3a1.74,1.74,0,0,0,0,.42.33.33,0,0,0,.11.15.24.24,0,0,0,.14.06c.17,0,.34-.13.49-.4l.12.09a1.1,1.1,0,0,1-1.05.77.92.92,0,0,1-.6-.2.88.88,0,0,1-.32-.44,4.51,4.51,0,0,1,0-.74v-2h-.48v-.14a5.28,5.28,0,0,0,.85-.75,4,4,0,0,0,.62-.88Z" transform="translate(-1.44 -0.67)"/><path class="cls-2" d="M48.45,11.9v3a.93.93,0,0,0,.09.51.51.51,0,0,0,.36.12v.15h-2v-.15a.48.48,0,0,0,.37-.14.92.92,0,0,0,.08-.49V12.68a.84.84,0,0,0-.1-.51.5.5,0,0,0-.35-.12V11.9Zm-.56-1.81a.61.61,0,0,1,.62.62.56.56,0,0,1-.19.43.58.58,0,0,1-.43.18.6.6,0,0,1-.44-.18.58.58,0,0,1-.18-.43.61.61,0,0,1,.62-.62Z" transform="translate(-1.44 -0.67)"/><path class="cls-2" d="M51,11.79a1.71,1.71,0,0,1,.91.25,1.66,1.66,0,0,1,.64.72,2.37,2.37,0,0,1,.22,1,2.15,2.15,0,0,1-.41,1.33,1.58,1.58,0,0,1-1.34.65,1.54,1.54,0,0,1-1.3-.59,2.16,2.16,0,0,1-.46-1.37,2.19,2.19,0,0,1,.47-1.4A1.52,1.52,0,0,1,51,11.79Zm0,.28a.44.44,0,0,0-.35.16,1,1,0,0,0-.19.6c0,.31,0,.73,0,1.26a4.92,4.92,0,0,0,.06.8.78.78,0,0,0,.19.44.45.45,0,0,0,.32.14.44.44,0,0,0,.3-.1.6.6,0,0,0,.21-.38,9.52,9.52,0,0,0,.08-1.53,3.85,3.85,0,0,0-.07-.93.74.74,0,0,0-.23-.37A.4.4,0,0,0,51,12.07Z" transform="translate(-1.44 -0.67)"/><path class="cls-2" d="M54.88,11.9v.48a2.32,2.32,0,0,1,.55-.45,1.15,1.15,0,0,1,.57-.14.92.92,0,0,1,.92.7,3.42,3.42,0,0,1,.07.88v1.45a1,1,0,0,0,.08.54.46.46,0,0,0,.32.13v.15H55.5v-.15a.38.38,0,0,0,.3-.17,1,1,0,0,0,.07-.5V13.16a2.26,2.26,0,0,0,0-.58.35.35,0,0,0-.12-.19.33.33,0,0,0-.19-.06c-.23,0-.44.16-.64.49v2a1.11,1.11,0,0,0,.08.53.38.38,0,0,0,.29.14v.15H53.36v-.15a.4.4,0,0,0,.33-.15,1,1,0,0,0,.07-.52V12.71a1,1,0,0,0-.08-.53.46.46,0,0,0-.32-.13V11.9Z" transform="translate(-1.44 -0.67)"/><g class="cls-3"><g class="cls-3"><path class="cls-2" d="M12.39,15.89a.49.49,0,0,1-.52-.43c0-.23-.18-.25-.23-.25H9.91l-5.24,0c-.54,0-.77-1-.77-1.15s-.32-.46-.32-.46l-.07-.05,0-.08a11.1,11.1,0,0,0,.3-1.4c0-.11-.05-.16-.14-.25a.48.48,0,0,1-.18-.36.62.62,0,0,1,.1-.29A.25.25,0,0,0,3.68,11V11a.92.92,0,0,1,0-.19c0-.14.13-.23.25-.32a.83.83,0,0,0,.19-.15v0l0,0a1.31,1.31,0,0,1-.16-.13.66.66,0,0,1-.23-.55s-.11-.12-.16-.15-.22-.15-.22-.27a.54.54,0,0,1,0-.19,1.13,1.13,0,0,0,.1-.42c0-.07-.09-.18-.16-.27A.84.84,0,0,1,3.13,8c0-.17-1.59-6.91-1.66-7.19l0-.14H8.21V.78a1.93,1.93,0,0,1-.46,1.06l-.07.09c0,.11.35.49,1.13.49h.06l.55.75s0,.05.2.4a1.32,1.32,0,0,0,.46.48,1.46,1.46,0,0,1,.32.28c.19.23.77.84.78.85l0,0v0c0,.16.23.33.39.38s.31.35.44.64a.51.51,0,0,0,0,.1l0,.06a.31.31,0,0,0,.35.25h0c.34,0,.57.18.57.44a.37.37,0,0,0,.22.35.67.67,0,0,1,.41.63.4.4,0,0,0,.28.42c.27.08.3.2.37.46,0,.07,0,.17.08.3A1.21,1.21,0,0,0,15,10l.07,0v.08a1,1,0,0,1-.42.7c-.07,0-.1.05-.1.15a.71.71,0,0,1-.32.66l0,0a1,1,0,0,0,.07.2.75.75,0,0,1,.1.34.61.61,0,0,1-.07.24.88.88,0,0,0-.12.54.7.7,0,0,1-.33.62,2.15,2.15,0,0,1,.14.54c0,.36-.1.54-.27.54a1,1,0,0,1-.41-.16,2.23,2.23,0,0,0-.48-.19c-.1,0-.32,0-.32.25a1.36,1.36,0,0,0,.1.48,1,1,0,0,1,.09.36C12.71,15.67,12.58,15.89,12.39,15.89ZM11.64,15a.47.47,0,0,1,.46.45c0,.15.11.23.29.23a.41.41,0,0,0,.09-.3,1.26,1.26,0,0,0-.07-.28,1.66,1.66,0,0,1-.12-.56.5.5,0,0,1,.55-.48,1.52,1.52,0,0,1,.58.22,1.69,1.69,0,0,0,.3.13.81.81,0,0,0,0-.31,2.35,2.35,0,0,0-.16-.55l0-.1.1,0a.47.47,0,0,0,.29-.46,1.21,1.21,0,0,1,.14-.65.21.21,0,0,0,.05-.13.67.67,0,0,0-.08-.24.85.85,0,0,1-.09-.32c0-.09.07-.15.13-.19a.52.52,0,0,0,.22-.48.36.36,0,0,1,.23-.36.9.9,0,0,0,.28-.43,1.35,1.35,0,0,1-.67-.77c0-.12-.06-.22-.09-.31s-.06-.25-.2-.28a.63.63,0,0,1-.45-.65.43.43,0,0,0-.26-.41.59.59,0,0,1-.36-.57c0-.13-.14-.21-.35-.21a.55.55,0,0,1-.57-.39.08.08,0,0,0,0,0,.66.66,0,0,1,0-.11c-.05-.11-.21-.47-.31-.51S11,5.59,11,5.31c-.12-.13-.59-.63-.76-.84a2.45,2.45,0,0,0-.28-.24,1.59,1.59,0,0,1-.53-.56l-.19-.39-.47-.63c-.93,0-1.3-.53-1.3-.74,0-.06,0-.1.11-.21A2,2,0,0,0,8,.9H1.73c.23,1,1.58,6.89,1.62,7a.83.83,0,0,0,.13.2.74.74,0,0,1,.21.4,1.2,1.2,0,0,1-.12.51.93.93,0,0,0,0,.1l.12.09c.12.08.26.18.26.34a.45.45,0,0,0,.16.39,1.1,1.1,0,0,0,.14.11.22.22,0,0,1,.09.33.57.57,0,0,1-.26.25s-.14.1-.15.13a.76.76,0,0,0,0,.17V11a.55.55,0,0,1-.1.29.27.27,0,0,0-.07.16c0,.08,0,.13.12.2a.57.57,0,0,1,.2.41,9.82,9.82,0,0,1-.29,1.39.82.82,0,0,1,.36.6c0,.15.23.92.54.92l5.24,0Zm2.57-3.4Z" transform="translate(-1.44 -0.67)"/></g><g class="cls-4"><g class="cls-5"><polygon class="cls-6" points="10.29 12.25 12.09 7.63 12.09 12.25 10.29 12.25"/><polygon class="cls-6" points="10.16 12.25 12.09 7.31 12.09 7.63 10.29 12.25 10.16 12.25"/><polygon class="cls-7" points="10.04 12.25 12.09 6.99 12.09 7.31 10.16 12.25 10.04 12.25"/><polygon class="cls-8" points="9.91 12.25 12.09 6.67 12.09 6.99 10.04 12.25 9.91 12.25"/><polygon class="cls-9" points="9.79 12.25 12.03 6.49 12.09 6.49 12.09 6.67 9.91 12.25 9.79 12.25"/><polygon class="cls-10" points="9.66 12.25 11.9 6.49 12.03 6.49 9.79 12.25 9.66 12.25"/><polygon class="cls-11" points="9.54 12.25 11.78 6.49 11.9 6.49 9.66 12.25 9.54 12.25"/><polygon class="cls-12" points="9.41 12.25 11.65 6.49 11.78 6.49 9.54 12.25 9.41 12.25"/><polygon class="cls-13" points="9.29 12.25 11.53 6.49 11.65 6.49 9.41 12.25 9.29 12.25"/><polygon class="cls-14" points="9.16 12.25 11.41 6.49 11.53 6.49 9.29 12.25 9.16 12.25"/><polygon class="cls-15" points="9.04 12.25 11.28 6.49 11.41 6.49 9.16 12.25 9.04 12.25"/><polygon class="cls-16" points="8.92 12.25 11.16 6.49 11.28 6.49 9.04 12.25 8.92 12.25"/><polygon class="cls-17" points="8.79 12.25 11.03 6.49 11.16 6.49 8.92 12.25 8.79 12.25"/><polygon class="cls-18" points="8.67 12.25 10.91 6.49 11.03 6.49 8.79 12.25 8.67 12.25"/><polygon class="cls-19" points="8.54 12.25 10.78 6.49 10.91 6.49 8.67 12.25 8.54 12.25"/><polygon class="cls-20" points="8.42 12.25 10.66 6.49 10.78 6.49 8.54 12.25 8.42 12.25"/><polygon class="cls-21" points="8.29 12.25 10.53 6.49 10.66 6.49 8.42 12.25 8.29 12.25"/><polygon class="cls-22" points="8.17 12.25 10.41 6.49 10.53 6.49 8.29 12.25 8.17 12.25"/><polygon class="cls-23" points="8.04 12.25 10.28 6.49 10.41 6.49 8.17 12.25 8.04 12.25"/><polygon class="cls-24" points="7.92 12.25 10.16 6.49 10.28 6.49 8.04 12.25 7.92 12.25"/><polygon class="cls-25" points="7.79 12.25 10.04 6.49 10.16 6.49 7.92 12.25 7.79 12.25"/><polygon class="cls-26" points="7.67 12.25 9.91 6.49 10.04 6.49 7.79 12.25 7.67 12.25"/><polygon class="cls-27" points="7.54 12.25 9.79 6.49 9.91 6.49 7.67 12.25 7.54 12.25"/><polygon class="cls-28" points="7.42 12.25 9.66 6.49 9.79 6.49 7.54 12.25 7.42 12.25"/><polygon class="cls-29" points="7.29 12.25 9.54 6.49 9.66 6.49 7.42 12.25 7.29 12.25"/><polygon class="cls-30" points="7.17 12.25 9.41 6.49 9.54 6.49 7.29 12.25 7.17 12.25"/><polygon class="cls-31" points="7.05 12.25 9.29 6.49 9.41 6.49 7.17 12.25 7.05 12.25"/><polygon class="cls-32" points="6.92 12.25 9.16 6.49 9.29 6.49 7.05 12.25 6.92 12.25"/><polygon class="cls-33" points="6.8 12.25 9.04 6.49 9.16 6.49 6.92 12.25 6.8 12.25"/><polygon class="cls-34" points="6.67 12.25 8.91 6.49 9.04 6.49 6.8 12.25 6.67 12.25"/><polygon class="cls-35" points="6.55 12.25 8.79 6.49 8.91 6.49 6.67 12.25 6.55 12.25"/><polygon class="cls-36" points="6.42 12.25 8.66 6.49 8.79 6.49 6.55 12.25 6.42 12.25"/><polygon class="cls-37" points="6.3 12.25 8.54 6.49 8.66 6.49 6.42 12.25 6.3 12.25"/><polygon class="cls-38" points="6.17 12.25 8.41 6.49 8.54 6.49 6.3 12.25 6.17 12.25"/><polygon class="cls-39" points="6.05 12.25 8.29 6.49 8.41 6.49 6.17 12.25 6.05 12.25"/><polygon class="cls-40" points="5.92 12.25 8.16 6.49 8.29 6.49 6.05 12.25 5.92 12.25"/><polygon class="cls-41" points="5.85 12.12 8.04 6.49 8.16 6.49 5.92 12.25 5.85 12.25 5.85 12.12"/><polygon class="cls-42" points="5.85 11.79 7.92 6.49 8.04 6.49 5.85 12.12 5.85 11.79"/><polygon class="cls-43" points="5.85 11.47 7.79 6.49 7.92 6.49 5.85 11.79 5.85 11.47"/><polygon class="cls-43" points="7.79 6.49 5.85 11.47 5.85 6.49 7.79 6.49"/></g></g><g class="cls-3"><path class="cls-2" d="M10.71,11.5a2.57,2.57,0,0,1-2-.66,1.63,1.63,0,0,1-.45-1.11h.07a1.61,1.61,0,0,0,.43,1.06,2.53,2.53,0,0,0,1.9.63,3.54,3.54,0,0,0,1.82-.5A3.44,3.44,0,0,0,9.87,8.65V8.58a3.49,3.49,0,0,1,2.72,2.36v0l0,0A3.61,3.61,0,0,1,10.71,11.5Z" transform="translate(-1.44 -0.67)"/></g><g class="cls-44"><g class="cls-45"><polygon class="cls-46" points="1.83 9.35 6.17 11.19 1.83 11.19 1.83 9.35"/><polygon class="cls-46" points="1.83 8.68 7.75 11.19 7.75 11.19 6.17 11.19 1.83 9.35 1.83 8.68"/><polygon class="cls-47" points="1.83 8.01 7.75 10.52 7.75 11.19 1.83 8.68 1.83 8.01"/><polygon class="cls-48" points="1.83 7.34 7.75 9.85 7.75 10.52 1.83 8.01 1.83 7.34"/><polygon class="cls-49" points="1.83 6.67 7.75 9.17 7.75 9.85 1.83 7.34 1.83 6.67"/><polygon class="cls-50" points="1.83 6 7.75 8.5 7.75 9.17 1.83 6.67 1.83 6"/><polygon class="cls-51" points="1.83 5.32 7.75 7.83 7.75 8.5 1.83 6 1.83 5.32"/><polygon class="cls-52" points="2.31 4.86 7.75 7.16 7.75 7.83 1.83 5.32 1.83 4.86 2.31 4.86"/><polygon class="cls-53" points="3.89 4.86 7.75 6.49 7.75 7.16 2.31 4.86 3.89 4.86"/><polygon class="cls-53" points="7.75 6.49 3.89 4.86 7.75 4.86 7.75 6.49"/></g></g><g class="cls-3"><polygon class="cls-2" points="3.8 10.21 3.42 9.81 3.34 6.26 3.69 5.88 5.08 5.84 5.08 5.9 3.72 5.95 3.41 6.29 3.48 9.79 3.83 10.14 5.82 10.07 6.17 9.74 6.17 9.05 6.24 9.05 6.24 9.77 5.84 10.13 3.8 10.21"/></g><g class="cls-54"><g class="cls-55"><rect class="cls-56" x="4.93" y="3.66" width="4.48" height="0.18"/><rect class="cls-56" x="4.93" y="3.83" width="4.48" height="0.32"/><rect class="cls-57" x="4.93" y="4.15" width="4.48" height="0.32"/><rect class="cls-58" x="4.93" y="4.47" width="4.48" height="0.32"/><rect class="cls-59" x="4.93" y="4.78" width="4.48" height="0.32"/><rect class="cls-60" x="4.93" y="5.1" width="4.48" height="0.32"/><rect class="cls-61" x="4.93" y="5.42" width="4.48" height="0.32"/><rect class="cls-62" x="4.93" y="5.73" width="4.48" height="0.32"/><rect class="cls-63" x="4.93" y="6.05" width="4.48" height="0.32"/><rect class="cls-64" x="4.93" y="6.37" width="4.48" height="0.32"/><rect class="cls-65" x="4.93" y="6.68" width="4.48" height="0.32"/><rect class="cls-65" x="4.93" y="7" width="4.48" height="0.19"/></g></g><g class="cls-3"><path class="cls-2" d="M10,7.89V7.82l.39-.06a2.17,2.17,0,0,0,.43-1.25S10.72,4.35,8.7,4.35A2,2,0,0,0,6.86,5.49a1.9,1.9,0,0,0-.27,1.29l-.06,0A1.94,1.94,0,0,1,6.8,5.46,2.1,2.1,0,0,1,8.7,4.29a2.18,2.18,0,0,1,2.18,2.22,2.24,2.24,0,0,1-.46,1.31h0Z" transform="translate(-1.44 -0.67)"/></g><g class="cls-66"><g class="cls-67"><polygon class="cls-68" points="7.48 9.93 9.29 5.4 9.53 5.4 9.53 9.93 7.48 9.93"/><polygon class="cls-68" points="7.43 9.93 9.24 5.4 9.29 5.4 7.48 9.93 7.43 9.93"/><polygon class="cls-69" points="7.38 9.93 9.2 5.4 9.24 5.4 7.43 9.93 7.38 9.93"/><polygon class="cls-70" points="7.34 9.93 9.15 5.4 9.2 5.4 7.38 9.93 7.34 9.93"/><polygon class="cls-71" points="7.29 9.93 9.1 5.4 9.15 5.4 7.34 9.93 7.29 9.93"/><polygon class="cls-72" points="7.24 9.93 9.05 5.4 9.1 5.4 7.29 9.93 7.24 9.93"/><polygon class="cls-73" points="7.2 9.93 9.01 5.4 9.05 5.4 7.24 9.93 7.2 9.93"/><polygon class="cls-25" points="7.15 9.93 8.96 5.4 9.01 5.4 7.2 9.93 7.15 9.93"/><polygon class="cls-26" points="7.1 9.93 8.91 5.4 8.96 5.4 7.15 9.93 7.1 9.93"/><polygon class="cls-27" points="7.06 9.93 8.87 5.4 8.91 5.4 7.1 9.93 7.06 9.93"/><polygon class="cls-28" points="7.01 9.93 8.82 5.4 8.87 5.4 7.06 9.93 7.01 9.93"/><polygon class="cls-29" points="6.96 9.93 8.77 5.4 8.82 5.4 7.01 9.93 6.96 9.93"/><polygon class="cls-30" points="6.92 9.93 8.73 5.4 8.77 5.4 6.96 9.93 6.92 9.93"/><polygon class="cls-31" points="6.87 9.93 8.68 5.4 8.73 5.4 6.92 9.93 6.87 9.93"/><polygon class="cls-32" points="6.82 9.93 8.63 5.4 8.68 5.4 6.87 9.93 6.82 9.93"/><polygon class="cls-33" points="6.77 9.93 8.59 5.4 8.63 5.4 6.82 9.93 6.77 9.93"/><polygon class="cls-34" points="6.73 9.93 8.54 5.4 8.59 5.4 6.77 9.93 6.73 9.93"/><polygon class="cls-35" points="6.68 9.93 8.49 5.4 8.54 5.4 6.73 9.93 6.68 9.93"/><polygon class="cls-36" points="6.63 9.93 8.44 5.4 8.49 5.4 6.68 9.93 6.63 9.93"/><polygon class="cls-37" points="6.59 9.93 8.4 5.4 8.44 5.4 6.63 9.93 6.59 9.93"/><polygon class="cls-74" points="6.54 9.93 8.35 5.4 8.4 5.4 6.59 9.93 6.54 9.93"/><polygon class="cls-75" points="6.49 9.93 8.3 5.4 8.35 5.4 6.54 9.93 6.49 9.93"/><polygon class="cls-76" points="6.45 9.93 8.26 5.4 8.3 5.4 6.49 9.93 6.45 9.93"/><polygon class="cls-77" points="6.4 9.93 8.21 5.4 8.26 5.4 6.45 9.93 6.4 9.93"/><polygon class="cls-78" points="6.35 9.93 8.16 5.4 8.21 5.4 6.4 9.93 6.35 9.93"/><polygon class="cls-79" points="6.3 9.93 8.12 5.4 8.16 5.4 6.35 9.93 6.3 9.93"/><polygon class="cls-80" points="6.26 9.93 8.07 5.4 8.12 5.4 6.3 9.93 6.26 9.93"/><polygon class="cls-81" points="6.21 9.93 8.02 5.4 8.07 5.4 6.26 9.93 6.21 9.93"/><polygon class="cls-82" points="6.16 9.93 7.97 5.4 8.02 5.4 6.21 9.93 6.16 9.93"/><polygon class="cls-83" points="6.12 9.93 7.93 5.4 7.97 5.4 6.16 9.93 6.12 9.93"/><polygon class="cls-84" points="6.07 9.93 7.88 5.4 7.93 5.4 6.12 9.93 6.07 9.93"/><polygon class="cls-85" points="6.02 9.93 7.83 5.4 7.88 5.4 6.07 9.93 6.02 9.93"/><polygon class="cls-86" points="5.98 9.93 7.79 5.4 7.83 5.4 6.02 9.93 5.98 9.93"/><polygon class="cls-87" points="5.93 9.93 7.74 5.4 7.79 5.4 5.98 9.93 5.93 9.93"/><polygon class="cls-88" points="5.88 9.93 7.69 5.4 7.74 5.4 5.93 9.93 5.88 9.93"/><polygon class="cls-89" points="5.84 9.93 7.65 5.4 7.69 5.4 5.88 9.93 5.84 9.93"/><polygon class="cls-90" points="5.79 9.93 7.6 5.4 7.65 5.4 5.84 9.93 5.79 9.93"/><polygon class="cls-91" points="5.74 9.93 7.55 5.4 7.6 5.4 5.79 9.93 5.74 9.93"/><polygon class="cls-92" points="5.7 9.93 7.51 5.4 7.55 5.4 5.74 9.93 5.7 9.93"/><polygon class="cls-92" points="7.51 5.4 5.7 9.93 5.11 9.93 5.11 5.4 7.51 5.4"/></g></g><g class="cls-3"><path class="cls-2" d="M7.59,9.75a.07.07,0,0,0,0-.07v0h.69l.14,0a.9.9,0,0,0,.27-.07,1.86,1.86,0,0,0,.49-.29,2.65,2.65,0,0,0,.41-.41,1.71,1.71,0,0,0,.29-.48l0-.13V8.12a2.71,2.71,0,0,0,0-.29.71.71,0,0,0-.07-.26,1.19,1.19,0,0,0-.16-.23A1.94,1.94,0,0,0,9.23,7h0l-.78.09,0-.13.78-.11h0a2.23,2.23,0,0,1,.5.37,2,2,0,0,1,.18.26,1,1,0,0,1,.09.32c0,.1,0,.21,0,.31a1,1,0,0,1,0,.16.9.9,0,0,1,0,.16A1.84,1.84,0,0,1,9.73,9a2.5,2.5,0,0,1-.43.43,2.08,2.08,0,0,1-.54.32,1.55,1.55,0,0,1-.31.07H7.5v0a.06.06,0,0,1,0-.07Z" transform="translate(-1.44 -0.67)"/><path class="cls-93" d="M8.49,7a7.47,7.47,0,0,1,1.16-.11c.55,0,.31.36.31.58a1.63,1.63,0,0,0,.28.63,4,4,0,0,0,.24-1c0-.14-.11-.26-.27-.49s-.25-.47-.38-.5A2.59,2.59,0,0,0,9,6c-.34,0-.67.42-.67.42l-.07.45" transform="translate(-1.44 -0.67)"/><path class="cls-2" d="M8.48,7l.41-.08.41,0h.42l.11,0,.11,0L10,7,10,7a.11.11,0,0,1,0,.06.13.13,0,0,1,0,.06,1.46,1.46,0,0,1,0,.22.58.58,0,0,0,0,.18,1.34,1.34,0,0,0,.14.36c0,.06.07.12.11.17v0h0s0-.07-.1,0h0v0l0-.09c0-.13.08-.26.11-.39a1.76,1.76,0,0,0,.06-.39c0-.1-.09-.2-.17-.31l-.12-.17A1.74,1.74,0,0,1,10,6.52c0-.06-.07-.12-.11-.17l-.05-.06,0,0h0l-.19-.08L9.4,6.1A1.61,1.61,0,0,0,9,6a.59.59,0,0,0-.17,0l-.17.08a1.87,1.87,0,0,0-.3.26v0c0,.15-.06.31-.1.46h0s0,0,0,0,0-.31.05-.46h0a1.42,1.42,0,0,1,.3-.3.78.78,0,0,1,.18-.11L9,5.89A1.25,1.25,0,0,1,9.45,6l.2.07.18.07h.06l.06,0,.08.09a1.74,1.74,0,0,1,.11.18l.11.17.12.16a1.74,1.74,0,0,1,.11.18.35.35,0,0,1,.07.23,1.42,1.42,0,0,1-.07.42c0,.14-.08.27-.12.4l0,.1v0h0s0,0,0,0-.1,0-.09,0h0v0A1.74,1.74,0,0,1,10.06,8L10,7.76a1.66,1.66,0,0,1-.06-.21.82.82,0,0,1,0-.23.62.62,0,0,0,0-.18A.14.14,0,0,0,9.88,7L9.8,7H9.31l-.81.08h0A.08.08,0,0,1,8.43,7s0-.06.05-.07" transform="translate(-1.44 -0.67)"/><path class="cls-2" d="M8.52,6.58l1-.53a0,0,0,0,1,0,0,0,0,0,0,1,0,0l-.93.64a.08.08,0,0,1-.12,0,.09.09,0,0,1,0-.12h0" transform="translate(-1.44 -0.67)"/><path class="cls-2" d="M9.22,6c.09,0,.18.1,0,.19l0,0a1.06,1.06,0,0,1,.36-.06l-.31-.11Z" transform="translate(-1.44 -0.67)"/></g><g class="cls-94"><g class="cls-95"><polygon class="cls-68" points="7.3 4.3 2.76 10.54 2.76 4.3 7.3 4.3"/><polygon class="cls-68" points="7.39 4.3 2.76 10.66 2.76 10.54 7.3 4.3 7.39 4.3"/><polygon class="cls-70" points="7.48 4.3 2.77 10.78 2.76 10.78 2.76 10.66 7.39 4.3 7.48 4.3"/><polygon class="cls-72" points="7.57 4.3 2.86 10.78 2.77 10.78 7.48 4.3 7.57 4.3"/><polygon class="cls-73" points="7.67 4.3 2.95 10.78 2.86 10.78 7.57 4.3 7.67 4.3"/><polygon class="cls-26" points="7.76 4.3 3.04 10.78 2.95 10.78 7.67 4.3 7.76 4.3"/><polygon class="cls-28" points="7.85 4.3 3.13 10.78 3.04 10.78 7.76 4.3 7.85 4.3"/><polygon class="cls-96" points="7.94 4.3 3.22 10.78 3.13 10.78 7.85 4.3 7.94 4.3"/><polygon class="cls-31" points="8.03 4.3 3.31 10.78 3.22 10.78 7.94 4.3 8.03 4.3"/><polygon class="cls-97" points="8.12 4.3 3.4 10.78 3.31 10.78 8.03 4.3 8.12 4.3"/><polygon class="cls-34" points="8.21 4.3 3.49 10.78 3.4 10.78 8.12 4.3 8.21 4.3"/><polygon class="cls-98" points="8.3 4.3 3.58 10.78 3.49 10.78 8.21 4.3 8.3 4.3"/><polygon class="cls-37" points="8.39 4.3 3.68 10.78 3.58 10.78 8.3 4.3 8.39 4.3"/><polygon class="cls-74" points="8.48 4.3 3.77 10.78 3.68 10.78 8.39 4.3 8.48 4.3"/><polygon class="cls-75" points="8.57 4.3 3.86 10.78 3.77 10.78 8.48 4.3 8.57 4.3"/><polygon class="cls-41" points="8.67 4.3 3.95 10.78 3.86 10.78 8.57 4.3 8.67 4.3"/><polygon class="cls-42" points="8.76 4.3 4.04 10.78 3.95 10.78 8.67 4.3 8.76 4.3"/><polygon class="cls-79" points="8.85 4.3 4.13 10.78 4.04 10.78 8.76 4.3 8.85 4.3"/><polygon class="cls-80" points="8.94 4.3 4.22 10.78 4.13 10.78 8.85 4.3 8.94 4.3"/><polygon class="cls-81" points="9.03 4.3 4.31 10.78 4.22 10.78 8.94 4.3 9.03 4.3"/><polygon class="cls-82" points="9.12 4.3 4.4 10.78 4.31 10.78 9.03 4.3 9.12 4.3"/><polygon class="cls-83" points="9.21 4.31 4.5 10.78 4.4 10.78 9.12 4.3 9.21 4.3 9.21 4.31"/><polygon class="cls-84" points="9.21 4.43 4.59 10.78 4.5 10.78 9.21 4.31 9.21 4.43"/><polygon class="cls-85" points="9.21 4.56 4.68 10.78 4.59 10.78 9.21 4.43 9.21 4.56"/><polygon class="cls-86" points="9.21 4.68 4.77 10.78 4.68 10.78 9.21 4.56 9.21 4.68"/><polygon class="cls-99" points="9.21 4.81 4.86 10.78 4.77 10.78 9.21 4.68 9.21 4.81"/><polygon class="cls-87" points="9.21 4.93 4.95 10.78 4.86 10.78 9.21 4.81 9.21 4.93"/><polygon class="cls-88" points="9.21 5.06 5.04 10.78 4.95 10.78 9.21 4.93 9.21 5.06"/><polygon class="cls-89" points="9.21 5.18 5.13 10.78 5.04 10.78 9.21 5.06 9.21 5.18"/><polygon class="cls-89" points="9.21 5.31 5.22 10.78 5.13 10.78 9.21 5.18 9.21 5.31"/><polygon class="cls-90" points="9.21 5.43 5.31 10.78 5.22 10.78 9.21 5.31 9.21 5.43"/><polygon class="cls-90" points="9.21 5.56 5.41 10.78 5.31 10.78 9.21 5.43 9.21 5.56"/><polygon class="cls-91" points="9.21 5.68 5.5 10.78 5.41 10.78 9.21 5.56 9.21 5.68"/><polygon class="cls-91" points="9.21 5.81 5.59 10.78 5.5 10.78 9.21 5.68 9.21 5.81"/><polygon class="cls-91" points="9.21 5.93 5.68 10.78 5.59 10.78 9.21 5.81 9.21 5.93"/><polygon class="cls-92" points="9.21 6.06 5.77 10.78 5.68 10.78 9.21 5.93 9.21 6.06"/><polygon class="cls-92" points="9.21 6.18 5.86 10.78 5.77 10.78 9.21 6.06 9.21 6.18"/><polygon class="cls-92" points="9.21 6.31 5.95 10.78 5.86 10.78 9.21 6.18 9.21 6.31"/><polygon class="cls-92" points="9.21 6.43 6.04 10.78 5.95 10.78 9.21 6.31 9.21 6.43"/><polygon class="cls-92" points="6.04 10.78 9.21 6.43 9.21 10.78 6.04 10.78"/></g></g><g class="cls-3"><path class="cls-2" d="M7.33,6.4a3,3,0,0,0-.53.29,2.16,2.16,0,0,0-.44.41,1.55,1.55,0,0,0-.28.52,1.67,1.67,0,0,0,0,.59,1.08,1.08,0,0,0,.2.54,1.82,1.82,0,0,0,.42.41c.17.12.34.22.51.35a1,1,0,0,1,.24.22.64.64,0,0,1,.08.14.33.33,0,0,1,0,.17h0a.51.51,0,0,1,0-.25.61.61,0,0,1,.13-.22A2.33,2.33,0,0,1,8,9.21l.35-.32a1.88,1.88,0,0,0,.3-.34.81.81,0,0,0,.16-.4.31.31,0,0,0,0-.1V7.94a1.43,1.43,0,0,0,0-.22,1.81,1.81,0,0,0-.42-.81l0,0a1.09,1.09,0,0,1,.37.34A1.28,1.28,0,0,1,9,7.66a1.19,1.19,0,0,1,0,.26.53.53,0,0,1,0,.13.57.57,0,0,1,0,.13,1,1,0,0,1-.2.49,3.52,3.52,0,0,1-.73.67,3.65,3.65,0,0,0-.36.31A.67.67,0,0,0,7.5,10h0a.41.41,0,0,0-.11-.26,2.11,2.11,0,0,0-.23-.19c-.17-.11-.36-.21-.53-.33a1.6,1.6,0,0,1-.47-.43,1.2,1.2,0,0,1-.23-.61.86.86,0,0,1,0-.32,1.13,1.13,0,0,1,.06-.32,1.6,1.6,0,0,1,.13-.3A1.51,1.51,0,0,1,6.25,7a2.24,2.24,0,0,1,1.07-.67Z" transform="translate(-1.44 -0.67)"/><path class="cls-50" d="M8.08,7c-.4,0-.48-.37-.66-.55s-.61-.4-.61-.72a2.08,2.08,0,0,1,.09-.59s.57.62.88.62.57.5.57.87S8.08,7,8.08,7" transform="translate(-1.44 -0.67)"/><path class="cls-2" d="M8.09,7a.58.58,0,0,1-.32-.1.82.82,0,0,1-.21-.25,1.16,1.16,0,0,0-.18-.24l-.23-.2A1.21,1.21,0,0,1,6.91,6a.6.6,0,0,1-.09-.13.34.34,0,0,1-.05-.17,2.26,2.26,0,0,1,.07-.63h0l0-.09.07.07a3.57,3.57,0,0,0,.5.45.82.82,0,0,0,.28.14h.17a.44.44,0,0,1,.16.1.89.89,0,0,1,.22.29,1.28,1.28,0,0,1,.11.33.87.87,0,0,1,0,.36A.28.28,0,0,1,8.27,7L8.19,7l-.1,0m0-.1.07,0,0,0a.19.19,0,0,0,.07-.12.65.65,0,0,0,0-.31,1.06,1.06,0,0,0-.1-.3A.83.83,0,0,0,8,5.89a.33.33,0,0,0-.13-.07H7.69a1.2,1.2,0,0,1-.32-.16,4.5,4.5,0,0,1-.52-.46l.1,0H7a2,2,0,0,0-.1.59.33.33,0,0,0,0,.13A.5.5,0,0,0,7,6a1.47,1.47,0,0,0,.22.21,2.12,2.12,0,0,1,.24.2,1.5,1.5,0,0,1,.19.25.8.8,0,0,0,.2.21.42.42,0,0,0,.26.08" transform="translate(-1.44 -0.67)"/><polygon class="cls-2" points="9.33 6.24 8.92 5.54 9.04 4.71 8.19 4.42 7.7 3.74 6.88 4.19 6.08 4.06 5.77 4.81 5.51 4.57 5.45 4.63 5.4 5.07 5.5 5.3 5.12 5.7 5.07 5.65 5.42 5.29 5.34 5.08 5.39 4.6 5.51 4.48 5.75 4.7 6.04 3.99 6.87 4.12 7.72 3.65 8.23 4.37 9.12 4.66 8.99 5.52 9.39 6.21 9.33 6.24"/><polygon class="cls-2" points="8.72 5.91 8.3 5.48 8.17 4.38 8.43 3.97 8.49 4.01 8.24 4.4 8.36 5.45 8.71 5.8 8.94 5.5 9.36 5.46 9.37 5.53 8.97 5.56 8.72 5.91"/><polygon class="cls-2" points="8.94 5.56 8.28 5.18 7.4 4.62 6.85 4.17 6.72 3.72 6.78 3.7 6.9 4.13 7.44 4.57 8.31 5.12 8.97 5.5 8.94 5.56"/><polygon class="cls-2" points="6.05 4.95 6.04 4.89 6.47 4.79 7.44 4.58 8.2 4.36 8.22 4.42 7.46 4.64 6.05 4.95"/><polygon class="cls-2" points="6.41 5.05 6.35 5.03 6.45 4.81 6.85 4.14 6.9 4.17 6.51 4.84 6.41 5.05"/><rect class="cls-2" x="6.58" y="6.39" width="0.07" height="0.29" transform="translate(-3.99 4.28) rotate(-34.85)"/><rect class="cls-2" x="10.45" y="7.05" width="0.36" height="0.07" transform="translate(-3.58 6.32) rotate(-33.24)"/><polygon class="cls-2" points="3.93 10.02 3.59 9.69 3.51 6.37 3.8 6.03 5.08 5.99 5.08 6.06 3.83 6.09 3.58 6.39 3.66 9.66 3.96 9.96 5.71 9.92 6 9.6 6 9.26 6.07 9.26 6.07 9.63 5.74 9.98 3.93 10.02"/><polygon class="cls-2" points="4.01 9.84 3.79 9.58 3.69 6.48 3.94 6.22 4.91 6.22 4.91 6.29 3.97 6.29 3.76 6.51 3.85 9.55 4.04 9.78 5.6 9.72 5.79 9.52 5.79 8.89 5.86 8.89 5.86 9.54 5.63 9.79 4.01 9.84"/><polygon class="cls-2" points="4.13 9.68 3.96 9.47 3.96 9.46 3.88 6.6 4.05 6.39 4.84 6.39 4.84 6.45 4.08 6.45 3.94 6.63 4.03 9.45 4.17 9.61 5.49 9.59 5.63 9.44 5.63 8.79 5.69 8.79 5.69 9.47 5.52 9.65 4.13 9.68"/><rect class="cls-2" x="5.29" y="6.52" width="0.07" height="0.62" transform="translate(-4.42 3.69) rotate(-35.44)"/><rect class="cls-2" x="5.05" y="6.79" width="0.07" height="0.63" transform="translate(-5.09 6.89) rotate(-57.37)"/><rect class="cls-2" x="4.84" y="10.26" width="0.64" height="0.07" transform="translate(-6.1 3.62) rotate(-31.92)"/><rect class="cls-2" x="5.11" y="10.54" width="0.63" height="0.07" transform="translate(-7.85 8.85) rotate(-57.75)"/><rect class="cls-2" x="7.07" y="10.23" width="0.07" height="0.58" transform="translate(-6.13 5.16) rotate(-34.25)"/><rect class="cls-2" x="7.34" y="9.96" width="0.07" height="0.62" transform="translate(-6.63 11.05) rotate(-60.89)"/><path class="cls-2" d="M6.91,5.13a2.76,2.76,0,0,0,.2.47l.15.19a1.56,1.56,0,0,0,.2.16c.13.1.28.19.42.3l.1.08,0,0,.05.06,0,0s0,0,0,0v.06a.17.17,0,0,1,0,.07v0h0s0,0-.06,0A0,0,0,0,1,8,6.7v0H8V6.6a.13.13,0,0,1,0-.06v0a.71.71,0,0,0-.18-.16l-.43-.29a1.71,1.71,0,0,1-.2-.18A1.14,1.14,0,0,1,7,5.64a1.5,1.5,0,0,1-.15-.51h0Z" transform="translate(-1.44 -0.67)"/><polygon class="cls-2" points="7.16 9.87 7.09 9.85 7.2 9.41 7.06 9.08 7.12 9.06 7.26 9.4 7.16 9.87"/><polygon class="cls-2" points="6.95 9.46 6.95 9.39 7.22 9.37 8.07 8.58 8.12 8.34 8.18 8.36 8.13 8.62 7.24 9.44 6.95 9.46"/><polygon class="cls-2" points="7.56 10.34 7.5 10.31 7.6 10.13 7.69 9.7 7.54 9.09 7.52 8.86 7.58 8.85 7.61 9.08 7.75 9.7 7.66 10.15 7.56 10.34"/><polygon class="cls-2" points="7.63 10.17 7.22 10.05 7.24 9.99 7.64 10.11 8.24 10.03 7.7 9.73 7.21 9.43 7.25 9.38 7.74 9.68 8.44 10.07 7.63 10.17"/><polygon class="cls-2" points="9.56 8.71 8.78 8.71 8.19 8.19 8.94 8.06 8.95 8.13 8.34 8.23 8.81 8.64 9.43 8.64 9.06 8.17 9.12 8.13 9.56 8.71"/><polygon class="cls-2" points="10.12 8.8 9.45 8.7 9.6 8.4 9.66 8.43 9.55 8.65 10.13 8.73 10.12 8.8"/><polygon class="cls-2" points="10.6 9.69 9.75 9.37 9.47 8.69 9.53 8.66 9.8 9.32 10.5 9.58 10.3 8.97 10.36 8.95 10.6 9.69"/><polygon class="cls-2" points="10.41 10.61 10.29 10.23 11.03 10.16 10.5 9.63 10.74 9.46 10.78 9.51 10.6 9.64 11.17 10.21 10.38 10.29 10.47 10.59 10.41 10.61"/><polygon class="cls-2" points="8.14 10.68 7.61 10.16 7.66 10.12 8.16 10.61 8.75 10.42 8.25 10.02 9.6 10.02 10.15 9.84 9.75 9.37 8.78 8.71 8.1 8.63 8.11 8.57 8.81 8.64 9.8 9.33 10.27 9.88 9.61 10.08 8.43 10.08 8.89 10.45 8.14 10.68"/><path class="cls-2" d="M11.07,11.49l-.78-.34,0,.29H10.2l0-.39,0,0,.78-.39.8.24Zm-.73-.39.72.31.64-.47-.65-.19Z" transform="translate(-1.44 -0.67)"/><polygon class="cls-2" points="10.3 10.27 10.17 9.85 10.53 9.61 10.57 9.66 10.25 9.87 10.36 10.25 10.3 10.27"/></g></g></g></g></svg>