<svg xmlns="http://www.w3.org/2000/svg" xmlns:xlink="http://www.w3.org/1999/xlink" viewBox="0 0 136.06 67.84"><defs><style>.cls-1,.cls-4,.cls-7{fill:none;}.cls-2{fill:#171b22;}.cls-3{clip-path:url(#clip-path);}.cls-4,.cls-7{stroke:#231f20;stroke-miterlimit:10;}.cls-4{stroke-width:0.39px;}.cls-5{clip-path:url(#clip-path-3);}.cls-6{fill:url(#linear-gradient);}.cls-7{stroke-width:0.2px;}.cls-8{clip-path:url(#clip-path-5);}.cls-9{fill:url(#linear-gradient-2);}.cls-10{clip-path:url(#clip-path-7);}.cls-11{fill:url(#linear-gradient-3);}.cls-12{clip-path:url(#clip-path-9);}.cls-13{fill:url(#linear-gradient-4);}.cls-14{fill:#231f20;}.cls-15{fill:#009444;}.cls-16{clip-path:url(#clip-path-11);}.cls-17{fill:url(#linear-gradient-5);}.cls-18{fill:#39b54a;}</style><clipPath id="clip-path" transform="translate(0 -2.16)"><rect class="cls-1" x="90.69" width="49.95" height="49.95"/></clipPath><clipPath id="clip-path-3" transform="translate(0 -2.16)"><path class="cls-1" d="M115.88,29.37s-.27,5.23,7.13,5.23A10.66,10.66,0,0,0,128.6,33s-1.19-5.43-8.1-7Z"/></clipPath><linearGradient id="linear-gradient" x1="368.91" y1="196.54" x2="369.09" y2="196.54" gradientTransform="matrix(0, -76.81, -76.81, 0, 15217.45, 28371.7)" gradientUnits="userSpaceOnUse"><stop offset="0" stop-color="#70a3ca"/><stop offset="1" stop-color="#5f7faf"/></linearGradient><clipPath id="clip-path-5" transform="translate(0 -2.16)"><polygon class="cls-1" points="106.22 19.86 105.22 20.94 105.45 31.58 106.55 32.71 112.64 32.49 113.75 31.45 113.75 29.33 110.36 19.72 106.22 19.86"/></clipPath><linearGradient id="linear-gradient-2" x1="362.22" y1="199.23" x2="362.4" y2="199.23" gradientTransform="matrix(86, 0, 0, -86, -31050.11, 17160.63)" gradientUnits="userSpaceOnUse"><stop offset="0" stop-color="#2bb673"/><stop offset="1" stop-color="#00a79d"/></linearGradient><clipPath id="clip-path-7" transform="translate(0 -2.16)"><path class="cls-1" d="M110.49,20.53l10.36,3.18,1.22-.19c.9-.82,1.35-3,1.35-3.88S122.75,13,117,13s-7,6.62-6.47,7.49"/></clipPath><linearGradient id="linear-gradient-3" x1="363.63" y1="187.99" x2="363.81" y2="187.99" gradientTransform="matrix(0, 55.11, 55.11, 0, -10242.84, -20026.74)" gradientUnits="userSpaceOnUse"><stop offset="0" stop-color="#d43739"/><stop offset="1" stop-color="#db1e25"/></linearGradient><clipPath id="clip-path-9" transform="translate(0 -2.16)"><path class="cls-1" d="M116.32,21.2l-2.85,8.07s-.11.1,2.3.1,5.11-3.08,5.11-4.59-.07-1.81-.59-2.54a5.72,5.72,0,0,0-1.63-1.35Z"/></clipPath><linearGradient id="linear-gradient-4" x1="376.81" y1="199.4" x2="376.98" y2="199.4" gradientTransform="matrix(0, -28.8, -28.8, 0, 5860.84, 10881.78)" gradientUnits="userSpaceOnUse"><stop offset="0" stop-color="#f47e61"/><stop offset="1" stop-color="#ef3d32"/></linearGradient><clipPath id="clip-path-11" transform="translate(0 -2.16)"><path class="cls-1" d="M108.62,24.33c0,3.82,4.64,4,4.64,6,0-2,4.3-3.26,4.3-6a4.67,4.67,0,0,0-1.68-3.54l-3.09-1.55s-4.17,1.27-4.17,5.09"/></clipPath><linearGradient id="linear-gradient-5" x1="356.76" y1="191.01" x2="356.94" y2="191.01" gradientTransform="matrix(0, 48.65, 48.65, 0, -9179.18, -17333.6)" gradientUnits="userSpaceOnUse"><stop offset="0" stop-color="#f47e61"/><stop offset="0.23" stop-color="#f2654f"/><stop offset="0.5" stop-color="#f04f3f"/><stop offset="0.76" stop-color="#ef4235"/><stop offset="1" stop-color="#ef3d32"/></linearGradient></defs><title>company-gja</title><g id="Layer_2" data-name="Layer 2"><g id="Layer_1-2" data-name="Layer 1"><path class="cls-2" d="M16.65,3.47v6h-.46a7.71,7.71,0,0,0-2.52-3.73A5.93,5.93,0,0,0,10,4.45,4.72,4.72,0,0,0,6.83,5.52,5.81,5.81,0,0,0,5,8.5a14.83,14.83,0,0,0-.52,3.93,14.57,14.57,0,0,0,.57,4.29A5,5,0,0,0,7,19.42a5.38,5.38,0,0,0,3.05.86,6.13,6.13,0,0,0,1.26-.13,8.82,8.82,0,0,0,1.32-.38V16.24a3.83,3.83,0,0,0-.14-1.3,1.29,1.29,0,0,0-.57-.53,2.1,2.1,0,0,0-1-.24h-.44v-.46h8.25v.46a3.77,3.77,0,0,0-1.31.26,1.24,1.24,0,0,0-.57.64,3.77,3.77,0,0,0-.11,1.17v3.53a16.76,16.76,0,0,1-3.39,1.09,17.45,17.45,0,0,1-3.65.37,10.75,10.75,0,0,1-4-.65,10.12,10.12,0,0,1-2.81-1.73A8.11,8.11,0,0,1,.87,16.44,8.47,8.47,0,0,1,0,12.57,8.73,8.73,0,0,1,2.69,6.1,9.27,9.27,0,0,1,9.46,3.46a12,12,0,0,1,2.28.2,11.09,11.09,0,0,1,1.78.57A7.87,7.87,0,0,0,15,4.7a1,1,0,0,0,.65-.26,2.28,2.28,0,0,0,.56-1Z" transform="translate(0 -2.16)"/><path class="cls-2" d="M29.68,14.56H23.26a6,6,0,0,0,1.24,3.68,2.6,2.6,0,0,0,2.07,1,2.38,2.38,0,0,0,1.37-.42,5.28,5.28,0,0,0,1.31-1.51l.43.28a7.17,7.17,0,0,1-2.11,2.75,4.47,4.47,0,0,1-2.66.8,4.41,4.41,0,0,1-3.94-2,7,7,0,0,1-1.08-4,6.69,6.69,0,0,1,1.58-4.67,4.9,4.9,0,0,1,3.71-1.73,4,4,0,0,1,3.09,1.46A6.67,6.67,0,0,1,29.68,14.56Zm-3.08-.84A11.81,11.81,0,0,0,26.38,11a2.29,2.29,0,0,0-.68-1.14,1.05,1.05,0,0,0-.7-.23,1.25,1.25,0,0,0-1.07.64,5.48,5.48,0,0,0-.74,3v.44Z" transform="translate(0 -2.16)"/><path class="cls-2" d="M36.66,8.78a5.36,5.36,0,0,1,2.84.79,5,5,0,0,1,2,2.24A7.47,7.47,0,0,1,42.18,15a6.75,6.75,0,0,1-1.26,4.17,5,5,0,0,1-4.22,2,4.82,4.82,0,0,1-4.07-1.85A6.86,6.86,0,0,1,31.21,15a6.94,6.94,0,0,1,1.45-4.39A4.79,4.79,0,0,1,36.66,8.78Zm.05.89a1.45,1.45,0,0,0-1.09.48,3.26,3.26,0,0,0-.6,1.9c-.1.95-.15,2.26-.15,3.95a16.56,16.56,0,0,0,.18,2.51,2.35,2.35,0,0,0,.59,1.35,1.38,1.38,0,0,0,1,.46A1.4,1.4,0,0,0,37.6,20a2.1,2.1,0,0,0,.65-1.19A28.69,28.69,0,0,0,38.5,14a11.75,11.75,0,0,0-.24-2.92,2.17,2.17,0,0,0-.7-1.16A1.33,1.33,0,0,0,36.71,9.67Z" transform="translate(0 -2.16)"/><path class="cls-2" d="M48.82,9.13v2.65a8.43,8.43,0,0,1,2-2.41,3,3,0,0,1,1.69-.59,1.49,1.49,0,0,1,1.12.43,1.67,1.67,0,0,1,.42,1.22,1.91,1.91,0,0,1-.41,1.3,1.26,1.26,0,0,1-1,.47,1.71,1.71,0,0,1-1.15-.43L51,11.29a.54.54,0,0,0-.29-.07,1.08,1.08,0,0,0-.69.27,2.59,2.59,0,0,0-.77,1.22,8.42,8.42,0,0,0-.4,2.68v3.39a2.75,2.75,0,0,0,.09.91,1,1,0,0,0,.44.5,2.61,2.61,0,0,0,1,.19v.45H44v-.45a1.39,1.39,0,0,0,1-.42,3.86,3.86,0,0,0,.27-1.88V11.61a5.24,5.24,0,0,0-.1-1.28,1.06,1.06,0,0,0-.37-.51A1.85,1.85,0,0,0,44,9.59V9.13Z" transform="translate(0 -2.16)"/><path class="cls-2" d="M62.85,9.27h3.94v1.37H64.55a4.18,4.18,0,0,1,.85,1.12,3.43,3.43,0,0,1,.3,1.41A3.54,3.54,0,0,1,65,15.35a4.59,4.59,0,0,1-1.89,1.43A5.4,5.4,0,0,1,61,17.3l-1.51-.06a1.28,1.28,0,0,0-.94.37,1.2,1.2,0,0,0-.38.88.91.91,0,0,0,.34.74,1.75,1.75,0,0,0,1.12.29l2.17,0a7.89,7.89,0,0,1,3.61.58,2.63,2.63,0,0,1,1.42,2.47,3.16,3.16,0,0,1-.65,1.93,3.76,3.76,0,0,1-1.72,1.28,10.34,10.34,0,0,1-3.71.62,12.71,12.71,0,0,1-2.88-.31A4.13,4.13,0,0,1,56,25.21a1.63,1.63,0,0,1-.56-1.15,1.46,1.46,0,0,1,.43-1,3.43,3.43,0,0,1,1.61-.77A2.45,2.45,0,0,1,55.85,20a2.67,2.67,0,0,1,.66-1.68,5.39,5.39,0,0,1,2.11-1.41,5.2,5.2,0,0,1-2.43-1.61A3.77,3.77,0,0,1,55.44,13a3.89,3.89,0,0,1,1.4-3,5.19,5.19,0,0,1,3.61-1.26A6.47,6.47,0,0,1,62.85,9.27ZM60,22.56a4.33,4.33,0,0,0-1.69.21,1.18,1.18,0,0,0-.72,1.06A1.44,1.44,0,0,0,58.28,25a5.16,5.16,0,0,0,2.78.52A6.55,6.55,0,0,0,63.79,25a1.44,1.44,0,0,0,1-1.3.75.75,0,0,0-.19-.53,1.8,1.8,0,0,0-1-.51A26.75,26.75,0,0,0,60,22.56Zm.73-13a1.44,1.44,0,0,0-1.22.73,6,6,0,0,0-.5,3,4.69,4.69,0,0,0,.49,2.56,1.41,1.41,0,0,0,1.17.7,1.49,1.49,0,0,0,1.25-.69,4.88,4.88,0,0,0,.5-2.68,5.8,5.8,0,0,0-.56-3.06A1.29,1.29,0,0,0,60.68,9.56Z" transform="translate(0 -2.16)"/><path class="cls-2" d="M72.73,9.13V18.4A2.85,2.85,0,0,0,73,20a1.55,1.55,0,0,0,1.13.39v.45H67.82v-.45A1.49,1.49,0,0,0,69,19.93a2.76,2.76,0,0,0,.25-1.53V11.57A2.78,2.78,0,0,0,68.93,10a1.56,1.56,0,0,0-1.11-.4V9.13ZM71,3.46A1.88,1.88,0,0,1,72.35,4a1.85,1.85,0,0,1,.56,1.37,1.84,1.84,0,0,1-.57,1.36A1.86,1.86,0,0,1,71,7.33a1.84,1.84,0,0,1-1.36-.57A1.84,1.84,0,0,1,69,5.4,1.86,1.86,0,0,1,69.61,4,1.84,1.84,0,0,1,71,3.46Z" transform="translate(0 -2.16)"/><path class="cls-2" d="M81.74,19.11A6.18,6.18,0,0,1,77.9,21a2.27,2.27,0,0,1-1.67-.66,2.24,2.24,0,0,1-.66-1.65,3.23,3.23,0,0,1,1.15-2.41,22.13,22.13,0,0,1,5-2.85V12.26a6,6,0,0,0-.14-1.67,1.36,1.36,0,0,0-.55-.6,1.58,1.58,0,0,0-.9-.26,2.33,2.33,0,0,0-1.34.36.65.65,0,0,0-.33.53,1.1,1.1,0,0,0,.36.65,1.64,1.64,0,0,1,.47,1,1.36,1.36,0,0,1-.46,1,1.65,1.65,0,0,1-1.19.44,1.88,1.88,0,0,1-1.32-.48,1.44,1.44,0,0,1-.53-1.11,2.56,2.56,0,0,1,.71-1.72,4.44,4.44,0,0,1,2-1.26,8.18,8.18,0,0,1,2.65-.44,4.49,4.49,0,0,1,2.64.7A3.48,3.48,0,0,1,85.06,11a10.42,10.42,0,0,1,.17,2.41V18a4.1,4.1,0,0,0,.07,1,.59.59,0,0,0,.18.3.43.43,0,0,0,.29.1c.22,0,.44-.15.66-.46l.38.3a4.56,4.56,0,0,1-1.3,1.35A2.78,2.78,0,0,1,84,21a2.36,2.36,0,0,1-1.56-.47A2.12,2.12,0,0,1,81.74,19.11Zm0-.92V14.27a7.32,7.32,0,0,0-2.25,1.91A2.27,2.27,0,0,0,79,17.54a1.43,1.43,0,0,0,.41,1,1.12,1.12,0,0,0,.88.34A2.4,2.4,0,0,0,81.74,18.19Z" transform="translate(0 -2.16)"/><path class="cls-2" d="M3.37,29.8v-.46h9v.46h-.55a2.32,2.32,0,0,0-1.2.27,1.13,1.13,0,0,0-.5.6A5.17,5.17,0,0,0,10,32.25v8.31a9.37,9.37,0,0,1-.49,3.55A4.13,4.13,0,0,1,7.78,46a5.8,5.8,0,0,1-3,.74,5.14,5.14,0,0,1-3.46-1.12A3.28,3.28,0,0,1,0,43.09a2,2,0,0,1,.54-1.43,1.77,1.77,0,0,1,1.31-.54,1.77,1.77,0,0,1,1.28.49,1.56,1.56,0,0,1,.53,1.2,2.18,2.18,0,0,1-.09.61,6,6,0,0,1-.4.64,1.56,1.56,0,0,0-.34.71.71.71,0,0,0,.32.57,2.07,2.07,0,0,0,1.24.35,1.36,1.36,0,0,0,.89-.28,1.49,1.49,0,0,0,.5-.85,21.11,21.11,0,0,0,.14-3.24V32.25a5.6,5.6,0,0,0-.14-1.63,1.3,1.3,0,0,0-.57-.57,2.15,2.15,0,0,0-1.13-.25Z" transform="translate(0 -2.16)"/><path class="cls-2" d="M23.32,40H16.9a6.07,6.07,0,0,0,1.24,3.68,2.61,2.61,0,0,0,2.08,1,2.35,2.35,0,0,0,1.36-.42,5.15,5.15,0,0,0,1.32-1.51l.42.28a7.07,7.07,0,0,1-2.1,2.75,4.53,4.53,0,0,1-2.67.81,4.43,4.43,0,0,1-3.94-2,7,7,0,0,1-1.08-4A6.64,6.64,0,0,1,15.12,36a4.88,4.88,0,0,1,3.71-1.73,4,4,0,0,1,3.08,1.46A6.56,6.56,0,0,1,23.32,40Zm-3.08-.84A11.27,11.27,0,0,0,20,36.44a2.22,2.22,0,0,0-.68-1.14,1,1,0,0,0-.7-.22,1.23,1.23,0,0,0-1.06.63,5.41,5.41,0,0,0-.74,3.06v.43Z" transform="translate(0 -2.16)"/><path class="cls-2" d="M36.39,46.67l-3.21-8.59L30,46.67h-.65l-3.12-8.49a9.56,9.56,0,0,0-1.18-2.53,1.7,1.7,0,0,0-1-.57v-.47H30v.47a1.43,1.43,0,0,0-.83.17.53.53,0,0,0-.22.4,6,6,0,0,0,.4,1.28l1.72,4.56,1.65-4.56-.13-.3a3.75,3.75,0,0,0-.65-1.2,1.67,1.67,0,0,0-.87-.35v-.47h6v.47a1.65,1.65,0,0,0-.89.19.54.54,0,0,0-.18.44,4.7,4.7,0,0,0,.36,1.22L38,41.49l1.5-4.2a4.47,4.47,0,0,0,.33-1.23.94.94,0,0,0-.24-.71,1.55,1.55,0,0,0-.93-.27v-.47h3.47v.47a1.48,1.48,0,0,0-.91.4,5.87,5.87,0,0,0-.88,1.89l-3.28,9.3Z" transform="translate(0 -2.16)"/><path class="cls-2" d="M53.21,40H46.79A6.07,6.07,0,0,0,48,43.72a2.61,2.61,0,0,0,2.08,1,2.35,2.35,0,0,0,1.36-.42,5.15,5.15,0,0,0,1.32-1.51l.42.28a7.07,7.07,0,0,1-2.1,2.75,4.53,4.53,0,0,1-2.67.81,4.43,4.43,0,0,1-3.94-2,7,7,0,0,1-1.08-4A6.64,6.64,0,0,1,45,36a4.88,4.88,0,0,1,3.71-1.73,4.06,4.06,0,0,1,3.09,1.46A6.61,6.61,0,0,1,53.21,40Zm-3.08-.84a11.27,11.27,0,0,0-.22-2.76,2.22,2.22,0,0,0-.68-1.14,1,1,0,0,0-.7-.22,1.23,1.23,0,0,0-1.06.63,5.49,5.49,0,0,0-.74,3.06v.43Z" transform="translate(0 -2.16)"/><path class="cls-2" d="M59.26,29.34V43.89a2.72,2.72,0,0,0,.29,1.58,1.52,1.52,0,0,0,1.12.39v.45H54.35v-.45a1.47,1.47,0,0,0,1.15-.45,2.74,2.74,0,0,0,.25-1.52V31.77a2.79,2.79,0,0,0-.28-1.57,1.6,1.6,0,0,0-1.12-.4v-.46Z" transform="translate(0 -2.16)"/><path class="cls-2" d="M71.71,40H65.29a6.07,6.07,0,0,0,1.24,3.68,2.61,2.61,0,0,0,2.08,1A2.33,2.33,0,0,0,70,44.34a5.15,5.15,0,0,0,1.32-1.51l.42.28a7.07,7.07,0,0,1-2.1,2.75,4.52,4.52,0,0,1-2.66.81,4.44,4.44,0,0,1-4-2,7,7,0,0,1-1.08-4A6.64,6.64,0,0,1,63.51,36a4.88,4.88,0,0,1,3.71-1.73,4,4,0,0,1,3.09,1.46A6.61,6.61,0,0,1,71.71,40Zm-3.08-.84a11.27,11.27,0,0,0-.22-2.76,2.22,2.22,0,0,0-.68-1.14,1,1,0,0,0-.7-.22,1.24,1.24,0,0,0-1.06.63,5.49,5.49,0,0,0-.74,3.06v.43Z" transform="translate(0 -2.16)"/><path class="cls-2" d="M78,34.61v2.65a8.53,8.53,0,0,1,2-2.4,3,3,0,0,1,1.69-.6,1.51,1.51,0,0,1,1.12.43,1.69,1.69,0,0,1,.42,1.22,1.89,1.89,0,0,1-.4,1.3,1.27,1.27,0,0,1-1,.47,1.73,1.73,0,0,1-1.15-.43c-.32-.28-.52-.44-.57-.47a.57.57,0,0,0-.29-.08,1,1,0,0,0-.69.28,2.51,2.51,0,0,0-.77,1.21A8.42,8.42,0,0,0,78,40.87v2.69l0,.7a3,3,0,0,0,.08.92,1,1,0,0,0,.45.49,2.51,2.51,0,0,0,1,.19v.45H73.25v-.45a1.34,1.34,0,0,0,1-.42,3.84,3.84,0,0,0,.27-1.88V37.09a4.76,4.76,0,0,0-.1-1.28,1,1,0,0,0-.36-.51,1.91,1.91,0,0,0-.84-.22v-.47Z" transform="translate(0 -2.16)"/><path class="cls-2" d="M92,34.29l.19,4h-.43a6.15,6.15,0,0,0-1.58-2.43,2.63,2.63,0,0,0-1.63-.65,1.23,1.23,0,0,0-.88.34,1.08,1.08,0,0,0-.36.8,1,1,0,0,0,.25.65,12.05,12.05,0,0,0,2.24,1.76,9,9,0,0,1,2.42,2.11,3.41,3.41,0,0,1,.58,2,4.2,4.2,0,0,1-.48,1.92,3.46,3.46,0,0,1-1.38,1.43,3.88,3.88,0,0,1-2,.51,6.93,6.93,0,0,1-2.24-.53,2,2,0,0,0-.51-.14c-.28,0-.5.21-.69.63h-.41l-.2-4.21h.42a5.45,5.45,0,0,0,1.55,2.48,3,3,0,0,0,1.86.83,1.37,1.37,0,0,0,1-.37,1.19,1.19,0,0,0,.38-.9,1.56,1.56,0,0,0-.37-1A9.79,9.79,0,0,0,88,42.1a13.31,13.31,0,0,1-2.48-2,3.54,3.54,0,0,1-.82-2.27,3.67,3.67,0,0,1,.93-2.44,3.32,3.32,0,0,1,2.7-1.1,3.88,3.88,0,0,1,1.83.46,1.22,1.22,0,0,0,.56.19.64.64,0,0,0,.36-.09,2.65,2.65,0,0,0,.44-.53Z" transform="translate(0 -2.16)"/><path class="cls-2" d="M10.46,64.81h-6l-.72,1.66a3.67,3.67,0,0,0-.34,1.36,1.12,1.12,0,0,0,.57,1,4.74,4.74,0,0,0,1.67.3v.46H0v-.46a2.47,2.47,0,0,0,1.5-.76A9.79,9.79,0,0,0,3,65.86L9,52.32h.23l6.12,13.92a8.68,8.68,0,0,0,1.44,2.49,2,2,0,0,0,1.2.45v.46H9.81v-.46h.34a2.62,2.62,0,0,0,1.39-.27.67.67,0,0,0,.28-.58,1.54,1.54,0,0,0-.08-.46,7.87,7.87,0,0,0-.38-.94ZM10,63.89,7.51,58l-2.6,5.85Z" transform="translate(0 -2.16)"/><path class="cls-2" d="M26.58,57.62l.18,4h-.42a6.38,6.38,0,0,0-1.58-2.43,2.68,2.68,0,0,0-1.64-.65,1.21,1.21,0,0,0-.87.34,1.06,1.06,0,0,0-.37.8,1.08,1.08,0,0,0,.25.65,12.44,12.44,0,0,0,2.24,1.76,9.28,9.28,0,0,1,2.43,2.11,3.49,3.49,0,0,1,.58,2,4.21,4.21,0,0,1-.49,1.92,3.46,3.46,0,0,1-1.38,1.43,3.87,3.87,0,0,1-2,.51,6.82,6.82,0,0,1-2.24-.53,1.92,1.92,0,0,0-.52-.14q-.41,0-.69.63h-.41l-.2-4.21h.43a5.44,5.44,0,0,0,1.54,2.48,3,3,0,0,0,1.86.83,1.37,1.37,0,0,0,1-.37,1.2,1.2,0,0,0,.39-.9,1.57,1.57,0,0,0-.38-1,9.79,9.79,0,0,0-1.68-1.32,13.68,13.68,0,0,1-2.48-2,3.54,3.54,0,0,1-.82-2.27,3.67,3.67,0,0,1,.93-2.44,3.32,3.32,0,0,1,2.7-1.1,3.92,3.92,0,0,1,1.84.46,1.16,1.16,0,0,0,.55.19.64.64,0,0,0,.36-.09,2.65,2.65,0,0,0,.44-.53Z" transform="translate(0 -2.16)"/><path class="cls-2" d="M36.55,57.62l.19,4h-.43a6.26,6.26,0,0,0-1.58-2.43,2.66,2.66,0,0,0-1.63-.65,1.21,1.21,0,0,0-.88.34,1.08,1.08,0,0,0-.36.8,1,1,0,0,0,.25.65,11.69,11.69,0,0,0,2.24,1.76,9.2,9.2,0,0,1,2.42,2.11,3.41,3.41,0,0,1,.58,2,4.2,4.2,0,0,1-.48,1.92,3.46,3.46,0,0,1-1.38,1.43,3.88,3.88,0,0,1-2,.51,6.88,6.88,0,0,1-2.24-.53,2,2,0,0,0-.51-.14q-.42,0-.69.63h-.41l-.2-4.21h.42a5.45,5.45,0,0,0,1.55,2.48,3,3,0,0,0,1.86.83,1.37,1.37,0,0,0,1-.37,1.19,1.19,0,0,0,.38-.9,1.56,1.56,0,0,0-.37-1,9.79,9.79,0,0,0-1.68-1.32,13,13,0,0,1-2.48-2,3.55,3.55,0,0,1-.83-2.27,3.68,3.68,0,0,1,.94-2.44,3.31,3.31,0,0,1,2.69-1.1,3.89,3.89,0,0,1,1.84.46,1.19,1.19,0,0,0,.56.19.64.64,0,0,0,.36-.09,2.65,2.65,0,0,0,.44-.53Z" transform="translate(0 -2.16)"/><path class="cls-2" d="M44.65,57.59a5.39,5.39,0,0,1,2.84.79,5.07,5.07,0,0,1,2,2.24,7.47,7.47,0,0,1,.68,3.18A6.75,6.75,0,0,1,48.91,68a5,5,0,0,1-4.22,2,4.83,4.83,0,0,1-4.07-1.86,6.82,6.82,0,0,1-1.43-4.29,7,7,0,0,1,1.46-4.39A4.79,4.79,0,0,1,44.65,57.59Zm.05.89a1.43,1.43,0,0,0-1.09.48,3.35,3.35,0,0,0-.61,1.9c-.09,1-.14,2.27-.14,4A17.9,17.9,0,0,0,43,67.32a2.49,2.49,0,0,0,.59,1.35,1.4,1.4,0,0,0,1,.46,1.42,1.42,0,0,0,.94-.31,2.16,2.16,0,0,0,.65-1.19,28.6,28.6,0,0,0,.25-4.81,11.75,11.75,0,0,0-.24-2.92,2.27,2.27,0,0,0-.7-1.16A1.35,1.35,0,0,0,44.7,58.48Z" transform="translate(0 -2.16)"/><path class="cls-2" d="M61.5,66.63l.39.3a5.92,5.92,0,0,1-2.06,2.31,5,5,0,0,1-2.62.76,4.54,4.54,0,0,1-3.75-1.77A6.64,6.64,0,0,1,52.06,64a7.07,7.07,0,0,1,1.28-4.21,4.9,4.9,0,0,1,4.24-2.19,4.32,4.32,0,0,1,2.88.91,2.65,2.65,0,0,1,1.08,2A1.49,1.49,0,0,1,60,62.11a1.63,1.63,0,0,1-1.22-.49,2.79,2.79,0,0,1-.59-1.74,1.93,1.93,0,0,0-.37-1.1.87.87,0,0,0-.67-.31,1.22,1.22,0,0,0-1,.64,5.35,5.35,0,0,0-.65,3A9.32,9.32,0,0,0,56,65.22a4.89,4.89,0,0,0,1.43,2.25A2.58,2.58,0,0,0,59,68a2.53,2.53,0,0,0,1.17-.29A5.8,5.8,0,0,0,61.5,66.63Z" transform="translate(0 -2.16)"/><path class="cls-2" d="M67.9,57.94v9.28a2.83,2.83,0,0,0,.28,1.58,1.55,1.55,0,0,0,1.13.39v.45H63v-.45a1.49,1.49,0,0,0,1.15-.45,2.74,2.74,0,0,0,.25-1.52V60.38a2.8,2.8,0,0,0-.29-1.58A1.51,1.51,0,0,0,63,58.41v-.47Zm-1.76-5.67a1.93,1.93,0,0,1,1.94,1.94,1.86,1.86,0,0,1-.57,1.37,1.89,1.89,0,0,1-1.37.56,1.93,1.93,0,0,1-1.36-3.3A1.84,1.84,0,0,1,66.14,52.27Z" transform="translate(0 -2.16)"/><path class="cls-2" d="M76.91,67.92a6.18,6.18,0,0,1-3.84,1.89,2.27,2.27,0,0,1-1.67-.66,2.24,2.24,0,0,1-.66-1.65,3.2,3.2,0,0,1,1.15-2.4,21.15,21.15,0,0,1,5-2.85V61.07a5.49,5.49,0,0,0-.15-1.67,1.33,1.33,0,0,0-.54-.6,1.66,1.66,0,0,0-.9-.26,2.26,2.26,0,0,0-1.34.37.63.63,0,0,0-.33.52,1.1,1.1,0,0,0,.35.65,1.61,1.61,0,0,1,.48,1A1.38,1.38,0,0,1,74,62.17a1.69,1.69,0,0,1-1.19.43,1.88,1.88,0,0,1-1.32-.48A1.43,1.43,0,0,1,71,61a2.57,2.57,0,0,1,.72-1.72,4.44,4.44,0,0,1,2-1.26,8.14,8.14,0,0,1,2.65-.44A4.42,4.42,0,0,1,79,58.3a3.4,3.4,0,0,1,1.26,1.53,10.47,10.47,0,0,1,.17,2.42v4.54a5,5,0,0,0,.06,1,.56.56,0,0,0,.19.3.44.44,0,0,0,.29.11.91.91,0,0,0,.66-.47L82,68a4.56,4.56,0,0,1-1.3,1.35,2.8,2.8,0,0,1-1.52.42,2.36,2.36,0,0,1-1.56-.47A2.12,2.12,0,0,1,76.91,67.92Zm0-.92V63.09A7.34,7.34,0,0,0,74.65,65a2.32,2.32,0,0,0-.48,1.36,1.43,1.43,0,0,0,.41,1,1.15,1.15,0,0,0,.87.33A2.4,2.4,0,0,0,76.91,67Z" transform="translate(0 -2.16)"/><path class="cls-2" d="M87.91,53.66v4.28h2.78v1.24H87.91V66.4a5,5,0,0,0,.1,1.31,1,1,0,0,0,.33.48.74.74,0,0,0,.44.18c.54,0,1-.42,1.54-1.24l.37.27a3.42,3.42,0,0,1-3.29,2.41,3,3,0,0,1-1.89-.62,2.8,2.8,0,0,1-1-1.38,12.46,12.46,0,0,1-.12-2.31V59.18H82.88v-.44a15.61,15.61,0,0,0,2.68-2.34,14.23,14.23,0,0,0,1.94-2.74Z" transform="translate(0 -2.16)"/><path class="cls-2" d="M96.37,57.94v9.28a2.8,2.8,0,0,0,.29,1.58,1.55,1.55,0,0,0,1.13.39v.45H91.47v-.45a1.49,1.49,0,0,0,1.15-.45,2.74,2.74,0,0,0,.25-1.52V60.38a2.8,2.8,0,0,0-.29-1.58,1.51,1.51,0,0,0-1.11-.39v-.47Zm-1.75-5.67a1.88,1.88,0,0,1,1.38.57,1.9,1.9,0,0,1,.56,1.37A1.86,1.86,0,0,1,96,55.58a1.89,1.89,0,0,1-1.37.56,1.93,1.93,0,0,1-1.36-3.3A1.84,1.84,0,0,1,94.62,52.27Z" transform="translate(0 -2.16)"/><path class="cls-2" d="M104.45,57.59a5.39,5.39,0,0,1,2.84.79,5,5,0,0,1,2,2.24A7.33,7.33,0,0,1,110,63.8,6.7,6.7,0,0,1,108.7,68a5,5,0,0,1-4.21,2,4.81,4.81,0,0,1-4.07-1.86A6.77,6.77,0,0,1,99,63.85a7,7,0,0,1,1.46-4.39A4.78,4.78,0,0,1,104.45,57.59Zm0,.89a1.47,1.47,0,0,0-1.1.48,3.44,3.44,0,0,0-.6,1.9c-.1,1-.14,2.27-.14,4a17.9,17.9,0,0,0,.17,2.51,2.42,2.42,0,0,0,.59,1.35,1.39,1.39,0,0,0,1,.46,1.42,1.42,0,0,0,.94-.31,2.16,2.16,0,0,0,.65-1.19,29.77,29.77,0,0,0,.25-4.81,11.75,11.75,0,0,0-.24-2.92,2.27,2.27,0,0,0-.7-1.16A1.35,1.35,0,0,0,104.5,58.48Z" transform="translate(0 -2.16)"/><path class="cls-2" d="M116.53,57.94v1.51A7,7,0,0,1,118.25,58a3.78,3.78,0,0,1,1.78-.44,2.84,2.84,0,0,1,1.89.63,3.07,3.07,0,0,1,1,1.57,11.76,11.76,0,0,1,.2,2.74v4.56a3.47,3.47,0,0,0,.25,1.68,1.35,1.35,0,0,0,1,.42v.45h-5.92v-.45a1.23,1.23,0,0,0,1-.55,3.6,3.6,0,0,0,.2-1.55V61.88a8.91,8.91,0,0,0-.11-1.81,1.11,1.11,0,0,0-.39-.58.93.93,0,0,0-.59-.21c-.72,0-1.39.51-2,1.54v6.27a3.58,3.58,0,0,0,.24,1.67,1.23,1.23,0,0,0,.91.43v.45h-5.92v-.45a1.44,1.44,0,0,0,1-.47,3.59,3.59,0,0,0,.21-1.63V60.48a3.42,3.42,0,0,0-.24-1.65,1.47,1.47,0,0,0-1-.42v-.47Z" transform="translate(0 -2.16)"/><g class="cls-3"><g class="cls-3"><path class="cls-4" d="M115.12,2.36H95.47s4.88,21.19,5,21.69,1,1.18,1,1.73a7.21,7.21,0,0,1-.47,1.86c0,.38,1.18.73,1.18,1.26a1.64,1.64,0,0,0,.58,1.42c.54.54.86.47.63,1s-1.29.82-1.29,1.27,0,.58,0,.77c0,.54-.53.81-.53,1.36,0,.81,1,.9,1,1.82a34.38,34.38,0,0,1-.89,4.33,2.42,2.42,0,0,1,1.1,1.69c0,.5.72,3.12,2,3.12l21-.09a1.07,1.07,0,0,1,1,1.06,1.11,1.11,0,0,0,1.21,1c.35,0,.62-.53.62-1.24s-.56-1.38-.56-2.52a1.15,1.15,0,0,1,1.3-1.12c.62,0,2.29,1.07,2.68,1.07s.47-.79.47-1.31a7.83,7.83,0,0,0-.49-1.76A1.89,1.89,0,0,0,133.16,39c0-1.58.58-1.79.58-2.36s-.52-1.13-.52-1.68c0-.33,1.07-.4,1.07-2a.72.72,0,0,1,.47-.77,2.7,2.7,0,0,0,1.1-1.8,4,4,0,0,1-2.07-2.23c-.49-1.56-.32-1.81-1.13-2a1.53,1.53,0,0,1-1.1-1.62,1.66,1.66,0,0,0-1-1.57,1.44,1.44,0,0,1-.87-1.4c0-.56-.54-1-1.37-1-1.18,0-1.3-.74-1.48-1.12s-.71-1.86-1.26-2-1.41-.78-1.41-1.49c0,0-1.78-1.89-2.36-2.6s-1.85-1.22-2.4-2.34-.59-1.22-.59-1.22l-1.54-2.05c-2.66,0-3.76-1.42-3.76-1.91C113.51,5.55,115.12,4,115.12,2.36Z" transform="translate(0 -2.16)"/></g><g class="cls-5"><rect class="cls-6" x="115.74" y="22.68" width="12.73" height="15.23" transform="translate(49.6 130.95) rotate(-68.74)"/></g><g class="cls-3"><path class="cls-7" d="M115.88,29.37s-.27,5.23,7.13,5.23A10.66,10.66,0,0,0,128.6,33s-1.19-5.43-8.1-7" transform="translate(0 -2.16)"/></g><g class="cls-8"><rect class="cls-9" x="101.85" y="19.76" width="15.29" height="12.92" transform="translate(42.63 114.64) rotate(-67.04)"/></g><g class="cls-3"><polyline class="cls-7" points="110.36 17.56 106.22 17.7 105.23 18.78 105.45 29.42 106.55 30.55 112.64 30.33 113.75 29.29 113.75 27.17"/></g><g class="cls-10"><rect class="cls-11" x="109.92" y="10.88" width="13.5" height="10.67"/></g><g class="cls-3"><path class="cls-7" d="M110.49,20.53c-.57-.87.67-7.49,6.47-7.49s6.46,5.73,6.46,6.6-.45,3.06-1.35,3.88l-1.22.19" transform="translate(0 -2.16)"/></g><g class="cls-12"><rect class="cls-13" x="111.79" y="20.07" width="10.66" height="10.12" transform="translate(50.29 122.38) rotate(-68.2)"/></g><g class="cls-3"><path class="cls-14" d="M113.61,29.41a.21.21,0,0,0,0-.2c0-.07,0,0,0-.06l0,0h2.12l.42,0a3.73,3.73,0,0,0,.81-.22,5.57,5.57,0,0,0,1.48-.88,7.54,7.54,0,0,0,1.24-1.22,5.15,5.15,0,0,0,.86-1.48,1.39,1.39,0,0,0,.09-.38,2.87,2.87,0,0,0,0-.42,8.43,8.43,0,0,0,0-.88,2.19,2.19,0,0,0-.21-.78,3.24,3.24,0,0,0-.47-.69,5.86,5.86,0,0,0-1.36-1.06l.14,0-2.35.28,0-.39,2.34-.34h.07l.06,0a6.29,6.29,0,0,1,1.5,1.13,4.3,4.3,0,0,1,.55.79,2.46,2.46,0,0,1,.27.95c0,.31,0,.62,0,.92s0,.3,0,.48a2.51,2.51,0,0,1-.12.49,5.43,5.43,0,0,1-.94,1.64,8.54,8.54,0,0,1-1.31,1.31,6.53,6.53,0,0,1-1.62.94,3.74,3.74,0,0,1-.93.24,4,4,0,0,1-.49,0h-.45l-.91,0-.45,0-.24,0-.12,0h-.07l0,0-.05,0h0l0,0a.22.22,0,0,1,0-.07.2.2,0,0,1,0-.21Z" transform="translate(0 -2.16)"/><path class="cls-15" d="M116.32,21.2a22.59,22.59,0,0,1,3.48-.33c1.68,0,1,1.1,1,1.75a4.88,4.88,0,0,0,.86,1.91,12.16,12.16,0,0,0,.71-2.85c0-.44-.33-.8-.82-1.49s-.76-1.42-1.15-1.51a7.88,7.88,0,0,0-2.44-.7c-1,0-2,1.26-2,1.26l-.21,1.38" transform="translate(0 -2.16)"/><path class="cls-14" d="M116.28,21c.41-.1.82-.17,1.23-.23s.83-.1,1.24-.12c.21,0,.42,0,.63,0s.42,0,.64,0l.34.06a1.63,1.63,0,0,1,.34.14,1,1,0,0,1,.16.12,1,1,0,0,1,.12.17,1.08,1.08,0,0,1,.08.19,1.23,1.23,0,0,1,0,.19,2.62,2.62,0,0,1-.09.65,1.6,1.6,0,0,0-.06.56,3.39,3.39,0,0,0,.43,1.08,5.58,5.58,0,0,0,.32.52l0,.05v0h0c0,.07,0-.21-.3.11v-.05h0v-.06l0-.07.1-.3c.13-.39.24-.78.34-1.17a6,6,0,0,0,.18-1.17,2.12,2.12,0,0,0-.51-1l-.37-.51a5.84,5.84,0,0,1-.33-.53c-.11-.18-.21-.36-.32-.51a1.6,1.6,0,0,0-.16-.19l-.08-.05,0,0h-.08c-.23-.08-.4-.17-.59-.25l-.57-.22a3.74,3.74,0,0,0-1.14-.24,1.69,1.69,0,0,0-.53.09,2.49,2.49,0,0,0-.51.27,4.52,4.52,0,0,0-.91.78l0-.06c-.1.46-.19.91-.29,1.37,0,0,0,0,0,0a.05.05,0,0,1,0-.06c0-.46.09-.92.14-1.38v0l0,0a4.27,4.27,0,0,1,.9-.9,2.66,2.66,0,0,1,.57-.33,1.64,1.64,0,0,1,.67-.15,4,4,0,0,1,1.28.21l.59.22a5.85,5.85,0,0,0,.56.22l.06,0,.12,0,.18.12a1.94,1.94,0,0,1,.24.27c.13.19.23.37.34.54s.21.35.32.51.23.34.35.5a5.63,5.63,0,0,1,.36.54,1.31,1.31,0,0,1,.21.69,5.11,5.11,0,0,1-.22,1.27c-.11.41-.24.8-.38,1.2l-.11.29,0,.07v.05h0v0c-.25.33-.31.05-.3.11s0,0,0,0h0l0,0,0-.07-.32-.55c-.09-.19-.19-.38-.27-.58a3.08,3.08,0,0,1-.19-.63,2,2,0,0,1,.07-.67,1.68,1.68,0,0,0,.07-.57.36.36,0,0,0-.22-.34l-.24-.07-.28,0-.59,0-.61,0c-.81,0-1.63.15-2.44.24h0a.21.21,0,0,1-.07-.41" transform="translate(0 -2.16)"/><path class="cls-14" d="M116.41,19.86l3-1.61a.08.08,0,0,1,.11,0,.07.07,0,0,1,0,.1l-2.77,1.92a.26.26,0,1,1-.3-.42l0,0" transform="translate(0 -2.16)"/><path class="cls-14" d="M118.52,18.18c.27,0,.53.29.13.54l.08.09a3,3,0,0,1,1.07-.19l-.93-.33Z" transform="translate(0 -2.16)"/></g><g class="cls-16"><rect class="cls-17" x="106" y="17.9" width="14.19" height="13.73" transform="translate(26.51 99.46) rotate(-53.95)"/></g><g class="cls-3"><path class="cls-14" d="M112.81,19.32a7.88,7.88,0,0,0-1.61.88,6.24,6.24,0,0,0-1.33,1.23A4.74,4.74,0,0,0,109,23a4.57,4.57,0,0,0-.16,1.76,3.3,3.3,0,0,0,.6,1.63,5.25,5.25,0,0,0,1.28,1.25c.5.37,1,.68,1.55,1.06a4,4,0,0,1,.71.66,1.7,1.7,0,0,1,.24.44,1.15,1.15,0,0,1,.07.49h-.15a1.65,1.65,0,0,1,.13-.76,3.1,3.1,0,0,1,.39-.66,8.78,8.78,0,0,1,1-1.07c.36-.33.72-.64,1.06-1a6.35,6.35,0,0,0,.92-1,2.73,2.73,0,0,0,.48-1.19,3,3,0,0,0,0-.31c0-.11,0-.22,0-.34a3.76,3.76,0,0,0-.1-.66,5.52,5.52,0,0,0-1.27-2.44l.09-.12a3.67,3.67,0,0,1,1.13,1,4.42,4.42,0,0,1,.69,1.37,4,4,0,0,1,.14.77,2.56,2.56,0,0,1,0,.39,2.73,2.73,0,0,1,0,.41,3.21,3.21,0,0,1-.62,1.48,10.39,10.39,0,0,1-2.19,2,9.8,9.8,0,0,0-1.09.92,2,2,0,0,0-.65,1.18h-.15a1.32,1.32,0,0,0-.34-.78,3.87,3.87,0,0,0-.7-.57c-.51-.34-1.07-.63-1.59-1a5.52,5.52,0,0,1-1.43-1.3,3.71,3.71,0,0,1-.7-1.84,4.59,4.59,0,0,1,0-1,5.26,5.26,0,0,1,.19-1A5.1,5.1,0,0,1,109,22a5.48,5.48,0,0,1,.56-.8,6.79,6.79,0,0,1,3.21-2Z" transform="translate(0 -2.16)"/><path class="cls-18" d="M115.09,21.09c-1.21,0-1.48-1.12-2-1.66s-1.85-1.21-1.85-2.18a6.47,6.47,0,0,1,.26-1.77s1.74,1.87,2.66,1.87,1.72,1.52,1.72,2.62-.79,1.12-.79,1.12" transform="translate(0 -2.16)"/><path class="cls-14" d="M115.09,21.24a1.66,1.66,0,0,1-1-.31,2.92,2.92,0,0,1-.63-.74,3.78,3.78,0,0,0-.53-.74,7,7,0,0,0-.72-.58,4.66,4.66,0,0,1-.7-.64,2.27,2.27,0,0,1-.29-.4,1.25,1.25,0,0,1-.14-.5,6.42,6.42,0,0,1,.22-1.9h0l.08-.28.21.22a10.5,10.5,0,0,0,1.5,1.33,2.91,2.91,0,0,0,.85.45l.1,0h.12l.15,0,.15,0a1.51,1.51,0,0,1,.49.29,2.87,2.87,0,0,1,.65.87,4,4,0,0,1,.35,1,2.37,2.37,0,0,1,0,1.09,1.17,1.17,0,0,1-.31.51,1,1,0,0,1-.26.16.78.78,0,0,1-.31.07m0-.31.18-.05.17-.11a.82.82,0,0,0,.21-.36,2,2,0,0,0,0-.94,3.35,3.35,0,0,0-.32-.92,2.57,2.57,0,0,0-.57-.76,1.17,1.17,0,0,0-.38-.23l-.1,0h-.24a.57.57,0,0,1-.15,0,2.92,2.92,0,0,1-1-.5,10.84,10.84,0,0,1-1.56-1.38l.29-.06h0a5.68,5.68,0,0,0-.3,1.78,1,1,0,0,0,.11.4,1.61,1.61,0,0,0,.24.36,4.4,4.4,0,0,0,.67.62c.24.2.49.38.72.6a4.5,4.5,0,0,1,.57.77,2.63,2.63,0,0,0,.6.64,1.36,1.36,0,0,0,.81.22" transform="translate(0 -2.16)"/><polyline class="cls-7" points="110.42 16.98 111.5 15.83 111.24 15.15 111.39 13.78 111.68 13.51 112.42 14.2 113.33 11.99 115.78 12.38 118.31 11 119.8 13.11 122.44 13.99 122.06 16.54 123.28 18.63"/><polyline class="cls-7" points="123.3 16.43 122.06 16.54 121.33 17.52 120.18 16.33 119.8 13.11 120.57 11.89"/><polyline class="cls-7" points="122.06 16.54 120.07 15.4 117.42 13.71 115.78 12.38 115.41 11.05"/><polyline class="cls-7" points="119.8 13.11 117.51 13.76 114.58 14.41 113.28 14.7"/><polyline class="cls-7" points="114.28 15.06 114.58 14.41 115.78 12.38"/><line class="cls-7" x1="110.39" y1="17.2" x2="110.89" y2="17.92"/><line class="cls-7" x1="122.32" y1="19.52" x2="123.22" y2="18.93"/><polyline class="cls-7" points="113.25 27.79 113.25 28.86 112.31 29.88 106.94 29.99 105.98 29.05 105.73 19.1 106.55 18.14 110.36 18.03"/><polyline class="cls-7" points="109.84 18.73 106.97 18.73 106.27 19.46 106.57 28.72 107.19 29.45 111.98 29.29 112.62 28.61 112.62 26.68"/><polyline class="cls-7" points="112.11 26.39 112.11 28.38 111.64 28.88 107.56 28.95 107.09 28.39 106.83 19.81 107.3 19.22 109.65 19.22"/><line class="cls-7" x1="106.21" y1="17.7" x2="107.3" y2="19.22"/><line class="cls-7" x1="105.23" y1="18.78" x2="106.83" y2="19.81"/><line class="cls-7" x1="105.45" y1="29.42" x2="107.1" y2="28.39"/><line class="cls-7" x1="106.55" y1="30.55" x2="107.56" y2="28.95"/><line class="cls-7" x1="112.64" y1="30.33" x2="111.64" y2="28.88"/><line class="cls-7" x1="113.75" y1="29.29" x2="112.11" y2="28.38"/><path class="cls-14" d="M111.54,15.48a7.1,7.1,0,0,0,.62,1.41,2.82,2.82,0,0,0,.45.58,3.89,3.89,0,0,0,.58.48c.41.3.86.58,1.28.9l.32.26.15.15c0,.06.09.12.13.19l.06.11,0,.13c0,.07,0,.13,0,.2s0,.13,0,.2v.2h0s0,0,0,.06a.13.13,0,0,1-.19,0,.14.14,0,0,1,0-.19c0,.08,0,0,0,.06h0v-.16l0-.19a1.25,1.25,0,0,0,0-.19s0,0,0-.05l0-.06a2.36,2.36,0,0,0-.54-.49c-.41-.29-.86-.57-1.29-.89a4.29,4.29,0,0,1-.61-.53,2.85,2.85,0,0,1-.47-.68,4.66,4.66,0,0,1-.43-1.54,0,0,0,0,1,0,0s0,0,0,0Z" transform="translate(0 -2.16)"/><polyline class="cls-7" points="116.42 27.21 116.85 28.23 116.53 29.6"/><polyline class="cls-7" points="116.01 28.29 116.85 28.23 119.48 25.8 119.64 25.05"/><polyline class="cls-7" points="117.82 26.57 117.9 27.27 118.33 29.13 118.08 30.45 117.77 31"/><polyline class="cls-7" points="116.85 28.23 118.33 29.13 120.2 30.18 118.08 30.45 116.85 30.09"/><polyline class="cls-7" points="122.47 24.45 123.7 26.02 121.58 26.02 119.98 24.63 122.02 24.28"/><polyline class="cls-7" points="124.09 25.24 123.7 26.02 125.58 26.3"/><polyline class="cls-7" points="123.7 26.02 124.53 28.06 126.87 28.92 126.2 26.88"/><polyline class="cls-7" points="127.5 28.47 126.87 28.92 128.52 30.59 126.21 30.82 126.55 31.85"/><polyline class="cls-7" points="119.48 25.8 121.58 26.02 124.53 28.06 125.85 29.61 124.02 30.18 120.2 30.18 121.65 31.34 119.64 31.96 118.08 30.45"/><polyline class="cls-7" points="121.65 31.34 124.02 30.18 126.21 30.82 124.07 32.39 121.65 31.34 121.56 32.36"/><polyline class="cls-7" points="126.21 30.82 125.85 29.61 126.87 28.92"/></g></g></g></g></svg>