<svg xmlns="http://www.w3.org/2000/svg" xmlns:xlink="http://www.w3.org/1999/xlink" viewBox="0 0 146.66 82.66"><defs><style>.cls-1{fill:#171b22;}.cls-2{fill:#fff;}</style></defs><title>company-ajs</title><g id="Layer_2" data-name="Layer 2"><g id="Layer_1-2" data-name="Layer 1"><path id="Path_105" data-name="Path 105" class="cls-1" d="M82.93,18.45c0,1.89-.49,2.9-1.43,2.9-.6,0-.84-.35-.84-1.26V11.73c0-2.87-1.61-4.55-4.38-4.55-2.31,0-4.2,1.43-4.2,3.18A1.51,1.51,0,0,0,73.52,12h0A1.44,1.44,0,0,0,75,10.57v0a1.29,1.29,0,0,0-1.26-1.33h-.07a.58.58,0,0,0-.24,0A2.59,2.59,0,0,1,76.11,7.7a2.23,2.23,0,0,1,2.27,2.17c0,.07,0,.18,0,.25,0,2-1.64,2.69-3.36,3.64-1.92,1.05-3.89,2.17-3.89,4.51A3.59,3.59,0,0,0,75,22a3.46,3.46,0,0,0,3.43-2.8A2.49,2.49,0,0,0,81,22c1.65,0,2.49-1.12,2.49-3.4v-.1Zm-4.58-2.24c0,3.25-1.16,5.25-2.94,5.25-1.26,0-1.79-1.05-1.79-3.08,0-2.42.7-3.15,2.87-4.62a14.23,14.23,0,0,0,1.86-1.44Zm-8.27,1.54c0,2.31-.66,3.36-1.92,3.36-1,0-1.37-.49-1.37-1.72V8.19h2.94V7.63H66.79V.88h-.35a2.44,2.44,0,0,1-2,2.2h0V7.63H61.93v.56h2.52V18.83a2.73,2.73,0,0,0,3,3c2.07,0,3.12-1.33,3.12-4v-.1ZM59.58,21V11.31c0-2.63-1.36-4.13-3.6-4.13-2.07,0-3.64,1.47-4.2,4V7.63H46.91v.56h2.56V21H46.91v.53H54V21h-2.2V14.88c0-4,1.61-7.11,3.67-7.11,1.26,0,1.79.88,1.79,2.8V21H55v.53h7.11V21ZM46.49,18.45c0,1.89-.49,2.9-1.44,2.9-.59,0-.84-.35-.84-1.26V11.76c0-2.9-1.61-4.58-4.37-4.58-2.31,0-4.2,1.47-4.2,3.18A1.5,1.5,0,0,0,37.07,12h0a1.47,1.47,0,0,0,1.47-1.4v0a1.29,1.29,0,0,0-1.26-1.33h-.07a.61.61,0,0,0-.25,0A2.59,2.59,0,0,1,39.66,7.7a2.24,2.24,0,0,1,2.28,2.17.7.7,0,0,1,0,.25c0,2-1.65,2.69-3.36,3.64-1.93,1.05-3.89,2.2-3.89,4.51A3.59,3.59,0,0,0,38.58,22,3.47,3.47,0,0,0,42,19.22,2.49,2.49,0,0,0,44.53,22c1.64,0,2.48-1.09,2.48-3.4v-.1ZM41.9,16.21c0,3.25-1.15,5.25-2.94,5.25-1.26,0-1.78-1-1.78-3.08,0-2.42.7-3.15,2.87-4.62a14.14,14.14,0,0,0,1.85-1.44ZM31.61,21V.31H26.75V.88H29.3V21H26.75v.53h7.42V21Zm-6-3.25c0,2.34-.63,3.39-1.89,3.39-.95,0-1.37-.52-1.37-1.75V8.19h3V7.63h-3V.88H22a2.44,2.44,0,0,1-2,2.2h0V7.63H17.47v.56H20V18.83a2.72,2.72,0,0,0,3,3c2.07,0,3.12-1.33,3.12-4v-.1ZM16.8,21,10.43,0H9.52L4.31,17.22C3.5,20,2.38,21,0,21v.53H8.12V21C5,21,4.31,19.67,5,17.4l.7-2.63h6.41L13.93,21H10.82v.53h8.85V21Zm-11-6.79L8.86,4.1l3.08,10.11Z"/><path id="Path_104" data-name="Path 104" class="cls-1" d="M77.33,35.4V36c2.56.07,2.77,1,2.21,2.91l-2.21,7.21L73.66,36h1.92V35.4H69.14V36h2.07l4.93,13.65L75,53.36c-.63,2-1.47,2.87-2.8,2.87a1.45,1.45,0,0,1-1.5-.94,1.06,1.06,0,0,0,.56.14,1.45,1.45,0,0,0,1.47-1.37v0a1.41,1.41,0,0,0-1.47-1.33h0a1.55,1.55,0,0,0-1.54,1.54v.07a2.47,2.47,0,0,0,2.49,2.46h0c1.54,0,2.66-1.09,3.36-3.33L80.1,39c.66-2.17,1.36-3,3.22-3h0V35.4ZM67,35.09c-1.58,0-2.87,1.29-3.43,3.32v-3H58.74V36h2.52V48.77H58.74v.53H66.2v-.53H63.61V42.33c0-3.95,1.36-6.68,3.32-6.68a.94.94,0,0,1,.84.31,1.28,1.28,0,0,0-1.36,1.19v.14a1.47,1.47,0,0,0,1.47,1.47,1.55,1.55,0,0,0,1.51-1.54v0A2.23,2.23,0,0,0,67,35.09ZM56.22,48.77V28.08H51.36v.56h2.52V48.77H51.36v.53h7.38v-.53Zm-5.88-4.06c-.59,2.94-2.1,4.52-4.27,4.52-2.52,0-3.33-1.65-3.33-7.11h8V42c0-4.23-2.1-7-5-7s-5.64,3.5-5.64,7.56,2.73,7.28,6,7.28c2.48,0,4.27-1.93,4.83-5Zm-4.58-9.24c1.89,0,2.59,1.47,2.59,6.13H42.74C43,36.91,43.8,35.47,45.76,35.47ZM35.64,35.4V36c2.38.07,2.76,1.09,2.24,2.77l-2.24,7.52L32.49,36h1.92V35.4H28.64V36h1.5l1.09,3.5-2,6.79L26.05,36h1.54V35.4H21.71V36h2L27.9,49.54h.88l2.73-9.1,2.83,9.1h.84l3.26-10.71C39.07,36.7,39.87,36,41.55,36V35.4ZM22,44.71c-.56,2.94-2.1,4.52-4.24,4.52-2.52,0-3.32-1.65-3.32-7.11h8V42c0-4.23-2.14-7-5.05-7s-5.6,3.5-5.6,7.56,2.73,7.28,6,7.28c2.49,0,4.28-1.93,4.87-5Zm-4.59-9.24c1.93,0,2.63,1.47,2.63,6.13h-5.6C14.67,36.91,15.47,35.47,17.43,35.47ZM3.26,28.08v.56H6.55V45.87c0,2.17-.88,3.25-2.59,3.25a2.89,2.89,0,0,1-3-2.69A1.7,1.7,0,0,0,2.17,47a1.61,1.61,0,0,0,1.65-1.54v-.07a1.64,1.64,0,0,0-1.65-1.72H2.1A2.16,2.16,0,0,0,0,45.87s0,.07,0,.14c0,2.17,1.82,3.71,4.41,3.71,3,0,4.86-1.75,4.86-4.62V28.64H12.6v-.56Z"/><path id="Path_103" data-name="Path 103" class="cls-1" d="M54.89,64.9v.56c2.38.07,2.77,1.08,2.24,2.76l-2.24,7.53L51.74,65.46h2V64.9H47.89v.56H49.4l1.08,3.46-2,6.83L45.33,65.46h1.51V64.9H41v.56h2L47.15,79H48l2.73-9.07L53.6,79h.84l3.25-10.72c.63-2.13,1.44-2.83,3.12-2.87V64.9ZM36,64.41c-3,0-5.56,3.5-5.56,7.49s2.48,7.39,5.56,7.39S41.59,76,41.59,71.9,39,64.41,36,64.41Zm0,14.32c-2.1,0-2.87-2.49-2.9-6.87,0-4.55.66-6.89,2.9-6.89S39,67.31,39,71.86C38.93,77.12,38.12,78.73,36,78.73Zm-8.5-.46v-9.7c0-2.62-1.33-4.16-3.65-4.16-2.06,0-3.6,1.5-4.2,4V57.58H14.81v.56h2.55V78.27H14.81v.53h7.1v-.53H19.67V72.14c0-4,1.61-7.1,3.68-7.1,1.23,0,1.82.87,1.82,2.8V78.27H22.93v.53H30v-.53ZM1.72,61.12a3.76,3.76,0,0,1,4-3.54c3.15,0,6,3.33,6.79,8.19H13V57.41h-.42a9.77,9.77,0,0,1-1.78,2.17,6.4,6.4,0,0,0-5.08-2.49A5.5,5.5,0,0,0,0,62.45v0c0,7,12.15,6,12.15,12.18A4.1,4.1,0,0,1,7.77,78.8c-3.5,0-6.61-3.86-7.1-8.86H.17V79H.63a7.62,7.62,0,0,1,1.61-2.27c2,2,3.43,2.59,5.53,2.59a6.14,6.14,0,0,0,6.27-6v-.28C14,65.91,1.72,66.23,1.72,61.12Z"/><image width="1187" height="1623" transform="translate(87.81 2.18) scale(0.05)" xlink:href="../../../../../Dropbox/Freelance/Clients/Judy%20Lince/Judy/Judy%20resources/ajs%20ring%20logo.jpg"/><circle class="cls-2" cx="117.23" cy="52.94" r="23.46"/></g></g></svg>