<svg xmlns="http://www.w3.org/2000/svg" viewBox="0 0 176 41.06"><defs><style>.cls-1{fill:#171b22;}.cls-2{isolation:isolate;}</style></defs><title>company-piedmont</title><g id="Layer_2" data-name="Layer 2"><g id="Layer_1-2" data-name="Layer 1"><g id="Group_33" data-name="Group 33"><g id="Group_32" data-name="Group 32"><path id="Path_141" data-name="Path 141" class="cls-1" d="M108,13.53a7.64,7.64,0,0,1,6.35-1.23,1.61,1.61,0,0,1,.76.29c.86.89,1.68.64,2.65.16a8.47,8.47,0,0,1,4.89-.62c2.37.29,3.9,2,4,4.84.14,4.13.08,8.27,0,12.41,0,.28-.49.75-.8.8a14.79,14.79,0,0,1-2.49,0c-.71,0-.9-.45-.89-1.12,0-3.47,0-6.95,0-10.43,0-2.71-.9-3.41-3.57-2.8-1.53.35-1.5.39-1.48,2,0,3.79,0,7.58,0,11.37,0,.69-.29,1-1,1s-1.46,0-2.19,0-1.09-.35-1.08-1.14c0-3.23,0-6.47,0-9.7,0-.59,0-1.18-.08-1.77-.12-1.54-.92-2.2-2.44-1.89a7.31,7.31,0,0,0-2.12.83,1.32,1.32,0,0,0-.41,1c0,3.79,0,7.58,0,11.37,0,.95-.32,1.31-1.27,1.29-3.56-.06-2.93.34-3-2.9,0-4.62,0-9.25,0-13.87,0-.91.26-1.29,1.19-1.2a9.2,9.2,0,0,0,1.66,0C107.55,12.21,108.11,12.36,108,13.53Z"/><path id="Path_142" data-name="Path 142" class="cls-1" d="M97.48,12.1c0-1.63,0-3.29,0-5,0-.8.26-1.15,1.08-1.1a22.06,22.06,0,0,0,2.3,0c.63,0,.89.27.91.86s0,1,0,1.46c0,6.53,0,13.07,0,19.6,0,1-.24,1.66-1.37,1.76a58.29,58.29,0,0,1-6.81.65c-3.86-.11-6.15-2.29-6.57-6.19a28.22,28.22,0,0,1,.07-6.43,6.28,6.28,0,0,1,6.22-5.63C94.67,12,96,12.1,97.48,12.1Zm0,3.59c-1,0-2-.14-3-.13a2.81,2.81,0,0,0-3.15,2.76,41.73,41.73,0,0,0,0,5.81,2.57,2.57,0,0,0,2.11,2.65,29,29,0,0,0,4.06,0Z"/><path id="Path_143" data-name="Path 143" class="cls-1" d="M50.15,21.28c0,2.66,0,5.19,0,7.72,0,.89-.3,1.29-1.21,1.23a18,18,0,0,0-2.08,0c-.9.05-1.2-.32-1.2-1.23,0-6.07,0-12.15,0-18.23,0-.93,0-1.88,0-2.81,0-.66.21-1.08.89-1.17,3.38-.43,6.77-.81,10.14,0,3.81.91,5.66,3.61,5.39,7.62s-2.73,6.49-7,6.86C53.54,21.4,51.9,21.28,50.15,21.28Zm0-3.47c1.71-.1,3.31-.08,4.87-.32,1.74-.28,2.55-1.48,2.6-3.37.05-2.17-.6-3.43-2.34-3.75A41.86,41.86,0,0,0,50.19,10Z"/><path id="Path_144" data-name="Path 144" class="cls-1" d="M74.42,22.71c-.11,2.55,1.24,4,3.65,4,1.87,0,3.74-.13,5.61-.26.72,0,1,.14,1,.9-.08,2.83.42,2.42-2.35,2.78a24.36,24.36,0,0,1-5.91.12A6.59,6.59,0,0,1,70.24,24a25.9,25.9,0,0,1,.16-6.22,6.56,6.56,0,0,1,6.38-5.67c5.33-.37,8.56,2.66,8.57,8,0,3,.28,2.55-2.52,2.57S77.26,22.71,74.42,22.71ZM81,19.6c.12-2.29-1.21-3.89-3.22-3.91s-3.41,1.64-3.29,3.91Z"/><path id="Path_145" data-name="Path 145" class="cls-1" d="M0,26.34H6.93v3.3h16v7h-1.1c-4.94,0-9.87,0-14.81,0a6.6,6.6,0,0,1-7-7C.12,28.65,0,27.54,0,26.34Z"/><path id="Path_146" data-name="Path 146" class="cls-1" d="M26.44,29.65h3.38V13.71h6.94V30a6.45,6.45,0,0,1-6.19,6.68c-1.34.1-2.7,0-4.13,0Z"/><path id="Path_147" data-name="Path 147" class="cls-1" d="M150.16,13.54a8.74,8.74,0,0,1,5.06-1.48c3.4,0,5.31,1.66,5.45,5.07.17,4,.1,8.05.14,12.08a.88.88,0,0,1-1,1c-.7,0-1.39,0-2.08,0-.91,0-1.21-.37-1.21-1.26,0-3.47,0-6.94,0-10.42,0-2.49-1-3.32-3.49-2.82l-.3.09c-2.38.6-2.43.66-2.43,3.09,0,3.37,0,6.74,0,10.11,0,.93-.34,1.23-1.22,1.22-3.62,0-3,.33-3-3,0-4.58,0-9.17,0-13.75,0-1,.27-1.36,1.24-1.25a10.15,10.15,0,0,0,1.56,0C149.67,12.21,150.3,12.32,150.16,13.54Z"/><path id="Path_148" data-name="Path 148" class="cls-1" d="M144.06,21.46a28.11,28.11,0,0,1-.35,3.42c-.88,3.93-4.34,6.12-8.53,5.49a7,7,0,0,1-6.39-7.43,31.89,31.89,0,0,1,.21-5.08c.62-3.79,3.47-5.86,7.67-5.79a6.86,6.86,0,0,1,7.14,6.08C144,19.17,144,20.22,144.06,21.46Zm-4.23-.14a24.92,24.92,0,0,0-.35-3.1,3.06,3.06,0,0,0-3.11-2.53,3,3,0,0,0-3.13,2.64,26.88,26.88,0,0,0,0,5.88,2.83,2.83,0,0,0,3,2.53,2.9,2.9,0,0,0,3.22-2.34A21.28,21.28,0,0,0,139.83,21.32Z"/><path id="Path_149" data-name="Path 149" class="cls-1" d="M36.76,10.29c-.38,0-.69.05-1,.05H29.84V6.85h-16V.06c.24,0,.54-.06.83-.06H30.43a6.38,6.38,0,0,1,6.33,6.29C36.77,7.6,36.76,8.91,36.76,10.29Z"/><path id="Path_150" data-name="Path 150" class="cls-1" d="M10.32,0V6.82H7V22.88H.09c0-.26,0-.56,0-.85V6.39A6.36,6.36,0,0,1,6.37,0h4Z"/><path id="Path_151" data-name="Path 151" class="cls-1" d="M164.56,12.27c0-.81,0-1.5,0-2.19A.94.94,0,0,1,165.47,9c.82-.1,1.64-.27,2.46-.4.6-.1.91.11.89.78,0,.94,0,1.87,0,2.92.81,0,1.56,0,2.31,0s1.2.22,1.18,1.12c0,2.41.13,2-2.07,2.06h-1.38c0,3.65,0,7.22,0,10.79,0,.3.55.62.89.88.1.08.33,0,.51,0,2.42.06,2.09-.5,2.07,2.3a1.06,1.06,0,0,1-.7.78,21.49,21.49,0,0,1-3.93.08,3,3,0,0,1-3-3.18c-.14-2.43-.1-4.86-.12-7.3,0-1.42,0-2.83,0-4.31-.93-.16-1.82-.34-2.71-.43-1.37-.15-.85-1.19-.93-1.92s.47-.88,1.09-.87C162.8,12.29,163.6,12.27,164.56,12.27Z"/><path id="Path_152" data-name="Path 152" class="cls-1" d="M63.89,21.29c0-2.64,0-5.27,0-7.91,0-.79.24-1.17,1.08-1.11a18,18,0,0,0,2.08,0c.81-.06,1.09.25,1.08,1.07,0,3.4,0,6.8,0,10.21,0,1.87,0,3.75,0,5.62,0,.76-.29,1.09-1,1.06s-1.39,0-2.08,0-1.13-.3-1.12-1.12C63.91,26.5,63.89,23.9,63.89,21.29Z"/><path id="Path_153" data-name="Path 153" class="cls-1" d="M66,5.84c2.4,0,2.21-.26,2.21,2.25a2.91,2.91,0,0,1,0,1c-.16.34-.5.79-.8.83a20.28,20.28,0,0,1-2.7,0,.85.85,0,0,1-.94-.71.75.75,0,0,1,0-.26c0-.32,0-.63,0-.94C63.76,5.53,63.7,5.85,66,5.84Z"/></g><g id="PHYSICIANS" class="cls-2"><g class="cls-2"><path class="cls-1" d="M118.08,41V33.8h3a1.91,1.91,0,0,1,.86.2,2.12,2.12,0,0,1,.67.52,2.43,2.43,0,0,1,.45.72,2.14,2.14,0,0,1,.16.82,2.51,2.51,0,0,1-.15.86,2.19,2.19,0,0,1-.43.72,2.16,2.16,0,0,1-.65.51,1.83,1.83,0,0,1-.85.19h-2.33V41Zm.71-3.29h2.3a1.27,1.27,0,0,0,.58-.13,1.43,1.43,0,0,0,.44-.37,1.89,1.89,0,0,0,.38-1.15,1.9,1.9,0,0,0-.11-.63,1.69,1.69,0,0,0-.32-.52,1.41,1.41,0,0,0-.46-.35,1.25,1.25,0,0,0-.57-.13h-2.24Z"/><path class="cls-1" d="M130.06,33.8V41h-.69V37.63H125.1V41h-.71V33.8h.71V37h4.27V33.8Z"/><path class="cls-1" d="M131.91,33.8l2.35,3.87,2.37-3.87h.78l-2.79,4.52V41h-.71V38.3l-2.78-4.5Z"/><path class="cls-1" d="M142.48,35.15a2.13,2.13,0,0,0-.81-.56,3,3,0,0,0-1.15-.21,2.16,2.16,0,0,0-1.39.36,1.21,1.21,0,0,0-.44,1,1.07,1.07,0,0,0,.12.53,1,1,0,0,0,.36.36,2.41,2.41,0,0,0,.62.26c.26.08.55.15.9.23a10.4,10.4,0,0,1,1,.27,2.83,2.83,0,0,1,.78.38,1.53,1.53,0,0,1,.5.55,1.67,1.67,0,0,1,.17.81A1.79,1.79,0,0,1,143,40a1.67,1.67,0,0,1-.54.61,2.27,2.27,0,0,1-.82.36A4.52,4.52,0,0,1,137.7,40l.35-.57a3.58,3.58,0,0,0,.46.38,3.41,3.41,0,0,0,.6.32,3.91,3.91,0,0,0,.71.21,3.36,3.36,0,0,0,.79.08,2.44,2.44,0,0,0,1.34-.31,1,1,0,0,0,.48-.94,1.08,1.08,0,0,0-.13-.56,1.19,1.19,0,0,0-.41-.39,2.68,2.68,0,0,0-.68-.29l-1-.25a9.72,9.72,0,0,1-1-.27,2.68,2.68,0,0,1-.72-.35,1.44,1.44,0,0,1-.44-.52,1.61,1.61,0,0,1-.15-.73,2,2,0,0,1,.19-.89,1.68,1.68,0,0,1,.53-.65,2.54,2.54,0,0,1,.81-.39,3.74,3.74,0,0,1,1-.14,3.44,3.44,0,0,1,1.28.22,3.54,3.54,0,0,1,1,.61Z"/><path class="cls-1" d="M144.43,41V33.8h.71V41Z"/><path class="cls-1" d="M146.47,37.35a3.66,3.66,0,0,1,.23-1.29,3.45,3.45,0,0,1,.66-1.15,3.38,3.38,0,0,1,1.07-.83,3.25,3.25,0,0,1,1.45-.32,3,3,0,0,1,1.65.44,2.67,2.67,0,0,1,1,1.13l-.56.35a1.9,1.9,0,0,0-.42-.6,2.24,2.24,0,0,0-.53-.4,2.08,2.08,0,0,0-.59-.21,2.62,2.62,0,0,0-1.74.19,2.82,2.82,0,0,0-.84.69,3.27,3.27,0,0,0-.51,1,3.59,3.59,0,0,0-.17,1.08,3.21,3.21,0,0,0,.21,1.15,3.07,3.07,0,0,0,.56,1,2.74,2.74,0,0,0,.85.67,2.31,2.31,0,0,0,1.07.25,2.27,2.27,0,0,0,.63-.08,2.48,2.48,0,0,0,.62-.24,2.71,2.71,0,0,0,.55-.41,2.07,2.07,0,0,0,.42-.61l.59.31a2,2,0,0,1-.48.71,3.18,3.18,0,0,1-.7.52,3.43,3.43,0,0,1-.82.33,3.61,3.61,0,0,1-.85.11,2.81,2.81,0,0,1-1.35-.33,3.38,3.38,0,0,1-1.07-.84,3.82,3.82,0,0,1-.69-1.19A3.71,3.71,0,0,1,146.47,37.35Z"/><path class="cls-1" d="M153.9,41V33.8h.71V41Z"/><path class="cls-1" d="M158.64,33.8h.6l3,7.2h-.75l-.93-2.25h-3.23L156.39,41h-.76Zm1.75,4.39-1.45-3.56-1.47,3.56Z"/><path class="cls-1" d="M164,35.12V41h-.71V33.8h.54l4.77,6v-6h.71V41h-.62Z"/><path class="cls-1" d="M175.3,35.15a2.13,2.13,0,0,0-.81-.56,3,3,0,0,0-1.16-.21,2.2,2.2,0,0,0-1.39.36,1.21,1.21,0,0,0-.43,1,1.19,1.19,0,0,0,.11.53,1,1,0,0,0,.36.36,2.66,2.66,0,0,0,.63.26c.25.08.55.15.9.23a9.52,9.52,0,0,1,1,.27,3.05,3.05,0,0,1,.79.38,1.63,1.63,0,0,1,.5.55,2,2,0,0,1,0,1.67,1.67,1.67,0,0,1-.54.61,2.27,2.27,0,0,1-.82.36,4.54,4.54,0,0,1-3.94-.93l.36-.57a3,3,0,0,0,.46.38,3.41,3.41,0,0,0,.6.32,3.8,3.8,0,0,0,.7.21,3.45,3.45,0,0,0,.8.08,2.44,2.44,0,0,0,1.34-.31,1,1,0,0,0,.48-.94,1.08,1.08,0,0,0-.14-.56,1.19,1.19,0,0,0-.41-.39,2.53,2.53,0,0,0-.68-.29l-.94-.25a9.72,9.72,0,0,1-1-.27,2.42,2.42,0,0,1-.72-.35,1.35,1.35,0,0,1-.44-.52,1.61,1.61,0,0,1-.15-.73,2,2,0,0,1,.19-.89,1.68,1.68,0,0,1,.53-.65,2.54,2.54,0,0,1,.81-.39,3.66,3.66,0,0,1,1-.14,3.49,3.49,0,0,1,1.29.22,3.37,3.37,0,0,1,1,.61Z"/></g></g></g></g></g></svg>