<svg xmlns="http://www.w3.org/2000/svg" viewBox="0 0 217.24 14.52"><defs><style>.cls-1{fill:#600;}</style></defs><title>company-mbi</title><g id="Layer_2" data-name="Layer 2"><g id="Layer_1-2" data-name="Layer 1"><path class="cls-1" d="M44,3.48c-.48-.3-1-.43-1-.65a7.41,7.41,0,0,1,0-1.76c0-.06.24-.15.36-.15C45.6.94,47.81.86,50,1c3.25.26,4,3.91,1.88,5.9a3.4,3.4,0,0,0,.29.26,3.27,3.27,0,0,1,1.51,3.35,3.37,3.37,0,0,1-2.28,3.09,10.54,10.54,0,0,1-2.89.54c-1.61.08-3.22,0-4.83,0-.7,0-.9-.25-.85-.89s-.22-1.44.89-1.43c.09,0,.28-.28.28-.44C44,8.75,44,6,44,3.48Zm3,6.59c0,1.87.05,1.91,1.88,1.63,1.18-.18,1.72-.74,1.67-1.73S50,8.52,48.81,8.47C46.61,8.36,47.1,8.38,47,10.07Zm-.1-5.47c.11.53.06,1.09.32,1.35.53.54,2.44,0,2.62-.78.11-.44,0-1.29-.15-1.37a7.23,7.23,0,0,0-2.41-.37C47.19,3.42,47.05,4.22,46.94,4.6Z"/><path class="cls-1" d="M79.94,9.64c-.37,1.27-.76,2.53-1.09,3.8a.86.86,0,0,1-1,.77c-2.54,0-2.54,0-3.16-2.44-.37-1.5-.78-3-1.12-4.52-.16-.72-.36-1.32-1.24-1.2a1.19,1.19,0,0,1-.1-.2C72,4.05,72,4,73.83,4c.9,0,1.8,0,2.71,0,.56,0,.79.21.72.74s.41,1.57-1,1.51l.91,4.09c.17-.42.27-.62.34-.84.42-1.41.88-2.8,1.23-4.22.18-.73.55-1,1.25-.9a2,2,0,0,0,.59,0c.58-.07.86.17,1,.75.43,1.69.93,3.37,1.54,5.06L84,6.34,83.18,6V4.06H87.6V6c-1-.1-1.2.49-1.38,1.29-.44,2.07-1,4.12-1.45,6.18a.76.76,0,0,1-.85.7c-2.53.07-2.53.09-3.19-2.31L80.1,9.65Z"/><path class="cls-1" d="M87.7,4c1.43.24,2.81-.39,4.07.43A15.12,15.12,0,0,1,94,3.73a3,3,0,0,1,3.6,3.11c.08,1.35,0,2.71,0,4.06v.89a1.37,1.37,0,0,1,1,2,.79.79,0,0,1-.57.43c-1.32,0-2.65,0-4,0-.2,0-.55-.33-.55-.52,0-.68-.41-1.61.85-1.69.1,0,.24-.36.24-.55,0-1.33,0-2.65,0-4,0-.59-.12-1.14-.83-1.3A1.6,1.6,0,0,0,92.09,7a1.84,1.84,0,0,0-.19.73c0,1.38,0,2.76,0,4.16.43.22,1.12,0,1.12.85,0,1.5.07,1.5-1.44,1.5-1,0-2,0-3,0-.53,0-.79-.15-.76-.72s-.22-1.47.9-1.53c.1,0,.27-.38.28-.6,0-1.49,0-3,0-4.48,0-.23-.27-.64-.43-.64-.77,0-.85-.47-.8-1.08C87.73,4.81,87.7,4.45,87.7,4Z"/><path class="cls-1" d="M72.06,9.81a4.74,4.74,0,0,1-2.58,4.12,4.39,4.39,0,0,1-6.59-3.1A10.81,10.81,0,0,1,63,7.07c.62-3.35,5.17-4.34,7.57-2.36C71.57,5.54,72.07,7,72.06,9.81ZM69.17,9.2c-.1-.72-.15-1.31-.28-1.88a1.4,1.4,0,0,0-1.36-1.27A1.5,1.5,0,0,0,65.88,7.2,6.49,6.49,0,0,0,66,11.1a1.48,1.48,0,0,0,2.8,0A18.7,18.7,0,0,0,69.17,9.2Z"/><path class="cls-1" d="M58.41,4.37A3.56,3.56,0,0,1,62,4a.76.76,0,0,1,.59.87c0,.34,0,.68,0,1,0,2.17.19,1.57-1.75,1.85-.53.07-.7-.14-.71-.65,0-.25-.12-.69-.23-.71a1.13,1.13,0,0,0-.85.22,1.67,1.67,0,0,0-.56,1c-.07,1.29,0,2.59-.06,3.89,0,.55.38.55.76.53,1.25-.05.76.89.85,1.49s-.37.74-.89.73c-1.27,0-2.54,0-3.81,0-.83,0-1.13-.26-1-1.06a8.62,8.62,0,0,0,0-1c1.24.1,1.23-.67,1.2-1.53,0-1.21,0-2.43,0-3.64,0-.47-.12-.71-.64-.77-1.2-.15-.51-1.1-.63-1.68S54.63,4,55,4c.76,0,1.52,0,2.28,0A4.61,4.61,0,0,1,58.41,4.37Z"/><path class="cls-1" d="M166.85,6.12a6.49,6.49,0,0,1,.17-1.3,1.67,1.67,0,0,1,.53-.64,6.64,6.64,0,0,0,1.28-1.12c.75-1.19.7-1.22,2.25-1L171.17,4h2.54c-.14.8,0,1.72-.43,2.07s-1.32.21-2.1.29c0,1.67,0,3.36,0,5,0,.23.52.6.81.62a5.29,5.29,0,0,0,1.47-.32l.65,1.44c0-.67.26-1.08,1-1.12.11,0,.31-.27.31-.41,0-1.74,0-3.48,0-5.2-1.24-.29-1.35-.56-1-2.32h3.91v7.72c.41.18.93.26,1,.47a4.46,4.46,0,0,1,0,1.59c0,.14-.36.34-.55.35-1.32,0-2.65,0-4,0a3.16,3.16,0,0,1-.87-.37,5.13,5.13,0,0,1-3.81.46,2.21,2.21,0,0,1-1.88-2.11c-.1-1.46-.1-2.93-.12-4.39S168.17,6.45,166.85,6.12Z"/><path class="cls-1" d="M109.35,6.05V4.16c1.46-.36,3.6-.18,4,.27a17,17,0,0,1,2.19-.65,3,3,0,0,1,3.71,3c.09,1.49.07,3,.09,4.49,0,.42,0,.78.6.8s.44.55.45.9c0,1.3,0,1.3-1.27,1.3-1,0-2,0-3,0-.69,0-1-.18-.92-.9a11,11,0,0,0,0-1.15c1,0,1.18-.56,1.14-1.38-.07-1.1,0-2.2,0-3.3,0-.65-.12-1.26-.95-1.37a1.46,1.46,0,0,0-1.74,1.12,17.72,17.72,0,0,0-.15,2.53c0,.5,0,1,0,1.52s.08.68.58.73a.92.92,0,0,1,.53.56,1.79,1.79,0,0,1,0,1c-.08.25-.37.59-.58.6-1.35,0-2.71,0-4.06,0a.65.65,0,0,1-.51-.39,6.62,6.62,0,0,1,0-1.18c0-.62.54-.42.83-.61a.86.86,0,0,0,.33-.59c0-1.53,0-3,0-4.58C110.55,6.4,110.51,6.4,109.35,6.05Z"/><path class="cls-1" d="M194,11.88a1.38,1.38,0,0,1,1.06,2,.73.73,0,0,1-.57.34c-1.33,0-2.66,0-4,0a.87.87,0,0,1-.59-.57c0-.64-.39-1.55.83-1.63.12,0,.3-.37.31-.57,0-1.53,0-3,0-4.57,0-.91-.81-.49-1.2-.86V4.16c1.54-.39,3.61-.19,3.9.3A17.51,17.51,0,0,1,196,3.78a3.06,3.06,0,0,1,3.71,3.06c.08,1.38,0,2.77.05,4.15v.88a1.44,1.44,0,0,1,1,2.05.68.68,0,0,1-.52.3c-1.33,0-2.65,0-4,0a.87.87,0,0,1-.59-.57c0-.65-.39-1.55.82-1.64.11,0,.27-.39.27-.6,0-1.3,0-2.6,0-3.9,0-.66-.15-1.25-1-1.35a1.44,1.44,0,0,0-1.7,1A11.42,11.42,0,0,0,194,9.39C194,10.23,194,11.07,194,11.88Z"/><path class="cls-1" d="M145.06,4.11c2.45-.3,3.64-.16,3.95.34a17.62,17.62,0,0,1,2.34-.68A3,3,0,0,1,155,6.86c.08,1.37,0,2.76.05,4.14v.88a1.43,1.43,0,0,1,1,2,.67.67,0,0,1-.52.29c-1.33,0-2.66,0-4,0a.85.85,0,0,1-.58-.58c0-.66-.37-1.55.83-1.63.1,0,.26-.4.26-.61,0-1.3,0-2.6,0-3.9,0-.62-.12-1.2-.89-1.33a1.58,1.58,0,0,0-1.74.89,1.73,1.73,0,0,0-.15.49c0,.3,0,.62,0,.93,0,1.15,0,2.3,0,3.42a1.37,1.37,0,0,1,1.05,2,.72.72,0,0,1-.58.33c-1.32,0-2.65,0-4,0a.85.85,0,0,1-.58-.58c0-.65-.38-1.55.83-1.62.12,0,.3-.38.3-.58,0-1.53,0-3,0-4.58,0-.2-.26-.57-.41-.57-.84,0-.86-.53-.82-1.14C145.07,4.81,145.06,4.48,145.06,4.11Z"/><path class="cls-1" d="M163,13.92a4.2,4.2,0,0,1-5.19-.75,5.38,5.38,0,0,1-1.06-3.41c0-2,.34-4,2.22-5.2A6.59,6.59,0,0,1,164,3.93c1.94.38,1.94.4,1.94,2.38v4.91c0,.41,0,.8.58.82s.46.53.47.89c0,1.31,0,1.31-1.25,1.31-.54,0-1.08,0-1.61,0A7.65,7.65,0,0,1,163,13.92Zm.09-5.15c0-.68,0-1.36,0-2a.8.8,0,0,0-.31-.59,2.14,2.14,0,0,0-2.61,1,5.85,5.85,0,0,0-.18,4.06c.23.82.89,1.11,1.82,1A1.4,1.4,0,0,0,163,10.72C163.07,10.07,163.05,9.42,163.05,8.77Z"/><path class="cls-1" d="M207.55,13.89c-2.92,1.54-5.77-.05-6-3.48a7.34,7.34,0,0,1,.75-4.35c1.11-1.94,3-2.43,5-2.31,3.14.19,3.25.35,3.25,3.43,0,1.36,0,2.71,0,4.07,0,.42,0,.77.6.81.16,0,.4.29.44.47.26,1.51.08,1.71-1.44,1.71-.51,0-1,0-1.52,0A5.49,5.49,0,0,1,207.55,13.89Zm.09-5.17c0-.67,0-1.35,0-2a.73.73,0,0,0-.28-.53,2,2,0,0,0-2.41.84,5.78,5.78,0,0,0-.23,4.21,1.35,1.35,0,0,0,1.69.93,1.36,1.36,0,0,0,1.24-1.38C207.66,10.08,207.64,9.4,207.64,8.72Z"/><path class="cls-1" d="M179.92,9.14c.09-3.19,1.47-5,4.17-5.36a4.23,4.23,0,0,1,5.08,3.56,6.92,6.92,0,0,1-.69,5,4.68,4.68,0,0,1-5.16,2A4.38,4.38,0,0,1,180,10.26C180,9.87,179.94,9.48,179.92,9.14Zm6.49.17c-.11-.76-.16-1.38-.29-2a1.36,1.36,0,0,0-1.37-1.24,1.49,1.49,0,0,0-1.63,1.18,6.65,6.65,0,0,0,.1,3.9,1.48,1.48,0,0,0,2.77.05A19.17,19.17,0,0,0,186.41,9.31Z"/><path class="cls-1" d="M130.4,10.46c.51,1.81,1.51,1.95,4.46.71a16.49,16.49,0,0,1,.77,1.65.73.73,0,0,1-.26.66,5.82,5.82,0,0,1-5.66.5c-1.81-.78-2.35-2.43-2.42-4.23-.08-2.24.51-4.22,2.59-5.42a4.67,4.67,0,0,1,3.78-.4,2.6,2.6,0,0,1,2,2.28,3,3,0,0,1-1.48,3.26,13.79,13.79,0,0,1-2.88.9A5.44,5.44,0,0,1,130.4,10.46Zm.07-2.39a2.31,2.31,0,0,0,2.08-.59,1.16,1.16,0,0,0,.26-1,1.14,1.14,0,0,0-1-.39A1.71,1.71,0,0,0,130.47,8.07Z"/><path class="cls-1" d="M136.41,12.16c1.23.13,1.22-.63,1.19-1.46,0-1.18,0-2.37,0-3.55,0-.57-.11-.9-.76-.94a.85.85,0,0,1-.52-.57c-.2-1.56-.13-1.62,1.42-1.62.59,0,1.19,0,1.78,0a3.75,3.75,0,0,1,.95.4,3.43,3.43,0,0,1,3.63-.38,1.06,1.06,0,0,1,.55.69,11.58,11.58,0,0,1,0,2.28c0,.23-.33.49-.57.61s-.56,0-.83.08c-.69.15-1.11,0-1-.81.07-.61-.36-.72-.74-.46a1.94,1.94,0,0,0-.88,1.1,30.9,30.9,0,0,0,0,4c0,.17.42.45.67.48,1,.14.93.11.93,1.53,0,.84-.54.7-1,.71-1.27,0-2.54,0-3.81,0-.69,0-1-.2-.91-.91A11.33,11.33,0,0,0,136.41,12.16Z"/><path class="cls-1" d="M216.17,11.78c.45.24,1,.36,1,.57a4.94,4.94,0,0,1,0,1.67c0,.1-.43.2-.66.21-1.21,0-2.43,0-3.64,0-.64,0-.87-.22-.8-.84,0-.39,0-.78,0-1.26,1.24.14,1.21-.61,1.2-1.44,0-2.54,0-5.08,0-7.63,0-.48-.07-.81-.66-.85-.18,0-.42-.3-.48-.51a5.64,5.64,0,0,1,0-1c0-.53.23-.69.71-.68.82,0,1.64,0,2.46,0s.93.21.92.92c0,3.3,0,6.6,0,9.91Z"/><path class="cls-1" d="M108.83,12.09a11.36,11.36,0,0,1,0,1.65.79.79,0,0,1-.6.47c-1.35,0-2.71,0-4.07,0-.43,0-.62-.17-.59-.61a7.22,7.22,0,0,0,0-.93c0-.44.12-.65.59-.73a.86.86,0,0,0,.57-.6c0-2.65,0-5.3,0-7.94a1.57,1.57,0,0,1-1-2.12.68.68,0,0,1,.54-.34c1.36,0,2.71,0,4.07,0,.45,0,.59.21.57.62a4.09,4.09,0,0,1,0,.93c-.09.25-.32.59-.54.64a.72.72,0,0,0-.63.83c0,2.4,0,4.8,0,7.2C107.67,12,108.27,11.9,108.83,12.09Z"/><path class="cls-1" d="M121.15,6.34,120,6.21a1.69,1.69,0,0,1,1-2.21A3.1,3.1,0,0,0,122,2.58c.37-.9,1.07-.58,1.66-.57s.38.62.43,1a8.34,8.34,0,0,1,0,1h2.47c0,.36,0,.6,0,.85-.13,1.38-.13,1.42-1.53,1.38-.7,0-1,.19-.91.91,0,1.21,0,2.42,0,3.64s.49,1.52,1.6,1.12c.21-.07.42-.17.73-.29a14.79,14.79,0,0,1,.63,1.63.76.76,0,0,1-.3.64,4.62,4.62,0,0,1-4.46.06,2.32,2.32,0,0,1-1.12-2.23c0-1.47,0-2.93,0-4.4Z"/><path class="cls-1" d="M8,8.72c.61-1.6,1.21-3.2,1.84-4.8.37-1,.54-2.26,1.26-2.77s2-.16,3-.15c.37,0,1,.06,1.06.2a7.39,7.39,0,0,1,0,1.76c0,.07-.16.18-.25.18-.89,0-.8.65-.77,1.27.14,2.45.26,4.9.39,7.43l1.2.27a14,14,0,0,1,0,1.71.71.71,0,0,1-.55.43c-1.33,0-2.65,0-4,0-.47,0-.68-.17-.65-.65a10,10,0,0,1,0-1.1c0-.17.24-.44.37-.45.78,0,.72-.52.69-1.05-.07-1.35-.14-2.7-.34-4.08-.66,1.7-1.31,3.39-2,5.08-.14.35-.34.88-.59.94a5.69,5.69,0,0,1-1.93,0c-.17,0-.32-.43-.42-.68C5.68,10.54,5,8.81,4.19,7.09,4.12,8.54,4,10,4,11.43c0,.28.59.55,1,.68,0,.05.08.1.08.15.22,2,.22,2-1.77,2-.88,0-1.76,0-2.63,0-.57,0-.76-.23-.71-.76a6.59,6.59,0,0,0,0-.77A.6.6,0,0,1,.59,12a.94.94,0,0,0,.58-.63c.17-2.56.29-5.13.42-7.69a2.17,2.17,0,0,0,0-.25,1.49,1.49,0,0,1-1-2.08A.69.69,0,0,1,1.09,1C2.19,1,3.3,1,4.39,1a1.13,1.13,0,0,1,.73.63c.79,2,1.53,4,2.28,6l.4,1Z"/><path class="cls-1" d="M36.57,11.91a1.49,1.49,0,0,1,1,2.06.61.61,0,0,1-.45.29c-.9,0-1.81,0-2.71,0-.21,0-.41-.24-.68-.4-3,1.57-5.62.27-6.13-3.13a8.18,8.18,0,0,1,0-2.37c.51-3.59,3.15-5.22,7.06-4.4,1.91.4,1.91.4,1.91,2.31Zm-2.9-3.12h0c0-.68,0-1.35,0-2a.8.8,0,0,0-.35-.57A1.86,1.86,0,0,0,31,7.11a5.62,5.62,0,0,0-.19,4.13,1.5,1.5,0,0,0,2.9-.42C33.68,10.14,33.67,9.47,33.67,8.79Z"/><path class="cls-1" d="M21.77,2.19V.09c1.22,0,2.4,0,3.57,0,.15,0,.38.49.38.76,0,2.81,0,5.64,0,8.46V11c0,.53-.11,1.12.76,1.07.11,0,.32.29.34.46a2.5,2.5,0,0,1,0,1.09c-.07.24-.37.58-.58.59-1.32.05-2.65,0-4,0-.49,0-.67-.22-.64-.67,0-.63-.32-1.48.83-1.56.13,0,.33-.38.33-.58,0-2.85,0-5.7,0-8.54,0-.3-.53-.59-.81-.88Z"/><path class="cls-1" d="M16.12,12.18c1.19.14,1.22-.56,1.19-1.39,0-1.24,0-2.48,0-3.72,0-.26-.28-.7-.45-.71-.65,0-.72-.38-.69-.9s0-.84,0-1.33h4c0,.33.06.66.06,1,0,2,0,4.07,0,6.1,0,.44,0,.86.63.88.14,0,.37.3.41.49a2.5,2.5,0,0,1,0,1.09c-.07.24-.38.56-.59.57q-1.95.08-3.9,0a.87.87,0,0,1-.6-.55A7.54,7.54,0,0,1,16.12,12.18Z"/><path class="cls-1" d="M16.78,1.71A1.68,1.68,0,0,1,18.49,0a1.75,1.75,0,0,1,1.79,1.74,1.72,1.72,0,0,1-1.82,1.71A1.68,1.68,0,0,1,16.78,1.71Z"/></g></g></svg>