<svg xmlns="http://www.w3.org/2000/svg" viewBox="0 0 77.13 17.99"><defs><style>.cls-1{fill:#fff;}.cls-2{isolation:isolate;}</style></defs><title>company-piedmont</title><g id="Layer_2" data-name="Layer 2"><g id="Layer_1-2" data-name="Layer 1"><g id="Group_33" data-name="Group 33"><g id="Group_32" data-name="Group 32"><path id="Path_141" data-name="Path 141" class="cls-1" d="M47.33,5.93a3.37,3.37,0,0,1,2.79-.54.68.68,0,0,1,.33.13c.37.39.73.28,1.16.07a3.69,3.69,0,0,1,2.15-.27A2,2,0,0,1,55.5,7.44c.07,1.81,0,3.62,0,5.43a.48.48,0,0,1-.35.35,5.67,5.67,0,0,1-1.09,0c-.31,0-.39-.2-.39-.49,0-1.52,0-3.05,0-4.57,0-1.19-.39-1.5-1.56-1.23-.67.15-.66.17-.65.86,0,1.66,0,3.32,0,5,0,.31-.13.46-.44.45s-.64,0-1,0-.48-.16-.47-.51c0-1.41,0-2.83,0-4.25,0-.26,0-.51,0-.77-.06-.68-.41-1-1.07-.83a3.1,3.1,0,0,0-.93.36.59.59,0,0,0-.18.45q0,2.49,0,5c0,.42-.14.57-.56.57-1.56,0-1.28.15-1.29-1.27,0-2,0-4.06,0-6.08,0-.4.11-.57.52-.53a4.45,4.45,0,0,0,.73,0C47.13,5.35,47.38,5.42,47.33,5.93Z"/><path id="Path_142" data-name="Path 142" class="cls-1" d="M42.72,5.3c0-.71,0-1.44,0-2.17,0-.35.12-.51.48-.48a8.34,8.34,0,0,0,1,0c.28,0,.4.11.4.37s0,.43,0,.64c0,2.87,0,5.73,0,8.59,0,.45-.1.73-.6.78a25,25,0,0,1-3,.28,2.75,2.75,0,0,1-2.88-2.71,12.09,12.09,0,0,1,0-2.82A2.75,2.75,0,0,1,40.9,5.31C41.49,5.27,42.08,5.3,42.72,5.3Zm0,1.58c-.45,0-.89-.06-1.32-.06A1.23,1.23,0,0,0,40,8a19.73,19.73,0,0,0,0,2.55,1.14,1.14,0,0,0,.93,1.16,13.22,13.22,0,0,0,1.78,0Z"/><path id="Path_143" data-name="Path 143" class="cls-1" d="M22,9.33c0,1.16,0,2.27,0,3.38,0,.39-.12.56-.52.54a7.06,7.06,0,0,0-.92,0c-.39,0-.52-.14-.52-.54,0-2.66,0-5.33,0-8,0-.41,0-.82,0-1.23s.1-.48.39-.51a12.27,12.27,0,0,1,4.44,0,2.9,2.9,0,0,1,2.37,3.34,3,3,0,0,1-3,3C23.46,9.38,22.74,9.33,22,9.33Zm0-1.52c.74,0,1.44,0,2.13-.15a1.32,1.32,0,0,0,1.14-1.47c0-1-.26-1.5-1-1.64A18.6,18.6,0,0,0,22,4.38Z"/><path id="Path_144" data-name="Path 144" class="cls-1" d="M32.61,10a1.49,1.49,0,0,0,1.6,1.76c.82,0,1.64-.05,2.46-.11.32,0,.44.06.43.4,0,1.23.19,1.06-1,1.21a10.67,10.67,0,0,1-2.59,0,2.88,2.88,0,0,1-2.7-2.75,11.79,11.79,0,0,1,.07-2.72,2.88,2.88,0,0,1,2.8-2.49A3.22,3.22,0,0,1,37.4,8.83c0,1.32.13,1.11-1.1,1.12S33.86,10,32.61,10Zm2.87-1.36a1.46,1.46,0,0,0-1.41-1.72,1.49,1.49,0,0,0-1.44,1.72Z"/><path id="Path_145" data-name="Path 145" class="cls-1" d="M0,11.54H3V13h7v3.09H9.57c-2.16,0-4.33,0-6.49,0A2.89,2.89,0,0,1,0,13C.05,12.56,0,12.07,0,11.54Z"/><path id="Path_146" data-name="Path 146" class="cls-1" d="M11.59,13h1.48V6h3v7.13a2.83,2.83,0,0,1-2.71,2.93c-.59,0-1.19,0-1.81,0Z"/><path id="Path_147" data-name="Path 147" class="cls-1" d="M65.8,5.93A3.9,3.9,0,0,1,68,5.28a2.12,2.12,0,0,1,2.39,2.23c.07,1.76,0,3.53.06,5.29,0,.3-.13.45-.44.45s-.61,0-.91,0-.53-.17-.53-.55c0-1.53,0-3,0-4.57,0-1.09-.46-1.46-1.53-1.23a.5.5,0,0,0-.13,0c-1,.26-1.07.29-1.07,1.36,0,1.48,0,3,0,4.43,0,.41-.15.54-.54.53-1.58,0-1.3.15-1.31-1.3,0-2,0-4,0-6,0-.42.12-.59.55-.54a3.86,3.86,0,0,0,.68,0C65.59,5.35,65.87,5.4,65.8,5.93Z"/><path id="Path_148" data-name="Path 148" class="cls-1" d="M63.13,9.4A12.29,12.29,0,0,1,63,10.9a3.13,3.13,0,0,1-3.74,2.41,3.08,3.08,0,0,1-2.8-3.26,13.7,13.7,0,0,1,.09-2.22A3.32,3.32,0,0,1,63,8C63.09,8.4,63.09,8.86,63.13,9.4Zm-1.85-.06c0-.45-.08-.91-.15-1.35a1.34,1.34,0,0,0-1.37-1.11A1.3,1.3,0,0,0,58.39,8a12.36,12.36,0,0,0,0,2.58,1.24,1.24,0,0,0,1.3,1.11,1.26,1.26,0,0,0,1.41-1A10,10,0,0,0,61.28,9.34Z"/><path id="Path_149" data-name="Path 149" class="cls-1" d="M16.11,4.51l-.43,0h-2.6V3h-7V0l.37,0h6.9a2.8,2.8,0,0,1,2.77,2.76Z"/><path id="Path_150" data-name="Path 150" class="cls-1" d="M4.52,0V3H3.06v7H0c0-.11,0-.24,0-.37V2.8A2.78,2.78,0,0,1,2.79,0H4.52Z"/><path id="Path_151" data-name="Path 151" class="cls-1" d="M72.11,5.38c0-.36,0-.66,0-1a.4.4,0,0,1,.3-.48h.1c.37,0,.72-.12,1.08-.18s.4,0,.39.35,0,.82,0,1.28c.35,0,.68,0,1,0s.53.1.52.49c0,1.06.06.9-.91.91H74c0,1.6,0,3.16,0,4.72,0,.14.25.27.39.39s.15,0,.23,0c1.06,0,.91-.22.9,1a.48.48,0,0,1-.3.35,9.88,9.88,0,0,1-1.72,0,1.3,1.3,0,0,1-1.34-1.4c-.06-1.06,0-2.13,0-3.19,0-.62,0-1.25,0-1.89-.41-.07-.8-.15-1.19-.19-.6-.07-.38-.52-.41-.84s.21-.39.48-.38Z"/><path id="Path_152" data-name="Path 152" class="cls-1" d="M28,9.33C28,8.17,28,7,28,5.86c0-.34.1-.51.47-.49a4.61,4.61,0,0,0,.91,0c.36,0,.48.12.48.48,0,1.49,0,3,0,4.47,0,.82,0,1.64,0,2.46,0,.34-.13.48-.46.47h-.91c-.34,0-.49-.14-.49-.49C28,11.61,28,10.47,28,9.33Z"/><path id="Path_153" data-name="Path 153" class="cls-1" d="M28.93,2.56c1.06,0,1-.11,1,1a1.13,1.13,0,0,1,0,.45c-.07.15-.22.35-.35.37a9.29,9.29,0,0,1-1.18,0A.36.36,0,0,1,28,4.06.2.2,0,0,1,28,4V3.54C27.94,2.42,27.92,2.57,28.93,2.56Z"/></g><g id="PHYSICIANS" class="cls-2"><g class="cls-2"><path class="cls-1" d="M51.75,18V14.81h1.3a.79.79,0,0,1,.38.09,1.09,1.09,0,0,1,.3.23,1.08,1.08,0,0,1,.19.31.92.92,0,0,1,.07.36,1,1,0,0,1-.07.38,1,1,0,0,1-.18.32,1.06,1.06,0,0,1-.29.22.75.75,0,0,1-.37.08h-1V18Zm.31-1.44h1a.54.54,0,0,0,.25-.06.74.74,0,0,0,.19-.16,1,1,0,0,0,.13-.23.86.86,0,0,0,0-.28.81.81,0,0,0,0-.27.59.59,0,0,0-.14-.23.62.62,0,0,0-.2-.16.7.7,0,0,0-.25-.05h-1Z"/><path class="cls-1" d="M57,14.81V18h-.31V16.49H54.82V18h-.31V14.81h.31v1.41h1.87V14.81Z"/><path class="cls-1" d="M57.81,14.81l1,1.7,1-1.7h.34l-1.23,2V18h-.31V16.79l-1.21-2Z"/><path class="cls-1" d="M62.44,15.4a1,1,0,0,0-.35-.24,1.36,1.36,0,0,0-.51-.09,1,1,0,0,0-.61.15.53.53,0,0,0-.19.43.57.57,0,0,0,0,.24A.39.39,0,0,0,61,16a.85.85,0,0,0,.27.12l.39.1a2.56,2.56,0,0,1,.46.12,1.2,1.2,0,0,1,.34.16.65.65,0,0,1,.22.25.72.72,0,0,1,.08.35.76.76,0,0,1-.09.38.71.71,0,0,1-.23.26.85.85,0,0,1-.36.16,1.66,1.66,0,0,1-.46,0,1.92,1.92,0,0,1-1.27-.45l.16-.26a1.12,1.12,0,0,0,.2.17,1.3,1.3,0,0,0,.26.14,1.58,1.58,0,0,0,.31.09,1.34,1.34,0,0,0,.35,0,1.09,1.09,0,0,0,.59-.14.45.45,0,0,0,.21-.41.43.43,0,0,0-.06-.24.52.52,0,0,0-.18-.18,1,1,0,0,0-.3-.12,3,3,0,0,0-.41-.11L61,16.4a.91.91,0,0,1-.31-.16.6.6,0,0,1-.2-.22.79.79,0,0,1-.06-.32.93.93,0,0,1,.08-.39.75.75,0,0,1,.24-.29,1.14,1.14,0,0,1,.35-.17,1.63,1.63,0,0,1,.45-.06,1.48,1.48,0,0,1,.57.1,1.5,1.5,0,0,1,.44.26Z"/><path class="cls-1" d="M63.29,18V14.81h.32V18Z"/><path class="cls-1" d="M64.19,16.37a1.63,1.63,0,0,1,.1-.57,1.4,1.4,0,0,1,.29-.5,1.57,1.57,0,0,1,.47-.37,1.46,1.46,0,0,1,.63-.14,1.3,1.3,0,0,1,.73.2,1.15,1.15,0,0,1,.44.49l-.25.15a1,1,0,0,0-.18-.26.91.91,0,0,0-.23-.17.93.93,0,0,0-.26-.1l-.26,0a1.07,1.07,0,0,0-.51.12,1.31,1.31,0,0,0-.36.3,1.44,1.44,0,0,0-.23.42,1.59,1.59,0,0,0-.07.48,1.43,1.43,0,0,0,.09.5,1.27,1.27,0,0,0,.25.42,1.16,1.16,0,0,0,.37.29,1,1,0,0,0,.47.11l.27,0a.81.81,0,0,0,.27-.11,1.05,1.05,0,0,0,.25-.18,1,1,0,0,0,.18-.26l.26.13a1,1,0,0,1-.21.31,1.39,1.39,0,0,1-.31.23A1.94,1.94,0,0,1,66,18a1.55,1.55,0,0,1-.37,0,1.2,1.2,0,0,1-.59-.14,1.54,1.54,0,0,1-.47-.37,1.68,1.68,0,0,1-.3-.52A1.51,1.51,0,0,1,64.19,16.37Z"/><path class="cls-1" d="M67.44,18V14.81h.31V18Z"/><path class="cls-1" d="M69.52,14.81h.27L71.1,18h-.33l-.41-1H68.94l-.4,1H68.2Zm.77,1.93-.64-1.56L69,16.74Z"/><path class="cls-1" d="M71.86,15.39V18h-.31V14.81h.24l2.09,2.63V14.82h.31V18h-.27Z"/><path class="cls-1" d="M76.82,15.4a.91.91,0,0,0-.35-.24,1.36,1.36,0,0,0-.51-.09,1,1,0,0,0-.61.15.53.53,0,0,0-.19.43.57.57,0,0,0,0,.24.46.46,0,0,0,.16.15.85.85,0,0,0,.27.12l.4.1a2.44,2.44,0,0,1,.45.12,1.42,1.42,0,0,1,.35.16.73.73,0,0,1,.29.6.76.76,0,0,1-.09.38.71.71,0,0,1-.23.26.85.85,0,0,1-.36.16A1.66,1.66,0,0,1,76,18a1.87,1.87,0,0,1-1.26-.45l.15-.26a1.12,1.12,0,0,0,.2.17,1.15,1.15,0,0,0,.27.14,1.32,1.32,0,0,0,.3.09,1.34,1.34,0,0,0,.35,0,1.09,1.09,0,0,0,.59-.14.45.45,0,0,0,.21-.41.43.43,0,0,0-.06-.24.52.52,0,0,0-.18-.18,1,1,0,0,0-.3-.12,3,3,0,0,0-.41-.11l-.44-.12a.91.91,0,0,1-.31-.16.5.5,0,0,1-.19-.22.66.66,0,0,1-.07-.32.93.93,0,0,1,.08-.39.85.85,0,0,1,.24-.29,1.27,1.27,0,0,1,.35-.17,1.65,1.65,0,0,1,.46-.06,1.43,1.43,0,0,1,.56.1,1.5,1.5,0,0,1,.44.26Z"/></g></g></g></g></g></svg>