<svg xmlns="http://www.w3.org/2000/svg" viewBox="0 0 221.09 24.66"><defs><style>.cls-1{fill:#171b22;}.cls-2{fill:#a2bbc1;}.cls-3{fill:#e8f1f1;}.cls-4{fill:#7e969d;}.cls-5{fill:#c5dadf;}.cls-6{fill:#f2a024;}.cls-7{fill:#f6b917;}.cls-8{fill:#e08b27;}</style></defs><title>company-ajs</title><g id="Layer_2" data-name="Layer 2"><g id="Layer_1-2" data-name="Layer 1"><path class="cls-1" d="M162.22,13.35C162.22,7.4,152,7.66,152,3.42A3.09,3.09,0,0,1,155.3.5c2.63,0,4.94,2.77,5.63,6.77h.37V.35H161a8.21,8.21,0,0,1-1.48,1.81A5.33,5.33,0,0,0,155.3.08a4.58,4.58,0,0,0-4.71,4.48c0,5.79,10,4.94,10,10.08A3.38,3.38,0,0,1,157,18.06c-2.92,0-5.47-3.19-5.89-7.34h-.4v7.52h.37a6.6,6.6,0,0,1,1.34-1.87c1.69,1.61,2.85,2.14,4.56,2.14a5.08,5.08,0,0,0,5.21-5.16Zm13.24,4.71v-.45h-2.11v-8c0-2.15-1.1-3.42-3-3.42-1.71,0-3,1.24-3.47,3.32V.5h-4V1H165V17.61h-2.11v.45h5.87v-.45h-1.84v-5c0-3.32,1.31-5.9,3-5.9,1,0,1.5.74,1.5,2.32v8.63h-1.84v.45ZM185,12.35c0-3.29-2.13-6.19-4.6-6.19s-4.61,2.9-4.61,6.19,2,6.1,4.61,6.1,4.6-2.73,4.6-6.1Zm-2.18,0c0,4.34-.69,5.69-2.42,5.69S178,16,178,12.32s.56-5.71,2.43-5.71,2.42,2,2.42,5.71ZM200.91,7V6.56H196V7c2,.08,2.29.93,1.87,2.29L196,15.53,193.4,7H195V6.56h-4.79V7h1.24l.89,2.9-1.66,5.63L188.09,7h1.26V6.56h-4.87V7h1.63l3.5,11.24h.72l2.26-7.52,2.34,7.52h.71l2.69-8.87c.52-1.76,1.18-2.34,2.58-2.37Z"/><path class="cls-1" d="M86.06,1.39V.94H78.35v.45h2.71V15.66c0,1.78-.71,2.68-2.13,2.68A2.39,2.39,0,0,1,76.4,16.1a1.25,1.25,0,0,0,1,.48,1.32,1.32,0,0,0,1.37-1.35,1.39,1.39,0,0,0-1.43-1.42,1.78,1.78,0,0,0-1.71,1.95c0,1.82,1.53,3.08,3.66,3.08,2.5,0,4-1.45,4-3.82V1.39Zm8.31,13.4-.5-.08c-.47,2.42-1.73,3.73-3.52,3.73-2.08,0-2.74-1.36-2.74-5.89h6.63v-.11c0-3.52-1.76-5.84-4.16-5.84s-4.65,2.9-4.65,6.27,2.26,6,4.94,6c2.06,0,3.53-1.58,4-4.1ZM92.24,12.1H87.61c.16-3.87.84-5,2.47-5s2.16,1.21,2.16,5.05ZM110,7.44V7h-4.9v.44c2,.08,2.29.92,1.87,2.29L105.13,16l-2.6-8.53h1.6V7H99.34v.44h1.24l.9,2.9L99.82,16,97.21,7.44h1.26V7H93.61v.44h1.63l3.5,11.24h.71l2.26-7.53,2.34,7.53h.72l2.68-8.87c.53-1.76,1.18-2.34,2.58-2.37Zm7.76,7.35-.5-.08c-.47,2.42-1.73,3.73-3.52,3.73-2.08,0-2.74-1.36-2.74-5.89h6.63v-.11c0-3.52-1.76-5.84-4.16-5.84s-4.66,2.9-4.66,6.27,2.27,6,5,6c2.06,0,3.53-1.58,4-4.1Zm-2.13-2.69H111c.16-3.87.84-5,2.47-5s2.16,1.21,2.16,5.05Zm8.61,6.4v-.45h-2.11V.94h-4v.45h2.11V18.05h-2.11v.45Zm8.79-10a1.85,1.85,0,0,0-1.95-1.74c-1.29,0-2.37,1.06-2.84,2.74V7h-4v.44h2.11V18.05h-2.11v.45h6.19v-.45h-2.16V12.73c0-3.29,1.13-5.55,2.76-5.55a.87.87,0,0,1,.69.26,1.06,1.06,0,0,0-1.11,1.11,1.21,1.21,0,0,0,1.21,1.21,1.25,1.25,0,0,0,1.24-1.29Zm11.55-1V7h-5v.44c2.13.06,2.29.87,1.82,2.42l-1.82,6-3-8.37h1.57V7h-5.31v.44h1.68l4.11,11.32-.95,3.08c-.5,1.66-1.21,2.37-2.31,2.37a1.2,1.2,0,0,1-1.24-.76.76.76,0,0,0,.47.1,1.13,1.13,0,1,0,0-2.26,1.29,1.29,0,0,0-1.29,1.34,2,2,0,0,0,2.08,2c1.28,0,2.21-.9,2.78-2.74l3.74-12c.56-1.79,1.13-2.5,2.69-2.53Z"/><path class="cls-1" d="M16.29,18.5v-.45H13.92L8.63.68H7.9L3.58,14.92C2.9,17.21,2,18,0,18.05v.45H6.74v-.45c-2.58,0-3.16-1.11-2.63-3l.6-2.19H10l1.53,5.16H9v.45ZM9.87,12.44h-5L7.34,4.05l2.53,8.39Zm11.76,3v-.07h-.44c0,1.92-.53,2.79-1.58,2.79-.79,0-1.13-.43-1.13-1.43V7.44h2.44V7H18.48V1.39h-.29a2,2,0,0,1-1.61,1.84h0V7h-2.1v.44h2.1v8.82a2.26,2.26,0,0,0,2.51,2.5c1.71,0,2.57-1.1,2.57-3.32Zm6.64,3.06v-.45H26.16V.94h-4v.45h2.11V18.05H22.13v.45ZM38.9,16v-.08h-.42c0,1.56-.42,2.4-1.19,2.4-.5,0-.71-.29-.71-1V10.39C36.58,8,35.27,6.6,33,6.6c-1.92,0-3.5,1.21-3.5,2.66a1.25,1.25,0,0,0,1.23,1.32,1.18,1.18,0,0,0,1.21-1.19,1.07,1.07,0,0,0-1.1-1.1.82.82,0,0,0-.21,0,2.16,2.16,0,0,1,2.21-1.26,1.84,1.84,0,0,1,1.89,2c0,1.66-1.36,2.21-2.79,3s-3.21,1.82-3.21,3.74a3,3,0,0,0,3.21,3.1,2.89,2.89,0,0,0,2.85-2.31,2.05,2.05,0,0,0,2.08,2.26c1.37,0,2-.92,2-2.82Zm-4.24-1.94c0,2.71-.95,4.34-2.42,4.34-1.05,0-1.47-.84-1.47-2.53,0-2,.58-2.6,2.37-3.84a10.61,10.61,0,0,0,1.52-1.19v3.22ZM51.43,18.5v-.45H49.32V10c0-2.16-1.13-3.42-3-3.42-1.71,0-3,1.24-3.47,3.32V7h-4v.44h2.11V18.05H38.82v.45h5.87v-.45H42.85V13c0-3.32,1.34-5.9,3-5.9,1,0,1.47.74,1.47,2.32v8.63H45.53v.45Zm7-3.06v-.07H58c0,1.92-.53,2.79-1.58,2.79-.79,0-1.13-.43-1.13-1.43V7.44h2.45V7H55.27V1.39H55a2,2,0,0,1-1.6,1.84h0V7H51.24v.44h2.11v8.82a2.26,2.26,0,0,0,2.5,2.5c1.71,0,2.58-1.1,2.58-3.32ZM69.06,16v-.08h-.43c0,1.56-.42,2.4-1.18,2.4-.5,0-.71-.29-.71-1V10.39c0-2.39-1.32-3.79-3.61-3.79-1.92,0-3.5,1.21-3.5,2.66a1.26,1.26,0,0,0,1.24,1.32,1.19,1.19,0,0,0,1.21-1.19A1.07,1.07,0,0,0,61,8.29a.94.94,0,0,0-.22,0A2.18,2.18,0,0,1,63,7.05a1.84,1.84,0,0,1,1.89,2c0,1.66-1.37,2.21-2.79,3-1.58.87-3.21,1.82-3.21,3.74a3,3,0,0,0,3.21,3.1,2.88,2.88,0,0,0,2.84-2.31A2.06,2.06,0,0,0,67,18.84c1.37,0,2.06-.92,2.06-2.82Zm-4.24-1.94c0,2.71-.95,4.34-2.42,4.34-1.06,0-1.48-.84-1.48-2.53,0-2,.58-2.6,2.37-3.84a10.25,10.25,0,0,0,1.53-1.19v3.22Z"/><path class="cls-1" d="M202.87,6.62a1,1,0,0,1,.78.33,1.12,1.12,0,0,1,0,1.57,1.09,1.09,0,0,1-1.56,0,1.1,1.1,0,0,1,0-1.57,1,1,0,0,1,.78-.33Zm1.29,1.11a1.25,1.25,0,0,0-.38-.91,1.3,1.3,0,0,0-1.82,0,1.32,1.32,0,0,0,0,1.83,1.3,1.3,0,0,0,1.82,0,1.28,1.28,0,0,0,.38-.92Zm-.95-.28a.22.22,0,0,1-.15.22.7.7,0,0,1-.24,0h-.22V7.19h.21a.71.71,0,0,1,.3,0,.22.22,0,0,1,.1.21ZM202.35,7V8.43h.25V7.88h.2a.58.58,0,0,1,.27,0,.36.36,0,0,1,.14.33v.16h.23a.54.54,0,0,1,0-.08v-.2a.37.37,0,0,0-.08-.22.33.33,0,0,0-.24-.14.77.77,0,0,0,.2-.07.31.31,0,0,0,.14-.28.35.35,0,0,0-.22-.36,1.18,1.18,0,0,0-.39-.05Z"/><polygon class="cls-2" points="208.69 0 207.48 0.82 209.67 0 208.69 0"/><polygon class="cls-3" points="213.04 0 209.67 0 211.19 0.82 213.04 0"/><polygon class="cls-2" points="207.56 1.85 207.48 0.82 206.53 1.85 207.56 1.85 207.56 1.85"/><polygon class="cls-4" points="207.56 1.85 209.13 1.85 207.48 0.82 207.56 1.85 207.56 1.85"/><polygon class="cls-2" points="209.13 1.85 211.01 1.85 211.19 0.82 209.13 1.85"/><polygon class="cls-2" points="209.13 1.85 211.01 1.85 211.19 0.82 209.13 1.85"/><polygon class="cls-3" points="211.01 1.85 213.04 1.85 211.19 0.82 211.01 1.85"/><polygon class="cls-5" points="211.19 0.82 209.67 0 209.67 0 207.48 0.82 209.13 1.85 211.19 0.82"/><polygon class="cls-4" points="211.35 5.62 207.56 1.85 206.53 1.85 210.06 4.8 213.04 7.29 211.35 5.62"/><polygon class="cls-5" points="212.35 5.45 213.04 1.85 211.01 1.85 212.35 5.45 212.35 5.45"/><polygon class="cls-2" points="211.35 5.62 209.13 1.85 207.56 1.85 211.35 5.62 211.35 5.62"/><polygon class="cls-5" points="211.35 5.62 213.04 7.29 212.35 5.45 209.13 1.85 211.35 5.62 211.35 5.62"/><polygon class="cls-3" points="211.01 1.85 209.13 1.85 212.35 5.45 211.01 1.85"/><polygon class="cls-4" points="217.4 0 218.6 0.82 216.42 0 217.4 0"/><polygon class="cls-5" points="213.04 0 216.42 0 214.89 0.82 213.04 0"/><polygon class="cls-2" points="218.52 1.85 218.6 0.82 219.55 1.85 218.52 1.85 218.52 1.85"/><polygon class="cls-4" points="218.52 1.85 216.95 1.85 218.6 0.82 218.52 1.85 218.52 1.85"/><polygon class="cls-2" points="213.04 0 211.19 0.82 213.04 1.85 214.89 0.82 213.04 0"/><polygon class="cls-2" points="213.04 0 211.19 0.82 213.04 1.85 214.89 0.82 213.04 0"/><polygon class="cls-4" points="216.95 1.85 215.08 1.85 214.89 0.82 216.95 1.85"/><polygon class="cls-5" points="215.08 1.85 213.04 1.85 214.89 0.82 215.08 1.85"/><polygon class="cls-2" points="214.89 0.82 216.42 0 216.42 0 218.6 0.82 216.95 1.85 214.89 0.82"/><polygon class="cls-4" points="218.52 1.85 214.73 5.62 213.04 7.29 216.03 4.8 219.55 1.85 218.52 1.85"/><polygon class="cls-2" points="213.73 5.45 213.04 1.85 212.35 5.45 212.35 5.45 213.04 7.29 213.73 5.45 213.73 5.45"/><polygon class="cls-2" points="213.73 5.45 213.04 1.85 212.35 5.45 212.35 5.45 213.04 7.29 213.73 5.45 213.73 5.45"/><polygon class="cls-3" points="213.73 5.45 213.04 1.85 215.08 1.85 213.73 5.45 213.73 5.45"/><polygon class="cls-5" points="214.73 5.62 216.95 1.85 218.52 1.85 214.73 5.62 214.73 5.62"/><polygon class="cls-4" points="214.73 5.62 213.04 7.29 213.73 5.45 216.95 1.85 214.73 5.62 214.73 5.62"/><polygon class="cls-2" points="215.08 1.85 216.95 1.85 213.73 5.45 215.08 1.85"/><polygon class="cls-6" points="215.78 5.07 214.87 5.07 212.97 5.07 210.3 5.07 209.21 7.06 212.97 7.06 214.87 7.06 216.88 7.06 215.78 5.07"/><path class="cls-7" d="M213,5.93A8.05,8.05,0,1,0,221.09,14,8.06,8.06,0,0,0,213,5.93Zm0,15.29A7.24,7.24,0,1,1,220.28,14,7.24,7.24,0,0,1,213,21.22Z"/><path class="cls-8" d="M213,6.74A7.24,7.24,0,1,0,220.28,14,7.24,7.24,0,0,0,213,6.74Zm0,13.87A6.63,6.63,0,1,1,219.67,14,6.62,6.62,0,0,1,213,20.61Z"/></g></g></svg>