<svg xmlns="http://www.w3.org/2000/svg" viewBox="0 0 221.05 15.87"><defs><style>.cls-1{fill:#171b22;}</style></defs><title>company-gja</title><g id="Layer_2" data-name="Layer 2"><g id="Layer_1-2" data-name="Layer 1"><path class="cls-1" d="M11.49.07V4.2h-.32A5.33,5.33,0,0,0,9.43,1.62,4.12,4.12,0,0,0,6.9.74a3.27,3.27,0,0,0-2.18.74A3.93,3.93,0,0,0,3.48,3.54a10.29,10.29,0,0,0-.36,2.71,9.77,9.77,0,0,0,.4,3A3.28,3.28,0,0,0,4.8,11.07a3.65,3.65,0,0,0,2.1.6,4.43,4.43,0,0,0,.87-.09,6.59,6.59,0,0,0,.91-.26V8.88A2.68,2.68,0,0,0,8.59,8a.91.91,0,0,0-.4-.37,1.47,1.47,0,0,0-.72-.17h-.3V7.14h5.69v.31a2.48,2.48,0,0,0-.9.18.87.87,0,0,0-.39.45,2.17,2.17,0,0,0-.08.8v2.44a11.82,11.82,0,0,1-2.34.75,12.24,12.24,0,0,1-2.52.26,7.1,7.1,0,0,1-2.76-.46,6.84,6.84,0,0,1-1.95-1.19A5.63,5.63,0,0,1,.6,9,5.89,5.89,0,0,1,0,6.35,6,6,0,0,1,1.86,1.88,6.39,6.39,0,0,1,6.53.06,8.25,8.25,0,0,1,8.1.2,6.61,6.61,0,0,1,9.33.59a4.81,4.81,0,0,0,1,.32.67.67,0,0,0,.45-.17,1.61,1.61,0,0,0,.38-.67Z"/><path class="cls-1" d="M20.48,7.72H16.05a4.15,4.15,0,0,0,.86,2.54,1.78,1.78,0,0,0,1.43.72,1.66,1.66,0,0,0,.94-.29,3.78,3.78,0,0,0,.91-1l.29.19A4.89,4.89,0,0,1,19,11.73a3.06,3.06,0,0,1-1.84.56,3.05,3.05,0,0,1-2.72-1.38,4.82,4.82,0,0,1-.75-2.76,4.59,4.59,0,0,1,1.1-3.22,3.36,3.36,0,0,1,2.56-1.2,2.78,2.78,0,0,1,2.13,1A4.55,4.55,0,0,1,20.48,7.72Zm-2.12-.58a8,8,0,0,0-.16-1.91,1.52,1.52,0,0,0-.47-.78.68.68,0,0,0-.48-.16.85.85,0,0,0-.73.44A3.81,3.81,0,0,0,16,6.84v.3Z"/><path class="cls-1" d="M25.3,3.73a3.68,3.68,0,0,1,2,.55,3.39,3.39,0,0,1,1.38,1.54A5.17,5.17,0,0,1,29.11,8a4.64,4.64,0,0,1-.87,2.87,3.42,3.42,0,0,1-2.91,1.4A3.32,3.32,0,0,1,22.52,11a4.69,4.69,0,0,1-1-3,4.78,4.78,0,0,1,1-3A3.31,3.31,0,0,1,25.3,3.73Zm0,.61a1,1,0,0,0-.76.34A2.28,2.28,0,0,0,24.17,6c-.07.65-.1,1.56-.1,2.73a11.61,11.61,0,0,0,.12,1.72,1.74,1.74,0,0,0,.4.94,1,1,0,0,0,1.36.1,1.53,1.53,0,0,0,.45-.82,20.69,20.69,0,0,0,.17-3.32,8.13,8.13,0,0,0-.16-2,1.47,1.47,0,0,0-.49-.8A.9.9,0,0,0,25.34,4.34Z"/><path class="cls-1" d="M33.69,4V5.8A6,6,0,0,1,35.1,4.14a2.1,2.1,0,0,1,1.16-.41A1,1,0,0,1,37,4a1.17,1.17,0,0,1,.29.84,1.35,1.35,0,0,1-.28.9.9.9,0,0,1-.68.32,1.21,1.21,0,0,1-.8-.29,5.06,5.06,0,0,0-.39-.33.35.35,0,0,0-.2,0,.72.72,0,0,0-.48.19,1.71,1.71,0,0,0-.53.83,5.74,5.74,0,0,0-.28,1.85v2.34a2,2,0,0,0,.06.63.71.71,0,0,0,.31.35,1.83,1.83,0,0,0,.68.13v.31H30.39v-.31a1,1,0,0,0,.71-.29,2.59,2.59,0,0,0,.19-1.3V5.68a3.65,3.65,0,0,0-.07-.88A.68.68,0,0,0,31,4.45a1.27,1.27,0,0,0-.58-.16V4Z"/><path class="cls-1" d="M43.37,4.07h2.72V5H44.55a3,3,0,0,1,.59.77,2.48,2.48,0,0,1,.2,1,2.4,2.4,0,0,1-.48,1.5,3.13,3.13,0,0,1-1.3,1,3.71,3.71,0,0,1-1.47.35l-1,0a.89.89,0,0,0-.65.26.8.8,0,0,0-.27.6.66.66,0,0,0,.24.52,1.23,1.23,0,0,0,.77.19h1.5a5.48,5.48,0,0,1,2.49.39,1.82,1.82,0,0,1,1,1.71,2.16,2.16,0,0,1-.45,1.33,2.71,2.71,0,0,1-1.18.89,7.29,7.29,0,0,1-2.57.42,8.81,8.81,0,0,1-2-.21,2.78,2.78,0,0,1-1.28-.59,1.09,1.09,0,0,1-.39-.79,1,1,0,0,1,.3-.71A2.38,2.38,0,0,1,39.67,13a1.71,1.71,0,0,1-1.13-1.54A1.84,1.84,0,0,1,39,10.34a3.79,3.79,0,0,1,1.45-1,3.5,3.5,0,0,1-1.67-1.11,2.56,2.56,0,0,1-.52-1.6,2.66,2.66,0,0,1,1-2.05,3.56,3.56,0,0,1,2.48-.87A4.4,4.4,0,0,1,43.37,4.07Zm-2,9.17a2.94,2.94,0,0,0-1.17.15.81.81,0,0,0-.49.73,1,1,0,0,0,.51.79,3.58,3.58,0,0,0,1.92.36A4.47,4.47,0,0,0,44,15a1,1,0,0,0,.68-.9.52.52,0,0,0-.13-.36,1.22,1.22,0,0,0-.7-.35A17,17,0,0,0,41.37,13.24Zm.51-9a1,1,0,0,0-.85.5,4.23,4.23,0,0,0-.34,2.1A3.19,3.19,0,0,0,41,8.63a1,1,0,0,0,.81.48,1,1,0,0,0,.86-.47A3.45,3.45,0,0,0,43,6.79a4,4,0,0,0-.38-2.11A.91.91,0,0,0,41.88,4.27Z"/><path class="cls-1" d="M50.19,4v6.4a1.87,1.87,0,0,0,.2,1.1,1,1,0,0,0,.77.27v.31H46.8v-.31a1.09,1.09,0,0,0,.8-.31,2,2,0,0,0,.17-1.06V5.66a1.91,1.91,0,0,0-.2-1.09,1.09,1.09,0,0,0-.77-.28V4ZM49,.06a1.3,1.3,0,0,1,1,.39,1.3,1.3,0,0,1,.39,1,1.28,1.28,0,0,1-.39.94,1.31,1.31,0,0,1-1,.39A1.28,1.28,0,0,1,48,2.34a1.28,1.28,0,0,1-.39-.94A1.3,1.3,0,0,1,48,.45,1.28,1.28,0,0,1,49,.06Z"/><path class="cls-1" d="M56.41,10.86a4.24,4.24,0,0,1-2.65,1.3,1.57,1.57,0,0,1-1.15-.45,1.51,1.51,0,0,1-.46-1.14A2.23,2.23,0,0,1,53,8.91a15.12,15.12,0,0,1,3.46-2V6.13A3.77,3.77,0,0,0,56.31,5a.87.87,0,0,0-.38-.41,1.1,1.1,0,0,0-.62-.18,1.56,1.56,0,0,0-.92.25.44.44,0,0,0-.23.36.79.79,0,0,0,.25.45,1.15,1.15,0,0,1,.32.72,1,1,0,0,1-.31.72,1.16,1.16,0,0,1-.83.3,1.32,1.32,0,0,1-.91-.33,1,1,0,0,1-.37-.77,1.81,1.81,0,0,1,.5-1.19A3.15,3.15,0,0,1,54.18,4,5.66,5.66,0,0,1,56,3.73a3,3,0,0,1,1.82.49,2.23,2.23,0,0,1,.87,1.06,6.88,6.88,0,0,1,.12,1.66v3.14a3.33,3.33,0,0,0,0,.7A.54.54,0,0,0,59,11a.37.37,0,0,0,.2.07c.15,0,.3-.11.46-.32l.26.21a3.16,3.16,0,0,1-.9.92,1.84,1.84,0,0,1-1,.29,1.57,1.57,0,0,1-1.07-.32A1.48,1.48,0,0,1,56.41,10.86Zm0-.63V7.52a4.85,4.85,0,0,0-1.55,1.32,1.55,1.55,0,0,0-.34.94,1,1,0,0,0,.28.7.82.82,0,0,0,.61.23A1.66,1.66,0,0,0,56.41,10.23Z"/><path class="cls-1" d="M68.67.39V.07H74.9V.39h-.38a1.62,1.62,0,0,0-.83.18.85.85,0,0,0-.35.41,3.76,3.76,0,0,0-.09,1.09V7.81a6.61,6.61,0,0,1-.34,2.45,2.82,2.82,0,0,1-1.2,1.28,4,4,0,0,1-2.07.51,3.52,3.52,0,0,1-2.38-.78,2.25,2.25,0,0,1-.92-1.72,1.33,1.33,0,0,1,.38-1,1.21,1.21,0,0,1,.9-.37,1.27,1.27,0,0,1,.89.33,1.1,1.1,0,0,1,.36.83,1.4,1.4,0,0,1-.06.43c0,.05-.12.2-.28.43a1.23,1.23,0,0,0-.23.5.47.47,0,0,0,.22.39,1.43,1.43,0,0,0,.86.24,1,1,0,0,0,.61-.19,1,1,0,0,0,.34-.59,13.37,13.37,0,0,0,.1-2.24V2.07A3.53,3.53,0,0,0,70.33,1a.81.81,0,0,0-.39-.39,1.46,1.46,0,0,0-.78-.17Z"/><path class="cls-1" d="M82.44,7.45H78A4.13,4.13,0,0,0,78.86,10a1.82,1.82,0,0,0,1.44.72,1.66,1.66,0,0,0,.94-.29,3.78,3.78,0,0,0,.91-1l.29.19A4.93,4.93,0,0,1,81,11.47a3.12,3.12,0,0,1-1.84.55,3.05,3.05,0,0,1-2.72-1.38,4.82,4.82,0,0,1-.75-2.76,4.59,4.59,0,0,1,1.1-3.22,3.35,3.35,0,0,1,2.56-1.2,2.78,2.78,0,0,1,2.13,1A4.63,4.63,0,0,1,82.44,7.45Zm-2.13-.58A7.94,7.94,0,0,0,80.16,5a1.51,1.51,0,0,0-.47-.79A.73.73,0,0,0,79.21,4a.87.87,0,0,0-.74.43A3.81,3.81,0,0,0,78,6.57v.3Z"/><path class="cls-1" d="M91.46,12,89.25,6.1,87.08,12h-.45L84.48,6.17a7,7,0,0,0-.82-1.75A1.21,1.21,0,0,0,83,4V3.7h4.08V4a.89.89,0,0,0-.57.12.33.33,0,0,0-.16.27,4,4,0,0,0,.28.88l1.18,3.16L89,5.3l-.09-.2a2.41,2.41,0,0,0-.45-.83,1.11,1.11,0,0,0-.6-.24V3.7H92V4a1.13,1.13,0,0,0-.61.13.35.35,0,0,0-.13.3,3.05,3.05,0,0,0,.25.84L92.6,8.46l1-2.91a3.13,3.13,0,0,0,.23-.84.67.67,0,0,0-.17-.5A1.07,1.07,0,0,0,93.06,4V3.7h2.39V4a1,1,0,0,0-.63.28,4,4,0,0,0-.61,1.3L92,12Z"/><path class="cls-1" d="M103.07,7.45H98.64A4.13,4.13,0,0,0,99.49,10a1.82,1.82,0,0,0,1.44.72,1.66,1.66,0,0,0,.94-.29,3.78,3.78,0,0,0,.91-1l.29.19a4.93,4.93,0,0,1-1.45,1.9,3.14,3.14,0,0,1-1.84.55,3.05,3.05,0,0,1-2.72-1.38,4.82,4.82,0,0,1-.75-2.76,4.59,4.59,0,0,1,1.1-3.22A3.35,3.35,0,0,1,100,3.46a2.81,2.81,0,0,1,2.13,1A4.63,4.63,0,0,1,103.07,7.45Zm-2.13-.58a7.94,7.94,0,0,0-.15-1.9,1.58,1.58,0,0,0-.47-.79A.73.73,0,0,0,99.84,4a.85.85,0,0,0-.74.43,3.81,3.81,0,0,0-.51,2.11v.3Z"/><path class="cls-1" d="M107.24.07v10a1.94,1.94,0,0,0,.2,1.09,1.05,1.05,0,0,0,.78.27v.31h-4.37v-.31a1.05,1.05,0,0,0,.8-.31,2,2,0,0,0,.17-1.05V1.74a1.92,1.92,0,0,0-.2-1.08,1,1,0,0,0-.77-.27V.07Z"/><path class="cls-1" d="M115.84,7.45H111.4a4.19,4.19,0,0,0,.86,2.54,1.8,1.8,0,0,0,1.43.72,1.69,1.69,0,0,0,1-.29,3.61,3.61,0,0,0,.9-1l.3.19a4.94,4.94,0,0,1-1.46,1.9,3.36,3.36,0,0,1-4.56-.83,4.9,4.9,0,0,1-.74-2.76,4.59,4.59,0,0,1,1.09-3.22,3.38,3.38,0,0,1,2.57-1.2,2.77,2.77,0,0,1,2.12,1A4.57,4.57,0,0,1,115.84,7.45Zm-2.13-.58a7.94,7.94,0,0,0-.15-1.9,1.58,1.58,0,0,0-.47-.79.73.73,0,0,0-.48-.15.85.85,0,0,0-.74.43,3.81,3.81,0,0,0-.51,2.11v.3Z"/><path class="cls-1" d="M120.2,3.7V5.54a5.78,5.78,0,0,1,1.41-1.67,2.1,2.1,0,0,1,1.16-.41,1,1,0,0,1,.77.3,1.13,1.13,0,0,1,.29.84,1.29,1.29,0,0,1-.28.9.86.86,0,0,1-.67.32,1.21,1.21,0,0,1-.8-.29,3.2,3.2,0,0,0-.4-.33.3.3,0,0,0-.19,0,.72.72,0,0,0-.48.19,1.78,1.78,0,0,0-.54.84A5.92,5.92,0,0,0,120.2,8v2.35a2.07,2.07,0,0,0,.06.63.77.77,0,0,0,.3.34,2,2,0,0,0,.69.13v.31H116.9v-.31a.93.93,0,0,0,.71-.29,2.71,2.71,0,0,0,.19-1.3V5.41a3.65,3.65,0,0,0-.07-.88.68.68,0,0,0-.25-.35A1.2,1.2,0,0,0,116.9,4V3.7Z"/><path class="cls-1" d="M129.8,3.48l.13,2.76h-.29a4.4,4.4,0,0,0-1.09-1.68,1.84,1.84,0,0,0-1.13-.45.81.81,0,0,0-.6.24.74.74,0,0,0-.26.55.72.72,0,0,0,.18.45,8.43,8.43,0,0,0,1.54,1.21A6.13,6.13,0,0,1,130,8a2.35,2.35,0,0,1,.41,1.34,2.88,2.88,0,0,1-.34,1.32,2.3,2.3,0,0,1-1,1,2.72,2.72,0,0,1-1.36.34,4.71,4.71,0,0,1-1.54-.36,1.37,1.37,0,0,0-.36-.09c-.19,0-.35.14-.47.43h-.29l-.14-2.91h.3a3.74,3.74,0,0,0,1.07,1.72,2,2,0,0,0,1.28.57,1,1,0,0,0,.68-.26.84.84,0,0,0,.26-.62,1.07,1.07,0,0,0-.26-.71,6.27,6.27,0,0,0-1.16-.92,9.21,9.21,0,0,1-1.71-1.4,2.42,2.42,0,0,1-.57-1.56,2.54,2.54,0,0,1,.65-1.69,2.27,2.27,0,0,1,1.86-.76,2.78,2.78,0,0,1,1.27.32.78.78,0,0,0,.38.13.49.49,0,0,0,.25-.06,2.18,2.18,0,0,0,.3-.37Z"/><path class="cls-1" d="M142.43,8.66h-4.14L137.8,9.8a2.54,2.54,0,0,0-.24.94.76.76,0,0,0,.4.72,3.13,3.13,0,0,0,1.14.21V12h-3.89v-.32a1.73,1.73,0,0,0,1-.52,6.88,6.88,0,0,0,1-1.77L141.44,0h.16l4.22,9.61a6,6,0,0,0,1,1.72,1.34,1.34,0,0,0,.83.31V12H142v-.32h.23a1.73,1.73,0,0,0,1-.19.45.45,0,0,0,.19-.4.93.93,0,0,0-.05-.32s-.1-.26-.26-.64ZM142.14,8l-1.75-4L138.6,8Z"/><path class="cls-1" d="M153.55,3.69l.13,2.75h-.3a4.32,4.32,0,0,0-1.09-1.67,1.81,1.81,0,0,0-1.13-.45.85.85,0,0,0-.6.24.7.7,0,0,0-.08,1A8.52,8.52,0,0,0,152,6.77a6.46,6.46,0,0,1,1.67,1.46,2.34,2.34,0,0,1,.4,1.34,2.87,2.87,0,0,1-.33,1.32,2.44,2.44,0,0,1-1,1,2.68,2.68,0,0,1-1.35.34,4.76,4.76,0,0,1-1.55-.36,1.51,1.51,0,0,0-.35-.1c-.19,0-.35.15-.48.44h-.28l-.14-2.91H149A3.78,3.78,0,0,0,150,11a2,2,0,0,0,1.28.57.92.92,0,0,0,.68-.25.83.83,0,0,0,.27-.62A1.08,1.08,0,0,0,152,10a6.64,6.64,0,0,0-1.15-.91,9.21,9.21,0,0,1-1.71-1.4,2.42,2.42,0,0,1-.57-1.56,2.51,2.51,0,0,1,.64-1.69,2.29,2.29,0,0,1,1.86-.76,2.75,2.75,0,0,1,1.27.32.81.81,0,0,0,.38.13.44.44,0,0,0,.25-.06,1.72,1.72,0,0,0,.31-.37Z"/><path class="cls-1" d="M160.43,3.69l.13,2.75h-.29a4.43,4.43,0,0,0-1.09-1.67,1.84,1.84,0,0,0-1.13-.45.81.81,0,0,0-.6.24.72.72,0,0,0-.26.55.68.68,0,0,0,.18.44,8.31,8.31,0,0,0,1.54,1.22,6.13,6.13,0,0,1,1.67,1.46A2.35,2.35,0,0,1,161,9.57a2.88,2.88,0,0,1-.34,1.32,2.41,2.41,0,0,1-1,1,2.72,2.72,0,0,1-1.36.34,4.71,4.71,0,0,1-1.54-.36,1.55,1.55,0,0,0-.36-.1c-.19,0-.35.15-.47.44h-.29l-.14-2.91h.3A3.77,3.77,0,0,0,156.9,11a2.07,2.07,0,0,0,1.29.57,1,1,0,0,0,.68-.25.85.85,0,0,0,.26-.62,1.12,1.12,0,0,0-.26-.72,6.84,6.84,0,0,0-1.16-.91A9.21,9.21,0,0,1,156,7.68a2.42,2.42,0,0,1-.57-1.56,2.56,2.56,0,0,1,.64-1.69,2.3,2.3,0,0,1,1.87-.76,2.78,2.78,0,0,1,1.27.32.78.78,0,0,0,.38.13.49.49,0,0,0,.25-.06,2.18,2.18,0,0,0,.3-.37Z"/><path class="cls-1" d="M166,3.67a3.65,3.65,0,0,1,2,.55,3.39,3.39,0,0,1,1.38,1.54,5.17,5.17,0,0,1,.47,2.2,4.64,4.64,0,0,1-.87,2.87,3.42,3.42,0,0,1-2.91,1.4A3.32,3.32,0,0,1,163.24,11a4.69,4.69,0,0,1-1-3,4.78,4.78,0,0,1,1-3A3.31,3.31,0,0,1,166,3.67Zm0,.61a1,1,0,0,0-.76.34,2.28,2.28,0,0,0-.41,1.31c-.07.65-.1,1.56-.1,2.73a11.61,11.61,0,0,0,.12,1.72,1.74,1.74,0,0,0,.4.94,1,1,0,0,0,1.36.1,1.53,1.53,0,0,0,.45-.82,20.69,20.69,0,0,0,.17-3.32,8.13,8.13,0,0,0-.16-2,1.47,1.47,0,0,0-.49-.8A.9.9,0,0,0,166.06,4.28Z"/><path class="cls-1" d="M177.65,9.91l.27.21a4.11,4.11,0,0,1-1.42,1.59,3.41,3.41,0,0,1-1.81.52A3.13,3.13,0,0,1,172.1,11a4.58,4.58,0,0,1-1-2.92A4.93,4.93,0,0,1,172,5.18,3.38,3.38,0,0,1,175,3.67a3,3,0,0,1,2,.63,1.84,1.84,0,0,1,.74,1.41,1.06,1.06,0,0,1-.3.79,1.09,1.09,0,0,1-.78.29,1.13,1.13,0,0,1-.85-.34,1.93,1.93,0,0,1-.41-1.2,1.33,1.33,0,0,0-.25-.76.62.62,0,0,0-.46-.21.82.82,0,0,0-.71.44,3.66,3.66,0,0,0-.45,2,6.66,6.66,0,0,0,.36,2.19,3.36,3.36,0,0,0,1,1.55,1.78,1.78,0,0,0,1.13.37,1.72,1.72,0,0,0,.8-.2A3.74,3.74,0,0,0,177.65,9.91Z"/><path class="cls-1" d="M182.06,3.91v6.4a2,2,0,0,0,.2,1.1,1.05,1.05,0,0,0,.78.27V12h-4.36v-.31a1.07,1.07,0,0,0,.79-.31,1.93,1.93,0,0,0,.17-1.06V5.6a2,2,0,0,0-.19-1.1,1.16,1.16,0,0,0-.77-.27V3.91ZM180.86,0a1.26,1.26,0,0,1,.94.39,1.3,1.3,0,0,1,.39,1,1.28,1.28,0,0,1-.39.94,1.34,1.34,0,0,1-1.89,0,1.28,1.28,0,0,1-.39-.94,1.3,1.3,0,0,1,.39-.95A1.3,1.3,0,0,1,180.86,0Z"/><path class="cls-1" d="M188.28,10.8a4.24,4.24,0,0,1-2.65,1.3,1.58,1.58,0,0,1-1.15-.45,1.55,1.55,0,0,1-.46-1.14,2.23,2.23,0,0,1,.8-1.66,15.12,15.12,0,0,1,3.46-2V6.07a3.77,3.77,0,0,0-.1-1.15.91.91,0,0,0-.37-.42,1.2,1.2,0,0,0-.62-.17,1.57,1.57,0,0,0-.93.25.42.42,0,0,0-.22.36.76.76,0,0,0,.24.45,1.12,1.12,0,0,1,.33.72,1,1,0,0,1-.32.72,1.13,1.13,0,0,1-.82.3,1.29,1.29,0,0,1-.91-.33,1,1,0,0,1-.37-.77,1.78,1.78,0,0,1,.49-1.19A3.09,3.09,0,0,1,186.06,4a5.57,5.57,0,0,1,1.83-.3,3,3,0,0,1,1.81.49,2.23,2.23,0,0,1,.87,1.06,6.88,6.88,0,0,1,.12,1.66V10a3.08,3.08,0,0,0,.05.7.44.44,0,0,0,.13.21.32.32,0,0,0,.19.07.63.63,0,0,0,.46-.32l.26.2a3.07,3.07,0,0,1-.89.93,1.89,1.89,0,0,1-1,.29,1.67,1.67,0,0,1-1.08-.32A1.5,1.5,0,0,1,188.28,10.8Zm0-.63V7.46a5.08,5.08,0,0,0-1.55,1.32,1.55,1.55,0,0,0-.34.94,1,1,0,0,0,.29.7.78.78,0,0,0,.6.23A1.66,1.66,0,0,0,188.28,10.17Z"/><path class="cls-1" d="M195.88,1v3h1.92v.86h-1.92v5a4.19,4.19,0,0,0,.06.91.68.68,0,0,0,.23.32.48.48,0,0,0,.3.13c.38,0,.73-.29,1.07-.86l.26.19a2.37,2.37,0,0,1-2.28,1.66,2,2,0,0,1-1.3-.43,1.82,1.82,0,0,1-.67-.95,7.89,7.89,0,0,1-.09-1.59V4.77h-1.05v-.3a12,12,0,0,0,1.85-1.62A9.56,9.56,0,0,0,195.59,1Z"/><path class="cls-1" d="M201.72,3.91v6.4a1.89,1.89,0,0,0,.2,1.1,1,1,0,0,0,.77.27V12h-4.36v-.31a1.09,1.09,0,0,0,.8-.31,2,2,0,0,0,.17-1.06V5.6a2,2,0,0,0-.2-1.1,1.13,1.13,0,0,0-.77-.27V3.91ZM200.51,0a1.3,1.3,0,0,1,1,.39,1.3,1.3,0,0,1,.39,1,1.25,1.25,0,0,1-.4.94,1.33,1.33,0,0,1-1.88,0,1.28,1.28,0,0,1-.39-.94,1.3,1.3,0,0,1,.39-.95A1.28,1.28,0,0,1,200.51,0Z"/><path class="cls-1" d="M207.29,3.67a3.68,3.68,0,0,1,2,.55,3.51,3.51,0,0,1,1.38,1.54A5.17,5.17,0,0,1,211.1,8a4.64,4.64,0,0,1-.87,2.87,3.44,3.44,0,0,1-2.91,1.4A3.31,3.31,0,0,1,204.51,11a4.7,4.7,0,0,1-1-3,4.79,4.79,0,0,1,1-3A3.31,3.31,0,0,1,207.29,3.67Zm0,.61a1,1,0,0,0-.75.34,2.34,2.34,0,0,0-.42,1.31c-.06.65-.1,1.56-.1,2.73a11.61,11.61,0,0,0,.12,1.72,1.74,1.74,0,0,0,.41.94,1,1,0,0,0,.71.32,1,1,0,0,0,.65-.22,1.53,1.53,0,0,0,.45-.82,20.69,20.69,0,0,0,.17-3.32,7.53,7.53,0,0,0-.17-2,1.46,1.46,0,0,0-.48-.8A.91.91,0,0,0,207.32,4.28Z"/><path class="cls-1" d="M215.63,3.91V5a4.55,4.55,0,0,1,1.19-1A2.49,2.49,0,0,1,218,3.67a2,2,0,0,1,1.31.44A2.15,2.15,0,0,1,220,5.19a8.47,8.47,0,0,1,.14,1.89v3.15a2.29,2.29,0,0,0,.17,1.16,1,1,0,0,0,.7.29V12H217v-.31a.85.85,0,0,0,.65-.38,2.49,2.49,0,0,0,.14-1.07V6.63a5.91,5.91,0,0,0-.08-1.25.76.76,0,0,0-.26-.4.64.64,0,0,0-.41-.14c-.5,0-1,.35-1.38,1.06v4.33a2.49,2.49,0,0,0,.16,1.15.9.9,0,0,0,.63.3V12h-4.09v-.31a1,1,0,0,0,.73-.33,2.38,2.38,0,0,0,.15-1.12V5.67A2.34,2.34,0,0,0,213,4.53a1,1,0,0,0-.71-.3V3.91Z"/></g></g></svg>