<svg xmlns="http://www.w3.org/2000/svg" viewBox="0 0 77 28.3"><defs><style>.cls-1{fill:#fff;}</style></defs><title>company-mbi</title><g id="Layer_2" data-name="Layer 2"><g id="Layer_1-2" data-name="Layer 1"><path class="cls-1" d="M5.41,5.9c.41-1.09.82-2.17,1.24-3.25C6.9,2,7,1.12,7.5.78s1.32-.11,2-.11c.25,0,.69,0,.72.14a5.24,5.24,0,0,1,0,1.19s-.11.12-.17.12c-.6,0-.54.44-.52.86.09,1.66.18,3.31.27,5l.8.19a8.86,8.86,0,0,1,0,1.15c0,.12-.24.29-.37.3-.89,0-1.79,0-2.69,0-.32,0-.46-.11-.44-.44s0-.5,0-.74.16-.3.25-.3c.53,0,.49-.35.47-.71,0-.91-.09-1.83-.23-2.76C7.17,5.84,6.74,7,6.28,8.13c-.1.24-.23.6-.4.64a4.05,4.05,0,0,1-1.3,0c-.12,0-.22-.29-.29-.47C3.84,7.13,3.39,6,2.83,4.79c-.05,1-.13,2-.11,2.94,0,.18.39.37.69.46a.19.19,0,0,1,0,.1c.15,1.36.15,1.36-1.2,1.36-.59,0-1.18,0-1.77,0C.1,9.67,0,9.5,0,9.14a2.9,2.9,0,0,0,0-.51c0-.29.06-.45.39-.51A.63.63,0,0,0,.79,7.7C.91,6,1,4.23,1.07,2.49a.44.44,0,0,0,0-.16A1,1,0,0,1,.37.92.49.49,0,0,1,.74.68c.74,0,1.49,0,2.23,0a.72.72,0,0,1,.49.43C4,2.47,4.49,3.83,5,5.19l.27.68Z"/><path class="cls-1" d="M1,11.69c-.33-.2-.66-.29-.68-.44a4.75,4.75,0,0,1,0-1.19s.16-.1.24-.1c1.49,0,3,0,4.46.08a2.25,2.25,0,0,1,1.28,4,1.71,1.71,0,0,0,.2.18,2.2,2.2,0,0,1,1,2.26A2.27,2.27,0,0,1,6,18.56,6.85,6.85,0,0,1,4,18.92c-1.09.06-2.18,0-3.27,0-.47,0-.61-.18-.57-.61s-.15-1,.6-1c.06,0,.19-.2.19-.3C1,15.25,1,13.42,1,11.69ZM3,16.15c0,1.26,0,1.29,1.27,1.1.79-.12,1.16-.5,1.13-1.17s-.42-1-1.21-1C2.71,15,3.05,15,3,16.15Zm-.07-3.7c.07.36,0,.74.21.91.36.36,1.65,0,1.78-.53.07-.29,0-.87-.1-.92a5,5,0,0,0-1.63-.26C3.11,11.65,3,12.19,2.94,12.45Z"/><path class="cls-1" d="M25.25,15.86c-.25.85-.52,1.7-.74,2.56a.59.59,0,0,1-.66.53c-1.72,0-1.72,0-2.14-1.65-.25-1-.53-2-.76-3.06-.11-.49-.24-.89-.83-.81a.59.59,0,0,1-.07-.14C19.87,12.07,19.9,12,21.11,12c.61,0,1.23,0,1.84,0,.38,0,.53.13.48.49s.28,1.06-.66,1l.62,2.77c.11-.29.18-.42.23-.57.28-1,.59-1.89.83-2.86a.67.67,0,0,1,.84-.6,1.34,1.34,0,0,0,.4,0c.4,0,.58.12.68.51.3,1.14.63,2.27,1.05,3.42L28,13.63l-.55-.23V12.09h3v1.33c-.65-.07-.81.33-.92.87-.3,1.4-.67,2.79-1,4.18-.07.35-.23.46-.58.47-1.7.06-1.7.06-2.15-1.56-.14-.5-.28-1-.43-1.52Z"/><path class="cls-1" d="M42.94,22.62a4.7,4.7,0,0,1,.11-.88,1.2,1.2,0,0,1,.36-.43c.28-.26.67-.45.86-.76.51-.81.48-.83,1.53-.65l.06,1.28h1.71c-.09.55,0,1.17-.29,1.41s-.89.14-1.42.19c0,1.13,0,2.27,0,3.41,0,.15.34.4.54.42a3.87,3.87,0,0,0,1-.22l.43,1c0-.46.18-.74.67-.76a.39.39,0,0,0,.21-.28c0-1.18,0-2.36,0-3.51-.84-.2-.91-.39-.68-1.57h2.64v5.22c.28.12.63.17.67.32a2.74,2.74,0,0,1,0,1.07c0,.09-.24.23-.37.23-.89,0-1.79,0-2.69,0a1.84,1.84,0,0,1-.59-.25,3.43,3.43,0,0,1-2.57.32,1.51,1.51,0,0,1-1.28-1.43c-.06-1-.06-2-.08-3S43.83,22.84,42.94,22.62Z"/><path class="cls-1" d="M4.07,22.57V21.29a4.06,4.06,0,0,1,2.68.18A12.3,12.3,0,0,1,8.23,21a2.05,2.05,0,0,1,2.51,2c.06,1,0,2,.06,3,0,.28,0,.53.4.54s.3.37.31.61c0,.88,0,.88-.86.88-.67,0-1.34,0-2,0C8.18,28.14,8,28,8,27.5c0-.24,0-.48,0-.77.7,0,.8-.38.76-.93,0-.75,0-1.49,0-2.24,0-.44-.09-.85-.64-.92A1,1,0,0,0,7,23.4a11.94,11.94,0,0,0-.1,1.7c0,.35,0,.69,0,1s.05.45.4.49A.58.58,0,0,1,7.6,27a1.18,1.18,0,0,1,0,.67c0,.17-.25.4-.39.41-.91,0-1.83,0-2.75,0a.43.43,0,0,1-.34-.27,4.15,4.15,0,0,1,0-.79c0-.42.37-.29.56-.42a.53.53,0,0,0,.22-.4c0-1,0-2.06,0-3.09C4.88,22.81,4.85,22.81,4.07,22.57Z"/><path class="cls-1" d="M61.28,26.51A.94.94,0,0,1,62,27.87a.49.49,0,0,1-.39.22c-.89,0-1.79,0-2.69,0a.57.57,0,0,1-.39-.39c0-.43-.27-1,.55-1.1.09,0,.21-.25.21-.39,0-1,0-2.06,0-3.09,0-.61-.55-.32-.81-.58V21.3c1-.27,2.44-.13,2.64.2A10.59,10.59,0,0,1,62.66,21a2.07,2.07,0,0,1,2.51,2.07c0,.93,0,1.87,0,2.8v.6a1,1,0,0,1,.69,1.38.45.45,0,0,1-.35.2c-.89,0-1.79,0-2.69,0a.6.6,0,0,1-.4-.39c0-.44-.26-1,.56-1.1.07,0,.18-.27.18-.41,0-.88,0-1.76,0-2.64,0-.44-.1-.84-.66-.91a1,1,0,0,0-1.15.71,8.06,8.06,0,0,0-.1,1.48C61.27,25.39,61.28,26,61.28,26.51Z"/><path class="cls-1" d="M30.5,12c1,.16,1.89-.26,2.74.29a10.09,10.09,0,0,1,1.53-.44A2.06,2.06,0,0,1,37.2,14c0,.92,0,1.83,0,2.75v.6a.94.94,0,0,1,.71,1.32.51.51,0,0,1-.39.29c-.89,0-1.79,0-2.69,0-.13,0-.37-.23-.37-.35,0-.46-.28-1.09.57-1.15.07,0,.16-.24.17-.37,0-.9,0-1.79,0-2.69,0-.4-.08-.77-.56-.88a1.1,1.1,0,0,0-1.21.56,1.24,1.24,0,0,0-.13.5c0,.93,0,1.86,0,2.81.29.15.75,0,.75.57,0,1,.05,1-1,1-.69,0-1.38,0-2.06,0-.36,0-.54-.1-.52-.48s-.15-1,.61-1c.07,0,.19-.27.19-.41,0-1,0-2,0-3,0-.16-.18-.43-.29-.44-.52,0-.57-.31-.54-.72C30.51,12.59,30.5,12.34,30.5,12Z"/><path class="cls-1" d="M28.2,21.26c1.67-.2,2.47-.11,2.68.23A12.21,12.21,0,0,1,32.46,21a2.06,2.06,0,0,1,2.45,2.09c.05.93,0,1.87,0,2.8v.6a1,1,0,0,1,.69,1.38.46.46,0,0,1-.35.19c-.9,0-1.8,0-2.69,0a.58.58,0,0,1-.4-.39c0-.45-.25-1.05.57-1.11.07,0,.17-.27.17-.41,0-.88,0-1.76,0-2.63,0-.42-.09-.81-.61-.9a1.06,1.06,0,0,0-1.18.6,1.59,1.59,0,0,0-.1.33c0,.2,0,.41,0,.62v2.32a.93.93,0,0,1,.72,1.35.49.49,0,0,1-.39.22c-.9,0-1.8,0-2.69,0a.55.55,0,0,1-.39-.39c0-.44-.26-1.05.56-1.1.08,0,.2-.25.2-.39q0-1.55,0-3.09c0-.14-.18-.4-.27-.4-.57,0-.58-.35-.56-.76C28.21,21.73,28.2,21.51,28.2,21.26Z"/><path class="cls-1" d="M40.31,27.89a2.84,2.84,0,0,1-3.51-.5,3.71,3.71,0,0,1-.72-2.31,3.76,3.76,0,0,1,1.5-3.52A4.46,4.46,0,0,1,41,21.14c1.31.25,1.31.27,1.31,1.61v3.32c0,.27,0,.54.39.55s.32.36.32.6c0,.89,0,.89-.85.89-.36,0-.72,0-1.08,0A4.7,4.7,0,0,1,40.31,27.89Zm.06-3.48c0-.46,0-.92,0-1.37a.54.54,0,0,0-.21-.4,1.45,1.45,0,0,0-1.77.65A4,4,0,0,0,38.26,26c.16.55.6.76,1.24.67a1,1,0,0,0,.86-1C40.38,25.29,40.37,24.85,40.37,24.41Z"/><path class="cls-1" d="M70.45,27.87c-2,1-3.9,0-4.08-2.35a5,5,0,0,1,.51-2.94A3.3,3.3,0,0,1,70.27,21c2.12.13,2.2.24,2.2,2.32v2.74c0,.29,0,.53.4.55.11,0,.27.2.3.33.17,1,0,1.15-1,1.15-.35,0-.69,0-1,0A3.59,3.59,0,0,1,70.45,27.87Zm.06-3.49c0-.46,0-.92,0-1.37a.49.49,0,0,0-.19-.36,1.31,1.31,0,0,0-1.63.56,3.9,3.9,0,0,0-.16,2.85.91.91,0,0,0,1.14.63.93.93,0,0,0,.84-.94C70.53,25.3,70.51,24.84,70.51,24.38Z"/><path class="cls-1" d="M24.72,8.05a1,1,0,0,1,.68,1.4.44.44,0,0,1-.31.19q-.91,0-1.83,0c-.14,0-.28-.16-.45-.27-2,1.06-3.8.18-4.15-2.12a5.36,5.36,0,0,1,0-1.6c.34-2.43,2.13-3.53,4.77-3,1.29.27,1.29.27,1.29,1.56Zm-2-2.11h0c0-.46,0-.91,0-1.37a.51.51,0,0,0-.23-.39,1.27,1.27,0,0,0-1.6.63,3.84,3.84,0,0,0-.13,2.79,1,1,0,0,0,2-.29C22.77,6.86,22.76,6.4,22.76,5.94Z"/><path class="cls-1" d="M51.77,24.66c.06-2.16,1-3.35,2.82-3.62A2.86,2.86,0,0,1,58,23.44a4.77,4.77,0,0,1-.47,3.39,3.18,3.18,0,0,1-3.49,1.37,3,3,0,0,1-2.25-2.78C51.8,25.15,51.79,24.89,51.77,24.66Zm4.39.11c-.07-.51-.11-.93-.19-1.33A.93.93,0,0,0,55,22.6a1,1,0,0,0-1.1.79A4.56,4.56,0,0,0,54,26a1,1,0,0,0,1.87,0A11.13,11.13,0,0,0,56.16,24.77Z"/><path class="cls-1" d="M19.92,16a3.17,3.17,0,0,1-1.75,2.78,3,3,0,0,1-4.45-2.09,7.49,7.49,0,0,1,.07-2.54c.42-2.27,3.49-2.93,5.11-1.6C19.59,13.08,19.93,14,19.92,16Zm-2-.41c-.06-.49-.1-.89-.18-1.28a.94.94,0,0,0-.92-.85,1,1,0,0,0-1.12.78,4.3,4.3,0,0,0,.06,2.63,1,1,0,0,0,1.89,0A10.42,10.42,0,0,0,18,15.56Z"/><path class="cls-1" d="M18.3,25.55c.34,1.23,1,1.32,3,.48a11.38,11.38,0,0,1,.52,1.12.53.53,0,0,1-.17.45,4,4,0,0,1-3.83.34,2.91,2.91,0,0,1-1.63-2.87A3.67,3.67,0,0,1,18,21.41a3.16,3.16,0,0,1,2.55-.27,1.77,1.77,0,0,1,1.35,1.54,2,2,0,0,1-1,2.2,9,9,0,0,1-1.94.61A3.47,3.47,0,0,1,18.3,25.55Zm0-1.61a1.57,1.57,0,0,0,1.41-.4.78.78,0,0,0,.17-.69.74.74,0,0,0-.65-.26A1.16,1.16,0,0,0,18.34,23.94Z"/><path class="cls-1" d="M10.69,12.29A2.41,2.41,0,0,1,13.1,12a.52.52,0,0,1,.41.59c0,.23,0,.46,0,.69,0,1.47.13,1.06-1.18,1.25-.36,0-.48-.1-.48-.44,0-.17-.08-.47-.16-.48a.72.72,0,0,0-.57.15,1.18,1.18,0,0,0-.38.66c-.05.87,0,1.75,0,2.63,0,.37.26.37.51.36.85,0,.52.6.58,1s-.25.5-.6.5c-.86,0-1.72,0-2.58,0-.56,0-.76-.17-.69-.71a5.25,5.25,0,0,0,0-.7c.83.07.83-.45.81-1,0-.82,0-1.64,0-2.46,0-.32-.08-.48-.44-.52-.81-.1-.34-.74-.42-1.13S8.14,12,8.4,12c.51,0,1,0,1.54,0A3.63,3.63,0,0,1,10.69,12.29Z"/><path class="cls-1" d="M22.36,26.7c.83.09.82-.42.81-1,0-.8,0-1.6,0-2.4,0-.39-.08-.61-.52-.64a.55.55,0,0,1-.35-.39c-.13-1.05-.09-1.09,1-1.09.4,0,.8,0,1.2,0a2.78,2.78,0,0,1,.64.27,2.34,2.34,0,0,1,2.46-.25.68.68,0,0,1,.37.47,8.8,8.8,0,0,1,0,1.54c0,.15-.22.33-.38.4s-.38,0-.57.06c-.46.1-.74,0-.68-.55,0-.41-.25-.48-.5-.31a1.33,1.33,0,0,0-.6.74,21.93,21.93,0,0,0,0,2.69c0,.12.28.3.45.33.66.09.63.07.63,1,0,.57-.37.47-.7.48-.86,0-1.71,0-2.57,0-.47,0-.67-.14-.62-.62A6.89,6.89,0,0,0,22.36,26.7Z"/><path class="cls-1" d="M76.28,26.45c.3.16.65.24.68.38a3.3,3.3,0,0,1,0,1.13c0,.07-.29.14-.44.14-.82,0-1.65,0-2.47,0-.43,0-.58-.14-.54-.56a8,8,0,0,0,0-.86c.83.1.81-.41.81-1,0-1.72,0-3.44,0-5.15,0-.33,0-.55-.44-.58-.12,0-.29-.21-.32-.34a3.17,3.17,0,0,1,0-.69c0-.36.15-.47.48-.46.55,0,1.11,0,1.66,0s.63.15.62.63c0,2.23,0,4.46,0,6.69Z"/><path class="cls-1" d="M14.71,1.48V.06c.83,0,1.63,0,2.42,0,.1,0,.26.33.26.51,0,1.9,0,3.81,0,5.72V7.46c0,.36-.07.76.51.73.08,0,.22.19.24.31a1.84,1.84,0,0,1,0,.74c0,.16-.25.39-.39.39-.89,0-1.79,0-2.68,0-.33,0-.46-.15-.44-.45s-.21-1,.57-1c.08,0,.22-.26.22-.4,0-1.92,0-3.85,0-5.77,0-.2-.35-.4-.54-.59Z"/><path class="cls-1" d="M3.71,26.65a8.37,8.37,0,0,1,0,1.12.54.54,0,0,1-.41.32c-.92,0-1.83,0-2.75,0-.29,0-.42-.12-.4-.41s0-.42,0-.63.08-.44.4-.5c.15,0,.38-.26.38-.4,0-1.79,0-3.59,0-5.37a1.06,1.06,0,0,1-.68-1.43.49.49,0,0,1,.37-.24c.91,0,1.83,0,2.74,0,.31,0,.4.14.39.42a2.13,2.13,0,0,1,0,.62.68.68,0,0,1-.36.44.48.48,0,0,0-.42.56c0,1.62,0,3.25,0,4.87C2.93,26.6,3.33,26.53,3.71,26.65Z"/><path class="cls-1" d="M12,22.77l-.81-.09a1.14,1.14,0,0,1,.65-1.49,2.18,2.18,0,0,0,.74-1c.25-.6.72-.38,1.12-.38s.25.42.29.67a5.06,5.06,0,0,1,0,.69h1.67c0,.24,0,.41,0,.57-.09.94-.09,1-1,.94-.47,0-.64.13-.62.61,0,.82,0,1.64,0,2.46s.33,1,1.08.76l.49-.2a10.84,10.84,0,0,1,.43,1.1.53.53,0,0,1-.21.44,3.1,3.1,0,0,1-3,0,1.58,1.58,0,0,1-.76-1.51c0-1,0-2,0-3Z"/><path class="cls-1" d="M10.9,8.24c.8.09.82-.39.81-.94,0-.84,0-1.68,0-2.52,0-.17-.19-.47-.3-.48-.44,0-.49-.26-.47-.61s0-.56,0-.9h2.71c0,.23,0,.45,0,.67,0,1.38,0,2.75,0,4.13,0,.29,0,.57.42.59.1,0,.25.2.27.33a1.54,1.54,0,0,1,0,.74c0,.16-.26.38-.4.38q-1.32.06-2.64,0a.57.57,0,0,1-.4-.37A4.86,4.86,0,0,1,10.9,8.24Z"/><path class="cls-1" d="M11.34,1.16A1.15,1.15,0,0,1,12.5,0a1.18,1.18,0,0,1,1.21,1.18,1.16,1.16,0,0,1-1.23,1.15A1.14,1.14,0,0,1,11.34,1.16Z"/><path class="cls-1" d="M50.79,19.62a1.16,1.16,0,0,1-1.16,1.17,1.17,1.17,0,1,1-.06-2.34A1.18,1.18,0,0,1,50.79,19.62Z"/></g></g></svg>