<svg xmlns="http://www.w3.org/2000/svg" viewBox="0 0 176 40.72"><defs><style>.cls-1{fill:#fff;}</style></defs><title>company-gja</title><g id="Layer_2" data-name="Layer 2"><g id="Layer_1-2" data-name="Layer 1"><path class="cls-1" d="M15.53,0V5.59H15.1a7.12,7.12,0,0,0-2.35-3.48A5.53,5.53,0,0,0,9.33.92a4.38,4.38,0,0,0-2.95,1A5.33,5.33,0,0,0,4.71,4.71a13.63,13.63,0,0,0-.49,3.66,13.37,13.37,0,0,0,.53,4,4.56,4.56,0,0,0,1.74,2.52,4.94,4.94,0,0,0,2.84.81,6.06,6.06,0,0,0,1.18-.12,8.9,8.9,0,0,0,1.23-.36V11.93a3.61,3.61,0,0,0-.13-1.21,1.18,1.18,0,0,0-.53-.5,2,2,0,0,0-1-.22H9.69V9.57h7.7V10a3.42,3.42,0,0,0-1.22.24,1.17,1.17,0,0,0-.53.6,3.28,3.28,0,0,0-.11,1.09v3.29a15.55,15.55,0,0,1-3.16,1,16.47,16.47,0,0,1-3.4.35A9.84,9.84,0,0,1,5.23,16,9.2,9.2,0,0,1,2.6,14.36,7.6,7.6,0,0,1,.82,12.11,7.8,7.8,0,0,1,0,8.5a8.17,8.17,0,0,1,2.51-6A8.66,8.66,0,0,1,8.83,0,10.43,10.43,0,0,1,11,.19a9.67,9.67,0,0,1,1.67.53A7.24,7.24,0,0,0,14,1.16a.92.92,0,0,0,.61-.24A2.13,2.13,0,0,0,15.1,0Z"/><path class="cls-1" d="M27.69,10.36h-6a5.63,5.63,0,0,0,1.16,3.43,2.42,2.42,0,0,0,1.94,1,2.21,2.21,0,0,0,1.27-.39A5,5,0,0,0,27.3,13l.39.26a6.62,6.62,0,0,1-2,2.57,4.26,4.26,0,0,1-2.49.75,4.14,4.14,0,0,1-3.68-1.87,6.58,6.58,0,0,1-1-3.74A6.19,6.19,0,0,1,20,6.58,4.54,4.54,0,0,1,23.5,5a3.78,3.78,0,0,1,2.88,1.36A6.24,6.24,0,0,1,27.69,10.36Zm-2.87-.78A10.4,10.4,0,0,0,24.61,7,2.06,2.06,0,0,0,24,5.93a1,1,0,0,0-.66-.21,1.15,1.15,0,0,0-1,.6,5.09,5.09,0,0,0-.69,2.85v.41Z"/><path class="cls-1" d="M34.21,5a5.07,5.07,0,0,1,2.65.74,4.67,4.67,0,0,1,1.86,2.09,6.8,6.8,0,0,1,.64,3,6.27,6.27,0,0,1-1.18,3.89,4.65,4.65,0,0,1-3.93,1.89,4.52,4.52,0,0,1-3.8-1.73,6.37,6.37,0,0,1-1.33-4,6.44,6.44,0,0,1,1.36-4.09A4.49,4.49,0,0,1,34.21,5Zm0,.83a1.34,1.34,0,0,0-1,.45A3.17,3.17,0,0,0,32.67,8c-.09.88-.13,2.11-.13,3.68A17,17,0,0,0,32.7,14a2.3,2.3,0,0,0,.55,1.26,1.29,1.29,0,0,0,1,.43,1.32,1.32,0,0,0,.88-.29,1.94,1.94,0,0,0,.6-1.11,26.19,26.19,0,0,0,.24-4.48,11.5,11.5,0,0,0-.22-2.73A2.08,2.08,0,0,0,35.05,6,1.24,1.24,0,0,0,34.26,5.79Z"/><path class="cls-1" d="M45.55,5.29V7.77a8,8,0,0,1,1.91-2.25A2.81,2.81,0,0,1,49,5a1.39,1.39,0,0,1,1,.41,1.56,1.56,0,0,1,.39,1.14,1.79,1.79,0,0,1-.38,1.21,1.17,1.17,0,0,1-.92.43,1.55,1.55,0,0,1-1.07-.4,6.88,6.88,0,0,0-.54-.44.5.5,0,0,0-.27-.07,1,1,0,0,0-.64.26,2.36,2.36,0,0,0-.72,1.13,8,8,0,0,0-.38,2.5V14.3a2.47,2.47,0,0,0,.09.85.93.93,0,0,0,.41.46,2.28,2.28,0,0,0,.93.18v.42h-5.9v-.42a1.27,1.27,0,0,0,1-.39,3.61,3.61,0,0,0,.25-1.76v-6a4.69,4.69,0,0,0-.09-1.19.93.93,0,0,0-.34-.48,1.85,1.85,0,0,0-.78-.21V5.29Z"/><path class="cls-1" d="M58.65,5.42h3.68V6.7H60.24a4.19,4.19,0,0,1,.79,1,3.16,3.16,0,0,1,.28,1.32,3.29,3.29,0,0,1-.65,2,4.29,4.29,0,0,1-1.76,1.34,5,5,0,0,1-2,.49l-1.4-.06a1.24,1.24,0,0,0-.89.34,1.14,1.14,0,0,0-.35.83.84.84,0,0,0,.32.69,1.6,1.6,0,0,0,1,.27l2,0A7.32,7.32,0,0,1,61,15.5a2.46,2.46,0,0,1,1.32,2.3,3,3,0,0,1-.61,1.81,3.56,3.56,0,0,1-1.6,1.19,9.75,9.75,0,0,1-3.47.57A11.73,11.73,0,0,1,54,21.09a3.71,3.71,0,0,1-1.74-.8,1.47,1.47,0,0,1-.53-1.07,1.42,1.42,0,0,1,.4-1,3.35,3.35,0,0,1,1.51-.72,2.28,2.28,0,0,1-1.52-2.08,2.43,2.43,0,0,1,.62-1.56,4.8,4.8,0,0,1,2-1.32,4.79,4.79,0,0,1-2.27-1.51,3.53,3.53,0,0,1-.7-2.16A3.62,3.62,0,0,1,53,6.14,4.8,4.8,0,0,1,56.4,5,6.2,6.2,0,0,1,58.65,5.42Zm-2.71,12.4a4.08,4.08,0,0,0-1.58.2,1.11,1.11,0,0,0-.67,1,1.37,1.37,0,0,0,.69,1.09,4.92,4.92,0,0,0,2.6.48,6.3,6.3,0,0,0,2.55-.43,1.35,1.35,0,0,0,.93-1.22.71.71,0,0,0-.18-.49,1.75,1.75,0,0,0-1-.48A25.79,25.79,0,0,0,55.94,17.82Zm.69-12.13a1.37,1.37,0,0,0-1.15.68A5.67,5.67,0,0,0,55,9.2a4.35,4.35,0,0,0,.47,2.39,1.32,1.32,0,0,0,1.09.65,1.41,1.41,0,0,0,1.17-.64,4.64,4.64,0,0,0,.46-2.5,5.38,5.38,0,0,0-.52-2.85A1.2,1.2,0,0,0,56.63,5.69Z"/><path class="cls-1" d="M67.86,5.29V14a2.55,2.55,0,0,0,.27,1.47,1.43,1.43,0,0,0,1.05.37v.42h-5.9v-.42a1.4,1.4,0,0,0,1.08-.42A2.66,2.66,0,0,0,64.59,14V7.57a2.6,2.6,0,0,0-.27-1.48,1.44,1.44,0,0,0-1-.37V5.29ZM66.23,0a1.75,1.75,0,0,1,1.28.53A1.75,1.75,0,0,1,68,1.81a1.73,1.73,0,0,1-.53,1.27,1.78,1.78,0,0,1-1.28.53A1.75,1.75,0,0,1,65,3.08a1.72,1.72,0,0,1-.52-1.27A1.74,1.74,0,0,1,65,.53,1.75,1.75,0,0,1,66.23,0Z"/><path class="cls-1" d="M76.27,14.6a5.71,5.71,0,0,1-3.58,1.76,2.09,2.09,0,0,1-1.55-.61,2.06,2.06,0,0,1-.63-1.54A3,3,0,0,1,71.59,12a20.49,20.49,0,0,1,4.68-2.66V8.21a5.42,5.42,0,0,0-.13-1.56,1.28,1.28,0,0,0-.51-.56,1.53,1.53,0,0,0-.84-.24,2.12,2.12,0,0,0-1.25.34.59.59,0,0,0-.3.49,1.06,1.06,0,0,0,.32.61,1.48,1.48,0,0,1,.45,1,1.27,1.27,0,0,1-.43,1,1.55,1.55,0,0,1-1.11.41,1.79,1.79,0,0,1-1.24-.45,1.34,1.34,0,0,1-.49-1,2.42,2.42,0,0,1,.66-1.6,4.26,4.26,0,0,1,1.86-1.18A7.68,7.68,0,0,1,75.74,5a4.07,4.07,0,0,1,2.45.66,3.07,3.07,0,0,1,1.18,1.44,9.18,9.18,0,0,1,.16,2.25v4.24a4.28,4.28,0,0,0,.06.94.53.53,0,0,0,.18.28.35.35,0,0,0,.26.1c.21,0,.41-.15.62-.43l.35.28A4.15,4.15,0,0,1,79.79,16a2.58,2.58,0,0,1-1.41.39,2.21,2.21,0,0,1-1.46-.43A2,2,0,0,1,76.27,14.6Zm0-.85V10.09a6.82,6.82,0,0,0-2.1,1.78,2.16,2.16,0,0,0-.45,1.27,1.34,1.34,0,0,0,.38.95,1.07,1.07,0,0,0,.82.31A2.25,2.25,0,0,0,76.27,13.75Z"/><path class="cls-1" d="M92.59.62V.19H101V.62h-.51a2.31,2.31,0,0,0-1.13.25,1.14,1.14,0,0,0-.46.56,4.67,4.67,0,0,0-.13,1.47v7.76A8.68,8.68,0,0,1,98.32,14a3.85,3.85,0,0,1-1.61,1.73,5.41,5.41,0,0,1-2.8.69,4.81,4.81,0,0,1-3.23-1.05A3,3,0,0,1,89.45,13a1.79,1.79,0,0,1,.5-1.33,1.75,1.75,0,0,1,2.42,0,1.46,1.46,0,0,1,.49,1.12,1.91,1.91,0,0,1-.08.57,6.71,6.71,0,0,1-.37.59,1.49,1.49,0,0,0-.32.67.64.64,0,0,0,.3.53,1.9,1.9,0,0,0,1.16.33,1.33,1.33,0,0,0,.83-.26,1.46,1.46,0,0,0,.46-.8,18.85,18.85,0,0,0,.13-3V2.9a5.08,5.08,0,0,0-.13-1.52,1.22,1.22,0,0,0-.53-.53A2.11,2.11,0,0,0,93.25.62Z"/><path class="cls-1" d="M111.21,10.18h-6a5.63,5.63,0,0,0,1.15,3.43,2.45,2.45,0,0,0,1.94,1,2.25,2.25,0,0,0,1.28-.39,4.84,4.84,0,0,0,1.22-1.41l.4.26a6.59,6.59,0,0,1-2,2.56,4.2,4.2,0,0,1-2.49.76,4.13,4.13,0,0,1-3.68-1.87,6.61,6.61,0,0,1-1-3.74,6.23,6.23,0,0,1,1.48-4.35A4.56,4.56,0,0,1,107,4.78a3.79,3.79,0,0,1,2.88,1.36A6.24,6.24,0,0,1,111.21,10.18Zm-2.87-.78a10.55,10.55,0,0,0-.21-2.59,2.15,2.15,0,0,0-.64-1.06,1,1,0,0,0-.65-.21,1.15,1.15,0,0,0-1,.6A5.09,5.09,0,0,0,105.16,9V9.4Z"/><path class="cls-1" d="M123.4,16.36l-3-8-2.93,8h-.61L114,8.44a8.89,8.89,0,0,0-1.1-2.36,1.69,1.69,0,0,0-.89-.54V5.11h5.51v.43a1.3,1.3,0,0,0-.77.17.45.45,0,0,0-.21.37,5.61,5.61,0,0,0,.37,1.19l1.6,4.26L120,7.27,119.9,7a3.57,3.57,0,0,0-.61-1.12,1.6,1.6,0,0,0-.82-.33V5.11h5.6v.43a1.64,1.64,0,0,0-.83.18.52.52,0,0,0-.18.42,4.62,4.62,0,0,0,.34,1.13l1.54,4.26,1.41-3.92a4.23,4.23,0,0,0,.3-1.15.86.86,0,0,0-.22-.66,1.46,1.46,0,0,0-.87-.26V5.11h3.24v.43a1.43,1.43,0,0,0-.85.38,5.49,5.49,0,0,0-.82,1.76l-3.06,8.68Z"/><path class="cls-1" d="M139.1,10.18h-6a5.63,5.63,0,0,0,1.16,3.43,2.42,2.42,0,0,0,1.94,1,2.21,2.21,0,0,0,1.27-.39,5,5,0,0,0,1.23-1.41l.39.26a6.5,6.5,0,0,1-2,2.56,4.2,4.2,0,0,1-2.49.76A4.13,4.13,0,0,1,131,14.49a6.6,6.6,0,0,1-1-3.74,6.19,6.19,0,0,1,1.48-4.35,4.54,4.54,0,0,1,3.46-1.62,3.79,3.79,0,0,1,2.88,1.36A6.24,6.24,0,0,1,139.1,10.18Zm-2.87-.78A10.55,10.55,0,0,0,136,6.81a2.07,2.07,0,0,0-.63-1.06,1,1,0,0,0-.66-.21,1.15,1.15,0,0,0-1,.6A5.09,5.09,0,0,0,133.05,9V9.4Z"/><path class="cls-1" d="M144.74.19V13.76a2.57,2.57,0,0,0,.27,1.48,1.43,1.43,0,0,0,1.05.37V16h-5.9v-.42a1.47,1.47,0,0,0,1.08-.42,2.68,2.68,0,0,0,.23-1.43V2.46A2.6,2.6,0,0,0,141.2,1a1.44,1.44,0,0,0-1-.37V.19Z"/><path class="cls-1" d="M156.37,10.18h-6a5.63,5.63,0,0,0,1.16,3.43,2.43,2.43,0,0,0,1.94,1,2.19,2.19,0,0,0,1.27-.39A5,5,0,0,0,156,12.78l.4.26a6.6,6.6,0,0,1-2,2.56,4.51,4.51,0,0,1-6.16-1.11,6.61,6.61,0,0,1-1-3.74,6.19,6.19,0,0,1,1.48-4.35,4.54,4.54,0,0,1,3.46-1.62,3.76,3.76,0,0,1,2.88,1.36A6.25,6.25,0,0,1,156.37,10.18Zm-2.88-.78a11.26,11.26,0,0,0-.2-2.59,2.15,2.15,0,0,0-.64-1.06,1,1,0,0,0-.65-.21,1.13,1.13,0,0,0-1,.6A5.09,5.09,0,0,0,150.32,9V9.4Z"/><path class="cls-1" d="M162.26,5.11V7.58a8.08,8.08,0,0,1,1.91-2.24,2.81,2.81,0,0,1,1.57-.56,1.39,1.39,0,0,1,1,.41,1.54,1.54,0,0,1,.39,1.13,1.8,1.8,0,0,1-.38,1.22,1.17,1.17,0,0,1-.92.43,1.55,1.55,0,0,1-1.07-.4,5.29,5.29,0,0,0-.54-.44.5.5,0,0,0-.27-.07,1,1,0,0,0-.64.26,2.36,2.36,0,0,0-.72,1.13,7.9,7.9,0,0,0-.38,2.5v3.17a2.47,2.47,0,0,0,.09.85.93.93,0,0,0,.41.46,2.28,2.28,0,0,0,.93.18V16h-5.9v-.42a1.27,1.27,0,0,0,1-.39,3.57,3.57,0,0,0,.26-1.76v-6a4.52,4.52,0,0,0-.1-1.19.93.93,0,0,0-.34-.48,1.85,1.85,0,0,0-.78-.21V5.11Z"/><path class="cls-1" d="M175.25,4.81l.18,3.72H175a5.89,5.89,0,0,0-1.48-2.26A2.43,2.43,0,0,0,172,5.66a1.13,1.13,0,0,0-.82.32.94.94,0,0,0-.1,1.35A10.88,10.88,0,0,0,173.2,9a8.79,8.79,0,0,1,2.26,2,3.22,3.22,0,0,1,.54,1.82,3.79,3.79,0,0,1-.46,1.79,3.19,3.19,0,0,1-1.28,1.34,3.67,3.67,0,0,1-1.83.47,6.48,6.48,0,0,1-2.09-.49,1.71,1.71,0,0,0-.48-.13c-.26,0-.48.19-.65.58h-.38l-.19-3.92h.4a5.1,5.1,0,0,0,1.44,2.31,2.78,2.78,0,0,0,1.73.77,1.26,1.26,0,0,0,.92-.34,1.12,1.12,0,0,0,.36-.84,1.48,1.48,0,0,0-.35-1,10.05,10.05,0,0,0-1.57-1.24,11.91,11.91,0,0,1-2.31-1.89,3.31,3.31,0,0,1-.77-2.11,3.47,3.47,0,0,1,.87-2.29,3.13,3.13,0,0,1,2.52-1,3.74,3.74,0,0,1,1.71.43,1.15,1.15,0,0,0,.52.18.59.59,0,0,0,.34-.09,2.51,2.51,0,0,0,.41-.49Z"/><path class="cls-1" d="M39.73,35.89H34.14l-.67,1.54a3.4,3.4,0,0,0-.33,1.27,1,1,0,0,0,.54,1,4.5,4.5,0,0,0,1.55.29v.43H30V40a2.45,2.45,0,0,0,1.4-.71,9.75,9.75,0,0,0,1.35-2.39l5.67-12.64h.22l5.71,13a8,8,0,0,0,1.34,2.32,1.87,1.87,0,0,0,1.12.43v.43H39.12V40h.32a2.46,2.46,0,0,0,1.3-.26.64.64,0,0,0,.25-.54,1.33,1.33,0,0,0-.07-.43,8.78,8.78,0,0,0-.35-.88Zm-.4-.87L37,29.57,34.54,35Z"/><path class="cls-1" d="M54.76,29.17l.18,3.73h-.4a5.82,5.82,0,0,0-1.47-2.27A2.52,2.52,0,0,0,51.54,30a1.14,1.14,0,0,0-.82.33,1,1,0,0,0-.34.74,1,1,0,0,0,.24.61,11.35,11.35,0,0,0,2.09,1.63,8.78,8.78,0,0,1,2.26,2,3.22,3.22,0,0,1,.54,1.82,3.85,3.85,0,0,1-.45,1.78,3.24,3.24,0,0,1-1.29,1.35,3.66,3.66,0,0,1-1.83.46,6.28,6.28,0,0,1-2.09-.49,2.17,2.17,0,0,0-.48-.13c-.26,0-.47.2-.64.59h-.39l-.19-3.93h.4A5.13,5.13,0,0,0,50,39.08a2.79,2.79,0,0,0,1.74.77,1.24,1.24,0,0,0,.91-.35,1.11,1.11,0,0,0,.36-.83,1.44,1.44,0,0,0-.35-1,9,9,0,0,0-1.57-1.24,12.71,12.71,0,0,1-2.31-1.89A3.34,3.34,0,0,1,48,32.45a3.43,3.43,0,0,1,.87-2.28,3.13,3.13,0,0,1,2.52-1,3.62,3.62,0,0,1,1.71.43,1.18,1.18,0,0,0,.52.18.59.59,0,0,0,.34-.09,2.7,2.7,0,0,0,.41-.5Z"/><path class="cls-1" d="M64.07,29.17l.18,3.73h-.4a5.82,5.82,0,0,0-1.48-2.27A2.49,2.49,0,0,0,60.85,30a1.14,1.14,0,0,0-.82.33,1,1,0,0,0-.34.74,1,1,0,0,0,.24.61A11.35,11.35,0,0,0,62,33.33a8.78,8.78,0,0,1,2.26,2,3.22,3.22,0,0,1,.54,1.82,3.85,3.85,0,0,1-.45,1.78,3.24,3.24,0,0,1-1.29,1.35,3.66,3.66,0,0,1-1.83.46,6.28,6.28,0,0,1-2.09-.49,2.17,2.17,0,0,0-.48-.13c-.26,0-.47.2-.65.59h-.38l-.19-3.93h.4a5.13,5.13,0,0,0,1.44,2.32,2.79,2.79,0,0,0,1.74.77A1.24,1.24,0,0,0,62,39.5a1.11,1.11,0,0,0,.36-.83,1.44,1.44,0,0,0-.35-1,9.48,9.48,0,0,0-1.57-1.24,12.71,12.71,0,0,1-2.31-1.89,3.34,3.34,0,0,1-.77-2.12,3.43,3.43,0,0,1,.87-2.28,3.13,3.13,0,0,1,2.52-1,3.62,3.62,0,0,1,1.71.43,1.15,1.15,0,0,0,.52.18.59.59,0,0,0,.34-.09,2.7,2.7,0,0,0,.41-.5Z"/><path class="cls-1" d="M71.63,29.15a5.06,5.06,0,0,1,2.65.73A4.67,4.67,0,0,1,76.14,32a6.86,6.86,0,0,1,.64,3,6.25,6.25,0,0,1-1.18,3.89,4.66,4.66,0,0,1-3.94,1.89A4.48,4.48,0,0,1,67.87,39a6.34,6.34,0,0,1-1.33-4,6.47,6.47,0,0,1,1.36-4.1A4.47,4.47,0,0,1,71.63,29.15Zm.05.83a1.38,1.38,0,0,0-1,.45,3.17,3.17,0,0,0-.56,1.77c-.09.89-.13,2.11-.13,3.69a15.51,15.51,0,0,0,.16,2.33,2.3,2.3,0,0,0,.55,1.27,1.33,1.33,0,0,0,1,.43,1.37,1.37,0,0,0,.88-.29,2,2,0,0,0,.6-1.12A26.11,26.11,0,0,0,73.35,34a11,11,0,0,0-.23-2.73,2.05,2.05,0,0,0-.65-1.08A1.24,1.24,0,0,0,71.68,30Z"/><path class="cls-1" d="M87.35,37.58l.36.28A5.44,5.44,0,0,1,85.79,40a4.6,4.6,0,0,1-2.44.7,4.26,4.26,0,0,1-3.5-1.64,6.19,6.19,0,0,1-1.31-4,6.69,6.69,0,0,1,1.19-3.93,4.59,4.59,0,0,1,4-2,4,4,0,0,1,2.69.85,2.5,2.5,0,0,1,1,1.9A1.44,1.44,0,0,1,87,33a1.46,1.46,0,0,1-1,.4,1.55,1.55,0,0,1-1.14-.46,2.64,2.64,0,0,1-.56-1.62,1.72,1.72,0,0,0-.34-1,.8.8,0,0,0-.63-.29,1.14,1.14,0,0,0-1,.59,5,5,0,0,0-.6,2.76,8.82,8.82,0,0,0,.49,3,4.46,4.46,0,0,0,1.34,2.09,2.38,2.38,0,0,0,1.52.51,2.34,2.34,0,0,0,1.09-.27A5.11,5.11,0,0,0,87.35,37.58Z"/><path class="cls-1" d="M93.32,29.47v8.66a2.62,2.62,0,0,0,.27,1.48,1.47,1.47,0,0,0,1,.37v.42h-5.9V40a1.49,1.49,0,0,0,1.08-.42,2.7,2.7,0,0,0,.23-1.43V31.75a2.55,2.55,0,0,0-.27-1.47,1.42,1.42,0,0,0-1-.37v-.44Zm-1.63-5.29a1.75,1.75,0,0,1,1.28.53A1.77,1.77,0,0,1,93.49,26,1.71,1.71,0,0,1,93,27.27,1.8,1.8,0,0,1,89.89,26a1.77,1.77,0,0,1,.52-1.28A1.75,1.75,0,0,1,91.69,24.18Z"/><path class="cls-1" d="M101.73,38.79a5.79,5.79,0,0,1-3.59,1.76,2.11,2.11,0,0,1-1.55-.62A2.07,2.07,0,0,1,96,38.4a3,3,0,0,1,1.08-2.25,20,20,0,0,1,4.68-2.66V32.4a5.32,5.32,0,0,0-.13-1.56,1.18,1.18,0,0,0-.51-.56,1.53,1.53,0,0,0-.84-.24,2.17,2.17,0,0,0-1.25.33.61.61,0,0,0-.31.5,1,1,0,0,0,.33.6,1.48,1.48,0,0,1,.44,1,1.32,1.32,0,0,1-.42,1,1.57,1.57,0,0,1-1.12.4,1.8,1.8,0,0,1-1.23-.44,1.38,1.38,0,0,1-.5-1,2.46,2.46,0,0,1,.67-1.61,4.14,4.14,0,0,1,1.86-1.17,7.62,7.62,0,0,1,2.47-.41,4.08,4.08,0,0,1,2.46.66,3.11,3.11,0,0,1,1.18,1.43,9.87,9.87,0,0,1,.16,2.25v4.24a4.21,4.21,0,0,0,.06.94.62.62,0,0,0,.17.29.44.44,0,0,0,.27.09.84.84,0,0,0,.62-.43l.35.28a4.19,4.19,0,0,1-1.21,1.26,2.63,2.63,0,0,1-1.42.39,2.23,2.23,0,0,1-1.46-.44A2,2,0,0,1,101.73,38.79Zm0-.86V34.28a6.81,6.81,0,0,0-2.1,1.77,2.13,2.13,0,0,0-.46,1.27,1.33,1.33,0,0,0,.39,1,1,1,0,0,0,.81.32A2.24,2.24,0,0,0,101.73,37.93Z"/><path class="cls-1" d="M112,25.48v4h2.59v1.16H112v6.74a5,5,0,0,0,.09,1.22.94.94,0,0,0,.31.45.69.69,0,0,0,.41.17c.5,0,1-.39,1.43-1.16l.35.26a3.19,3.19,0,0,1-3.07,2.24,2.76,2.76,0,0,1-1.76-.58,2.6,2.6,0,0,1-.92-1.29,12.06,12.06,0,0,1-.11-2.15v-5.9H107.3v-.41A14.78,14.78,0,0,0,109.81,28a13.06,13.06,0,0,0,1.8-2.56Z"/><path class="cls-1" d="M119.9,29.47v8.66a2.64,2.64,0,0,0,.26,1.48,1.47,1.47,0,0,0,1,.37v.42h-5.89V40a1.45,1.45,0,0,0,1.07-.42,2.6,2.6,0,0,0,.23-1.43V31.75a2.47,2.47,0,0,0-.27-1.47,1.38,1.38,0,0,0-1-.37v-.44Zm-1.64-5.29a1.81,1.81,0,1,1,0,3.61,1.72,1.72,0,0,1-1.27-.52,1.75,1.75,0,0,1-.53-1.28,1.78,1.78,0,0,1,.53-1.28A1.73,1.73,0,0,1,118.26,24.18Z"/><path class="cls-1" d="M127.43,29.15a5.06,5.06,0,0,1,2.65.73A4.67,4.67,0,0,1,131.94,32a6.86,6.86,0,0,1,.64,3,6.25,6.25,0,0,1-1.18,3.89,4.66,4.66,0,0,1-3.94,1.89A4.47,4.47,0,0,1,123.67,39a6.34,6.34,0,0,1-1.33-4,6.47,6.47,0,0,1,1.36-4.1A4.47,4.47,0,0,1,127.43,29.15Zm0,.83a1.37,1.37,0,0,0-1,.45,3.17,3.17,0,0,0-.56,1.77c-.09.89-.13,2.11-.13,3.69a15.51,15.51,0,0,0,.16,2.33,2.3,2.3,0,0,0,.55,1.27,1.36,1.36,0,0,0,1.83.14,2,2,0,0,0,.61-1.12,26.47,26.47,0,0,0,.23-4.48,11.09,11.09,0,0,0-.22-2.73,2.05,2.05,0,0,0-.65-1.08A1.25,1.25,0,0,0,127.47,30Z"/><path class="cls-1" d="M138.7,29.47v1.42a6.52,6.52,0,0,1,1.61-1.33,3.55,3.55,0,0,1,1.66-.41,2.63,2.63,0,0,1,1.77.59,2.88,2.88,0,0,1,.93,1.46,11.6,11.6,0,0,1,.19,2.56V38a3.29,3.29,0,0,0,.22,1.57,1.36,1.36,0,0,0,.95.4v.42h-5.52V40a1.18,1.18,0,0,0,.89-.52,3.38,3.38,0,0,0,.19-1.45V33.15a7.86,7.86,0,0,0-.11-1.69,1,1,0,0,0-.36-.54.87.87,0,0,0-.55-.2c-.67,0-1.29.48-1.87,1.44V38a3.18,3.18,0,0,0,.23,1.56,1.2,1.2,0,0,0,.84.41v.42h-5.52V40a1.36,1.36,0,0,0,1-.45,3.31,3.31,0,0,0,.2-1.52V31.85a3.2,3.2,0,0,0-.23-1.55,1.38,1.38,0,0,0-.95-.39v-.44Z"/></g></g></svg>