<svg xmlns="http://www.w3.org/2000/svg" viewBox="0 0 176 51.69"><defs><style>.cls-1{fill:#fff;}</style></defs><title>company-ajs</title><g id="Layer_2" data-name="Layer 2"><g id="Layer_1-2" data-name="Layer 1"><path id="Path_105" data-name="Path 105" class="cls-1" d="M82.93,18.45c0,1.89-.49,2.9-1.43,2.9-.6,0-.84-.35-.84-1.26V11.73c0-2.87-1.61-4.55-4.38-4.55-2.31,0-4.2,1.43-4.2,3.18A1.51,1.51,0,0,0,73.52,12h0A1.44,1.44,0,0,0,75,10.57v0a1.29,1.29,0,0,0-1.26-1.33h-.07a.58.58,0,0,0-.24,0A2.59,2.59,0,0,1,76.11,7.7a2.23,2.23,0,0,1,2.27,2.17c0,.07,0,.18,0,.25,0,2-1.64,2.69-3.36,3.64-1.92,1.05-3.89,2.17-3.89,4.51A3.59,3.59,0,0,0,75,22a3.46,3.46,0,0,0,3.43-2.8A2.49,2.49,0,0,0,81,22c1.65,0,2.49-1.12,2.49-3.4v-.1Zm-4.58-2.24c0,3.25-1.16,5.25-2.94,5.25-1.26,0-1.79-1.05-1.79-3.08,0-2.42.7-3.15,2.87-4.62a14.23,14.23,0,0,0,1.86-1.44Zm-8.27,1.54c0,2.31-.66,3.36-1.92,3.36-1,0-1.37-.49-1.37-1.72V8.19h2.94V7.63H66.79V.88h-.35a2.44,2.44,0,0,1-2,2.2h0V7.63H61.93v.56h2.52V18.83a2.73,2.73,0,0,0,3,3c2.07,0,3.12-1.33,3.12-4v-.1ZM59.58,21V11.31c0-2.63-1.36-4.13-3.6-4.13-2.07,0-3.64,1.47-4.2,4V7.63H46.91v.56h2.56V21H46.91v.53H54V21h-2.2V14.88c0-4,1.61-7.11,3.67-7.11,1.26,0,1.79.88,1.79,2.8V21H55v.53h7.11V21ZM46.49,18.45c0,1.89-.49,2.9-1.44,2.9-.59,0-.84-.35-.84-1.26V11.76c0-2.9-1.61-4.58-4.37-4.58-2.31,0-4.2,1.47-4.2,3.18A1.5,1.5,0,0,0,37.07,12h0a1.47,1.47,0,0,0,1.47-1.4v0a1.29,1.29,0,0,0-1.26-1.33h-.07a.61.61,0,0,0-.25,0A2.59,2.59,0,0,1,39.66,7.7a2.24,2.24,0,0,1,2.28,2.17.7.7,0,0,1,0,.25c0,2-1.65,2.69-3.36,3.64-1.93,1.05-3.89,2.2-3.89,4.51A3.59,3.59,0,0,0,38.58,22,3.47,3.47,0,0,0,42,19.22,2.49,2.49,0,0,0,44.53,22c1.64,0,2.48-1.09,2.48-3.4v-.1ZM41.9,16.21c0,3.25-1.15,5.25-2.94,5.25-1.26,0-1.78-1-1.78-3.08,0-2.42.7-3.15,2.87-4.62a14.14,14.14,0,0,0,1.85-1.44ZM31.61,21V.31H26.75V.88H29.3V21H26.75v.53h7.42V21Zm-6-3.25c0,2.34-.63,3.39-1.89,3.39-.95,0-1.37-.52-1.37-1.75V8.19h3V7.63h-3V.88H22a2.44,2.44,0,0,1-2,2.2h0V7.63H17.47v.56H20V18.83a2.72,2.72,0,0,0,3,3c2.07,0,3.12-1.33,3.12-4v-.1ZM16.8,21,10.43,0H9.52L4.31,17.22C3.5,20,2.38,21,0,21v.53H8.12V21C5,21,4.31,19.67,5,17.4l.7-2.63h6.41L13.93,21H10.82v.53h8.85V21Zm-11-6.79L8.86,4.1l3.08,10.11Z"/><path id="Path_104" data-name="Path 104" class="cls-1" d="M170,7.94V8.5c2.55.07,2.76,1.05,2.2,2.91L170,18.62,166.3,8.5h1.93V7.94h-6.44V8.5h2.06l4.94,13.65-1.12,3.75c-.63,2-1.47,2.87-2.8,2.87a1.47,1.47,0,0,1-1.51-.95,1,1,0,0,0,.56.14,1.42,1.42,0,0,0,1.47-1.36v0a1.41,1.41,0,0,0-1.47-1.33h0a1.55,1.55,0,0,0-1.54,1.54v.07a2.46,2.46,0,0,0,2.48,2.45h0c1.54,0,2.66-1.08,3.36-3.32l4.51-14.42c.67-2.17,1.37-3,3.22-3.05h0V7.94Zm-10.29-.32c-1.58,0-2.87,1.3-3.43,3.33v-3h-4.87V8.5h2.52V21.31h-2.52v.53h7.46v-.53h-2.59V14.87c0-3.95,1.36-6.68,3.32-6.68a.92.92,0,0,1,.84.31,1.28,1.28,0,0,0-1.36,1.19v.14a1.47,1.47,0,0,0,1.47,1.47A1.54,1.54,0,0,0,162,9.76v0A2.23,2.23,0,0,0,159.69,7.62ZM148.87,21.31V.62H144v.56h2.52V21.31H144v.53h7.39v-.53ZM143,17.25c-.6,2.94-2.1,4.52-4.27,4.52-2.52,0-3.33-1.65-3.33-7.11h8v-.14c0-4.23-2.1-7-5-7s-5.63,3.51-5.63,7.57,2.73,7.28,6,7.28c2.49,0,4.27-1.93,4.83-5ZM138.4,8c1.89,0,2.59,1.47,2.59,6.13h-5.6C135.6,9.45,136.44,8,138.4,8Zm-10.11-.07V8.5c2.38.07,2.76,1.09,2.24,2.77l-2.24,7.52L125.13,8.5h1.93V7.94h-5.78V8.5h1.51l1.08,3.5-2,6.79L118.69,8.5h1.54V7.94h-5.88V8.5h2l4.24,13.58h.87l2.73-9.1,2.84,9.1h.84l3.26-10.71c.63-2.13,1.43-2.83,3.11-2.87V7.94Zm-13.62,9.31c-.56,2.94-2.1,4.52-4.24,4.52-2.52,0-3.32-1.65-3.32-7.11h8v-.14c0-4.23-2.13-7-5-7s-5.6,3.51-5.6,7.57,2.73,7.28,6,7.28c2.49,0,4.27-1.93,4.87-5ZM110.08,8c1.93,0,2.63,1.47,2.63,6.13h-5.6C107.32,9.45,108.12,8,110.08,8ZM95.9.62v.56h3.29V18.41c0,2.17-.87,3.25-2.59,3.25a2.88,2.88,0,0,1-3-2.69,1.69,1.69,0,0,0,1.26.56A1.6,1.6,0,0,0,96.46,18v-.07a1.64,1.64,0,0,0-1.64-1.72h-.07a2.16,2.16,0,0,0-2.1,2.21.78.78,0,0,1,0,.14c0,2.17,1.82,3.71,4.41,3.71,3,0,4.87-1.75,4.87-4.62V1.18h3.29V.62Z"/><path id="Path_103" data-name="Path 103" class="cls-1" d="M112.49,37.23v.56c2.38.07,2.76,1.09,2.24,2.77l-2.24,7.53-3.15-10.3h2v-.56h-5.81v.56H107l1.09,3.47-2,6.83-3.15-10.3h1.51v-.56H98.55v.56h2l4.23,13.55h.88l2.73-9.06,2.83,9.06H112l3.26-10.71c.63-2.14,1.43-2.84,3.11-2.87v-.53Zm-18.87-.49c-3,0-5.57,3.5-5.57,7.5s2.49,7.38,5.57,7.38,5.56-3.32,5.56-7.38S96.63,36.74,93.62,36.74Zm0,14.32c-2.1,0-2.87-2.48-2.91-6.86,0-4.55.67-6.9,2.91-6.9s2.94,2.35,2.94,6.9C96.52,49.45,95.72,51.06,93.62,51.06Zm-8.51-.45v-9.7c0-2.63-1.33-4.17-3.64-4.17-2.06,0-3.6,1.51-4.2,4V29.92H72.4v.56H75V50.61H72.4v.52h7.11v-.52H77.27V44.48c0-4,1.61-7.11,3.68-7.11,1.22,0,1.82.88,1.82,2.8V50.61H80.53v.52h7.1v-.52ZM59.31,33.45a3.75,3.75,0,0,1,4-3.53c3.15,0,6,3.32,6.79,8.19h.46V29.74h-.42a9.59,9.59,0,0,1-1.79,2.17,6.4,6.4,0,0,0-5.07-2.48,5.48,5.48,0,0,0-5.67,5.35v0c0,7,12.14,6,12.14,12.18a4.09,4.09,0,0,1-4.37,4.13c-3.5,0-6.62-3.85-7.11-8.85h-.49v9.1h.46a7.32,7.32,0,0,1,1.61-2.28c2,2,3.43,2.59,5.53,2.59a6.13,6.13,0,0,0,6.26-6v-.28C71.63,38.25,59.31,38.56,59.31,33.45Z"/></g></g></svg>