<svg xmlns="http://www.w3.org/2000/svg" viewBox="0 0 173.84 68"><defs><style>.cls-1{fill:#171b22;}</style></defs><title>company-mbi</title><g id="Layer_2" data-name="Layer 2"><g id="Layer_1-2" data-name="Layer 1"><path class="cls-1" d="M1.82,28.44c-.73-.45-1.48-.66-1.54-1a10.56,10.56,0,0,1,0-2.69c0-.09.36-.22.55-.22,3.36,0,6.75-.1,10.09.18,5,.4,6.1,6,2.88,9,.16.13.29.28.45.39a5,5,0,0,1,2.3,5.13A5.15,5.15,0,0,1,13.12,44a16.19,16.19,0,0,1-4.43.81c-2.45.13-4.92,0-7.38.06-1.07,0-1.37-.39-1.3-1.37s-.33-2.19,1.36-2.18c.15,0,.43-.44.43-.67C1.83,36.49,1.82,32.35,1.82,28.44ZM6.45,38.52c0,2.85.08,2.92,2.88,2.49,1.8-.28,2.62-1.13,2.56-2.64s-1-2.22-2.73-2.31C5.79,35.91,6.54,35.93,6.45,38.52ZM6.3,30.15c.17.81.1,1.67.49,2.07.81.82,3.73-.06,4-1.2.16-.67.08-2-.23-2.08a10.92,10.92,0,0,0-3.69-.58C6.68,28.36,6.47,29.58,6.3,30.15Z"/><path class="cls-1" d="M56.75,37.87c-.56,1.93-1.15,3.85-1.66,5.8a1.33,1.33,0,0,1-1.5,1.18c-3.88,0-3.88.06-4.83-3.73-.57-2.3-1.19-4.6-1.71-6.91-.25-1.11-.55-2-1.9-1.84-.07-.16-.13-.23-.15-.31-.42-2.75-.33-2.85,2.41-2.85,1.38,0,2.76,0,4.14,0,.86,0,1.21.31,1.1,1.13s.63,2.39-1.49,2.29l1.39,6.26c.26-.64.42-1,.51-1.28.65-2.15,1.35-4.29,1.89-6.46.28-1.11.83-1.51,1.91-1.36a4.51,4.51,0,0,0,.9,0c.89-.11,1.31.26,1.54,1.14.67,2.58,1.43,5.14,2.36,7.73L63,32.82l-1.25-.52v-3h6.75v3c-1.47-.16-1.84.75-2.1,2-.68,3.16-1.5,6.29-2.22,9.45a1.16,1.16,0,0,1-1.31,1.06C59,45,59,45,58,41.31c-.31-1.14-.64-2.29-1-3.44Z"/><path class="cls-1" d="M68.63,29.15c2.17.37,4.28-.58,6.21.66a23.88,23.88,0,0,1,3.45-1c3.08-.41,5.33,1.54,5.5,4.76.11,2.06,0,4.14.06,6.21,0,.47,0,.94,0,1.36,1.58.55,2,1.37,1.59,3a1.16,1.16,0,0,1-.87.65c-2,.06-4,.07-6.08,0a1.22,1.22,0,0,1-.85-.8c0-1-.62-2.46,1.3-2.59.15,0,.37-.54.37-.84,0-2,0-4.05,0-6.08,0-.9-.18-1.75-1.26-2a2.46,2.46,0,0,0-2.73,1.27A2.73,2.73,0,0,0,75,34.87c0,2.11,0,4.22,0,6.37.66.34,1.71,0,1.71,1.3,0,2.29.1,2.29-2.21,2.29-1.55,0-3.11,0-4.66,0-.8,0-1.21-.23-1.16-1.1.05-1-.34-2.25,1.37-2.33.16,0,.42-.59.43-.91,0-2.29,0-4.58,0-6.87,0-.34-.42-1-.66-1-1.18,0-1.3-.71-1.22-1.64C68.66,30.47,68.63,29.92,68.63,29.15Z"/><path class="cls-1" d="M44.7,38.12a7.22,7.22,0,0,1-3.94,6.3c-4.32,2.29-9.24.06-10.07-4.74a16.6,16.6,0,0,1,.15-5.75c.95-5.13,7.9-6.63,11.57-3.61C44,31.58,44.72,33.75,44.7,38.12Zm-4.42-.93c-.15-1.11-.22-2-.42-2.88a2.12,2.12,0,0,0-2.08-1.93,2.28,2.28,0,0,0-2.52,1.75,9.94,9.94,0,0,0,.12,6,2.06,2.06,0,0,0,2.12,1.56,2.08,2.08,0,0,0,2.17-1.51A27.79,27.79,0,0,0,40.28,37.19Z"/><path class="cls-1" d="M23.84,29.8c1.47-1.22,3.4-1.29,5.45-.59a1.15,1.15,0,0,1,.91,1.33c0,.52,0,1,0,1.55,0,3.33.29,2.41-2.67,2.83-.81.11-1.08-.21-1.08-1,0-.38-.18-1-.36-1.08a1.73,1.73,0,0,0-1.3.33,2.58,2.58,0,0,0-.85,1.5c-.12,2-.07,4-.1,6,0,.84.59.84,1.16.81,1.92-.09,1.17,1.35,1.31,2.27.16,1.11-.57,1.13-1.37,1.13-1.94,0-3.88-.08-5.82,0-1.27.06-1.73-.39-1.56-1.62a13.2,13.2,0,0,0,0-1.56c1.89.15,1.88-1,1.83-2.34-.07-1.85,0-3.71,0-5.56,0-.72-.2-1.09-1-1.18-1.83-.23-.78-1.68-1-2.57s.63-.82,1.22-.82c1.16,0,2.33-.05,3.49,0A7.65,7.65,0,0,1,23.84,29.8Z"/><path class="cls-1" d="M96.81,55.15a10.81,10.81,0,0,1,.25-2,2.66,2.66,0,0,1,.81-1,9.6,9.6,0,0,0,2-1.71c1.15-1.83,1.07-1.87,3.44-1.48l.14,2.91h3.88c-.21,1.22-.05,2.63-.65,3.17s-2,.32-3.22.44c0,2.56,0,5.14.06,7.7,0,.36.78.92,1.23,1a8.44,8.44,0,0,0,2.25-.48l1,2.2c.06-1,.39-1.66,1.49-1.72.18,0,.49-.4.49-.62,0-2.67,0-5.33,0-7.95-1.89-.45-2.06-.86-1.54-3.54h6V63.85c.62.28,1.42.4,1.52.73A6.6,6.6,0,0,1,116,67c0,.21-.54.52-.83.53-2,0-4.06,0-6.09,0a4.44,4.44,0,0,1-1.33-.57,7.8,7.8,0,0,1-5.82.71A3.37,3.37,0,0,1,99,64.46c-.16-2.24-.16-4.48-.18-6.72C98.81,55.66,98.83,55.66,96.81,55.15Z"/><path class="cls-1" d="M8.89,55.05V52.16c2.23-.55,5.51-.28,6.07.4a28,28,0,0,1,3.35-1A4.64,4.64,0,0,1,24,56.12c.15,2.28.11,4.58.14,6.86,0,.64,0,1.2.91,1.23s.69.83.7,1.38c.05,2,0,2-1.94,2-1.51,0-3-.06-4.54,0-1.05,0-1.53-.28-1.4-1.38a17,17,0,0,0,0-1.76c1.59,0,1.8-.86,1.73-2.11-.1-1.68,0-3.36,0-5.05,0-1-.19-1.92-1.45-2.09a2.25,2.25,0,0,0-2.67,1.71,27.73,27.73,0,0,0-.22,3.87c0,.77,0,1.55,0,2.33s.12,1,.89,1.12c.3,0,.7.5.8.85a2.84,2.84,0,0,1,0,1.53c-.13.37-.57.9-.88.91-2.07.08-4.14.06-6.22,0a1.07,1.07,0,0,1-.78-.6A10.85,10.85,0,0,1,9,65.12c0-1,.83-.65,1.28-.93a1.3,1.3,0,0,0,.49-.91q.06-3.49,0-7C10.73,55.59,10.67,55.59,8.89,55.05Z"/><path class="cls-1" d="M138.3,64a2.1,2.1,0,0,1,1.62,3,1.14,1.14,0,0,1-.87.52c-2,0-4.06.06-6.09,0a1.25,1.25,0,0,1-.89-.86c0-1-.61-2.38,1.25-2.49.19,0,.47-.57.48-.88,0-2.33,0-4.67,0-7,0-1.38-1.23-.73-1.83-1.3V52.16c2.35-.59,5.53-.29,6,.46a24.89,24.89,0,0,1,3.43-1,4.68,4.68,0,0,1,5.68,4.68c.13,2.11.06,4.23.07,6.35V64a2.19,2.19,0,0,1,1.57,3.13,1,1,0,0,1-.79.46c-2,0-4.06.06-6.08,0a1.26,1.26,0,0,1-.9-.87c0-1-.6-2.36,1.25-2.5.17,0,.41-.6.42-.93,0-2,0-4,0-5.95,0-1-.22-1.92-1.47-2.07a2.22,2.22,0,0,0-2.61,1.61,18.51,18.51,0,0,0-.23,3.34C138.27,61.43,138.3,62.72,138.3,64Z"/><path class="cls-1" d="M63.48,52.08c3.76-.46,5.58-.25,6.05.53a23.66,23.66,0,0,1,3.58-1c3.09-.44,5.36,1.5,5.54,4.71.12,2.11,0,4.23.06,6.34,0,.47,0,.93,0,1.35a2.17,2.17,0,0,1,1.57,3.12,1.07,1.07,0,0,1-.8.45c-2,0-4.06.06-6.09,0a1.26,1.26,0,0,1-.88-.88c-.05-1-.57-2.37,1.27-2.5.16,0,.4-.6.4-.93,0-2,0-4,0-6,0-1-.2-1.83-1.37-2a2.42,2.42,0,0,0-2.67,1.36,2.74,2.74,0,0,0-.22.74,13.49,13.49,0,0,0-.06,1.42c0,1.76,0,3.52,0,5.24A2.1,2.1,0,0,1,71.48,67a1.19,1.19,0,0,1-.89.5c-2,0-4.06.06-6.08,0a1.26,1.26,0,0,1-.88-.88c0-1-.58-2.37,1.27-2.48.18,0,.46-.58.46-.89,0-2.33,0-4.66,0-7,0-.32-.4-.89-.61-.89-1.29,0-1.32-.8-1.26-1.73C63.51,53.15,63.48,52.64,63.48,52.08Z"/><path class="cls-1" d="M90.86,67.07a6.4,6.4,0,0,1-7.94-1.13,8.27,8.27,0,0,1-1.61-5.22c0-3.12.51-6.09,3.38-7.95,2.39-1.55,5.08-1.49,7.76-1,3,.58,3,.62,3,3.64V63c0,.62,0,1.22.89,1.25S97,65,97,65.57c0,2,0,2-1.92,2-.82,0-1.64.05-2.46,0A11,11,0,0,1,90.86,67.07ZM91,59.21c0-1,0-2.08,0-3.11a1.2,1.2,0,0,0-.48-.89,3.24,3.24,0,0,0-4,1.46,9,9,0,0,0-.27,6.21c.36,1.25,1.36,1.7,2.79,1.5a2.15,2.15,0,0,0,2-2.19C91,61.19,91,60.2,91,59.21Z"/><path class="cls-1" d="M159,67c-4.47,2.35-8.83-.08-9.23-5.33A11.23,11.23,0,0,1,151,55.06c1.7-3,4.53-3.71,7.66-3.53,4.8.29,5,.54,5,5.25,0,2.07,0,4.14,0,6.21,0,.66,0,1.19.92,1.24.24,0,.61.45.66.73.41,2.3.13,2.61-2.19,2.61-.78,0-1.56.05-2.33,0A9.74,9.74,0,0,1,159,67Zm.13-7.9c0-1,0-2.08,0-3.11a1.11,1.11,0,0,0-.43-.81A3,3,0,0,0,155,56.5a8.8,8.8,0,0,0-.34,6.44,2,2,0,0,0,2.57,1.42,2.07,2.07,0,0,0,1.89-2.11C159.2,61.21,159.17,60.17,159.17,59.14Z"/><path class="cls-1" d="M116.79,59.77c.13-4.88,2.25-7.57,6.37-8.19A6.47,6.47,0,0,1,130.93,57a10.58,10.58,0,0,1-1.06,7.65A7.18,7.18,0,0,1,122,67.79c-2.89-.69-4.76-3-5.08-6.3C116.84,60.89,116.82,60.29,116.79,59.77Zm9.92.26c-.16-1.16-.24-2.11-.44-3a2.09,2.09,0,0,0-2.1-1.9,2.28,2.28,0,0,0-2.49,1.8,10.26,10.26,0,0,0,.15,6,2,2,0,0,0,2,1.51A2,2,0,0,0,126.06,63,26.82,26.82,0,0,0,126.71,60Z"/><path class="cls-1" d="M41.08,61.79c.78,2.77,2.3,3,6.82,1.09a26.15,26.15,0,0,1,1.17,2.52,1.14,1.14,0,0,1-.39,1,8.89,8.89,0,0,1-8.65.77c-2.77-1.2-3.59-3.72-3.7-6.48-.13-3.42.77-6.45,4-8.29a7.18,7.18,0,0,1,5.77-.6,4,4,0,0,1,3,3.48,4.62,4.62,0,0,1-2.27,5,22.08,22.08,0,0,1-4.4,1.37A8.39,8.39,0,0,1,41.08,61.79Zm.1-3.66a3.52,3.52,0,0,0,3.18-.9,1.73,1.73,0,0,0,.4-1.55,1.74,1.74,0,0,0-1.47-.6C41.94,55.21,41.07,56.53,41.18,58.13Z"/><path class="cls-1" d="M50.26,64.38c1.89.21,1.87-1,1.83-2.22-.05-1.81,0-3.62,0-5.43,0-.87-.17-1.37-1.16-1.44a1.27,1.27,0,0,1-.8-.88C49.83,52,49.93,52,52.3,52c.91,0,1.82-.06,2.72,0a6.23,6.23,0,0,1,1.45.61A5.27,5.27,0,0,1,62,52a1.61,1.61,0,0,1,.84,1.07,18.39,18.39,0,0,1,0,3.48c0,.34-.51.75-.88.92s-.85.05-1.27.14c-1.05.22-1.69,0-1.55-1.25.11-.93-.56-1.09-1.13-.7s-1.29,1.07-1.35,1.68a49,49,0,0,0-.08,6.06c0,.27.64.7,1,.75,1.49.21,1.43.16,1.42,2.34,0,1.28-.82,1.07-1.57,1.07-1.94,0-3.89,0-5.82,0-1.07,0-1.52-.31-1.4-1.39A15.52,15.52,0,0,0,50.26,64.38Z"/><path class="cls-1" d="M172.21,63.82c.69.36,1.47.54,1.54.86a7.87,7.87,0,0,1,0,2.56c0,.15-.66.31-1,.31-1.85,0-3.71,0-5.56,0-1,0-1.33-.33-1.23-1.28.06-.59,0-1.19,0-1.93,1.89.22,1.84-.93,1.83-2.2-.05-3.89,0-7.77,0-11.66,0-.74-.1-1.24-1-1.3-.27,0-.65-.47-.73-.78a8.76,8.76,0,0,1,0-1.54c-.06-.81.35-1.06,1.09-1,1.25,0,2.51,0,3.75,0,1.07-.06,1.43.32,1.42,1.4,0,5.05,0,10.1,0,15.15Z"/><path class="cls-1" d="M8.1,64.28a17.81,17.81,0,0,1,0,2.53,1.25,1.25,0,0,1-.93.72c-2.07.07-4.14,0-6.21,0-.66,0-.95-.26-.91-.93a11.21,11.21,0,0,0,0-1.42c0-.68.19-1,.9-1.12.35-.07.87-.59.87-.91.06-4.06,0-8.11,0-12.15A2.39,2.39,0,0,1,.29,47.8a1.07,1.07,0,0,1,.82-.53c2.08,0,4.15,0,6.22,0,.7,0,.91.32.87.95a5.5,5.5,0,0,1,0,1.41c-.13.39-.48.91-.82,1a1.1,1.1,0,0,0-1,1.27c0,3.67.07,7.34,0,11C6.32,64.17,7.24,64,8.1,64.28Z"/><path class="cls-1" d="M26.93,55.5l-1.84-.21c-.37-1.86,0-2.45,1.47-3.37a4.81,4.81,0,0,0,1.68-2.18c.57-1.37,1.64-.88,2.53-.86,1.05,0,.58.94.66,1.5a11.33,11.33,0,0,1,0,1.56h3.79c0,.55,0,.93-.08,1.3-.18,2.12-.19,2.17-2.33,2.12-1.06,0-1.44.29-1.4,1.38.08,1.85,0,3.71,0,5.57s.74,2.32,2.44,1.72c.33-.11.64-.26,1.11-.46a21.53,21.53,0,0,1,1,2.5,1.16,1.16,0,0,1-.47,1,7,7,0,0,1-6.82.11C27.34,66.45,27,65.1,27,63.73c-.07-2.24,0-4.48-.05-6.73Z"/><path class="cls-1" d="M12.23,13.34C13.16,10.89,14.08,8.44,15,6c.58-1.48.83-3.47,1.92-4.24s3-.25,4.55-.24c.56,0,1.57.1,1.62.32a11.49,11.49,0,0,1,.05,2.69c0,.1-.24.27-.38.27-1.36.07-1.23,1-1.18,1.94.22,3.75.4,7.5.6,11.36l1.83.42A20.82,20.82,0,0,1,24,21.13a1.11,1.11,0,0,1-.84.66c-2,.06-4.06,0-6.09,0-.71,0-1-.26-1-1a15.63,15.63,0,0,1,.05-1.68c0-.26.36-.68.56-.68,1.2,0,1.11-.8,1.07-1.61-.12-2.07-.22-4.13-.53-6.24-1,2.59-2,5.19-3,7.77-.21.53-.52,1.34-.9,1.42a8.6,8.6,0,0,1-3,0c-.26,0-.49-.65-.64-1-1-2.64-2-5.3-3.31-7.92-.11,2.21-.29,4.42-.25,6.63,0,.43.89.84,1.55,1.05a.56.56,0,0,1,.13.22c.34,3.09.34,3.09-2.71,3.09-1.34,0-2.68,0-4,0-.87,0-1.16-.35-1.09-1.16a7.62,7.62,0,0,0,0-1.17.93.93,0,0,1,.88-1.15,1.37,1.37,0,0,0,.89-.95c.27-3.92.45-7.85.65-11.77a1.67,1.67,0,0,0-.06-.38A2.27,2.27,0,0,1,.85,2.08a1.06,1.06,0,0,1,.82-.54c1.68-.05,3.37-.09,5.05,0a1.67,1.67,0,0,1,1.1,1c1.21,3.05,2.34,6.13,3.5,9.2l.6,1.55Z"/><path class="cls-1" d="M55.91,18.2a2.29,2.29,0,0,1,1.53,3.16,1,1,0,0,1-.69.44c-1.38,0-2.76.06-4.14,0-.32,0-.63-.36-1-.61-4.53,2.4-8.6.41-9.39-4.79a12.48,12.48,0,0,1,0-3.61C43,7.29,47,4.8,53,6.05c2.92.62,2.92.62,2.92,3.54Zm-4.43-4.76h0c0-1,.05-2.07,0-3.1a1.2,1.2,0,0,0-.53-.88,2.85,2.85,0,0,0-3.61,1.41,8.61,8.61,0,0,0-.3,6.31,2.07,2.07,0,0,0,2.55,1.45,2,2,0,0,0,1.9-2.09C51.5,15.51,51.48,14.47,51.48,13.44Z"/><path class="cls-1" d="M33.28,3.35V.14c1.87,0,3.67,0,5.47.06.22,0,.57.75.58,1.15,0,4.31,0,8.63,0,12.94,0,.86,0,1.72,0,2.58s-.16,1.72,1.16,1.64c.17,0,.49.44.53.71a3.92,3.92,0,0,1,0,1.67c-.1.37-.56.88-.88.89-2,.09-4,0-6.08.06-.74,0-1-.34-1-1,.07-1-.48-2.27,1.27-2.4.2,0,.5-.57.5-.88,0-4.36.06-8.71,0-13.06,0-.46-.81-.9-1.24-1.34Z"/><path class="cls-1" d="M24.65,18.63c1.82.21,1.86-.87,1.82-2.13-.06-1.9,0-3.8,0-5.7,0-.38-.43-1.06-.69-1.08-1-.05-1.1-.58-1.06-1.37,0-.64,0-1.28,0-2H30.8c0,.5.1,1,.1,1.51q0,4.66,0,9.33c0,.67,0,1.3.95,1.34.22,0,.57.46.62.75a3.62,3.62,0,0,1,0,1.67,1.41,1.41,0,0,1-.92.87c-2,.08-4,.08-5.95,0a1.35,1.35,0,0,1-.92-.85A12.44,12.44,0,0,1,24.65,18.63Z"/><path class="cls-1" d="M25.65,2.62A2.58,2.58,0,0,1,28.27,0,2.68,2.68,0,0,1,31,2.67a2.63,2.63,0,0,1-2.78,2.6A2.58,2.58,0,0,1,25.65,2.62Z"/><path class="cls-1" d="M114.34,48.37A2.6,2.6,0,0,1,111.72,51a2.64,2.64,0,1,1,2.62-2.64Z"/></g></g></svg>