<svg xmlns="http://www.w3.org/2000/svg" viewBox="0 0 66.67 16.63"><defs><style>.cls-1{fill:#c4c4c4;}.cls-2{fill:#f6f6f6;}.cls-3{fill:#999;}.cls-4{fill:#e3e3e3;}.cls-5{fill:#a3a3a3;}.cls-6{fill:#b6b6b6;}.cls-7{fill:#8b8b8b;}.cls-8{fill:#fff;}</style></defs><title>company-ajs</title><g id="Layer_2" data-name="Layer 2"><g id="Layer_1-2" data-name="Layer 1"><g id="Group_30" data-name="Group 30"><g id="Group_29" data-name="Group 29"><g id="Group_28" data-name="Group 28"><path id="Path_108" data-name="Path 108" class="cls-1" d="M2.79,0,1.88.62,3.53,0Z"/><g id="Group_19" data-name="Group 19"><path id="Path_109" data-name="Path 109" class="cls-2" d="M6.08,0H3.53L4.69.62Z"/></g><path id="Path_110" data-name="Path 110" class="cls-1" d="M1.94,1.4,1.88.62l-.71.78h.77Z"/><path id="Path_111" data-name="Path 111" class="cls-3" d="M2,1.4H3.13L1.88.62l.06.78Z"/><g id="Group_20" data-name="Group 20"><path id="Path_112" data-name="Path 112" class="cls-1" d="M3.13,1.4H4.55L4.69.62Z"/><path id="Path_113" data-name="Path 113" class="cls-1" d="M3.13,1.4H4.55L4.69.62Z"/></g><g id="Group_21" data-name="Group 21"><path id="Path_114" data-name="Path 114" class="cls-2" d="M4.55,1.4H6.08L4.69.62Z"/></g><g id="Group_22" data-name="Group 22"><path id="Path_115" data-name="Path 115" class="cls-4" d="M4.69.62,3.53,0h0L1.89.62l1.24.78Z"/></g><path id="Path_116" data-name="Path 116" class="cls-3" d="M4.81,4.24,2,1.4H1.17L3.83,3.62,6.08,5.51Z"/><g id="Group_23" data-name="Group 23"><path id="Path_117" data-name="Path 117" class="cls-4" d="M5.56,4.12,6.08,1.4H4.55l1,2.72Z"/></g><path id="Path_118" data-name="Path 118" class="cls-1" d="M4.81,4.24,3.13,1.4H2Z"/><g id="Group_24" data-name="Group 24"><path id="Path_119" data-name="Path 119" class="cls-4" d="M4.81,4.24,6.08,5.51,5.56,4.12,3.13,1.4,4.81,4.25Z"/></g><g id="Group_25" data-name="Group 25"><path id="Path_120" data-name="Path 120" class="cls-2" d="M4.55,1.4H3.13L5.56,4.12Z"/></g><path id="Path_122" data-name="Path 122" class="cls-3" d="M9.37,0l.91.62L8.63,0Z"/><path id="Path_123" data-name="Path 123" class="cls-4" d="M6.08,0H8.63L7.48.62Z"/><path id="Path_124" data-name="Path 124" class="cls-1" d="M10.22,1.4l.06-.78L11,1.4Z"/><path id="Path_125" data-name="Path 125" class="cls-3" d="M10.22,1.4H9L10.28.62l-.06.78Z"/><g id="Group_26" data-name="Group 26"><path id="Path_126" data-name="Path 126" class="cls-1" d="M6.08,0,4.69.62l1.39.78L7.48.62Z"/><path id="Path_127" data-name="Path 127" class="cls-1" d="M6.08,0,4.69.62l1.39.78L7.48.62Z"/></g><path id="Path_128" data-name="Path 128" class="cls-3" d="M9,1.4H7.62L7.48.62Z"/><path id="Path_129" data-name="Path 129" class="cls-4" d="M7.62,1.4H6.08L7.48.62Z"/><path id="Path_130" data-name="Path 130" class="cls-1" d="M7.48.62,8.63,0h0l1.65.62L9,1.4Z"/><path id="Path_131" data-name="Path 131" class="cls-3" d="M10.22,1.4,7.35,4.24,6.08,5.51,8.33,3.62,11,1.4Z"/><g id="Group_27" data-name="Group 27"><path id="Path_132" data-name="Path 132" class="cls-1" d="M6.6,4.12,6.08,1.4,5.56,4.12h0l.52,1.39Z"/><path id="Path_133" data-name="Path 133" class="cls-1" d="M6.6,4.12,6.08,1.4,5.56,4.12h0l.52,1.39Z"/></g><path id="Path_134" data-name="Path 134" class="cls-2" d="M6.6,4.12,6.08,1.4H7.62l-1,2.72Z"/><path id="Path_135" data-name="Path 135" class="cls-4" d="M7.36,4.24,9,1.4h1.19Z"/><path id="Path_136" data-name="Path 136" class="cls-3" d="M7.36,4.24,6.08,5.51,6.6,4.12,9,1.4,7.36,4.25Z"/><path id="Path_137" data-name="Path 137" class="cls-1" d="M7.62,1.4H9L6.6,4.12Z"/></g><path id="Path_138" data-name="Path 138" class="cls-5" d="M8.15,3.83H4l-.83,1.5H9Z"/><path id="Path_139" data-name="Path 139" class="cls-6" d="M8.88,5.17A4.93,4.93,0,0,0,7.17,4.6a.36.36,0,0,0-.15,0,2.22,2.22,0,0,0-.57-.07,2.3,2.3,0,0,0-.37,0,2.17,2.17,0,0,0-.37,0,2.12,2.12,0,0,0-.57.07A.32.32,0,0,0,5,4.6a6,6,0,0,0-5,6v0a6.08,6.08,0,1,0,8.88-5.4ZM10,14.42a5.48,5.48,0,0,1-7.74,0,5.46,5.46,0,0,1,2.34-9.1,4.64,4.64,0,0,1,1-.2h.09a.93.93,0,0,1,.24,0h.3a.93.93,0,0,1,.24,0h.09a4.64,4.64,0,0,1,1.05.2A5.5,5.5,0,0,1,10,6.7a5.39,5.39,0,0,1,1.6,3.85A5.46,5.46,0,0,1,10,14.42Z"/><path id="Path_140" data-name="Path 140" class="cls-7" d="M10,6.7A5.5,5.5,0,0,0,7.61,5.32a4.64,4.64,0,0,0-1.05-.2H6.47a.93.93,0,0,0-.24,0h-.3a.93.93,0,0,0-.24,0H5.6a4.64,4.64,0,0,0-1,.2,5.46,5.46,0,0,0-2.34,9.1,5.48,5.48,0,0,0,7.74,0,5.46,5.46,0,0,0,1.6-3.87A5.39,5.39,0,0,0,10,6.7ZM6.08,15.56a5,5,0,0,1-5-5v0a5,5,0,0,1,5-5,5,5,0,0,1,5,5A5,5,0,0,1,6.08,15.56Z"/></g></g><path id="Path_105" data-name="Path 105" class="cls-8" d="M40.09,5.58c0,.54-.14.83-.41.83s-.24-.1-.24-.36V3.66a1.17,1.17,0,0,0-1.25-1.3,1.09,1.09,0,0,0-1.2.91.43.43,0,0,0,.41.46h0a.41.41,0,0,0,.42-.4h0a.37.37,0,0,0-.36-.38h-.09a.74.74,0,0,1,.76-.44.64.64,0,0,1,.65.62s0,.05,0,.07c0,.57-.47.77-1,1s-1.11.62-1.11,1.29A1,1,0,0,0,37.83,6.6a1,1,0,0,0,1-.8.71.71,0,0,0,.72.78c.47,0,.71-.32.71-1v0Zm-1.31-.64c0,.93-.33,1.5-.84,1.5-.36,0-.51-.3-.51-.88s.2-.9.82-1.32a4.17,4.17,0,0,0,.53-.41Zm-2.36.44c0,.66-.19,1-.55,1s-.39-.14-.39-.49V2.65h.84V2.49h-.84V.56h-.1a.7.7,0,0,1-.56.63h0v1.3h-.72v.16h.72v3a.78.78,0,0,0,.87.86c.59,0,.89-.38.89-1.14v0Zm-3,.93V3.54c0-.75-.39-1.18-1-1.18a1.26,1.26,0,0,0-1.2,1.14v-1H29.8v.16h.73V6.31H29.8v.15h2V6.31h-.63V4.56c0-1.14.46-2,1.05-2,.36,0,.51.25.51.8v3h-.63v.15h2V6.31Zm-3.74-.73c0,.54-.14.83-.41.83S29,6.31,29,6.05V3.67a1.17,1.17,0,0,0-1.25-1.31,1.1,1.1,0,0,0-1.2.91.43.43,0,0,0,.41.46h0a.42.42,0,0,0,.42-.4h0a.37.37,0,0,0-.36-.38H27a.74.74,0,0,1,.76-.44.64.64,0,0,1,.65.62s0,.05,0,.07c0,.57-.47.77-1,1s-1.11.63-1.11,1.29A1,1,0,0,0,27.42,6.6a1,1,0,0,0,1-.8.71.71,0,0,0,.72.78c.47,0,.71-.31.71-1v0Zm-1.31-.64c0,.93-.33,1.5-.84,1.5S27,6.15,27,5.56s.2-.9.82-1.32a4.17,4.17,0,0,0,.53-.41ZM25.43,6.31V.4H24V.56h.73V6.31H24v.15h2.12V6.31Zm-1.72-.93c0,.67-.18,1-.54,1s-.39-.15-.39-.5V2.65h.84V2.49h-.84V.56h-.1a.7.7,0,0,1-.56.63h0v1.3h-.72v.16h.72v3a.78.78,0,0,0,.87.86c.59,0,.89-.38.89-1.14v0Zm-2.51.93-1.82-6h-.26L17.63,5.23C17.4,6,17.08,6.3,16.4,6.31v.15h2.32V6.31c-.89,0-1.09-.38-.9-1l.2-.75h1.83l.53,1.78h-.89v.15H22V6.31ZM18.06,4.37l.87-2.89.88,2.89Z"/><path id="Path_104" data-name="Path 104" class="cls-8" d="M65,2.58v.16c.73,0,.79.3.63.83L65,5.63,63.9,2.74h.55V2.58H62.61v.16h.59l1.41,3.9-.32,1.07c-.18.57-.42.82-.8.82a.42.42,0,0,1-.43-.27.29.29,0,0,0,.16,0,.41.41,0,0,0,.42-.39h0a.4.4,0,0,0-.42-.38h0a.44.44,0,0,0-.44.44V8a.7.7,0,0,0,.71.7h0c.44,0,.76-.31,1-.95l1.29-4.12c.19-.62.39-.86.92-.87h0V2.58ZM62,2.49c-.45,0-.82.37-1,.95V2.58H59.64v.16h.72V6.4h-.72v.15h2.13V6.4H61V4.56c0-1.13.39-1.91.95-1.91a.27.27,0,0,1,.24.09.37.37,0,0,0-.39.34v0a.42.42,0,0,0,.42.42.44.44,0,0,0,.43-.44h0A.64.64,0,0,0,62,2.49ZM58.92,6.4V.49H57.53V.65h.72V6.4h-.72v.15h2.11V6.4ZM57.24,5.24c-.17.84-.6,1.29-1.22,1.29s-1-.47-1-2h2.29v0c0-1.21-.6-2-1.43-2s-1.61,1-1.61,2.16A1.93,1.93,0,0,0,56,6.69c.71,0,1.22-.55,1.38-1.42ZM55.93,2.6c.54,0,.74.42.74,1.75h-1.6C55.13,3,55.37,2.6,55.93,2.6ZM53,2.58v.16c.68,0,.79.31.64.79L53,5.68l-.9-2.94h.55V2.58H51v.16h.43l.31,1L51.2,5.68l-.9-2.94h.44V2.58H49.06v.16h.56l1.21,3.88h.25L51.86,4l.81,2.6h.24l.93-3.06c.18-.61.41-.81.89-.82V2.58ZM49.15,5.24c-.16.84-.6,1.29-1.21,1.29S47,6.06,47,4.5h2.29v0c0-1.21-.61-2-1.44-2s-1.6,1-1.6,2.16a1.93,1.93,0,0,0,1.7,2.08c.71,0,1.22-.55,1.39-1.42ZM47.84,2.6c.55,0,.75.42.75,1.75H47C47.05,3,47.28,2.6,47.84,2.6ZM43.79.49V.65h.94V5.57c0,.62-.25.93-.74.93a.83.83,0,0,1-.87-.77.48.48,0,0,0,.36.16A.46.46,0,0,0,44,5.45v0a.47.47,0,0,0-.47-.49h0a.61.61,0,0,0-.6.63s0,0,0,0a1.12,1.12,0,0,0,1.26,1.06,1.25,1.25,0,0,0,1.39-1.32V.65h.94V.49Z"/><path id="Path_103" data-name="Path 103" class="cls-8" d="M32.08,10.94v.16c.68,0,.79.31.64.79L32.08,14l-.9-2.94h.56v-.16H30.08v.16h.43l.31,1L30.25,14l-.9-2.94h.43v-.16H28.1v.16h.56L29.87,15h.25l.78-2.59L31.71,15H32l.93-3.06c.18-.61.41-.81.89-.82v-.15Zm-5.39-.14c-.85,0-1.59,1-1.59,2.14s.71,2.11,1.59,2.11,1.59-1,1.59-2.11S27.55,10.8,26.69,10.8Zm0,4.09c-.6,0-.82-.71-.83-2s.19-2,.83-2,.84.67.84,2C27.52,14.43,27.29,14.89,26.69,14.89Zm-2.43-.13V12c0-.75-.38-1.19-1-1.19s-1,.43-1.2,1.15V8.85H20.63V9h.73v5.75h-.73v.15h2v-.15H22V13c0-1.14.46-2,1.05-2,.35,0,.52.25.52.8v3H23v.15h2v-.15Zm-7.37-4.9a1.07,1.07,0,0,1,1.14-1c.9,0,1.7,1,1.94,2.34h.13V8.8H20a2.77,2.77,0,0,1-.51.62A1.83,1.83,0,0,0,18,8.71a1.57,1.57,0,0,0-1.62,1.53h0c0,2,3.47,1.71,3.47,3.48a1.17,1.17,0,0,1-1.25,1.18c-1,0-1.89-1.1-2-2.53h-.14V15h.13a2.13,2.13,0,0,1,.46-.65,2,2,0,0,0,1.58.74,1.75,1.75,0,0,0,1.79-1.71v-.08C20.41,11.23,16.89,11.32,16.89,9.86Z"/></g></g></svg>