<svg xmlns="http://www.w3.org/2000/svg" width="291.015" height="297.303" viewBox="0 0 291.015 297.303">
  <g id="Group_1" data-name="Group 1" transform="translate(-259.833 -116.278)">
    <path id="Rectangle_6" data-name="Rectangle 6" d="M9.222,0H93.2a9.222,9.222,0,0,1,9.222,9.222v5.692a0,0,0,0,1,0,0H0a0,0,0,0,1,0,0V9.222A9.222,9.222,0,0,1,9.222,0Z" transform="translate(354.13 398.167)" fill="none" stroke="#000" stroke-miterlimit="10" stroke-width="1"/>
    <path id="Path_51" data-name="Path 51" d="M387.984,310.805H333l7.613-52.477h41.167Z" transform="translate(44.848 87.361)" fill="none" stroke="#000" stroke-miterlimit="10" stroke-width="1"/>
    <path id="Path_52" data-name="Path 52" d="M550.348,159.8V315.043c0,5.655-3.965,10.238-8.857,10.238H269.19c-4.892,0-8.857-4.583-8.857-10.238V159.8c0-5.655,3.965-10.24,8.857-10.24h272.3C546.383,149.559,550.348,154.144,550.348,159.8Z" transform="translate(0 20.232)" fill="none" stroke="#000" stroke-miterlimit="10" stroke-width="1"/>
    <path id="Path_53" data-name="Path 53" d="M268.983,290.588V162.926a3.244,3.244,0,0,1,3.105-3.367H527.916a3.244,3.244,0,0,1,3.105,3.367V290.588a3.244,3.244,0,0,1-3.105,3.367H272.088A3.244,3.244,0,0,1,268.983,290.588Z" transform="translate(5.339 26.404)" fill="none" stroke="#000" stroke-miterlimit="10" stroke-width="1"/>
    <circle id="Ellipse_3" data-name="Ellipse 3" cx="4.941" cy="4.941" r="4.941" transform="translate(400.399 327.635)" fill="none" stroke="#000" stroke-miterlimit="10" stroke-width="1"/>
    <g id="Group_2" data-name="Group 2" transform="translate(313.667 116.778)">
      <rect id="Rectangle_7" data-name="Rectangle 7" width="150.128" height="128.296" rx="3" transform="translate(0.067 150.128) rotate(-90)" fill="#fff" stroke="#000" stroke-miterlimit="10" stroke-width="1"/>
      <line id="Line_1" data-name="Line 1" x2="128.296" transform="translate(0 20.754)" fill="none" stroke="#000" stroke-miterlimit="10" stroke-width="1"/>
      <g id="Group_1-2" data-name="Group 1" transform="translate(10.49 40.16)">
        <path id="Path_54" data-name="Path 54" d="M319.514,141.611H299.8" transform="translate(-299.799 -141.611)" fill="none" stroke="#000" stroke-linecap="round" stroke-miterlimit="10" stroke-width="1"/>
        <path id="Path_55" data-name="Path 55" d="M342.866,141.965q-12.619-.092-25.239-.354" transform="translate(-288.796 -141.611)" fill="none" stroke="#000" stroke-linecap="round" stroke-miterlimit="10" stroke-width="1"/>
        <path id="Path_56" data-name="Path 56" d="M348.246,141.857q-4.446.012-8.891,0" transform="translate(-275.386 -141.459)" fill="none" stroke="#000" stroke-linecap="round" stroke-miterlimit="10" stroke-width="1"/>
        <path id="Path_57" data-name="Path 57" d="M361.042,141.759q-5,.065-10,.105" transform="translate(-268.174 -141.52)" fill="none" stroke="#000" stroke-linecap="round" stroke-miterlimit="10" stroke-width="1"/>
        <path id="Path_58" data-name="Path 58" d="M314,148.055H299.8" transform="translate(-299.799 -137.634)" fill="none" stroke="#000" stroke-linecap="round" stroke-miterlimit="10" stroke-width="1"/>
        <path id="Path_59" data-name="Path 59" d="M340.034,147.985q-12.876.032-25.754.113" transform="translate(-290.862 -137.677)" fill="none" stroke="#000" stroke-linecap="round" stroke-miterlimit="10" stroke-width="1"/>
        <path id="Path_60" data-name="Path 60" d="M345.36,147.973q-4.476,0-8.953,0" transform="translate(-277.205 -137.685)" fill="none" stroke="#000" stroke-linecap="round" stroke-miterlimit="10" stroke-width="1"/>
        <path id="Path_61" data-name="Path 61" d="M366.766,148.045q-8.953-.044-17.9-.063" transform="translate(-269.518 -137.679)" fill="none" stroke="#000" stroke-linecap="round" stroke-miterlimit="10" stroke-width="1"/>
        <path id="Path_62" data-name="Path 62" d="M316.04,154.5H299.8" transform="translate(-299.799 -133.656)" fill="none" stroke="#000" stroke-linecap="round" stroke-miterlimit="10" stroke-width="1"/>
        <path id="Path_63" data-name="Path 63" d="M324.231,154.7q-4.378-.092-8.759-.2" transform="translate(-290.126 -133.656)" fill="none" stroke="#000" stroke-linecap="round" stroke-miterlimit="10" stroke-width="1"/>
        <path id="Path_64" data-name="Path 64" d="M333.553,154.814q-3.284-.034-6.571-.081" transform="translate(-283.022 -133.512)" fill="none" stroke="#000" stroke-linecap="round" stroke-miterlimit="10" stroke-width="1"/>
        <path id="Path_65" data-name="Path 65" d="M359.469,154.777q-11.207.119-22.416.079" transform="translate(-276.807 -133.485)" fill="none" stroke="#000" stroke-linecap="round" stroke-miterlimit="10" stroke-width="1"/>
        <path id="Path_66" data-name="Path 66" d="M330.871,160.944H299.8" transform="translate(-299.799 -129.679)" fill="none" stroke="#000" stroke-linecap="round" stroke-miterlimit="10" stroke-width="1"/>
        <path id="Path_67" data-name="Path 67" d="M346.063,160.944H324.938" transform="translate(-284.284 -129.679)" fill="none" stroke="#000" stroke-linecap="round" stroke-miterlimit="10" stroke-width="1"/>
        <path id="Path_68" data-name="Path 68" d="M359.491,160.944H342.813" transform="translate(-273.252 -129.679)" fill="none" stroke="#000" stroke-linecap="round" stroke-miterlimit="10" stroke-width="1"/>
        <path id="Path_69" data-name="Path 69" d="M313.115,167.224q-6.659.109-13.316.267" transform="translate(-299.799 -125.803)" fill="none" stroke="#000" stroke-linecap="round" stroke-miterlimit="10" stroke-width="1"/>
        <path id="Path_70" data-name="Path 70" d="M319.758,167.1q-2.775.024-5.548.055" transform="translate(-290.905 -125.878)" fill="none" stroke="#000" stroke-linecap="round" stroke-miterlimit="10" stroke-width="1"/>
        <path id="Path_71" data-name="Path 71" d="M336.028,167.06q-6.1-.012-12.21.01" transform="translate(-284.975 -125.907)" fill="none" stroke="#000" stroke-linecap="round" stroke-miterlimit="10" stroke-width="1"/>
        <path id="Path_72" data-name="Path 72" d="M369.268,167.573q-15.573-.371-31.152-.482" transform="translate(-276.151 -125.885)" fill="none" stroke="#000" stroke-linecap="round" stroke-miterlimit="10" stroke-width="1"/>
        <path id="Path_73" data-name="Path 73" d="M306.426,173.87q-3.314-.017-6.627-.037" transform="translate(-299.799 -121.724)" fill="none" stroke="#000" stroke-linecap="round" stroke-miterlimit="10" stroke-width="1"/>
        <path id="Path_74" data-name="Path 74" d="M335.357,173.938q-12.995-.01-25.99-.058" transform="translate(-293.894 -121.695)" fill="none" stroke="#000" stroke-linecap="round" stroke-miterlimit="10" stroke-width="1"/>
        <path id="Path_75" data-name="Path 75" d="M352.066,173.89q-10.169.034-20.339.04" transform="translate(-280.094 -121.689)" fill="none" stroke="#000" stroke-linecap="round" stroke-miterlimit="10" stroke-width="1"/>
        <path id="Path_76" data-name="Path 76" d="M361.195,173.833q-5.652.034-11.3.058" transform="translate(-268.882 -121.724)" fill="none" stroke="#000" stroke-linecap="round" stroke-miterlimit="10" stroke-width="1"/>
        <path id="Path_77" data-name="Path 77" d="M305.823,180.278H299.8" transform="translate(-299.799 -117.747)" fill="none" stroke="#000" stroke-linecap="round" stroke-miterlimit="10" stroke-width="1"/>
        <path id="Path_78" data-name="Path 78" d="M343.836,180.032q-13.458.032-26.916.2" transform="translate(-289.232 -117.898)" fill="none" stroke="#000" stroke-linecap="round" stroke-miterlimit="10" stroke-width="1"/>
        <path id="Path_79" data-name="Path 79" d="M382,180.43q-20.747-.354-41.5-.4" transform="translate(-274.679 -117.898)" fill="none" stroke="#000" stroke-linecap="round" stroke-miterlimit="10" stroke-width="1"/>
        <path id="Path_80" data-name="Path 80" d="M312.825,186.722H299.8" transform="translate(-299.799 -113.769)" fill="none" stroke="#000" stroke-linecap="round" stroke-miterlimit="10" stroke-width="1"/>
        <path id="Path_81" data-name="Path 81" d="M355.706,186.992q-20.862,0-41.72-.27" transform="translate(-291.043 -113.769)" fill="none" stroke="#000" stroke-linecap="round" stroke-miterlimit="10" stroke-width="1"/>
      </g>
      <circle id="Ellipse_4" data-name="Ellipse 4" cx="2.336" cy="2.336" r="2.336" transform="translate(8.153 7.996)"/>
      <circle id="Ellipse_5" data-name="Ellipse 5" cx="2.336" cy="2.336" r="2.336" transform="translate(15.88 7.996)"/>
      <circle id="Ellipse_6" data-name="Ellipse 6" cx="2.336" cy="2.336" r="2.336" transform="translate(23.606 7.996)"/>
    </g>
  </g>
</svg>
