<svg xmlns="http://www.w3.org/2000/svg" viewBox="0 0 408.19 203.46"><defs><style>.cls-1{fill:#8a2ae3;}.cls-2{fill:#fff;}</style></defs><title>hero-bottom</title><g id="Layer_2" data-name="Layer 2"><g id="Layer_1-2" data-name="Layer 1"><path class="cls-1" d="M228.57,203.46H162.23V202A10.73,10.73,0,0,1,173,191.24h44.89A10.74,10.74,0,0,1,228.57,202Zm-63.19-3h60a7.74,7.74,0,0,0-7.58-6.22H173A7.73,7.73,0,0,0,165.38,200.46Z"/><path class="cls-1" d="M210.81,194.24H180l4.16-35.45h23.31Zm-27.49-3h24.19l-2.82-29.45H186.78Z"/><path class="cls-1" d="M279.59,161.68H111.21c-3.85,0-7-3.52-7-7.83v-96c0-4.32,3.13-7.83,7-7.83H279.59c3.85,0,7,3.51,7,7.83v96C286.57,158.16,283.44,161.68,279.59,161.68ZM111.21,53c-2.19,0-4,2.17-4,4.83v96c0,2.66,1.79,4.83,4,4.83H279.59c2.19,0,4-2.17,4-4.83v-96c0-2.66-1.79-4.83-4-4.83Z"/><path class="cls-1" d="M274.5,146.12H116.3a3.51,3.51,0,0,1-3.42-3.58V63.6A3.51,3.51,0,0,1,116.3,60H274.5a3.51,3.51,0,0,1,3.42,3.58v78.94A3.51,3.51,0,0,1,274.5,146.12ZM116.3,63a.53.53,0,0,0-.42.58v78.94a.53.53,0,0,0,.42.58H274.5a.54.54,0,0,0,.42-.58V63.6a.54.54,0,0,0-.42-.58Z"/><path class="cls-1" d="M195.4,156.73a4.56,4.56,0,1,1,4.55-4.55A4.56,4.56,0,0,1,195.4,156.73Zm0-6.11a1.56,1.56,0,1,0,1.55,1.56A1.56,1.56,0,0,0,195.4,150.62Z"/><rect class="cls-2" x="132" y="25.49" width="92.83" height="79.33" rx="3" transform="translate(113.27 243.57) rotate(-90)"/><path class="cls-1" d="M215.09,113.07H141.75a4.51,4.51,0,0,1-4.5-4.5V21.74a4.5,4.5,0,0,1,4.5-4.5h73.34a4.5,4.5,0,0,1,4.5,4.5v86.83A4.51,4.51,0,0,1,215.09,113.07ZM141.75,20.24a1.5,1.5,0,0,0-1.5,1.5v86.83a1.5,1.5,0,0,0,1.5,1.5h73.34a1.5,1.5,0,0,0,1.5-1.5V21.74a1.5,1.5,0,0,0-1.5-1.5Z"/><rect class="cls-1" x="138.71" y="30.07" width="79.33" height="3"/><path class="cls-1" d="M157.39,45.07H145.2a1.5,1.5,0,0,1,0-3h12.19a1.5,1.5,0,0,1,0,3Z"/><path class="cls-1" d="M178.63,45.29h0c-5.21,0-10.47-.11-15.63-.22a1.5,1.5,0,0,1-1.46-1.53,1.45,1.45,0,0,1,1.53-1.47c5.14.11,10.39.18,15.58.22a1.5,1.5,0,0,1,0,3Z"/><path class="cls-1" d="M187.05,45.32h-2.3a1.5,1.5,0,1,1,0-3h5.5a1.5,1.5,0,0,1,0,3Z"/><path class="cls-1" d="M196.44,45.28a1.5,1.5,0,0,1,0-3c2.06,0,4.11,0,6.17-.06h0a1.5,1.5,0,0,1,0,3l-6.19.06Z"/><path class="cls-1" d="M154,51.51H145.2a1.5,1.5,0,0,1,0-3H154a1.5,1.5,0,0,1,0,3Z"/><path class="cls-1" d="M159.68,51.51a1.5,1.5,0,0,1,0-3l15.93-.07h0a1.5,1.5,0,0,1,0,3l-15.92.07Z"/><path class="cls-1" d="M181.81,51.43a1.5,1.5,0,0,1,0-3h5.54a1.5,1.5,0,0,1,0,3h-5.53Z"/><path class="cls-1" d="M205.33,51.48h0l-11.06,0a1.5,1.5,0,0,1,0-3h0l11.08,0a1.5,1.5,0,0,1,0,3Z"/><path class="cls-1" d="M155.24,58h-10a1.5,1.5,0,0,1,0-3h10a1.5,1.5,0,0,1,0,3Z"/><path class="cls-1" d="M166.29,58.08h0L160.83,58a1.5,1.5,0,1,1,.08-3c1.8,0,3.6.09,5.41.12a1.5,1.5,0,0,1,0,3Z"/><path class="cls-1" d="M176.44,58.24h0l-4.07-.05a1.5,1.5,0,0,1,0-3l4.06.05a1.5,1.5,0,0,1,0,3Z"/><path class="cls-1" d="M185.93,58.29h-3.48a1.5,1.5,0,1,1,0-3c4.51,0,9.17,0,13.84-.05a1.51,1.51,0,0,1,1.51,1.49,1.48,1.48,0,0,1-1.48,1.51C192.84,58.27,189.36,58.29,185.93,58.29Z"/><path class="cls-1" d="M164.41,64.4H145.2a1.5,1.5,0,1,1,0-3h19.21a1.5,1.5,0,0,1,0,3Z"/><path class="cls-1" d="M183.4,64.4H170.34a1.5,1.5,0,1,1,0-3H183.4a1.5,1.5,0,0,1,0,3Z"/><path class="cls-1" d="M198.52,64.4H188.21a1.5,1.5,0,1,1,0-3h10.31a1.5,1.5,0,0,1,0,3Z"/><path class="cls-1" d="M145.2,70.85a1.5,1.5,0,0,1,0-3c2.75-.07,5.5-.12,8.25-.17a1.5,1.5,0,0,1,.05,3c-2.75,0-5.49.1-8.23.17Z"/><path class="cls-1" d="M159.61,70.6a1.5,1.5,0,0,1-1.5-1.49,1.48,1.48,0,0,1,1.48-1.51l3.44,0h0a1.5,1.5,0,0,1,0,3l-3.42,0Z"/><path class="cls-1" d="M169.22,70.52a1.5,1.5,0,0,1,0-3h7.56a1.5,1.5,0,0,1,0,3h-7.55Z"/><path class="cls-1" d="M202.78,70.85h0c-6.2-.15-12.67-.25-19.24-.3a1.5,1.5,0,0,1,0-3h0c6.58,0,13.06.15,19.28.3a1.5,1.5,0,0,1,0,3Z"/><path class="cls-1" d="M149.3,77.31h0l-4.1,0a1.5,1.5,0,0,1,0-3h0l4.09,0a1.5,1.5,0,1,1,0,3Z"/><path class="cls-1" d="M170.84,77.37h0q-8,0-16.08,0a1.5,1.5,0,0,1-1.49-1.51,1.46,1.46,0,0,1,1.5-1.49q8,0,16.07,0a1.5,1.5,0,0,1,0,3Z"/><path class="cls-1" d="M177.13,77.37a1.5,1.5,0,0,1,0-3l12.58,0h0a1.5,1.5,0,0,1,0,3l-12.58,0Z"/><path class="cls-1" d="M195.29,77.33a1.5,1.5,0,0,1,0-3l7,0h0a1.5,1.5,0,0,1,0,3l-7,0Z"/><path class="cls-1" d="M148.92,83.74H145.2a1.5,1.5,0,0,1,0-3h3.72a1.5,1.5,0,0,1,0,3Z"/><path class="cls-1" d="M162.32,83.61a1.5,1.5,0,0,1,0-3c5.56-.07,11.16-.11,16.66-.12h0a1.5,1.5,0,0,1,0,3c-5.49,0-11.09.05-16.63.12Z"/><path class="cls-1" d="M211.56,83.74h0c-8.57-.15-17.19-.23-25.63-.25a1.5,1.5,0,0,1,0-3h0c8.46,0,17.1.1,25.68.25a1.5,1.5,0,0,1,0,3Z"/><path class="cls-1" d="M153.25,90.18H145.2a1.5,1.5,0,0,1,0-3h8.05a1.5,1.5,0,0,1,0,3Z"/><path class="cls-1" d="M185.18,90.35h0c-8.86,0-17.55-.06-25.82-.17a1.5,1.5,0,0,1-1.48-1.52,1.48,1.48,0,0,1,1.52-1.48c8.26.11,16.93.17,25.78.17a1.5,1.5,0,0,1,0,3Z"/><circle class="cls-1" cx="145.2" cy="25.12" r="1.44"/><circle class="cls-1" cx="149.97" cy="25.12" r="1.44"/><circle class="cls-1" cx="154.75" cy="25.12" r="1.44"/><path class="cls-1" d="M336.38,77.29A38.65,38.65,0,1,1,375,38.65,38.69,38.69,0,0,1,336.38,77.29Zm0-74.29A35.65,35.65,0,1,0,372,38.65,35.69,35.69,0,0,0,336.38,3Z"/><path class="cls-1" d="M343.81,60.9H326a19.31,19.31,0,0,1,0-38.62,18.21,18.21,0,0,1,2.55.17,22.05,22.05,0,0,1,15.26-6.06,22.26,22.26,0,1,1,0,44.51ZM326,25.28a16.31,16.31,0,0,0,0,32.62h17.81a19.26,19.26,0,1,0-13.68-32.8l-.55.55-.77-.13A16.66,16.66,0,0,0,326,25.28Z"/><path class="cls-1" d="M329.29,54.85h-4.38a13,13,0,0,1,0-25.93,12.83,12.83,0,0,1,8,2.8l7.34,6.34a1.5,1.5,0,1,1-2,2.27L331.05,34a9.79,9.79,0,0,0-6.14-2.11,10,10,0,0,0,0,19.93h4.38a1.5,1.5,0,0,1,0,3Z"/><path class="cls-1" d="M343.39,55.41A16.79,16.79,0,0,1,331,49.92l-.21-.23c-.24-.27-.49-.54-.74-.79l-5.92-6a1.5,1.5,0,1,1,2.13-2.11l5.91,6c.29.29.57.6.85.9l.2.22a13.78,13.78,0,0,0,10.19,4.51,13.77,13.77,0,0,0,13.74-14.65A13.93,13.93,0,0,0,344.21,24.9a13.67,13.67,0,0,0-9.95,3.44,1.5,1.5,0,1,1-2-2.24,16.77,16.77,0,0,1,23.34,24A16.83,16.83,0,0,1,343.39,55.41Z"/><rect class="cls-2" x="89.95" y="138.2" width="34.79" height="63.76" rx="5.73"/><path class="cls-1" d="M119,203.46H95.68a7.25,7.25,0,0,1-7.23-7.23v-52.3a7.24,7.24,0,0,1,7.23-7.23H119a7.24,7.24,0,0,1,7.23,7.23v52.3A7.25,7.25,0,0,1,119,203.46ZM95.68,139.7a4.24,4.24,0,0,0-4.23,4.23v52.3a4.24,4.24,0,0,0,4.23,4.23H119a4.24,4.24,0,0,0,4.23-4.23v-52.3A4.24,4.24,0,0,0,119,139.7Z"/><rect class="cls-2" x="84.26" y="153.11" width="46.17" height="25.58" rx="0.73" transform="translate(273.25 58.55) rotate(90)"/><path class="cls-1" d="M119.41,190.48H95.29a2.23,2.23,0,0,1-2.23-2.23V143.54a2.23,2.23,0,0,1,2.23-2.23h24.12a2.23,2.23,0,0,1,2.23,2.23v44.71A2.23,2.23,0,0,1,119.41,190.48Zm-23.35-3h22.58V144.31H96.06Z"/><circle class="cls-1" cx="107.35" cy="195.44" r="2.94"/><path class="cls-1" d="M88.85,154a1.5,1.5,0,0,1-1.5-1.5v-6.59a1.5,1.5,0,0,1,3,0v6.59A1.5,1.5,0,0,1,88.85,154Z"/><path class="cls-1" d="M88.85,163.39a1.5,1.5,0,0,1-1.5-1.5v-6.58a1.5,1.5,0,0,1,3,0v6.58A1.5,1.5,0,0,1,88.85,163.39Z"/><path class="cls-1" d="M125.85,165.33a1.5,1.5,0,0,1-1.5-1.5v-6.59a1.5,1.5,0,0,1,3,0v6.59A1.5,1.5,0,0,1,125.85,165.33Z"/><path class="cls-1" d="M363.49,203.46H254.79a5.89,5.89,0,0,1-5.89-5.89v-4.52a2.69,2.69,0,0,1,2.69-2.68h115.1a2.69,2.69,0,0,1,2.69,2.68v4.52A5.9,5.9,0,0,1,363.49,203.46ZM251.9,193.37v4.2a2.9,2.9,0,0,0,2.89,2.89h108.7a2.9,2.9,0,0,0,2.89-2.89v-4.2Zm114.79,0h0Z"/><path class="cls-2" d="M260.58,124.49h97.11a5.57,5.57,0,0,1,5.57,5.57v61.8a0,0,0,0,1,0,0H255a0,0,0,0,1,0,0v-61.8A5.57,5.57,0,0,1,260.58,124.49Z"/><path class="cls-1" d="M364.77,193.37H253.51V130.06a7.08,7.08,0,0,1,7.07-7.07h97.11a7.09,7.09,0,0,1,7.08,7.07Zm-108.26-3H361.77V130.06a4.08,4.08,0,0,0-4.08-4.07H260.58a4.08,4.08,0,0,0-4.07,4.07Z"/><path class="cls-1" d="M354.8,186.46H263.48a2.83,2.83,0,0,1-2.83-2.83v-50.9a2.83,2.83,0,0,1,2.83-2.83H354.8a2.83,2.83,0,0,1,2.83,2.83v50.9A2.83,2.83,0,0,1,354.8,186.46Zm-91.15-3h91V132.9h-91Z"/><path class="cls-1" d="M270.59,152.39a1.5,1.5,0,0,1,0-3l10.56-.21a1.49,1.49,0,0,1,1.53,1.47,1.51,1.51,0,0,1-1.47,1.53c-3.52.06-7,.13-10.55.21Z"/><path class="cls-1" d="M289.05,152.07a1.5,1.5,0,0,1,0-3l4.4,0h0a1.51,1.51,0,0,1,1.5,1.49,1.49,1.49,0,0,1-1.49,1.51l-4.39,0Z"/><path class="cls-1" d="M301.36,152a1.5,1.5,0,1,1,0-3H311a1.5,1.5,0,0,1,0,3h-9.68Z"/><path class="cls-1" d="M344.37,152.39h0c-8-.19-16.34-.32-24.66-.38a1.5,1.5,0,0,1,0-3h0c8.33.06,16.64.19,24.7.38a1.5,1.5,0,0,1,0,3Z"/><path class="cls-1" d="M275.84,160.68h0l-5.25,0a1.5,1.5,0,0,1,0-3h0l5.25,0a1.5,1.5,0,0,1,0,3Z"/><path class="cls-1" d="M303.44,160.75h0q-10.31,0-20.6,0a1.5,1.5,0,0,1,0-3h0q10.31,0,20.59,0a1.5,1.5,0,0,1,0,3Z"/><path class="cls-1" d="M311.5,160.75a1.5,1.5,0,0,1,0-3q8.06,0,16.11,0h0a1.5,1.5,0,0,1,0,3l-16.12,0Z"/><path class="cls-1" d="M334.77,160.69a1.5,1.5,0,1,1,0-3l9,0h0a1.5,1.5,0,0,1,0,3l-9,0Z"/><path class="cls-1" d="M275.36,168.9h-4.77a1.5,1.5,0,0,1,0-3h4.77a1.5,1.5,0,0,1,0,3Z"/><path class="cls-1" d="M292.53,168.75a1.5,1.5,0,0,1,0-3c7-.09,14.2-.15,21.34-.16h0a1.5,1.5,0,0,1,0,3c-7.13,0-14.3.07-21.31.16Z"/><path class="cls-1" d="M280.91,177.16H270.59a1.5,1.5,0,0,1,0-3h10.32a1.5,1.5,0,0,1,0,3Z"/><path class="cls-1" d="M321.82,177.37c-11.31,0-22.44-.07-33.07-.21a1.5,1.5,0,0,1,0-3c10.62.14,21.73.21,33,.21a1.5,1.5,0,0,1,0,3Z"/><path class="cls-1" d="M356.13,141.31h-94a1.5,1.5,0,0,1,0-3h94a1.5,1.5,0,0,1,0,3Z"/><path class="cls-1" d="M38.65,114.44A38.65,38.65,0,1,1,77.29,75.79,38.7,38.7,0,0,1,38.65,114.44Zm0-74.29A35.65,35.65,0,1,0,74.29,75.79,35.69,35.69,0,0,0,38.65,40.15Z"/><path class="cls-1" d="M25.85,89.43A1.45,1.45,0,0,1,24.79,89L12.51,76.71a1.46,1.46,0,0,1-.44-1.06,1.47,1.47,0,0,1,.44-1.06l12-12a1.5,1.5,0,0,1,2.12,2.12L15.69,75.65,26.91,86.87a1.51,1.51,0,0,1,0,2.12A1.48,1.48,0,0,1,25.85,89.43Z"/><path class="cls-1" d="M51.45,89.43A1.49,1.49,0,0,1,50.38,89a1.51,1.51,0,0,1,0-2.12L61.6,75.65,50.66,64.71a1.51,1.51,0,0,1,0-2.12,1.49,1.49,0,0,1,2.12,0l12,12a1.49,1.49,0,0,1,0,2.12L52.51,89A1.48,1.48,0,0,1,51.45,89.43Z"/><path class="cls-1" d="M32.47,93.2a1.44,1.44,0,0,1-.54-.1,1.5,1.5,0,0,1-.86-1.94L43.45,59.33a1.5,1.5,0,0,1,2.79,1.09L33.87,92.25A1.5,1.5,0,0,1,32.47,93.2Z"/><path class="cls-2" d="M388.95,191.38h10.9a5.29,5.29,0,0,1,5.29,5.29v3.61a1.68,1.68,0,0,1-1.68,1.68H385.34a1.68,1.68,0,0,1-1.68-1.68v-3.61A5.29,5.29,0,0,1,388.95,191.38Z"/><path class="cls-1" d="M403.45,203.46H385.34a3.18,3.18,0,0,1-3.18-3.18v-3.61a6.79,6.79,0,0,1,6.79-6.78h10.89a6.79,6.79,0,0,1,6.79,6.78v3.61A3.19,3.19,0,0,1,403.45,203.46ZM389,192.89a3.79,3.79,0,0,0-3.79,3.78v3.61a.18.18,0,0,0,.18.18h18.11a.18.18,0,0,0,.18-.18v-3.61a3.79,3.79,0,0,0-3.79-3.78Z"/><rect class="cls-1" x="392.89" y="191.39" width="3" height="4.04"/><path class="cls-1" d="M61.57,203.46H38.65a1.5,1.5,0,0,1-1.5-1.42l-3-53.72a1.5,1.5,0,0,1,1.5-1.58H64.57a1.51,1.51,0,0,1,1.09.47,1.47,1.47,0,0,1,.4,1.11l-3,53.72A1.49,1.49,0,0,1,61.57,203.46Zm-21.51-3H60.15L63,149.74H37.23Z"/><path class="cls-1" d="M43.78,149.74a1.51,1.51,0,0,1-1.47-1.22l-3.62-18.65-9.18,2.38a1.5,1.5,0,1,1-.75-2.9l10.72-2.79a1.5,1.5,0,0,1,1.85,1.17L45.26,148a1.49,1.49,0,0,1-1.19,1.76A1.36,1.36,0,0,1,43.78,149.74Z"/><path class="cls-1" d="M48.18,166a46,46,0,0,1-12.11-1.68,1.5,1.5,0,1,1,.78-2.9,43.17,43.17,0,0,0,21.46.4c2.57-.51,4.42-.87,5.92-.37a1.5,1.5,0,1,1-1,2.84c-.74-.24-2.43.09-4.39.47A52.58,52.58,0,0,1,48.18,166Z"/><path class="cls-1" d="M85.93,30.74a5.62,5.62,0,1,1,5.62-5.62A5.62,5.62,0,0,1,85.93,30.74Zm0-8.24a2.62,2.62,0,1,0,2.62,2.62A2.62,2.62,0,0,0,85.93,22.5Z"/><path class="cls-1" d="M319.55,114.17a11.1,11.1,0,1,1,11.1-11.1A11.11,11.11,0,0,1,319.55,114.17Zm0-19.2a8.1,8.1,0,1,0,8.1,8.1A8.1,8.1,0,0,0,319.55,95Z"/><path class="cls-1" d="M268.84,24.88H251.53a1.51,1.51,0,0,1-1.3-.75,1.49,1.49,0,0,1,0-1.5l8.65-15a1.5,1.5,0,0,1,2.6,0l8.65,15a1.5,1.5,0,0,1-1.29,2.25Zm-14.71-3h12.11l-6.06-10.49Z"/><path class="cls-1" d="M277.66,27.79a.53.53,0,0,1,.91,0l.84,1.45.84,1.46a.53.53,0,0,1-.46.79h-3.36a.52.52,0,0,1-.45-.79l.84-1.46Z"/><path class="cls-1" d="M379.72,176.27a.53.53,0,0,1,.92,0l.84,1.45.84,1.46a.53.53,0,0,1-.46.79H378.5a.53.53,0,0,1-.46-.79l.84-1.46Z"/><path class="cls-1" d="M372.48,88.45a.53.53,0,0,1,.92,0l.84,1.45.84,1.46a.53.53,0,0,1-.46.79h-3.36a.53.53,0,0,1-.46-.79l.84-1.46Z"/><path class="cls-1" d="M119,30.92a.53.53,0,0,1,.91,0l.84,1.45.84,1.46a.52.52,0,0,1-.46.79h-3.36a.52.52,0,0,1-.45-.79l.84-1.46Z"/><path class="cls-1" d="M19.08,145.71a.53.53,0,0,1,.92,0l.84,1.45.84,1.46a.53.53,0,0,1-.46.79H17.86a.53.53,0,0,1-.46-.79l.84-1.46Z"/><path class="cls-1" d="M76.71,120.18a.53.53,0,0,1,.92,0l.84,1.45.84,1.46a.53.53,0,0,1-.46.79H75.49a.53.53,0,0,1-.46-.79l.84-1.46Z"/><path class="cls-1" d="M398.66,160.63H386a1.5,1.5,0,0,1-1.29-2.25l6.34-11a1.5,1.5,0,0,1,2.6,0l6.35,11a1.49,1.49,0,0,1,0,1.5A1.52,1.52,0,0,1,398.66,160.63Zm-10.1-3h7.5l-3.75-6.49Z"/><circle class="cls-1" cx="405.13" cy="143.22" r="3.06"/><circle class="cls-1" cx="300.88" cy="85.29" r="3.06"/><circle class="cls-1" cx="238.29" cy="38.22" r="3.06"/><circle class="cls-1" cx="92.49" cy="110.13" r="3.06"/><circle class="cls-1" cx="95.9" cy="61.41" r="2.16"/><circle class="cls-1" cx="74.15" cy="107.25" r="2.16"/><circle class="cls-1" cx="339.32" cy="100.77" r="2.16"/><circle class="cls-1" cx="13.39" cy="165.5" r="2.16"/></g></g></svg>