<svg xmlns="http://www.w3.org/2000/svg" viewBox="0 0 43.44 43.44"><defs><style>.cls-1{fill:#1e90ff;}</style></defs><title>logo-color</title><g id="Layer_2" data-name="Layer 2"><g id="Layer_1-2" data-name="Layer 1"><path class="cls-1" d="M21.72,4a5,5,0,0,1,3.55,1.47L38,18.17a5,5,0,0,1,0,7.1L25.27,38a5,5,0,0,1-7.1,0L5.47,25.27a5,5,0,0,1,0-7.1l12.7-12.7A5,5,0,0,1,21.72,4m0-4a9,9,0,0,0-6.37,2.64L2.64,15.35a9,9,0,0,0,0,12.75L15.35,40.8a9,9,0,0,0,12.75,0L40.8,28.1a9,9,0,0,0,0-12.75L28.1,2.64A9,9,0,0,0,21.72,0Zm4.6,32.68,6.36-6.36a6.5,6.5,0,0,0-9.19-9.2l-3.18,3.19a2,2,0,1,0,2.82,2.83L26.32,20a2.56,2.56,0,0,1,3.53,0,2.51,2.51,0,0,1,0,3.54l-6.36,6.36a2.55,2.55,0,0,1-3.54,0l-6.36-6.36a2.5,2.5,0,0,1,0-3.54l9.54-9.54a2,2,0,0,0-2.82-2.83l-9.55,9.54a6.52,6.52,0,0,0,0,9.2l6.36,6.36a6.49,6.49,0,0,0,9.2,0Z"/></g></g></svg>