<svg xmlns="http://www.w3.org/2000/svg" xmlns:xlink="http://www.w3.org/1999/xlink" width="255.981" height="260.92" viewBox="0 0 255.981 260.92">
  <defs>
    <linearGradient id="linear-gradient" y1="0.5" x2="1" y2="0.5" gradientUnits="objectBoundingBox">
      <stop offset="0" stop-color="#edb89a"/>
      <stop offset="1" stop-color="#ce9e89"/>
    </linearGradient>
  </defs>
  <g id="portfolio-blue" transform="translate(-26.58 -11.08)">
    <g id="Background_2" data-name="Background 2" transform="translate(26.58 16.019)">
      <circle id="Ellipse_2" data-name="Ellipse 2" cx="127.991" cy="127.991" r="127.991" fill="#662fe5"/>
    </g>
    <g id="Outline" transform="translate(53.92 11.08)">
      <path id="Path_2" data-name="Path 2" d="M395.959,683.485l-.573,8.15a127.315,127.315,0,0,1-67.228,21.9q-2.253.08-4.521.08a128.482,128.482,0,0,1-26.5-2.746,124.744,124.744,0,0,1-12.107-3.186q-1.5-.475-2.985-.984c-3.47-4.9-7.328-10.317-7.328-10.317l.086-.749.589-5.079,2.829-24.441,3.964-4.142.561-.586.153-.162.064-.067.392-.411,1.478-1.548,18.9,11.037,31.1,18.161,15.695-2.23,14.054-2,2.772-.4.319-.045.057-.083,13.563-19.754,4.043,5.416.319.437.124.169.319.417.076.1.593.8Z" transform="translate(-222.999 -452.699)" fill="url(#linear-gradient)"/>
      <path id="Path_3" data-name="Path 3" d="M244.033,224.895l-4.923,36.437,4.2,14.064,3.5,14.019,5.735,16.568,1.38,8.6,2.657,10.2s4.142,5.949,4.461,6.267,10.938,10.3,10.938,10.3l14.338,8.284,15.717,4.779,12.107,1.912h15.1l9.664-3.291,11.365-5.735,10.514-8.816,7.433-10.3,6.267-13.168L377.14,302.8l1.488-7.01,4.352-26.018,1.593-24.96-2.868-19.646s-3.4-5.63-3.623-5.949-3.186-4.355-3.186-4.993a46.214,46.214,0,0,1-.213-5.1c.105-2.339,0-11.362,0-11.362s-2.973-6.481-3.291-8.179-4.142-8.708-4.142-8.708-9.772-7.118-10.925-7.755a10.965,10.965,0,0,0-5.63-1.8c-3.186-.21-7.647-.213-10.833-.213s-6.267,0-9.558.105-6.054.213-9.24.319-6.691.213-8.284.108-5.522-.637-7.965-.956-6.477-.532-8.284-.637-7.433,0-9.453.21-5.522-.319-7.538.851-6.586,1.593-9.453,2.868-5.63,1.912-7.433,3.186-3.613,1.807-6.054,3.823-8.711,16.887-8.711,18.693-.637,3.823-1.166,7.433-1.488,7.86-2.23,10.728A27.34,27.34,0,0,0,244.033,224.895Z" transform="translate(-198.735 -119.366)" fill="#edb89a"/>
      <path id="Path_4" data-name="Path 4" d="M226.548,456l-4.107,1.574a18,18,0,0,0-1.383,3.186c.105.319,1.383,8.176,1.383,9.345a42.306,42.306,0,0,0,.637,4.566,9.725,9.725,0,0,0,.529,2.549c.532,1.7.956,5.525,2.23,7.223s2.23,2.017,2.444,3.081,1.593,4.99,1.593,4.99l-.637,3.718,2.335,4.247,7.86,1.912-1.38-5.84-5.072-15.478L229.4,466.893Z" transform="translate(-186.432 -314.242)" fill="#f4c3b0"/>
      <path id="Path_5" data-name="Path 5" d="M681.014,426.79l2.587.44a4.457,4.457,0,0,1,1.274,0c.159.121,1.873,1.673,1.873,1.673l.357,2.39-.637,8.243-1.035,4.142-.357,6.293.755,3.027-1.233,4.859-3.186,3.186.956,5.177-.121,2.989-.956,3.664-2.39,1.036-1.673-1.434-2.109-.6,4.658-24.135,1.077-15.771Z" transform="translate(-495.826 -294.339)" fill="#e5b095"/>
      <path id="Path_6" data-name="Path 6" d="M426.761,435.735c0-17.1,7.965-13.7,10.2-20.522s-.112-13.7,4.884-26.633l-9.167.586-5.9,21.612L425.815,417l-1.462,2.549-3.052,5.232,1.807,8.15Z" transform="translate(-322.877 -268.303)" fill="#f2f2f2" opacity="0.15"/>
      <path id="Path_7" data-name="Path 7" d="M491.2,376.487l-1.013,14.774-1.437,10.61-1.329,7.908L485.2,419.6,483,430.068l-3.24,12.745-4.645,9.106-11.445,13.994-8.016,5.894-23.014,7.752c1.912-9.335,3.055-9.278,3.055-16.163s-7.264-17.584-14.013-17.584c-15.134,0-25.276,5.417-25.276-9.877s33.2-14.229,33.2-20.512,7.806-7.691,7.806-7.691l4.751-3.823,1.743-3.823.159-1.236-.5-1.631-2.087-4.1-2.823-4.757-2.23-4.381-.239-3.425-6.108-13.994,8.5-12.487,50.1-3.269.663,10.817,1.383,8.284Z" transform="translate(-305.917 -242.56)" fill="#e5b095"/>
      <path id="Path_8" data-name="Path 8" d="M515.978,588.728l-2.973-.742-7.2-.822-3.887-.233-2.934.258-4.352.5h0c-.526-.6-1.679-2.52.637-6.152,2.46-.605,3.7-2.492,8.15-1.784C508.688,580.59,515.978,588.728,515.978,588.728Z" transform="translate(-372.331 -398.461)" fill="#d193a1"/>
      <path id="Path_9" data-name="Path 9" d="M440.414,590.3l-3.212.054-4.142.373-5.286.558-4.62.529L421,592.4l-3.741,1.192-1.4.44-1.513.691-.038-.134s9.855-10.049,15.325-10.9,6.28.637,9.9.637a6.259,6.259,0,0,0,1.513-.178C438.745,587.779,439.888,589.7,440.414,590.3Z" transform="translate(-318.114 -401.068)" fill="#dd97a5"/>
      <path id="Path_10" data-name="Path 10" d="M512.086,604.563a36.9,36.9,0,0,1-6.152,3.884c-3.444,1.692-5.2,2.01-9.619,2.925-2.119.44-4.164.828-6.293,1.115a13.78,13.78,0,0,1-1.635-9.138l8.185-.239,8.325.417Z" transform="translate(-368.438 -414.48)" fill="#c68b9b"/>
      <path id="Path_11" data-name="Path 11" d="M439.823,613a54.622,54.622,0,0,1-7.427.5,45.9,45.9,0,0,1-13.643-2.488,10.319,10.319,0,0,1-4.263-2.326l1.035-.523,3.906-1.345,3.377-1.007,6.226-1.4,6.662-.478,2.482-.073A13.794,13.794,0,0,0,439.823,613Z" transform="translate(-318.236 -414.992)" fill="#d193a1"/>
      <path id="Path_12" data-name="Path 12" d="M339.315,719.931q-2.253.08-4.521.08a128.474,128.474,0,0,1-26.5-2.746,124.747,124.747,0,0,1-12.107-3.186L293,707.129l-.994-15.5-.93-16.249,2.734-6.255.239-.545.484.437,1.488,1.348.373.341,9.24,8.37,1.055.956s-.057.08-.156.233-.188.3-.319.523c-1.255,2.23-4.317,9.24-.061,18.97S331.617,713.32,339.315,719.931Z" transform="translate(-234.147 -459.091)" fill="#4d4d4d" opacity="0.15"/>
      <path id="Path_13" data-name="Path 13" d="M531.729,451.4c0,3.1,3.935,5.1,3.935,10.033s-3.027,9.558-11.91,12.5l5.1-4.416,1.552-4.461-.717-2.96-1.313-2.9-3.043-3.661-1.482-3.648L523.12,448Z" transform="translate(-392.255 -308.791)" fill="#4d4d4d" opacity="0.15"/>
      <path id="Path_14" data-name="Path 14" d="M593.69,362.92l-2,.956-1.488-.956-.239,5.961-1.485,10.75-3.5,8.67-10.033,5.77-20.449.711,10.833,1.456s15.105.672,18.8,3.282-.118,17.868-3.9,26.592c-4.515,10.409-5.283,26.34-12.133,34.2S552.05,484.95,552.05,484.95l16.039-9.348,5.044-5.735,10.674-14.309,4.744-15.188,5.056-24.164,3.215-19.356.433-16.966Z" transform="translate(-411.968 -250.819)" fill="#4d4d4d" opacity="0.15"/>
      <path id="Path_15" data-name="Path 15" d="M280.99,372.326l2.641,12.426,4.448,10.256,6.691,3.243,7.806.838,12.9-.838,11.47-5.754,5.735-10.333,4.375-11.75-5.177-5.894-12.42-1.38-18.639-2.081-15.771,6.328Z" transform="translate(-227.272 -249.551)" fill="#d14646"/>
      <path id="Path_16" data-name="Path 16" d="M522.793,347.306l-17.724,3.779L494,355.66l.714,7.01,6.532,11.789,5.4,6.869,7.507,2.084h13.86l11.279-.889,8.635-6.082,1.593-11.081v-10.5l-4.142-5.416-12.107-3.027Z" transform="translate(-372.413 -239.576)" fill="#5257de"/>
      <path id="Path_17" data-name="Path 17" d="M634.389,252.219c-3.823-5.894-9.4-10.992-9.4-15.532,0-22.223,1.991-28.516,1.991-28.516l7.408,12.232,1.641,5.735-.66,10.833,2.708,6.8,6,9.345Z" transform="translate(-461.668 -145.374)" fill="#4d4d4d" opacity="0.15"/>
      <path id="Path_18" data-name="Path 18" d="M327.356,188.439c10.151-3.54,9.823-9.211,9.823-9.211l-11.027.8-21.691-1.354-16.409,2.52-6.411,2.944-7.9,6.165-5.815,9.24-.637,12.107.054,18.062-2.842,13.72,19.955-4.68-.048.115,18.566-1.488,24.906,3.664s-4.515-19.595-13.436-17.683-20.71-4.257-18.731-10.275C304.311,189.124,312.713,193.546,327.356,188.439Z" transform="translate(-216.036 -125.273)" fill="#f2f2f2" opacity="0.15"/>
      <path id="Path_19" data-name="Path 19" d="M300.693,412.711s.848-4.1,0-6.949l-13.49,6.949-18.537,1.051-4.827-1.051s-5.815-3.862-5.894-4.1-3.823-10.435-3.823-10.435l-1.838-3.5a29.056,29.056,0,0,1,.924-4.107l-6.481-8.284-3.4,7.115-5.63,16.039,3.718,14.019,2.973,10.619,2.007,6.736,3.31,10.992,1.354,5.442s-.019-.535-.048-1.507l.481,1.507,4.011,16.214,4.461,6.264,12.4,11.021,15.905,8.842s-22.755-27.337-24.635-55.8a18.419,18.419,0,0,1,15.048-19.3C285.945,419.121,294.225,416.776,300.693,412.711Z" transform="translate(-197.774 -264.01)" fill="#f2f2f2" opacity="0.15"/>
      <path id="Path_20" data-name="Path 20" d="M453.959,386c0,1.045,3.9,3.186,3.9,3.186C449.536,391.257,448.819,403.9,445,403.9l-1.166-1.179,4.658-14.847Z" transform="translate(-338.228 -266.545)" fill="#4d4d4d" opacity="0.15"/>
      <path id="Path_21" data-name="Path 21" d="M520.335,384.22l9.718-36.8-13.86,2.947L500.74,356.66l.4,7.169,1.593,8.364,7.726,8.6Z" transform="translate(-377.006 -240.257)" fill="#f2f2f2" opacity="0.15"/>
      <path id="Path_22" data-name="Path 22" d="M305.665,401.22l9.718-36.8L295.1,365.427l-9.03,8.233.4,7.169,1.593,8.364,5.764,10.753Z" transform="translate(-230.733 -251.841)" fill="#f2f2f2" opacity="0.15"/>
      <path id="Path_23" data-name="Path 23" d="M211.47,153.37c-.43-7.988-2.629-22.542-2.629-22.542l-2.23-1.354.478-4.859-2.31,3.186.956-6.372-1.991,2.39.717-7.169-2.151-.637c-1.434-3.345-4.062-11.231-.159-16.329s2.033-3.326,2.033-3.326L200,96.1l3.983-3.425-.159-4.7-3.266-2.788,3.584,1.513-.319-3.425-2.629-1.912,4.7.717-3.5-3.425,3.107.637-2.469-3.744,2.39,1.354-.8-3.584,4.54-.4-1.832-3.186,3.266.239L209,67.185l1.912-.8-3.425-3.345,4.062-3.5,2.23-.876.478-2.629-1.035-4.062,2.31-4.939,3.027-1.195-.8-1.115-4.222.717h0a20.936,20.936,0,0,1,6.946-4.486c.411-.162.707-.277.781-.293.319-.08,2.23-.956,2.23-.956l3.823-1.912-2.364.424,6.372-2.125-3.4-.927,5.257.558-1.542-1.383,2.5-.319L229.1,32.854l5.416-1.752-3.237-1.861c3.769-2.813,15.714-9.081,21.93-9.081,0,0,7.01-3.4,14.233-3.4,0,0,6.054-4.355,12.531-4.355s14.073-1.22,21.825.637,17.683,8.867,17.683,8.867a13.293,13.293,0,0,0-4.117-4.725s11.34,6.586,13.2,12.585C333.978,32.058,337,38.8,337,38.8s-2.973-6.264-6.372-9.769c0,0,11.5,10.275,11.046,14.975a16.762,16.762,0,0,0,1.061,7.965l1.115-2.23.478,2.947.478,3.425,2.469,1.274L347.2,59.3l1.274.4-.558,4.3,2.23-1.673-.8,4.7,3.9-1.035-1.912,4.7,4.142-.558-1.354,3.744,3.4,6.771c2.469,8.364,7.194,28.143,5.92,37.278s-3.881,26.63-3.881,26.63l-2.492-2.415L355.8,128.2l-.637-6.452-.637-2.868-8.364-13.143-.239-12.824-.637-5.257L342.739,82.8,337.4,74.513l-5.5-5.974-6.079-3.772-5.152.347h-8.048L282.2,66.468l-10.275-1.274-11.072.08-7.726.717L247,67.264l-9.16,4.062-5.815,4.222-4.779,4.142-2.469,4.859-1.354,4.461-.08,9.081.4,8.762-.717,10.753-1.354,8.6-3.425,8.6-3.664,10.435.08,2.727-2.453,5.5Z" transform="translate(-172.086 -11.717)" fill="#7c6859"/>
      <path id="Path_24" data-name="Path 24" d="M411.66,18.062c24.4-1.434,43.717,12.929,17.75,49.57l33.974-1.937,8.6,1.539L474.3,69.2l2.868,2.071,6.079,6.8,3.479,5.442,2.893,5.815.717,7.118-.449,6.771,1.434,6.238,5.655,8.259,2.415,3.823.4,7.832,3.24,16.409.768.067,1.036-8.351,2.23-18.958-.37-11.843-4.833-25.276-2.762-3.769-.9-2.868.424-2.922-3.715.424,1.325-4.034-2.919.583.37-4.725-1.22.956L492.7,61l-.876-.666-.956-2.549-2.39.108L488.21,53l-1.647,1.01-.9-6.532-.108-4.461-4.728-6.1-1.733-2.01-2.189-.2-4.081-3.129-1.316-3.164-2.985-3.639-3.288-2.7-1.65-.118V23.7l-5.856-3.425-7.4-4.04-5.455-1.593-6.812-.717-6.331.118-4.9.6-7.089.4-4.419,1.074-3.651,1.953Z" transform="translate(-316.308 -13.015)" fill="#4d4d4d" opacity="0.2"/>
      <path id="Path_25" data-name="Path 25" d="M656.464,218.163l-2.23,18.958-1.036,8.364-.771-.067-3.237-16.409-.4-7.844-2.418-3.823-5.655-8.259-1.434-6.238.452-6.771-.717-7.118-2.893-5.815-3.479-5.442-1.721-1.912a47.324,47.324,0,0,0,10.514-15.647l.637.5-.239,4.062,1.22-.956-.373,4.725,2.922-.583-1.329,4.034L648,171.5l-.424,2.922.9,2.868,2.762,3.769,4.83,25.276Z" transform="translate(-465.715 -112.647)" fill="#4d4d4d" opacity="0.2"/>
      <path id="Path_26" data-name="Path 26" d="M186.541,671.612a124.744,124.744,0,0,1-12.107-3.186q-1.5-.475-2.985-.984a128.2,128.2,0,0,1-59.058-42c5.671-7.51,15.982-15.947,26.716-15.947,0,0,14.573-7.245,21.9-7.249h0l4.053-.615.319-.051.287,1.1.988,3.788,1.8,8.389,1.274,2.517.226.446,1.195,2.364.319.618.669,1.316.637,1.246.261.519s-.048.319-.121.892c-.4,3.081-1.625,13.363-.73,18.652,1.061,6.264,1.912,13.7,1.912,13.7s3.823,5.1,6.586,8.494C182.224,667.517,184.362,669.184,186.541,671.612Z" transform="translate(-112.39 -413.438)" fill="#333"/>
      <path id="Path_27" data-name="Path 27" d="M224.092,627.176c-6.579-7.863,17.352-12.506,17.352-12.506l1.727,6.771s-14.456,6.054-15.459,12.745C227.708,634.185,225.892,629.326,224.092,627.176Z" transform="translate(-187.722 -422.357)" fill="#4d4d4d"/>
      <path id="Path_28" data-name="Path 28" d="M164.227,649.466c-4.059-1.912-15.813,1.427-16.1,10.2-.229,6.955,29.191,25.078,37.5,28.465.927.376,8.972,1.274,8.972,1.274s-21.984-22.736-23.577-29.74S165.705,650.164,164.227,649.466Z" transform="translate(-136.74 -445.712)" fill="#4d4d4d"/>
      <path id="Path_29" data-name="Path 29" d="M426.3,446.25s-.675,8.058-1.87,9.969-4.183,5.974-4.183,9.919,2.071,8.733,6.745,8.733a5.576,5.576,0,0,0,4.215-1.73h0a2.358,2.358,0,0,1-1.536,1.8c-1.873.663-5.334,1.418-7.459-.956-3.027-3.4-3.89-5.1-3.693-8.548s4.2-8.125,4.888-10.568-.108-6.159-.108-6.159Z" transform="translate(-320.966 -307.598)" fill="#333"/>
      <path id="Path_30" data-name="Path 30" d="M453.986,503.92c2.689,0,4.378.551,4.461,1.517s-.762-.07-1.864.618-1.172,1.966-4.824,1.966S449.468,503.92,453.986,503.92Z" transform="translate(-342.203 -346.894)" fill="#333"/>
      <path id="Path_31" data-name="Path 31" d="M503.516,498.9a2.825,2.825,0,0,0-2.9,2.5c0,1.166,3.052,1.1,4.505,1.1s1.593-.6,1.593-2.033S503.516,498.9,503.516,498.9Z" transform="translate(-376.924 -343.473)" fill="#333"/>
      <path id="Path_32" data-name="Path 32" d="M519.12,446.67c.437,6.293,7.924,12.824,7.924,17.364s-6.611,9.24-6.611,9.24,7.965-2.909,7.965-9.081-7.781-9.269-7.781-16.915Z" transform="translate(-389.53 -307.885)" fill="#333"/>
      <path id="Path_33" data-name="Path 33" d="M414,605.965v.825a48.009,48.009,0,0,1,13.745-3.823c5.442-.4,15.676-1.274,19.659-1.274s14.857,1.51,14.857,1.51L460.9,602a122.119,122.119,0,0,0-14.382-1.227c-3.941.3-13.321.609-17.769,1.036S414,605.965,414,605.965Z" transform="translate(-317.903 -412.885)" fill="#333"/>
      <path id="Path_34" data-name="Path 34" d="M237.09,456.54s3.785,11.989,5.538,21.15,4.738,11.629,7.526,23.976l-1.045,1.138c-1.832-7.647-6.025-16.791-7.379-23s-6-23.112-6-23.112Z" transform="translate(-196.432 -314.61)" fill="#333"/>
      <path id="Path_35" data-name="Path 35" d="M679.667,427.436a150.844,150.844,0,0,1-1.249,18.413c-1.249,8.689-4.779,26.566-4.779,26.566l-1.838.65s3.871-16.867,5.12-29.227,1.115-16.568,1.115-16.568Z" transform="translate(-493.564 -294.666)" fill="#333"/>
      <path id="Path_36" data-name="Path 36" d="M639.184,665.563a128.088,128.088,0,0,1-18.021,14.761,126.644,126.644,0,0,1-13.522,8.007,16.707,16.707,0,0,0-1.571-2.616l4.062-23.259.185-1.058,1.647-2.284,6.009-8.335.026-.038.816-1.131,3.929-7.01c.226.073.452.15.675.236C631.671,645.958,636.574,657.1,639.184,665.563Z" transform="translate(-448.776 -441.388)" fill="#333"/>
      <path id="Path_37" data-name="Path 37" d="M542.4,325.146c-2.887-.15-6.054-.239-9.527-.239-11.521,0-21.057,3.138-28.72,5.659-2.5.825-4.853,1.593-7.041,2.192a50.377,50.377,0,0,1,5.1-8.249c1.673-1.673,13.449-2.469,31.543-2.469C539.072,322.027,540.942,323.506,542.4,325.146Z" transform="translate(-374.533 -222.963)" fill="#7c6859"/>
      <path id="Path_38" data-name="Path 38" d="M340.641,336.4c-1.2-.239-2.4-.5-3.619-.761a77.659,77.659,0,0,0-17.323-2.32c-7.717,0-19.34,2.523-27.308,4.515a7.863,7.863,0,0,1,2.7-3.559c2.033-1.195,31.224-9.284,37.957-6.178C338.86,330.8,339.421,331.39,340.641,336.4Z" transform="translate(-235.039 -226.613)" fill="#7c6859"/>
      <path id="Path_39" data-name="Path 39" d="M478.694,42.3c1.488,9.132-4.034,34.2-4.034,34.2,3.186-6.372,5.2-17.629,5.2-17.629a123.6,123.6,0,0,1-1.434,14.019,132.407,132.407,0,0,0,3.718-12.9c-.319,4.99-1.115,11.416-1.115,11.416,2.813-4.566,4.142-15.507,4.142-15.507a140.344,140.344,0,0,1-1.593,15.294s3.132-9.45,3.715-14.656c0,0,.319,9.613-1.434,15.348,0,0,5.257-9.931,6-17.1S489.9,38.793,489.9,38.793c.478,3.345.264,12.426.264,12.426-.105-3.613-2.122-10.091-2.122-10.091.172,3.266-.319,10.473-.319,10.473-.4-2.071-1.752-11.269-1.752-11.269a111.4,111.4,0,0,1-1.953,10.992c.532-5.617-.965-12.824-.965-12.824a90.81,90.81,0,0,1-1.4,12.585S480.605,44.34,478.694,42.3Z" transform="translate(-359.235 -29.764)" fill="#937b6c"/>
      <path id="Path_40" data-name="Path 40" d="M583.241,93.22c-.72,8.415-11.741,21.379-11.741,21.379a11.037,11.037,0,0,0,6.264-4.269c-.615,2.5-5.573,7.366-5.573,7.366,5.349-.819,8.284-7.793,8.284-7.793.159,2.817-2.39,6.586-2.39,6.586,6.474-5.6,9.345-14.274,9.345-14.274a56.915,56.915,0,0,1-4.461,5.353,38.38,38.38,0,0,0,2.361-9.772,36.479,36.479,0,0,1-4.05,7.169A42.1,42.1,0,0,0,583.241,93.22Z" transform="translate(-425.221 -67.049)" fill="#937b6c"/>
      <path id="Path_41" data-name="Path 41" d="M257.65,163.1s10.1,1.335,12.538,6.054a6.524,6.524,0,0,0-2.549-4.527,19.48,19.48,0,0,1,4.9,3.588C272.1,164.066,260.113,160,260.113,160a41.083,41.083,0,0,0,4.011,2.915A11.417,11.417,0,0,0,257.65,163.1Z" transform="translate(-211.368 -112.552)" fill="#937b6c"/>
      <path id="Path_42" data-name="Path 42" d="M362.027,91.276A89.114,89.114,0,0,0,353.743,77c-.7-3.161-3.068-11.894-8.268-13.669a40.6,40.6,0,0,1,3.161,7.366c-3.5-3.788-7.6-7.089-12.107-8.81,0,0,8.6,6.9,10.546,14.06,0,0-5.235-7.752-10.11-9.2a39.089,39.089,0,0,1,5.968,6.579s-5.808-4.939-10.263-6.643c0,0,7.86,6.516,10.909,11.537,0,0-1.548-2.351-10.454-6.777,8.482,7.328,17.473,25.263,17.473,25.263a94.166,94.166,0,0,0-3.186-11.394,71.078,71.078,0,0,1,4.575,8.179c-.169-4.872-5.1-11.5-5.1-11.5,3.164,2.351,6.895,7.809,6.895,7.809a40.316,40.316,0,0,0-2.826-7.679c4.25,3.607,7.825,11.3,7.825,11.3.2-3.944-4.056-10.795-4.056-10.795a110.683,110.683,0,0,1,7.3,8.641Z" transform="translate(-262.486 -45.701)" fill="#937b6c"/>
      <path id="Path_43" data-name="Path 43" d="M654.592,672.158c1.035-3.441,5.483,2.074,9.055,8.475a2.6,2.6,0,0,1-4.26,2.938C656.195,679.779,653.6,675.455,654.592,672.158Z" transform="translate(-481.693 -460.808)" fill="#4d4d4d"/>
      <path id="Path_44" data-name="Path 44" d="M377.161,377.836c0-2.67-1.791-4.821-3.3-4.821a17.642,17.642,0,0,1-2.947-.277l-.159-5.114L369.2,355.851l.561-1-1.392-6.474-1.23-.22.51.637.478,4.419,1.673,13.025-.038,7.131a19.374,19.374,0,0,0,3.941.545c1.752,0,2.508,2.192,2.508,4.1,0,5.576-2.466,13.223-2.466,13.223s1.313,10.553.554,11.751-4.817,2.947-3.941,6.012,1.574,10.473-1.475,10.473c-2.268,0-.236-2.708-2.867-2.708s-3.186,4.317-5.1,13.344-14.551,46.836-54.219,46.836-60.218-25.543-62.926-31.119-4.779-18.027-4.779-18.027c-4.859.956-11.072-3.345-9.957-5.337.7-1.252.143-4.327-.366-6.439a7.679,7.679,0,0,0-1.724-3.24,13.01,13.01,0,0,1-2.868-6.56,20.269,20.269,0,0,0-1.749-5.6,4.365,4.365,0,0,1-.516-1.8c0-1.673-1.115-9-1.115-11.55s2.151-3.9,5.257-4.54c0,0,5.945-17.457,8.762-25.091H233.08c-.532,1.7-.927,2.788-.927,2.788l-5.71,12.321,1.169,4.3L225.5,381.7s-6.13.159-6.13,6.293c0,3.744.637,4.381.637,6.771a17.358,17.358,0,0,0,.863,6.691,24.288,24.288,0,0,1,1.647,5.19c.443,2.447,1.4,5.337,3.161,7.01a7.354,7.354,0,0,1,2.278,5.248v.076c0,2.549-.688,1.807-.688,3.718s2.071,7.328,10.514,7.328l1.778,8.628s3.664,12.9,10.594,18.161,24.613,22.223,56.156,22.223,53.049-26.843,55.837-44.686,3.626-15.571,4.18-14.615a1.9,1.9,0,0,0,2.033,1.115c3.106,0,4.021-5.06,4.021-6.455s-.873-3.5-.873-5.974,4.219-3.024,4.219-6.57-.755-10.355-.755-10.355S377.161,381.458,377.161,377.836Z" transform="translate(-185.285 -240.761)" fill="#333"/>
      <path id="Path_45" data-name="Path 45" d="M411.254,590.291a1.112,1.112,0,0,0-.691,1.115c0,.4.806.593,1.338-.137s10.983-11.094,17.116-11.094,4.68.755,8.223.755,4.005-2.163,7.551-2.163c5.936,0,13.082,8.265,13.082,8.265l2.052.749a.854.854,0,0,0-.478-1.545,2.64,2.64,0,0,1-1.791-.478c-3.964-4.2-9.858-7.567-12.9-7.567s-5.12,2.23-7.867,2.23-3.944-.758-7.927-.758c-7.984,0-16.058,9.533-16.367,9.788A4.07,4.07,0,0,1,411.254,590.291Z" transform="translate(-315.559 -397.5)" fill="#333"/>
      <path id="Path_46" data-name="Path 46" d="M462.267,607.335a1.593,1.593,0,0,1-1.208.4s-7.379,7.328-23.428,8.5-20.726-3.094-22.918-4.486a2.384,2.384,0,0,1-.714-.691l.255-.465a39.743,39.743,0,0,0,24.629,4.461c13.608-2.2,21.029-6.691,22.058-7.892h0l.816-.287.5.465Z" transform="translate(-317.903 -417.042)" fill="#333"/>
      <path id="Path_47" data-name="Path 47" d="M223.22,305.178l-.319,4.081-1.912,10.588-.284,3.052s-3.078,8.807-3.078,8.921-2.125,6.019-2.125,6.019-3.476,6.293-3.728,5.878-1.456-9.144-1.593-9.24-1.593-10.941-1.593-10.941l-1.2-1.035-.746-2.762-1.88,1.488.71-5.63-1.383,1.1.073-3.221-.567-3.54-1.31-1a58.254,58.254,0,0,1-1.628-6.009,39.709,39.709,0,0,0-.682-5.241,6.294,6.294,0,0,1,.475-1.274C208.334,291.7,222.535,301.4,223.22,305.178Z" transform="translate(-172.073 -204.64)" fill="#4d4d4d" opacity="0.24"/>
      <path id="Path_48" data-name="Path 48" d="M209.558,151.666l-1.574-16.485-1.517-5.945-1.966-.9.478-5.1-2.6,2.339.892-5.416-1.635,1.434.637-6.321-2.39-.637c-1.858-6.742-1.593-5.786-1.593-9.345s4.037-10.011,4.037-10.011l-3.24-.344,3.186-3.027-.159-4.779-2.39-1.329h2.549l-.691-3.69-1.485-.822h4.142l-3.135-2.5h3.186L201.848,76.5l1.644.37-.848-3.929,5.044-.319-1.858-2.973h3.4l-2.176-2.549,2.176-1.542-3.769-2.973,4.1-3.24,2.7-1.166.213-3.5-1.274-3.027,2.176-4.355,3.823-1.752-1.727-2.23-2.415.478c3.24-2.23,5.789-2.444,8.5-3.983s4.566-2.762,4.566-2.762l3.718-1.485,2.549-.851-1.274-.851,2.23-1.539-2.708-.532,3.983-2.122-2.922-1.647c10.2-7.169,18.375-7.274,18.375-7.274,5.232-3.533,14.363-3.878,14.363-3.878,6.481-2.762,6.426-3.769,13.063-3.769s7.835-.851,13.461-.851,16.479,3.795,26.582,10.887l-.293-2.708a17.611,17.611,0,0,1,8.08,9.775c3.613.411,9.074,9.558,9.074,9.558s.6-2.992-2.284-6.477a34.96,34.96,0,0,1,5.63,9.135c0,3.345.051,8.921,1.912,10.514l1.325-.691v4.566l2.549.373v2.125l1.383.319-.478,4.859,1.485-.771-.21,4.142,3.027-1.115-1.752,4.62,4.142-.8-1.01,3.664,3.451,5.471c2.125,9.877,5.949,24.8,5.63,34.356s-3.266,29.606-3.266,29.606l1.274.041s3.862-20.751,3.862-30.469-6.054-34.49-6.054-34.49L351.6,73.184l1.539-4.289-3.983.691,1.539-4.674-3.664.851.213-4.674-1.115.532.159-3.451-1.434-.108V55.25l-2.708-.264-1.214-5.974-1.093,2.323c-1.195-3.5.5-6.586-.771-9.667s-13.974-16.858-11.336-13.273a49.974,49.974,0,0,1,2.842,4.193,25.03,25.03,0,0,0-4.754-3.578c-1.141-4.193-8.15-11.078-13.567-13.041a27.138,27.138,0,0,1,3.345,4.193s-12.216-9.081-24.852-9.081c-7.01,0-11.206.478-14.338.478s-9.453,1.223-12.267,3.932c-4.939-.054-13.914,3.769-13.914,3.769-9.558-.583-21.851,9.345-21.851,9.345l2.708,1.727-5.1,1.991,3.635.851-1.166.558.768.822-4.461-.08,2.9.981L221.5,37.579l1.912.025a20.724,20.724,0,0,1-5.786,2.23c-1.991.529-6.669,3.613-7.28,5.311l3.983-.373-.105.8-2.046.691-2.332,5.232,1.141,3.266-.319,3.106-2.2.9-4.171,3.559,3.106,3.291-1.8.981,1.141,2.151-2.549.108,1.061,2.549-3.929,1.22,1.09,2.868-2.74-.717,1.912,3.451-2.734-.344,2.033,2.23-3.345.478,2.708,2.033-.08,2.189-3.106-.277,3.425,3.823.239,3.3-4.98,4.54,4.5.159c-3.387,3.345-3.865,7.21-3.865,10.476s1.991,9.081,1.991,9.081l2.151.994-.319,7.051,1.555-.319-.516,5.35,1.912-1.475.36,3.228,1.631.675,1.01,5.458s1.38,12.8,2.071,15.558Z" transform="translate(-169.183 -11.08)" fill="#605146"/>
      <path id="Path_49" data-name="Path 49" d="M264.9,236.923c2.151-5.416,1.513-18.32,1.513-33.853,0-15.931,20.152-26.286,34.49-26.286a78.993,78.993,0,0,1,23.963,1.513s28.21-2.418,39.282-2.418S382,188.892,385.5,194.866s2.23,14.774,2.23,19.477c0,3.989,8.73,15.408,8.73,15.408l1.214.22-4.05-6.191s-4.856-6.054-4.856-11.39,1.195-11.948-1.752-16.887-9.9-19.225-21.532-20.739-39.508,1.966-39.508,1.966-25.228-3.929-38.208,1.09-22.7,11.948-22.7,26.286.558,15.771,0,22.7a62.29,62.29,0,0,1-2.657,12.426h1.622C264.373,238.3,264.672,237.512,264.9,236.923Z" transform="translate(-214.611 -122.352)" fill="#605146"/>
      <path id="Path_50" data-name="Path 50" d="M382.33,369.49l-.067-.335v-.089l-.038-.178-1.071-5.416-.994-5.031-1.1-5.55-.28-1.411-.2-1.023-.051-2.957-.025-1.507-.025-1.453h-.022l-.414-.076-.124-.022h-.086l-.2-.035h0l-.261-.045-.118-.022c-2.361-.4-5.557-.854-9.558-1.208-4.142-.363-9.116-.621-14.94-.621-19.356,0-32.658,9-42.854,9-1.016,0-2.01-.041-2.995-.118-8.889-.682-16.715-4.1-27.831-4.1-10.288,0-28.338,4.534-34.073,6.054l-.816.217h-.054l-.934.255-1.348,3.7-4.8,13.191-.261.717-1.274,3.463-.832,2.284-.319.867h0l-.172.471,1.227.15h.092l.376-.691,1.274-2.316L239,372.269l5.894-12.547a4.731,4.731,0,0,1,3.106,3.148c.478,1.593,3.584,12.506,4.779,15.851s2.31,11.311,27.64,8.6c8.44-.9,13.946-3.839,17.6-7.443.163-.162.319-.319.475-.484h0c.4-.424.787-.857,1.141-1.3s.672-.854.978-1.274a23.874,23.874,0,0,0,1.555-2.533h0c3.186-5.952,3.336-11.913,4.218-13.159,1.345-1.842,4.394-2.361,7.182-1.778a10.01,10.01,0,0,1,1.023.264.945.945,0,0,1,.124.045c2.931,1,3.957,4.161,5.213,8.717a18.549,18.549,0,0,0,5.177,8.284c.236.214.475.421.723.618s.5.4.755.583h0a23.062,23.062,0,0,0,8.819,3.712,50.281,50.281,0,0,0,13.337.758q2.026-.118,4.142-.341c10.986-1.15,15.51-3.333,18-8.214,1.3-2.549,2.049-5.84,2.868-10.106.956-5.815.914-12.464,2.469-12.464s1.873,7.564,1.873,7.564l1.768,7.682.542,2.351.112.041.07.025.194.073,1.255.475.086.032.105.038.1.038ZM270.5,385.561c-17.616,1.147-18.62-17.556-18.7-20.353S249.62,350.5,276.435,350.5q1.73,0,3.31.029c19.117.363,22.392,3.957,22.392,8.838,0,5.152-2.017,11.1-5.044,16.622s-7.328,7.7-25.757,9.5q-.411.041-.828.067Zm68.544-5.977c-6.149-.637-8.829-2.383-11.222-5.487-3.578-4.649-6.344-9.791-7.344-14.583-.073-.36-.14-.717-.194-1.07-.408-2.635.22-5.044,3.951-7.217a21.032,21.032,0,0,1,2.8-1.348c1.01-.411,2.16-.812,3.46-1.2h0q.908-.268,1.912-.535a118.131,118.131,0,0,1,12-2.39q1.934-.3,3.686-.484c6.933-.752,11.747-.261,15.1.867,7.707,2.581,7.666,8.513,7.9,10.384.354,2.82,2.265,22-16.288,23.039a105.083,105.083,0,0,1-15.743.029Z" transform="translate(-195.383 -236.912)" fill="#333"/>
    </g>
  </g>
</svg>
