<svg xmlns="http://www.w3.org/2000/svg" xmlns:xlink="http://www.w3.org/1999/xlink" viewBox="0 0 127.27 129.72"><defs><style>.cls-1{isolation:isolate;}.cls-2{fill:#8a2ae3;}.cls-3{fill:url(#linear-gradient);}.cls-4{fill:#edb89a;}.cls-5{fill:#f4c3b0;}.cls-6{fill:#e5b095;}.cls-7{fill:#f2f2f2;mix-blend-mode:lighten;}.cls-11,.cls-7{opacity:0.15;}.cls-8{fill:#d193a1;}.cls-9{fill:#dd97a5;}.cls-10{fill:#c68b9b;}.cls-11,.cls-14,.cls-16,.cls-18{fill:#4d4d4d;}.cls-11,.cls-14,.cls-18{mix-blend-mode:darken;}.cls-12{fill:#d15962;}.cls-13{fill:#7c6859;}.cls-14{opacity:0.2;}.cls-15{fill:#333;}.cls-17{fill:#937b6c;}.cls-18{opacity:0.24;}.cls-19{fill:#605146;}</style><linearGradient id="linear-gradient" x1="39.31" y1="116.19" x2="99.58" y2="116.19" gradientUnits="userSpaceOnUse"><stop offset="0" stop-color="#edb89a"/><stop offset="1" stop-color="#ce9e89"/></linearGradient></defs><title>portrait</title><g class="cls-1"><g id="Layer_2" data-name="Layer 2"><g id="Layer_1-2" data-name="Layer 1"><circle class="cls-2" cx="63.63" cy="66.09" r="63.63"/><path class="cls-3" d="M99.58,114.74l-.28,4.05a63.27,63.27,0,0,1-33.42,10.89c-.75,0-1.5,0-2.25,0a63.55,63.55,0,0,1-13.17-1.37q-3.08-.64-6-1.58L43,126.28l-3.64-5.13,0-.37.3-2.52,1.4-12.16L43,104l.28-.29.08-.08,0,0,.2-.2.73-.77,9.4,5.49,15.46,9,7.8-1.11,7-1,1.37-.2.16,0,0,0L92.3,105l2,2.68.16.22.06.08.16.21,0,0,.29.4Z"/><path class="cls-4" d="M36.11,52.46,33.67,70.58l2.08,7,1.75,7,2.85,8.24L41,97.05l1.32,5.07s2.06,3,2.22,3.12L50,110.36l7.13,4.12L65,116.86l6,1h7.5l4.8-1.64,5.65-2.85,5.23-4.38,3.7-5.13L101,97.27l1.32-6.08.74-3.48,2.17-12.94L106,62.36l-1.43-9.76-1.79-3a16.7,16.7,0,0,1-1.59-2.48,24.23,24.23,0,0,1-.1-2.54c.05-1.16,0-5.65,0-5.65a37.68,37.68,0,0,1-1.64-4.06,34.18,34.18,0,0,0-2.06-4.33S92.52,27,91.93,26.72a5.48,5.48,0,0,0-2.79-.89c-1.59-.11-3.81-.11-5.39-.11s-3.12,0-4.75.05l-4.6.16c-1.58.05-3.32.11-4.11.05s-2.75-.31-4-.47-3.22-.26-4.12-.32a46.76,46.76,0,0,0-4.7.11c-1,.1-2.75-.16-3.75.42s-3.27.79-4.7,1.43a25.75,25.75,0,0,0-3.7,1.58,30.6,30.6,0,0,0-3,1.9C41.14,31.63,38,39,38,39.92a35.46,35.46,0,0,1-.58,3.7A53.27,53.27,0,0,1,36.33,49,13.88,13.88,0,0,0,36.11,52.46Z"/><path class="cls-5" d="M33.54,70.47l-2,.78a9.13,9.13,0,0,0-.69,1.59c.05.16.69,4.06.69,4.65a21.52,21.52,0,0,0,.31,2.27A4.68,4.68,0,0,0,32.08,81c.26.85.47,2.75,1.11,3.59s1.1,1,1.21,1.53.79,2.49.79,2.49l-.31,1.84L36,92.59l3.9,1-.68-2.91-2.52-7.69-1.79-7-1.41-5.42Z"/><path class="cls-6" d="M105.66,65.85l1.29.22a2.2,2.2,0,0,1,.63,0c.08.06.93.83.93.83l.18,1.19-.32,4.1-.51,2-.18,3.13.38,1.51-.62,2.41-1.58,1.59.47,2.57,0,1.49-.48,1.82-1.19.51-.83-.71-1-.3,2.32-12,.53-7.84Z"/><path class="cls-7" d="M65.24,83.24c0-8.5,4-6.8,5.06-10.2s0-6.81,2.43-13.24l-4.55.29L65.24,70.83l-.48,3.1L64,75.19l-1.51,2.6.89,4Z"/><path class="cls-6" d="M105.71,66.58l-.5,7.35-.72,5.27-.66,3.93L102.73,88l-1.09,5.2L100,99.56l-2.31,4.52L92,111l-4,2.93L76.6,117.83c1-4.65,1.52-4.62,1.52-8s-3.62-8.75-7-8.75c-7.52,0-12.57,2.69-12.57-4.92s16.51-7.07,16.51-10.19S79,82.1,79,82.1l2.36-1.9.87-1.9.08-.61L82,76.88l-1-2-1.41-2.36-1.1-2.18-.12-1.7-3-7,4.22-6.2,24.91-1.63.33,5.38.69,4.12Z"/><path class="cls-8" d="M85,94.59l-1.48-.37L80,93.81,78,93.7l-1.46.13-2.16.25h0c-.26-.3-.84-1.26.31-3.06,1.23-.3,1.84-1.24,4.06-.89C81.39,90.55,85,94.59,85,94.59Z"/><path class="cls-9" d="M74.4,94.08l-1.6,0-2.06.19-2.63.28-2.29.26-1.07.29-1.86.59-.7.22-.75.35,0-.07s4.9-5,7.62-5.42,3.12.32,4.92.32a3.35,3.35,0,0,0,.75-.09C73.56,92.82,74.14,93.78,74.4,94.08Z"/><path class="cls-10" d="M85,94.5A18.34,18.34,0,0,1,82,96.43a16.49,16.49,0,0,1-4.78,1.46c-1,.21-2.07.41-3.13.55a6.81,6.81,0,0,1-.81-4.54l4.07-.12,4.14.21Z"/><path class="cls-8" d="M74,98.44a26.43,26.43,0,0,1-3.69.25,22.82,22.82,0,0,1-6.78-1.24,5,5,0,0,1-2.12-1.16L62,96l1.95-.66,1.68-.5,3.09-.7L72,93.93l1.24,0A6.81,6.81,0,0,0,74,98.44Z"/><path class="cls-11" d="M65.88,129.68c-.75,0-1.5,0-2.25,0a63.55,63.55,0,0,1-13.17-1.37q-3.08-.64-6-1.58l-1.58-3.45-.49-7.71-.46-8.08,1.36-3.11.12-.27.24.22.74.67.18.17,4.59,4.16.53.47-.08.12-.16.26c-.62,1.11-2.14,4.59,0,9.43S62.05,126.39,65.88,129.68Z"/><path class="cls-11" d="M82.93,70.9c0,1.54,2,2.53,2,5S83.39,80.64,79,82.1l2.53-2.19.78-2.22-.36-1.47-.65-1.44L79.76,73,79,71.14l-.37-1.92Z"/><path class="cls-11" d="M103.94,55.73l-1,.48-.75-.48-.11,3L101.35,64l-1.74,4.31-5,2.87-10.16.35,5.38.73s7.51.33,9.35,1.63-.06,8.88-1.94,13.22c-2.25,5.17-2.63,13.09-6,17s-8,12.25-8,12.25l8-4.65,2.51-2.85L99,101.79l2.35-7.55,2.52-12,1.6-9.62.21-8.43Z"/><polygon class="cls-12" points="40.3 61.04 41.61 67.22 43.83 72.31 47.15 73.93 51.03 74.34 57.45 73.93 63.15 71.07 66 65.93 68.18 60.09 65.6 57.16 59.43 56.47 50.16 55.44 42.32 58.58 40.3 61.04"/><polygon class="cls-2" points="88.36 53.56 79.55 55.44 74.04 57.71 74.4 61.2 77.64 67.06 80.33 70.47 84.06 71.51 90.95 71.51 96.56 71.07 100.85 68.04 101.64 62.53 101.64 57.31 99.58 54.62 93.56 53.12 88.36 53.56"/><path class="cls-11" d="M99.46,53.12c-1.9-2.93-4.67-5.47-4.67-7.72,0-11,1-14.18,1-14.18l3.68,6.08.82,2.85L100,45.54l1.35,3.38,3,4.65Z"/><path class="cls-7" d="M68.94,31.4c5-1.76,4.88-4.58,4.88-4.58l-5.48.4-10.79-.67L49.4,27.8l-3.19,1.46-3.93,3.07-2.89,4.59-.32,6,0,9-1.41,6.82,9.92-2.33,0,.06,9.23-.74L69.2,57.55S67,47.81,62.52,48.76s-10.3-2.11-9.32-5.11C57.48,31.74,61.66,33.94,68.94,31.4Z"/><path class="cls-7" d="M64.76,73.93a8.7,8.7,0,0,0,0-3.46l-6.71,3.46-9.21.52-2.4-.52s-2.89-1.92-2.93-2-1.9-5.19-1.9-5.19L40.7,65a13.39,13.39,0,0,1,.46-2l-3.22-4.12-1.69,3.54-2.8,8,1.85,7,1.48,5.28,1,3.36,1.65,5.46.67,2.71,0-.75.24.75,2,8.06,2.22,3.12,6.17,5.48,7.9,4.39S47.27,101.54,46.34,87.38a9.15,9.15,0,0,1,7.48-9.59A32.38,32.38,0,0,0,64.76,73.93Z"/><path class="cls-11" d="M71.13,59.39c0,.52,1.94,1.59,1.94,1.59-4.14,1-4.49,7.31-6.4,7.31l-.58-.58,2.32-7.38Z"/><polygon class="cls-7" points="84.85 71.57 89.68 53.28 82.79 54.74 75.11 57.87 75.31 61.43 76.1 65.59 79.94 69.87 84.85 71.57"/><polygon class="cls-7" points="50.85 74.27 55.68 55.97 45.59 56.47 41.11 60.56 41.3 64.13 42.1 68.28 44.96 73.63 50.85 74.27"/><path class="cls-13" d="M33.17,70.42c-.21-4-1.3-11.2-1.3-11.2l-1.11-.68L31,56.13l-1.14,1.58.47-3.17-1,1.19.36-3.56-1.07-.32c-.71-1.66-2-5.58-.08-8.12s1-1.65,1-1.65L27.47,42l2-1.7-.08-2.34-1.62-1.38,1.78.75-.16-1.71-1.31-1L30.4,35l-1.74-1.7,1.54.31L29,31.73l1.19.68-.39-1.79L32,30.43l-.91-1.59,1.63.12-.8-1.38.95-.4-1.7-1.66,2-1.75,1.11-.43L34.56,22,34,20l1.15-2.45L36.7,17l-.4-.55-2.1.35h0a10.55,10.55,0,0,1,3.46-2.23l.38-.14c.16,0,1.11-.48,1.11-.48l1.9-.95-1.17.21,3.17-1.05-1.69-.46,2.61.27-.77-.68,1.25-.16-2.51-.58,2.69-.87L43,8.71c1.87-1.4,7.81-4.51,10.9-4.51A18.65,18.65,0,0,1,61,2.51,12.31,12.31,0,0,1,67.23.34c3.22,0,7-.6,10.85.32s8.79,4.41,8.79,4.41A9.05,9.05,0,0,0,85,2.66S90.46,6,91.39,9c2.69,1.13,4.19,4.48,4.19,4.48a22,22,0,0,0-3.17-4.85s5.72,5.11,5.5,7.44a8.28,8.28,0,0,0,.52,4L99,18.9l.24,1.47.23,1.7,1.23.63,0,.95.64.2L101,26l1.11-.83-.4,2.34,1.94-.52-1,2.34,2.06-.28-.67,1.86,1.69,3.37c1.22,4.16,3.57,14,2.94,18.53S106.8,66,106.8,66l-1.24-1.19-.63-6.93-.32-3.21-.31-1.42-4.16-6.54L100,40.37l-.32-2.62-1.27-2.41-2.65-4.12-2.73-3-3-1.88-2.57.18h-4l-15.13.67-5.11-.63-5.51,0L53.88,27l-3.05.63-4.55,2-2.89,2.1L41,33.79l-1.22,2.42-.68,2.22,0,4.51.2,4.36-.36,5.34-.67,4.28-1.7,4.28-1.82,5.18,0,1.36-1.22,2.73Z"/><path class="cls-14" d="M61,2.51c12.13-.71,21.73,6.43,8.82,24.64l16.89-1L91,27l1.15,1,1.42,1,3,3.38,1.73,2.71,1.43,2.89.36,3.54-.22,3.36.71,3.1,2.81,4.11,1.2,1.9.2,3.89L106.42,66l.38,0,.52-4.15,1.11-9.42-.19-5.89L105.84,34l-1.37-1.87L104,30.7l.21-1.45-1.85.21.66-2-1.45.29.18-2.35-.6.47.12-2-.44-.33-.48-1.26-1.18,0-.14-2.43-.81.5-.45-3.25-.06-2.21-2.34-3-.87-1-1.09-.1-2-1.55-.66-1.57L89.27,5.84,87.63,4.51l-.82-.06v.86L83.9,3.61l-3.68-2L77.51.81,74.12.45,71,.51l-2.43.3L65,1l-2.2.54L61,2.51Z"/><path class="cls-14" d="M108.43,52.46l-1.11,9.42L106.8,66l-.38,0-1.61-8.16-.2-3.89-1.2-1.9-2.81-4.11-.71-3.1.22-3.36-.36-3.54-1.43-2.89-1.73-2.71-.86-1A23.5,23.5,0,0,0,101,23.61l.33.24-.12,2,.6-.47-.18,2.35,1.45-.29-.66,2,1.85-.21L104,30.7l.45,1.43L105.84,34l2.4,12.57Z"/><path class="cls-15" d="M50.46,128.35q-3.08-.64-6-1.58L43,126.28A63.78,63.78,0,0,1,13.59,105.4c2.82-3.73,8-7.93,13.29-7.93,0,0,7.24-3.6,10.88-3.6h0l2-.31.16,0,.15.54L40.58,96l.89,4.17.64,1.25.11.22.59,1.18.16.3.33.66.32.62.13.25s0,.16-.06.45c-.21,1.53-.81,6.64-.37,9.27.53,3.12,1,6.81,1,6.81s1.9,2.54,3.28,4.23C48.31,126.32,49.38,127.15,50.46,128.35Z"/><path class="cls-16" d="M31.68,101.83c-3.28-3.91,8.62-6.22,8.62-6.22L41.16,99s-7.19,3-7.69,6.33A15.82,15.82,0,0,0,31.68,101.83Z"/><path class="cls-16" d="M27.26,101.3c-2-1-7.86.71-8,5.07-.11,3.46,14.52,12.46,18.65,14.15.46.19,4.46.63,4.46.63s-10.92-11.3-11.72-14.78S28,101.64,27.26,101.3Z"/><path class="cls-15" d="M66,68.93s-.34,4-.93,5S63,76.86,63,78.82s1,4.34,3.35,4.34a2.76,2.76,0,0,0,2.1-.86h0a1.19,1.19,0,0,1-.76.89c-.93.33-2.65.71-3.71-.48C62.42,81,62,80.18,62.09,78.46s2.09-4,2.43-5.25a7.78,7.78,0,0,0,0-3.06Z"/><path class="cls-15" d="M69.17,78.07c1.33,0,2.17.27,2.21.75s-.38,0-.93.31-.58,1-2.4,1S66.92,78.07,69.17,78.07Z"/><path class="cls-15" d="M76.53,77.27a1.4,1.4,0,0,0-1.44,1.24c0,.58,1.52.55,2.24.55s.79-.3.79-1S76.53,77.27,76.53,77.27Z"/><path class="cls-15" d="M78,69c.22,3.13,3.94,6.37,3.94,8.63s-3.29,4.59-3.29,4.59,4-1.44,4-4.51-3.86-4.61-3.86-8.41Z"/><path class="cls-15" d="M61.37,96v.41a24.41,24.41,0,0,1,6.84-1.91c2.7-.2,7.79-.64,9.77-.64s7.39.76,7.39.76l-.68-.6a59.77,59.77,0,0,0-7.15-.61c-2,.14-6.62.3-8.84.51A46.08,46.08,0,0,0,61.37,96Z"/><path class="cls-15" d="M33.81,70.56s1.88,6,2.75,10.52S38.91,86.86,40.3,93l-.52.56c-.91-3.8-3-8.35-3.67-11.43s-3-11.49-3-11.49Z"/><path class="cls-15" d="M106.12,66a75.06,75.06,0,0,1-.62,9.15c-.62,4.32-2.39,13.21-2.39,13.21l-.91.33a145.3,145.3,0,0,0,2.55-14.53,77.37,77.37,0,0,0,.56-8.24Z"/><path class="cls-15" d="M108.26,111.45a64,64,0,0,1-15.68,11.32,8.16,8.16,0,0,0-.79-1.3l2-11.57.1-.52.82-1.14,3-4.14,0,0,.4-.56,2-3.49.34.12C104.52,101.7,107,107.24,108.26,111.45Z"/><path class="cls-13" d="M97.05,50.8c-1.44-.07-3-.12-4.74-.12A43.84,43.84,0,0,0,78,53.5c-1.25.41-2.42.79-3.51,1.09a25.14,25.14,0,0,1,2.54-4.11c.83-.83,6.68-1.22,15.68-1.22C95.4,49.26,96.33,50,97.05,50.8Z"/><path class="cls-13" d="M66.09,54.58c-.59-.11-1.19-.24-1.79-.37a38.27,38.27,0,0,0-8.62-1.15c-3.83,0-9.61,1.25-13.57,2.24a3.94,3.94,0,0,1,1.34-1.77c1-.59,15.52-4.61,18.87-3.07C65.21,51.8,65.49,52.09,66.09,54.58Z"/><path class="cls-17" d="M73,6.23c.74,4.54-2,17-2,17a41.29,41.29,0,0,0,2.58-8.76,60.42,60.42,0,0,1-.71,7A64.81,64.81,0,0,0,74.7,15c-.16,2.48-.55,5.68-.55,5.68,1.39-2.27,2-7.71,2-7.71a69,69,0,0,1-.79,7.6,49.65,49.65,0,0,0,1.85-7.28,30,30,0,0,1-.71,7.63s2.61-4.94,3-8.51a23.91,23.91,0,0,0-1-7.94,60.42,60.42,0,0,1,.14,6.18,26.2,26.2,0,0,0-1.06-5c.09,1.62-.15,5.21-.15,5.21-.2-1-.87-5.61-.87-5.61-.22,2.2-1,5.47-1,5.47a26.27,26.27,0,0,0-.5-6.38,45.22,45.22,0,0,1-.69,6.26S73.93,7.25,73,6.23Z"/><path class="cls-17" d="M92.16,13c-.36,4.18-5.84,10.63-5.84,10.63a5.48,5.48,0,0,0,3.11-2.12c-.3,1.24-2.77,3.66-2.77,3.66,2.66-.41,4.12-3.87,4.12-3.87a6.89,6.89,0,0,1-1.19,3.27,18.19,18.19,0,0,0,4.65-7.1A27.88,27.88,0,0,1,92,20.14a19.22,19.22,0,0,0,1.17-4.85,17.83,17.83,0,0,1-2,3.56A21,21,0,0,0,92.16,13Z"/><path class="cls-17" d="M36.6,25.13s5,.66,6.24,3a3.24,3.24,0,0,0-1.28-2.25A9.76,9.76,0,0,1,44,27.66c-.22-2.05-6.17-4.08-6.17-4.08a19.31,19.31,0,0,0,2,1.45A5.73,5.73,0,0,0,36.6,25.13Z"/><path class="cls-17" d="M63.08,22.66A44,44,0,0,0,59,15.56c-.35-1.57-1.53-5.91-4.11-6.8a20.54,20.54,0,0,1,1.57,3.67,16.56,16.56,0,0,0-6-4.38s4.27,3.43,5.24,7c0,0-2.6-3.86-5-4.58a19.45,19.45,0,0,1,3,3.28,23.19,23.19,0,0,0-5.1-3.31s3.91,3.24,5.42,5.74c0,0-.77-1.17-5.2-3.37,4.22,3.64,8.69,12.56,8.69,12.56a46.93,46.93,0,0,0-1.58-5.67,35.4,35.4,0,0,1,2.27,4.07c-.08-2.42-2.53-5.71-2.53-5.71A20.14,20.14,0,0,1,59,21.93a20.4,20.4,0,0,0-1.4-3.82c2.11,1.79,3.89,5.62,3.89,5.62.11-2-2-5.36-2-5.36A53.73,53.73,0,0,1,63.08,22.66Z"/><path class="cls-16" d="M99.55,105.07c.52-1.71,2.73,1,4.5,4.22a1.29,1.29,0,0,1-2.11,1.46C100.35,108.86,99.06,106.71,99.55,105.07Z"/><path class="cls-15" d="M109,68.15c0-1.33-.89-2.4-1.65-2.4a8.57,8.57,0,0,1-1.46-.14l-.08-2.54L105,57.22l.28-.5-.7-3.22-.61-.11.26.32.23,2.2.83,6.47v3.55a9.39,9.39,0,0,0,2,.28c.87,0,1.24,1.08,1.24,2a26.8,26.8,0,0,1-1.22,6.57s.65,5.25.27,5.84-2.39,1.47-2,3,.78,5.21-.73,5.21c-1.13,0-.12-1.35-1.43-1.35s-1.57,2.15-2.52,6.63-7.24,23.29-27,23.29S44,104.73,42.68,102s-2.38-9-2.38-9c-2.42.47-5.5-1.67-4.95-2.66.35-.62.07-2.15-.18-3.2a3.82,3.82,0,0,0-.87-1.62,6.64,6.64,0,0,1-1.43-3.26A10.16,10.16,0,0,0,32,79.47a2.18,2.18,0,0,1-.25-.89c0-.83-.56-4.47-.56-5.74s1.07-1.94,2.62-2.26c0,0,2.95-8.68,4.35-12.47h-.81c-.26.85-.46,1.38-.46,1.38l-2.83,6.13.58,2.14-1,2.31a3.08,3.08,0,0,0-3.05,3.13c0,1.86.32,2.17.32,3.36a8.56,8.56,0,0,0,.43,3.32,12.46,12.46,0,0,1,.81,2.58A6.56,6.56,0,0,0,33.68,86a3.7,3.7,0,0,1,1.13,2.61v0c0,1.27-.34.9-.34,1.85s1,3.64,5.22,3.64l.89,4.29s1.82,6.42,5.26,9,12.24,11,27.92,11,26.38-13.35,27.76-22.22,1.81-7.74,2.08-7.26a1,1,0,0,0,1,.55c1.55,0,2-2.51,2-3.21s-.43-1.74-.43-3,2.09-1.5,2.09-3.26-.37-5.15-.37-5.15A53.24,53.24,0,0,0,109,68.15Z"/><path class="cls-15" d="M61.17,95.85a.54.54,0,0,0-.34.55c0,.2.4.3.66-.07S67,90.82,70,90.82s2.33.37,4.09.37,2-1.07,3.75-1.07c3,0,6.51,4.11,6.51,4.11l1,.38a.43.43,0,0,0-.24-.77,1.3,1.3,0,0,1-.89-.24c-2-2.09-4.9-3.76-6.42-3.76S75.28,91,73.91,91s-2-.38-3.94-.38c-4,0-8,4.74-8.14,4.87A2,2,0,0,1,61.17,95.85Z"/><path class="cls-15" d="M85.37,94.61a.81.81,0,0,1-.6.19S81.1,98.44,73.12,99s-10.31-1.54-11.4-2.23a1.24,1.24,0,0,1-.35-.34l.13-.23a19.74,19.74,0,0,0,12.24,2.21c6.77-1.1,10.45-3.33,11-3.92h0l.41-.14.25.23Z"/><path class="cls-18" d="M39,50l-.16,2-1,5.27-.14,1.51s-1.53,4.38-1.53,4.43-1.06,3-1.06,3-1.72,3.13-1.84,2.92-.73-4.54-.8-4.59-.79-5.44-.79-5.44l-.6-.51-.37-1.38-.93.74.35-2.8-.68.55,0-1.6-.28-1.76-.65-.5a29.23,29.23,0,0,1-.81-3,19.85,19.85,0,0,0-.34-2.6,3,3,0,0,1,.24-.64C31.62,43.28,38.68,48.1,39,50Z"/><path class="cls-19" d="M33.67,69.89l-.79-8.19-.75-3-1-.45.24-2.53L30.1,56.92l.44-2.69-.81.71L30,51.8l-1.18-.32c-.93-3.35-.8-2.88-.8-4.65s2-5,2-5l-1.61-.17L30,40.18,30,37.81l-1.18-.66H30l-.34-1.84L29,34.9H31l-1.56-1.24h1.59l-1.22-1.13.82.18-.42-1.95,2.51-.16-.93-1.48H33.5l-1.08-1.27,1.08-.76-1.87-1.48,2-1.61L35,23.42l.1-1.75-.63-1.5L35.56,18l1.9-.88L36.6,16l-1.2.23c1.61-1.11,2.88-1.21,4.23-2s2.27-1.37,2.27-1.37l1.85-.74L45,11.75l-.63-.42,1.11-.77-1.35-.26,2-1.06-1.45-.82C49.74,4.86,53.8,4.8,53.8,4.8,56.4,3.05,61,2.88,61,2.88,64.17,1.5,64.14,1,67.44,1S71.33.58,74.13.58,82.32,2.47,87.35,6L87.2,4.65a8.75,8.75,0,0,1,4,4.86c1.79.2,4.51,4.75,4.51,4.75A4.14,4.14,0,0,0,94.59,11a17.25,17.25,0,0,1,2.8,4.54c0,1.66,0,4.43,1,5.22l.66-.34v2.27l1.27.19v1l.69.16-.24,2.42.74-.39-.11,2.06,1.51-.55L102,30l2.05-.39-.5,1.82,1.72,2.72c1,4.91,3,12.33,2.8,17.08s-1.63,14.72-1.63,14.72l.64,0S109,55.61,109,50.78s-3-17.15-3-17.15l-1.7-2.75.77-2.13-2,.34.76-2.32-1.82.42.11-2.32-.56.26.08-1.71-.71-.06V22l-1.35-.14-.6-3L98.43,20c-.59-1.74.26-3.27-.38-4.8s-7-8.39-5.64-6.6c1,1.34,1.42,2.08,1.42,2.08a12.61,12.61,0,0,0-2.37-1.78c-.56-2.08-4-5.5-6.74-6.48a13.68,13.68,0,0,1,1.66,2.08S80.31,0,74,0c-3.49,0-5.57.24-7.13.24s-4.7.6-6.1,2c-2.45,0-6.92,1.88-6.92,1.88C49.13,3.78,43,8.71,43,8.71l1.35.86-2.54,1,1.81.42-.58.28.38.41-2.22,0,1.44.49L39.6,13.17l.95,0a10.61,10.61,0,0,1-2.88,1.11c-1,.26-3.31,1.79-3.61,2.64l2-.19-.06.4-1,.34-1.16,2.6.56,1.62-.15,1.55-1.1.45-2.07,1.77,1.54,1.63-.9.49.57,1.07-1.27,0L31.52,30l-1.95.61L30.11,32l-1.36-.35.95,1.71-1.36-.17,1,1.12-1.66.23,1.34,1,0,1.09-1.54-.13,1.7,1.9.12,1.64L26.8,42.33l2.23.08a6.81,6.81,0,0,0-1.92,5.2,19.18,19.18,0,0,0,1,4.52l1.07.49L29,56.13l.78-.16-.26,2.65.95-.73.18,1.6.81.34.5,2.71s.69,6.37,1,7.74Z"/><path class="cls-19" d="M38.6,57c1.07-2.69.75-9.11.75-16.83,0-7.92,10-13.07,17.15-13.07a39.4,39.4,0,0,1,11.91.75s14-1.2,19.53-1.2,8.87,6.47,10.61,9.44,1.11,7.35,1.11,9.68c0,2,4.34,7.66,4.34,7.66l.61.11-2-3.08s-2.41-3-2.41-5.66.59-5.94-.87-8.39S94.38,26.81,88.6,26.06,69,27,69,27s-12.54-2-19,.55S38.68,33.52,38.68,40.64s.27,7.84,0,11.29a30.83,30.83,0,0,1-1.33,6.18h.81C38.33,57.64,38.48,57.25,38.6,57Z"/><path class="cls-15" d="M106.54,65.91l0-.16v0l0-.09-.54-2.69-.49-2.51-.55-2.75-.14-.71-.1-.51,0-1.47v-.74l0-.73h0l-.2,0h-.21l-.13,0-.06,0c-1.17-.2-2.76-.42-4.75-.6s-4.53-.31-7.43-.31C82.2,52.48,75.59,57,70.52,57c-.51,0-1,0-1.49-.06-4.42-.34-8.31-2-13.84-2-5.11,0-14.09,2.25-16.94,3l-.4.1h0l-.47.13L36.68,60,34.3,66.51l-.13.35-.63,1.72-.41,1.14-.16.43h0l-.09.23.61.08h0l.19-.34L34.35,69l.92-1.68,2.93-6.24a2.34,2.34,0,0,1,1.55,1.56c.23.79,1.78,6.22,2.37,7.88s1.15,5.63,13.74,4.28c4.2-.45,6.94-1.91,8.75-3.7l.24-.24h0c.2-.21.39-.43.57-.65s.33-.42.48-.64a9.9,9.9,0,0,0,.77-1.26h0c1.58-3,1.66-5.92,2.09-6.54.67-.91,2.19-1.17,3.57-.88a3.8,3.8,0,0,1,.51.13l.06,0c1.46.5,2,2.07,2.6,4.33a9.14,9.14,0,0,0,2.57,4.12l.36.31.38.29h0a11.39,11.39,0,0,0,4.39,1.85,25,25,0,0,0,6.63.38c.67,0,1.36-.1,2.06-.17,5.46-.58,7.71-1.66,8.95-4.09a19.45,19.45,0,0,0,1.43-5c.47-2.89.45-6.2,1.22-6.2s.94,3.76.94,3.76l.87,3.82.27,1.17.06,0h0l.1,0,.62.24h0l0,0,.05,0Zm-55.6,8c-8.75.57-9.25-8.73-9.29-10.12s-1.08-7.31,12.25-7.31l1.64,0c9.5.18,11.13,2,11.13,4.39a18.15,18.15,0,0,1-2.5,8.26c-1.51,2.75-3.65,3.83-12.81,4.73Zm34.08-3c-3.06-.31-4.39-1.18-5.58-2.73A18.8,18.8,0,0,1,75.79,61c0-.18-.07-.35-.1-.53-.2-1.31.11-2.51,2-3.59a10.68,10.68,0,0,1,1.39-.67c.5-.2,1.08-.4,1.72-.6h0l1-.27a59.91,59.91,0,0,1,6-1.18q1-.15,1.83-.24a17.75,17.75,0,0,1,7.5.43A5.28,5.28,0,0,1,101,59.46c.18,1.4,1.13,10.94-8.1,11.45A51.9,51.9,0,0,1,85,70.93Z"/></g></g></g></svg>