<svg xmlns="http://www.w3.org/2000/svg" viewBox="0 0 19.93 19.81"><defs><style>.cls-1{fill:#662fe5;}</style></defs><title>skill-backend</title><g id="Layer_2" data-name="Layer 2"><g id="Layer_1-2" data-name="Layer 1"><path class="cls-1" d="M10,0C5.17,0,0,.89,0,2.84V17c0,1.94,5.17,2.83,10,2.83s10-.89,10-2.83V2.84C19.93.89,14.77,0,10,0Zm9,17c0,.62-3.16,1.83-9,1.83S1,17.6,1,17V13.6l.19.1a4.09,4.09,0,0,0,.42.2,8.9,8.9,0,0,0,1.58.51l.74.16.42.08.46.08A34,34,0,0,0,10,15.1a33.92,33.92,0,0,0,5.15-.37l.56-.1.33-.06.74-.16c.35-.09.69-.18,1-.29L18,14a7.1,7.1,0,0,0,.91-.43Zm0-4.72c0,.55-3,1.84-9,1.84s-9-1.22-9-1.84V8.89a3.84,3.84,0,0,0,.35.18l.26.12.28.11.3.11c.31.11.64.2,1,.29l.74.16.42.08.46.08a34,34,0,0,0,5.16.37A33.92,33.92,0,0,0,15.12,10l.56-.1A1.91,1.91,0,0,0,16,9.86l.74-.16c.35-.09.69-.18,1-.29l.56-.21.28-.13.34-.18Zm0-4.71c0,.55-3,1.84-9,1.84S1,8.17,1,7.55V4.18l.15.08a3.91,3.91,0,0,0,.41.2,7.3,7.3,0,0,0,1,.35l.37.11L3.14,5a21.69,21.69,0,0,0,2.28.42L6,5.47q1.2.13,2.46.18l.63,0h1.68l.63,0c.84,0,1.67-.09,2.46-.18l.62-.07A21.69,21.69,0,0,0,16.8,5l.15,0,.82-.24L18,4.63l.41-.17a3.91,3.91,0,0,0,.41-.2l.15-.08ZM10,1c5.91,0,9,1.29,9,1.84s-3,1.84-9,1.84S1,3.46,1,2.84,4.17,1,10,1Z"/><path class="cls-1" d="M2.56,5.88a.74.74,0,1,0,.74.74A.74.74,0,0,0,2.56,5.88Z"/><circle class="cls-1" cx="2.56" cy="16.04" r="0.74"/><path class="cls-1" d="M2.56,10.59a.74.74,0,1,0,.74.74A.74.74,0,0,0,2.56,10.59Z"/></g></g></svg>