<svg xmlns="http://www.w3.org/2000/svg" viewBox="0 0 20 20"><defs><style>.cls-1{fill:#662fe5;}</style></defs><title>skill-frontend</title><g id="Layer_2" data-name="Layer 2"><g id="Layer_1-2" data-name="Layer 1"><path class="cls-1" d="M16.27,0H3.73A3.73,3.73,0,0,0,0,3.73V16.27A3.73,3.73,0,0,0,3.73,20H16.27A3.73,3.73,0,0,0,20,16.27V3.73A3.73,3.73,0,0,0,16.27,0ZM19,16.27a2.7,2.7,0,0,1-2.7,2.7H3.73A2.7,2.7,0,0,1,1,16.27V4.74H19ZM1,3.7A2.7,2.7,0,0,1,3.73,1H16.27A2.7,2.7,0,0,1,19,3.7Z"/><path class="cls-1" d="M2.61,2a.5.5,0,0,0-.5.51.5.5,0,0,0,.5.5.5.5,0,0,0,.51-.5A.51.51,0,0,0,2.61,2Z"/><path class="cls-1" d="M4.2,2a.5.5,0,0,0-.5.51.49.49,0,0,0,.5.5.5.5,0,0,0,.5-.5A.5.5,0,0,0,4.2,2Z"/><path class="cls-1" d="M5.78,2a.5.5,0,0,0-.5.51.5.5,0,0,0,.5.5.5.5,0,0,0,.51-.5A.51.51,0,0,0,5.78,2Z"/><path class="cls-1" d="M6.79,14.77a.53.53,0,0,0,.37.15.51.51,0,0,0,.36-.15.52.52,0,0,0,0-.73L5.16,11.68l2.31-2.3a.54.54,0,0,0,0-.73.51.51,0,0,0-.74,0L4.06,11.31a.52.52,0,0,0,0,.73Z"/><path class="cls-1" d="M12.48,14.77a.53.53,0,0,0,.36.15.51.51,0,0,0,.37-.15L15.94,12a.52.52,0,0,0,0-.73L13.27,8.65a.49.49,0,0,0-.72,0,.5.5,0,0,0,0,.73l2.3,2.3L12.48,14A.52.52,0,0,0,12.48,14.77Z"/><path class="cls-1" d="M8.45,15.73l.18,0a.52.52,0,0,0,.48-.33l2.75-7.07a.51.51,0,0,0-.3-.67.52.52,0,0,0-.66.3L8.15,15.06A.51.51,0,0,0,8.45,15.73Z"/></g></g></svg>