<svg xmlns="http://www.w3.org/2000/svg" viewBox="0 0 20 20"><defs><style>.cls-1{fill:#662fe5;}</style></defs><title>skill-design</title><g id="Layer_2" data-name="Layer 2"><g id="Layer_1-2" data-name="Layer 1"><path class="cls-1" d="M12.33,9.84l2.06-2.07,1,1L20,4.14l-1-1A1.68,1.68,0,0,0,18.87.89L18.76.78a1.67,1.67,0,0,0-2.36,0l-5,5L9.85,7.35,2.9.39A1.3,1.3,0,0,0,1,.39L.42,1a1.32,1.32,0,0,0,0,1.86l6.94,7L.5,16.73.78,17l-.7.69.61.61L0,19l.7.7L1.39,19l.6.6.69-.7.29.29,6.87-6.89L16.3,18.8,20,20l-1.18-3.69Zm-2.14,1.43-.34-.34L8.76,9.84l-.35-.35-.35-.35L2.6,3.66,3.68,2.57,9.15,8.05l.34.35.36.35,1.08,1.09.34.35.35.34,6,6-1.09,1.09-6-6.05ZM3.08,17.71l-.29-.28-.69.69-.52-.51.7-.7L2,16.62l6.07-6.08,1.09,1.09Zm-2-16,.62-.62a.32.32,0,0,1,.46,0L3,1.88,1.91,3l-.79-.79A.32.32,0,0,1,1.12,1.71ZM10.62,8l.69-.69L12.4,8.36l-.69.69-.08.09L10.54,8.05Zm7.45-6.48.1.11a.69.69,0,0,1,0,1l-4.48,4.5-.49.49L12.12,6.47l5-5A.73.73,0,0,1,18.07,1.48ZM15,7.17,18.4,3.74l.31.29L15.28,7.47ZM18.12,17.5l.31,1-.95-.32Z"/></g></g></svg>