<svg xmlns="http://www.w3.org/2000/svg" viewBox="0 0 180.55 21.68"><defs><style>.cls-1{fill:#565656;}.cls-2{isolation:isolate;}</style></defs><title>company-piedmont</title><g id="Layer_2" data-name="Layer 2"><g id="Layer_1-2" data-name="Layer 1"><g id="Group_33" data-name="Group 33"><g id="Group_32" data-name="Group 32"><path id="Path_145" data-name="Path 145" class="cls-1" d="M0,15.55H4.09V17.5h9.45v4.16H12.9c-2.92,0-5.84,0-8.75,0A3.9,3.9,0,0,1,0,17.56C.07,16.92,0,16.26,0,15.55Z"/><path id="Path_146" data-name="Path 146" class="cls-1" d="M15.61,17.51h2V8.09H21.7V17.7a3.8,3.8,0,0,1-3.65,3.95c-.79.06-1.6,0-2.44,0Z"/><path id="Path_149" data-name="Path 149" class="cls-1" d="M21.7,6.07c-.22,0-.4,0-.58,0h-3.5V4.05H8.18V0c.14,0,.32,0,.49,0H18A3.77,3.77,0,0,1,21.7,3.71C21.71,4.49,21.7,5.26,21.7,6.07Z"/><path id="Path_150" data-name="Path 150" class="cls-1" d="M6.09,0V4h-2v9.48H.05c0-.15,0-.33,0-.51Q0,8.4,0,3.77A3.76,3.76,0,0,1,3.76,0H6.09Z"/><path id="Path_141" data-name="Path 141" class="cls-1" d="M77.82,7a6.09,6.09,0,0,1,5-1,1.35,1.35,0,0,1,.61.24c.67.71,1.32.5,2.09.12a6.81,6.81,0,0,1,3.88-.49c1.88.23,3.1,1.6,3.17,3.84.11,3.27.06,6.55,0,9.83,0,.23-.39.6-.64.64a11.78,11.78,0,0,1-2,0c-.57,0-.71-.36-.71-.88,0-2.76,0-5.52,0-8.27,0-2.15-.72-2.7-2.83-2.22-1.21.27-1.19.3-1.18,1.55,0,3,0,6,0,9,0,.55-.24.82-.79.82s-1.16,0-1.73,0-.87-.28-.86-.9c0-2.57,0-5.13,0-7.69,0-.47,0-.94,0-1.4C81.8,9,81.16,8.5,80,8.75a5.92,5.92,0,0,0-1.68.65,1.1,1.1,0,0,0-.33.82c0,3,0,6,0,9,0,.75-.25,1-1,1-2.82-.05-2.32.27-2.34-2.3,0-3.67,0-7.33,0-11,0-.71.2-1,.94-1a7.27,7.27,0,0,0,1.32,0C77.46,6,77.9,6.09,77.82,7Z"/><path id="Path_142" data-name="Path 142" class="cls-1" d="M69.47,5.88c0-1.29,0-2.61,0-3.93,0-.64.21-.92.87-.87s1.21,0,1.81,0,.71.21.72.68,0,.77,0,1.15c0,5.18,0,10.36,0,15.54,0,.81-.19,1.31-1.08,1.4a47.16,47.16,0,0,1-5.4.51c-3.06-.09-4.87-1.82-5.21-4.91a22.8,22.8,0,0,1,.06-5.09,5,5,0,0,1,4.93-4.47C67.25,5.83,68.33,5.88,69.47,5.88Zm0,2.84c-.81,0-1.6-.1-2.39-.1a2.24,2.24,0,0,0-2.5,2.19,32.24,32.24,0,0,0,0,4.61,2,2,0,0,0,1.66,2.09,23.22,23.22,0,0,0,3.23,0Z"/><path id="Path_143" data-name="Path 143" class="cls-1" d="M32,13.15c0,2.11,0,4.12,0,6.12,0,.71-.24,1-1,1a15.14,15.14,0,0,0-1.65,0c-.71,0-.95-.26-.95-1,0-4.81,0-9.63,0-14.45,0-.74,0-1.48,0-2.22,0-.53.16-.86.7-.93a22.4,22.4,0,0,1,8,0c3,.73,4.49,2.86,4.27,6s-2.16,5.15-5.51,5.44C34.65,13.25,33.35,13.15,32,13.15Zm0-2.74c1.35-.09,2.62-.07,3.85-.26a2.4,2.4,0,0,0,2.06-2.67c.05-1.72-.47-2.72-1.85-3A36.79,36.79,0,0,0,32,4.2Z"/><path id="Path_144" data-name="Path 144" class="cls-1" d="M51.2,14.29c-.09,2,1,3.2,2.89,3.18,1.48,0,3-.1,4.45-.2.57,0,.8.11.78.71-.06,2.24.34,1.92-1.86,2.2a19.38,19.38,0,0,1-4.69.1,5.22,5.22,0,0,1-4.88-5A20.35,20.35,0,0,1,48,10.37a5.2,5.2,0,0,1,5.06-4.49c4.22-.29,6.79,2.11,6.79,6.37,0,2.39.23,2-2,2S53.45,14.29,51.2,14.29Zm5.19-2.47a2.65,2.65,0,0,0-2.55-3.1,2.69,2.69,0,0,0-2.61,3.1Z"/><path id="Path_147" data-name="Path 147" class="cls-1" d="M111.22,7a7,7,0,0,1,4-1.17c2.7,0,4.21,1.31,4.33,4,.13,3.19.08,6.39.11,9.58,0,.54-.25.82-.8.81s-1.1,0-1.65,0c-.72,0-1-.3-1-1,0-2.75,0-5.51,0-8.26,0-2-.82-2.63-2.76-2.23l-.24.07c-1.89.47-1.93.52-1.93,2.45,0,2.67,0,5.34,0,8,0,.74-.27,1-1,1-2.87,0-2.36.27-2.38-2.35,0-3.63,0-7.27,0-10.9,0-.76.21-1.07,1-1a6.42,6.42,0,0,0,1.24,0C110.84,6,111.34,6.05,111.22,7Z"/><path id="Path_148" data-name="Path 148" class="cls-1" d="M106.39,13.29a20.72,20.72,0,0,1-.28,2.72c-.69,3.11-3.44,4.85-6.76,4.35a5.58,5.58,0,0,1-5.06-5.89,24.67,24.67,0,0,1,.17-4c.49-3,2.75-4.64,6.08-4.59a5.43,5.43,0,0,1,5.65,4.82C106.31,11.48,106.32,12.31,106.39,13.29ZM103,13.18a18.38,18.38,0,0,0-.28-2.45,2.42,2.42,0,0,0-2.47-2,2.38,2.38,0,0,0-2.48,2.09,22.09,22.09,0,0,0,0,4.67,2.25,2.25,0,0,0,2.35,2,2.28,2.28,0,0,0,2.55-1.85A16.76,16.76,0,0,0,103,13.18Z"/><path id="Path_151" data-name="Path 151" class="cls-1" d="M122.64,6c0-.65,0-1.2,0-1.74a.72.72,0,0,1,.55-.86l.18,0c.65-.08,1.3-.22,2-.32.48-.08.73.08.7.62,0,.74,0,1.48,0,2.32.64,0,1.24,0,1.83,0s.95.17.94.88c0,1.92.1,1.62-1.65,1.64H126c0,2.89,0,5.72,0,8.54,0,.24.44.5.7.7.09.07.27,0,.41,0,1.92,0,1.66-.4,1.64,1.82a.86.86,0,0,1-.55.62,18.07,18.07,0,0,1-3.12.06,2.38,2.38,0,0,1-2.42-2.53c-.11-1.92-.07-3.85-.09-5.78,0-1.12,0-2.25,0-3.42-.74-.12-1.44-.26-2.15-.34-1.08-.12-.68-.94-.73-1.52s.37-.7.86-.69S121.88,6,122.64,6Z"/><path id="Path_152" data-name="Path 152" class="cls-1" d="M42.85,13.16c0-2.09,0-4.18,0-6.27,0-.63.19-.93.85-.88a11.36,11.36,0,0,0,1.65,0c.65,0,.86.2.86.85,0,2.7,0,5.39,0,8.09,0,1.48,0,3,0,4.46,0,.6-.23.86-.83.84s-1.1,0-1.65,0-.89-.24-.88-.89C42.87,17.29,42.85,15.23,42.85,13.16Z"/><path id="Path_153" data-name="Path 153" class="cls-1" d="M44.55.92c1.9,0,1.75-.21,1.75,1.78a2.21,2.21,0,0,1,0,.81c-.12.27-.39.63-.63.66a18.92,18.92,0,0,1-2.13,0,.68.68,0,0,1-.75-.77c0-.25,0-.5,0-.75C42.75.67,42.7.93,44.55.92Z"/></g><g id="PHYSICIANS"><g class="cls-2"><path class="cls-1" d="M134.64,20v-5.7H137a1.57,1.57,0,0,1,.68.15,1.93,1.93,0,0,1,.53.41,1.8,1.8,0,0,1,.35.58,1.64,1.64,0,0,1,.13.65,2,2,0,0,1-.12.68,1.73,1.73,0,0,1-.34.57,1.48,1.48,0,0,1-.52.4,1.35,1.35,0,0,1-.67.16h-1.84V20Zm.57-2.6H137a.94.94,0,0,0,.45-.11,1,1,0,0,0,.35-.29,1.42,1.42,0,0,0,.23-.42,1.62,1.62,0,0,0,.08-.49,1.35,1.35,0,0,0-.09-.5,1.73,1.73,0,0,0-.25-.42,1.07,1.07,0,0,0-.37-.27,1,1,0,0,0-.45-.11h-1.77Z"/><path class="cls-1" d="M144.14,14.31V20h-.55V17.34H140.2V20h-.56v-5.7h.56v2.54h3.39V14.31Z"/><path class="cls-1" d="M145.6,14.31l1.87,3.07,1.88-3.07H150l-2.21,3.58V20h-.56V17.87L145,14.31Z"/><path class="cls-1" d="M154,15.38a1.71,1.71,0,0,0-.64-.45,2.4,2.4,0,0,0-.92-.17,1.72,1.72,0,0,0-1.1.29,1,1,0,0,0-.34.78.87.87,0,0,0,.09.42.78.78,0,0,0,.29.28,1.89,1.89,0,0,0,.49.21l.71.18a5.09,5.09,0,0,1,.82.22,2.31,2.31,0,0,1,.63.3,1.23,1.23,0,0,1,.39.43,1.42,1.42,0,0,1,.14.65,1.45,1.45,0,0,1-.15.68,1.52,1.52,0,0,1-.43.48,1.84,1.84,0,0,1-.65.29,3.58,3.58,0,0,1-.83.09,3.41,3.41,0,0,1-2.29-.83l.28-.46a2.44,2.44,0,0,0,.84.56,3.06,3.06,0,0,0,.56.17,3.21,3.21,0,0,0,.63.06,2,2,0,0,0,1.06-.24.83.83,0,0,0,.38-.75.78.78,0,0,0-.11-.44,1,1,0,0,0-.32-.32,2.74,2.74,0,0,0-.54-.23l-.75-.19a7,7,0,0,1-.78-.22,1.69,1.69,0,0,1-.57-.28,1,1,0,0,1-.35-.4,1.28,1.28,0,0,1-.12-.58,1.61,1.61,0,0,1,.15-.71,1.39,1.39,0,0,1,.42-.51,2.13,2.13,0,0,1,.64-.32,3,3,0,0,1,.82-.1,2.73,2.73,0,0,1,1,.17,2.89,2.89,0,0,1,.81.48Z"/><path class="cls-1" d="M155.53,20v-5.7h.56V20Z"/><path class="cls-1" d="M157.14,17.12a3.1,3.1,0,0,1,.18-1,2.86,2.86,0,0,1,.53-.91,2.64,2.64,0,0,1,.85-.65,2.53,2.53,0,0,1,1.15-.26,2.36,2.36,0,0,1,1.3.35,2,2,0,0,1,.8.9l-.44.27a1.8,1.8,0,0,0-.33-.47,1.75,1.75,0,0,0-.42-.31,1.69,1.69,0,0,0-.47-.18,2.59,2.59,0,0,0-.47-.05,1.88,1.88,0,0,0-.91.21,2.07,2.07,0,0,0-.66.55,2.23,2.23,0,0,0-.41.76,2.75,2.75,0,0,0-.14.85,2.53,2.53,0,0,0,.17.91,2.69,2.69,0,0,0,.45.77,2.16,2.16,0,0,0,.67.53,1.89,1.89,0,0,0,.85.19,2.2,2.2,0,0,0,.5-.06,2,2,0,0,0,.49-.19,2.24,2.24,0,0,0,.43-.33,1.54,1.54,0,0,0,.34-.48l.47.24a1.61,1.61,0,0,1-.39.57,2.71,2.71,0,0,1-.55.41,2.6,2.6,0,0,1-.65.26,2.63,2.63,0,0,1-.67.09,2.33,2.33,0,0,1-1.08-.26,2.73,2.73,0,0,1-.84-.67,3,3,0,0,1-.55-.94A3.07,3.07,0,0,1,157.14,17.12Z"/><path class="cls-1" d="M163,20v-5.7h.56V20Z"/><path class="cls-1" d="M166.79,14.31h.47l2.37,5.7H169l-.74-1.78h-2.56L165,20h-.61Zm1.38,3.48L167,15l-1.16,2.82Z"/><path class="cls-1" d="M171,15.35V20h-.57v-5.7h.44l3.77,4.74V14.31h.57V20h-.49Z"/><path class="cls-1" d="M180,15.38a1.71,1.71,0,0,0-.64-.45,2.4,2.4,0,0,0-.92-.17,1.72,1.72,0,0,0-1.1.29,1,1,0,0,0-.34.78.87.87,0,0,0,.09.42.83.83,0,0,0,.28.28,2.15,2.15,0,0,0,.5.21l.71.18a5.09,5.09,0,0,1,.82.22,2.46,2.46,0,0,1,.63.3,1.23,1.23,0,0,1,.39.43,1.42,1.42,0,0,1,.14.65,1.34,1.34,0,0,1-.16.68,1.38,1.38,0,0,1-.42.48,1.84,1.84,0,0,1-.65.29,3.58,3.58,0,0,1-.83.09,3.41,3.41,0,0,1-2.29-.83l.28-.46a2,2,0,0,0,.37.31,2.34,2.34,0,0,0,.47.25,3.06,3.06,0,0,0,.56.17,3.21,3.21,0,0,0,.63.06,2,2,0,0,0,1.06-.24.85.85,0,0,0,.38-.75.78.78,0,0,0-.11-.44,1,1,0,0,0-.32-.32,2.74,2.74,0,0,0-.54-.23l-.75-.19a7.87,7.87,0,0,1-.79-.22,1.9,1.9,0,0,1-.57-.28,1,1,0,0,1-.34-.4,1.28,1.28,0,0,1-.12-.58,1.61,1.61,0,0,1,.15-.71,1.39,1.39,0,0,1,.42-.51,2.13,2.13,0,0,1,.64-.32,3,3,0,0,1,.82-.1,2.73,2.73,0,0,1,1,.17,3,3,0,0,1,.81.48Z"/></g></g></g></g></g></svg>