<svg xmlns="http://www.w3.org/2000/svg" width="59.52" height="59.104" viewBox="0 0 59.52 59.104">
  <g id="Group_9" data-name="Group 9" transform="translate(-17.604 -54.122)">
    <g id="Group_6" data-name="Group 6" transform="translate(17.604 54.122)">
      <g id="Group_3" data-name="Group 3" transform="translate(28.24 0)">
        <path id="Rectangle_8" data-name="Rectangle 8" d="M1.2,0H6.416a1.2,1.2,0,0,1,1.2,1.2V32.728a0,0,0,0,1,0,0H0a0,0,0,0,1,0,0V1.2A1.2,1.2,0,0,1,1.2,0Z" transform="translate(24.6 0) rotate(45)" fill="#fff"/>
        <path id="Path_82" data-name="Path 82" d="M38.138,84.092l-6.844-6.844L53.411,55.131a3.6,3.6,0,0,1,4.965,0l1.879,1.879a3.513,3.513,0,0,1,0,4.965Zm-3.928-6.844,3.928,3.928L58.8,60.517a1.449,1.449,0,0,0,0-2.048l-1.879-1.879a1.484,1.484,0,0,0-2.048,0Z" transform="translate(-31.294 -54.107)"/>
      </g>
      <g id="Group_4" data-name="Group 4" transform="translate(0.594 21.687)">
        <path id="Path_83" data-name="Path 83" d="M51.622,70.724,24.943,97.4l-.861-.861L22.26,98.365,18.6,94.7l1.823-1.823-.861-.861L46.239,65.342Z" transform="translate(-17.141 -63.884)" fill="#fff"/>
        <path id="Path_84" data-name="Path 84" d="M23.01,100.575l-5.118-5.12,1.821-1.824-.86-.86L46.99,64.635l6.84,6.84L25.694,99.614l-.86-.862Zm-2.2-5.12,2.2,2.2,1.824-1.826.86.862,25.22-25.22L46.99,67.552,21.77,92.772l.86.86Z" transform="translate(-17.892 -64.635)"/>
      </g>
      <g id="Group_5" data-name="Group 5" transform="translate(39.363 7.111)">
        <rect id="Rectangle_9" data-name="Rectangle 9" width="4.271" height="20.112" transform="translate(15.679 1.459) rotate(45)" fill="#fff"/>
        <path id="Path_85" data-name="Path 85" d="M41.162,77.729l-4.476-4.478L52.365,57.569l4.478,4.478ZM39.6,73.251l1.559,1.562L53.927,62.047l-1.562-1.562Z" transform="translate(-36.686 -57.569)"/>
      </g>
      <rect id="Rectangle_10" data-name="Rectangle 10" width="4.463" height="2.063" transform="translate(0 56.767) rotate(-45)"/>
    </g>
    <g id="Group_8" data-name="Group 8" transform="translate(17.738 54.15)">
      <g id="Group_7" data-name="Group 7">
        <path id="Path_86" data-name="Path 86" d="M24.274,55.34l47.771,47.771,2.581,7.979-7.962-2.6L18.892,60.722a2.481,2.481,0,0,1,0-3.5l1.881-1.881A2.485,2.485,0,0,1,24.274,55.34Z" transform="translate(-17.137 -53.621)" fill="#fff"/>
        <path id="Path_87" data-name="Path 87" d="M76.762,113.212l-10.122-3.3-.175-.175L18.7,61.967a3.506,3.506,0,0,1,0-4.959l1.881-1.881a3.593,3.593,0,0,1,4.957,0L73.48,103.071ZM67.75,108.1l5.8,1.892-1.883-5.815-47.6-47.6a1.484,1.484,0,0,0-2.04,0l-1.881,1.881a1.445,1.445,0,0,0,0,2.042Z" transform="translate(-17.669 -54.135)"/>
      </g>
      <rect id="Rectangle_11" data-name="Rectangle 11" width="7.612" height="2.063" transform="translate(48.796 54.144) rotate(-45)"/>
      <rect id="Rectangle_12" data-name="Rectangle 12" width="7.611" height="2.063" transform="translate(4.448 9.794) rotate(-45)"/>
    </g>
  </g>
</svg>
