<svg xmlns="http://www.w3.org/2000/svg" viewBox="0 0 381.08 185.22"><defs><style>.cls-1,.cls-3,.cls-6{fill:none;}.cls-1,.cls-2,.cls-3,.cls-5,.cls-6{stroke:#1e8fff;stroke-width:2px;}.cls-1,.cls-2,.cls-3,.cls-5{stroke-miterlimit:10;}.cls-2,.cls-5{fill:#fff;}.cls-3,.cls-5,.cls-6{stroke-linecap:round;}.cls-4{fill:#1e8fff;}.cls-6{stroke-linejoin:round;}</style></defs><title>hero-bottom</title><g id="Layer_2" data-name="Layer 2"><g id="Layer_1-2" data-name="Layer 1"><path class="cls-1" d="M146.58,175h54.71a4.31,4.31,0,0,1,4.31,4.31v4.91a0,0,0,0,1,0,0H142.26a0,0,0,0,1,0,0v-4.91A4.31,4.31,0,0,1,146.58,175Z"/><polygon class="cls-1" points="187.7 175 160.17 175 163.98 142.55 184.59 142.55 187.7 175"/><path class="cls-1" d="M263.6,40.11v96c0,3.5-2.45,6.33-5.48,6.33H89.74c-3,0-5.48-2.83-5.48-6.33v-96c0-3.49,2.46-6.33,5.48-6.33H258.12C261.15,33.78,263.6,36.62,263.6,40.11Z"/><path class="cls-1" d="M92.91,124.8V45.86a2,2,0,0,1,1.93-2.08H253A2,2,0,0,1,255,45.86V124.8a2,2,0,0,1-1.92,2.09H94.84A2,2,0,0,1,92.91,124.8Z"/><circle class="cls-1" cx="173.93" cy="134.44" r="3.06"/><rect class="cls-2" x="110.54" y="7.75" width="92.83" height="79.33" rx="3" transform="translate(109.54 204.37) rotate(-90)"/><line class="cls-1" x1="117.24" y1="13.83" x2="196.58" y2="13.83"/><path class="cls-3" d="M135.92,25.83H123.73"/><path class="cls-3" d="M157.17,26.05q-7.81-.06-15.61-.22"/><path class="cls-3" d="M168.79,26.08h-5.5"/><path class="cls-3" d="M181.16,26l-6.19.07"/><path class="cls-3" d="M132.51,32.28h-8.78"/><path class="cls-3" d="M154.14,32.21q-8,0-15.93.07"/><path class="cls-3" d="M165.87,32.19h-5.53"/><path class="cls-3" d="M183.86,32.24l-11.07,0"/><path class="cls-3" d="M133.77,38.72h-10"/><path class="cls-3" d="M144.82,38.85l-5.42-.13"/><path class="cls-3" d="M155,39l-4.07,0"/><path class="cls-3" d="M174.85,39q-6.93.07-13.87,0"/><path class="cls-3" d="M142.94,45.17H123.73"/><path class="cls-3" d="M161.93,45.17H148.87"/><path class="cls-3" d="M177.06,45.17H166.74"/><path class="cls-3" d="M132,51.45c-2.74,0-5.49.1-8.23.16"/><path class="cls-3" d="M141.57,51.32l-3.43,0"/><path class="cls-3" d="M155.3,51.28h-7.55"/><path class="cls-3" d="M181.31,51.61q-9.63-.22-19.26-.3"/><path class="cls-3" d="M127.83,58.08l-4.1,0"/><path class="cls-3" d="M149.37,58.14l-16.07,0"/><path class="cls-3" d="M168.24,58.11l-12.58,0"/><path class="cls-3" d="M180.81,58.06l-7,0"/><path class="cls-3" d="M127.46,64.5h-3.73"/><path class="cls-3" d="M157.5,64.25q-8.33,0-16.65.13"/><path class="cls-3" d="M190.09,64.5q-12.83-.23-25.66-.25"/><path class="cls-3" d="M131.79,70.94h-8.06"/><path class="cls-3" d="M163.72,71.11q-12.9,0-25.8-.17"/><circle class="cls-4" cx="123.73" cy="7.39" r="1.44"/><circle class="cls-4" cx="128.51" cy="7.39" r="1.44"/><circle class="cls-4" cx="133.29" cy="7.39" r="1.44"/><circle class="cls-3" cx="312.08" cy="39.73" r="28.83"/><path class="cls-1" d="M304.94,56.08a14.33,14.33,0,0,1,0-28.65c.46,0,.93,0,1.4.07a16.35,16.35,0,1,1,10.85,28.58Z"/><path class="cls-3" d="M314.1,40.11l-5-4.33a7.89,7.89,0,1,0-4.9,14.06h3"/><path class="cls-3" d="M309.93,31.87a10.5,10.5,0,1,1-.81,14.92c-.22-.25-.44-.5-.68-.74L304.37,42"/><rect class="cls-2" x="64.33" y="120.46" width="34.79" height="63.76" rx="5.73"/><rect class="cls-2" x="58.64" y="135.37" width="46.17" height="25.58" rx="0.73" transform="translate(229.88 66.44) rotate(90)"/><circle class="cls-4" cx="81.72" cy="177.71" r="2.08"/><circle class="cls-4" cx="76.73" cy="144.16" r="2.94"/><line class="cls-3" x1="74.69" y1="138.58" x2="88.76" y2="138.58"/><line class="cls-3" x1="82.64" y1="142.44" x2="88.76" y2="142.44"/><line class="cls-3" x1="82.64" y1="146.09" x2="88.76" y2="146.09"/><path class="cls-3" d="M226.68,174.13h115.1a1.19,1.19,0,0,1,1.19,1.19v4.52a4.39,4.39,0,0,1-4.39,4.39H229.88a4.39,4.39,0,0,1-4.39-4.39v-4.52a1.19,1.19,0,0,1,1.19-1.19Z"/><path class="cls-5" d="M235.67,106.76h97.11a5.57,5.57,0,0,1,5.57,5.57v61.8a0,0,0,0,1,0,0H230.1a0,0,0,0,1,0,0v-61.8A5.57,5.57,0,0,1,235.67,106.76Z"/><rect class="cls-3" x="237.24" y="113.67" width="93.98" height="53.55" rx="1.33"/><line class="cls-3" x1="237.24" y1="122.07" x2="331.22" y2="122.07"/><path class="cls-3" d="M268.07,174.13h32.32a0,0,0,0,1,0,0v0a4.95,4.95,0,0,1-4.95,4.95H273a4.95,4.95,0,0,1-4.95-4.95v0a0,0,0,0,1,0,0Z"/><path class="cls-3" d="M256.22,128.85H244"/><path class="cls-3" d="M277.47,129.07q-7.82-.06-15.61-.22"/><path class="cls-3" d="M252.81,135.3H244"/><path class="cls-3" d="M274.44,135.23q-8,0-15.93.07"/><path class="cls-3" d="M286.18,135.21h-5.54"/><path class="cls-3" d="M254.07,141.74H244"/><path class="cls-3" d="M265.12,141.87l-5.42-.13"/><path class="cls-3" d="M275.28,142l-4.07-.06"/><path class="cls-3" d="M263.25,148.19H244"/><path class="cls-3" d="M282.23,148.19H269.17"/><path class="cls-3" d="M252.27,154.47c-2.75,0-5.49.1-8.24.16"/><path class="cls-3" d="M261.87,154.34l-3.43,0"/><path class="cls-3" d="M275.6,154.3c-2.52,0-5,0-7.55,0"/><circle class="cls-3" cx="307.44" cy="142" r="13.15"/><line class="cls-3" x1="320.58" y1="154.93" x2="320.58" y2="129.07"/><circle class="cls-4" cx="320.58" cy="129.07" r="2.11"/><circle class="cls-4" cx="320.58" cy="155.15" r="2.11"/><rect class="cls-2" x="318.69" y="139.85" width="3.78" height="3.78"/><rect class="cls-2" x="305.55" y="126.96" width="3.78" height="3.78"/><rect class="cls-2" x="305.55" y="153.26" width="3.78" height="3.78"/><rect class="cls-2" x="292.4" y="139.85" width="3.78" height="3.78"/><circle class="cls-3" cx="29.83" cy="71.11" r="28.83"/><polyline class="cls-6" points="19.68 61.69 10.37 71 19.9 80.53"/><polyline class="cls-6" points="39.98 61.69 49.3 71 39.77 80.53"/><line class="cls-6" x1="25.04" y1="83.46" x2="34.64" y2="58.76"/><path class="cls-2" d="M363.89,173.65h10.9a5.29,5.29,0,0,1,5.29,5.29v3.61a1.68,1.68,0,0,1-1.68,1.68H360.29a1.68,1.68,0,0,1-1.68-1.68v-3.61a5.29,5.29,0,0,1,5.29-5.29Z"/><line class="cls-3" x1="369.34" y1="173.65" x2="369.34" y2="177.69"/></g></g></svg>