<svg xmlns="http://www.w3.org/2000/svg" viewBox="0 0 56 39.59"><defs><style>.cls-1{fill:#1e90ff;}</style></defs><g id="Layer_2" data-name="Layer 2"><g id="Layer_1-2" data-name="Layer 1"><path class="cls-1" d="M26.31,27.74a11.7,11.7,0,0,1-3.26,8.46,11.2,11.2,0,0,1-8.46,3.39A13.27,13.27,0,0,1,4.1,34.84,16.89,16.89,0,0,1,0,23.44,22.18,22.18,0,0,1,7.16,6.9,24.07,24.07,0,0,1,24.49,0l.26,2A17.44,17.44,0,0,0,13.28,6.34q-5.2,4.39-5.2,10.07a4.47,4.47,0,0,0,.32,1.95,1,1,0,0,0,1,.65,8,8,0,0,0,2.8-.84,8,8,0,0,1,3.19-.85A11.22,11.22,0,0,1,23,20.25,9.55,9.55,0,0,1,26.31,27.74Zm29.69,0a11.74,11.74,0,0,1-3.25,8.46,11.24,11.24,0,0,1-8.47,3.39A13.23,13.23,0,0,1,33.8,34.84a16.84,16.84,0,0,1-4.1-11.4A22.17,22.17,0,0,1,36.85,6.9,24.07,24.07,0,0,1,54.18,0l.26,2A17.4,17.4,0,0,0,43,6.34q-5.22,4.39-5.21,10.07a4.62,4.62,0,0,0,.32,1.95,1,1,0,0,0,1,.65,7.89,7.89,0,0,0,2.8-.84,8,8,0,0,1,3.19-.85,11.2,11.2,0,0,1,7.62,2.93A9.55,9.55,0,0,1,56,27.74Z"/></g></g></svg>